<?xml version="1.0" encoding="UTF-8" standalone="no"?>
<!-- Created with Inkscape (http://www.inkscape.org/) -->

<svg
   width="20mm"
   height="35mm"
   viewBox="0 0 20.000001 35"
   version="1.1"
   id="svg1"
   xml:space="preserve"
   inkscape:version="1.3.2 (091e20e, 2023-11-25, custom)"
   sodipodi:docname="SegDisplays.svg"
   xmlns:inkscape="http://www.inkscape.org/namespaces/inkscape"
   xmlns:sodipodi="http://sodipodi.sourceforge.net/DTD/sodipodi-0.dtd"
   xmlns:xlink="http://www.w3.org/1999/xlink"
   xmlns="http://www.w3.org/2000/svg"
   xmlns:svg="http://www.w3.org/2000/svg"><sodipodi:namedview
     id="namedview1"
     pagecolor="#505050"
     bordercolor="#ffffff"
     borderopacity="1"
     inkscape:showpageshadow="0"
     inkscape:pageopacity="0"
     inkscape:pagecheckerboard="1"
     inkscape:deskcolor="#505050"
     inkscape:document-units="mm"
     inkscape:zoom="6.1968783"
     inkscape:cx="30.25717"
     inkscape:cy="34.936946"
     inkscape:window-width="1664"
     inkscape:window-height="1011"
     inkscape:window-x="0"
     inkscape:window-y="0"
     inkscape:window-maximized="0"
     inkscape:current-layer="Segments" /><defs
     id="defs1" /><g
     inkscape:groupmode="layer"
     id="layer3"
     inkscape:label="Unselected"
     style="display:none"><g
       id="g57"
       inkscape:label="7seg-dc"
       style="display:inline"><circle
         style="font-variation-settings:normal;display:inline;opacity:1;vector-effect:none;fill:none;fill-opacity:1;stroke:#000000;stroke-width:0.264583px;stroke-linecap:butt;stroke-linejoin:miter;stroke-miterlimit:4;stroke-dasharray:none;stroke-dashoffset:0;stroke-opacity:1;-inkscape-stroke:none;paint-order:markers stroke fill;stop-color:#000000;stop-opacity:1"
         id="path50"
         cx="16.631651"
         cy="27.267811"
         r="1.6948497" /><path
         style="display:inline;fill:none;stroke:#000000;stroke-width:0.264583;stroke-linecap:butt;stroke-linejoin:miter;stroke-opacity:1"
         d="m 2.05595,13.1064 0.33897,-0.1883 0.67794,1.0546 -1.1299,6.7794 -0.94158,0.8662 -0.489627,-0.4896 z"
         id="path53" /><path
         style="display:inline;fill:none;stroke:#000000;stroke-width:0.264583;stroke-linecap:butt;stroke-linejoin:miter;stroke-opacity:1"
         d="m 5.14434,1.95806 0.30131,-0.37664 8.36125,-0.0753 0.452,0.45196 -0.7533,0.79093 -7.30668,0.0753 z"
         id="path54" /><path
         style="display:inline;fill:none;stroke:#000000;stroke-width:0.264583;stroke-linecap:butt;stroke-linejoin:miter;stroke-opacity:1"
         d="M 3.93912,2.82431 4.95603,3.84122 3.67547,10.3193 2.47025,11.4869 2.24427,11.1856 3.52482,3.3516 Z"
         id="path55" /><path
         style="display:inline;fill:none;stroke:#000000;stroke-width:0.264583;stroke-linecap:butt;stroke-linejoin:miter;stroke-opacity:1"
         d="m 14.1082,3.87889 1.0169,-1.1299 0.3767,0.67793 -1.6196,8.02228 -0.3013,0.339 -0.7909,-0.9039 z"
         id="path56" /><path
         style="display:inline;fill:none;stroke:#000000;stroke-width:0.264583;stroke-linecap:butt;stroke-linejoin:miter;stroke-opacity:1"
         d="m 14.1082,33.7459 c 1.2806,-1.0494 2.6364,-2.4326 3.917,-3.8793 -1.2434,0.262 -2.0933,0.2703 -2.7871,-0.2637 l -0.7909,0.4143 c -0.06,1.2959 -0.1786,2.5332 -0.339,3.7287 z"
         id="path57" /><path
         style="fill:none;stroke:#000000;stroke-width:0.264583;stroke-linecap:butt;stroke-linejoin:miter;stroke-opacity:1"
         d="m 1.47161,22.5785 0.29296,0.3729 8.89513,-0.0533 0.3728,-0.4527 -0.799,-0.9055 H 2.77658 Z"
         id="path49" /><path
         style="fill:none;stroke:#000000;stroke-width:0.264583;stroke-linecap:butt;stroke-linejoin:miter;stroke-opacity:1"
         d="m 3.7131,12.1652 1.20523,-0.6403 h 6.28977 l 0.9416,0.6403 -0.7909,0.6779 H 4.39104 Z"
         id="path51" /><path
         style="fill:none;stroke:#000000;stroke-width:0.264583;stroke-linecap:butt;stroke-linejoin:miter;stroke-opacity:1"
         d="m 12.3003,13.6717 0.9416,-0.7909 0.4143,0.5649 -1.3559,7.721 -0.6402,0.6026 -0.6026,-1.2052 z"
         id="path52" /></g><image
       width="303.17843"
       height="271.20258"
       preserveAspectRatio="none"
       xlink:href="..%5C..%5C..%5C..%5CPinball%20Tables%5CAlphaSeg%5Cimages%5CBally-11x7SegDC.jpg"
       id="image1-4"
       x="-43.896534"
       y="94.369606"
       style="display:none;stroke-width:1.11705"
       inkscape:label="Bally"
       transform="translate(-148.19431,-114.13922)" /></g><g
     inkscape:label="Reference"
     inkscape:groupmode="layer"
     id="layer1"
     transform="translate(-148.19431,-114.13922)"
     style="display:none"><image
       width="21.682743"
       height="33.358066"
       preserveAspectRatio="xMidYMid"
       xlink:href="..%5C..%5C..%5C..%5CPinball%20Tables%5CAlphaSeg%5Cimages%5CWPC-2.png"
       id="WPC-2"
       x="145.3819"
       y="109.66316"
       inkscape:label="WPC-2"
       style="display:inline;stroke-width:0.793161"
       inkscape:svg-dpi="96" /><image
       width="18.790331"
       height="30.94878"
       preserveAspectRatio="none"
       xlink:href="..%5C..%5C..%5C..%5CPinball%20Tables%5CAlphaSeg%5Cimages%5CWPC-1.png"
       id="WPC-1"
       x="145.95082"
       y="110.11323"
       inkscape:label="WPC-1"
       style="display:none"
       inkscape:svg-dpi="96" /><image
       width="202.03576"
       height="114.6553"
       preserveAspectRatio="none"
       style="display:none;stroke-width:0.523835;image-rendering:optimizeQuality"
       xlink:href="..%5C..%5C..%5C..%5CPinball%20Tables%5CAlphaSeg%5Cimages%5CGottlieb-Sys1-7seg-Clock4digit.png"
       id="Gottlieb-Sys1-7seg-Clock4digit"
       x="18.672335"
       y="100.27797"
       inkscape:label="Gottlieb-Sys1-7seg-Clock4digit"
       inkscape:svg-dpi="96" /><image
       width="159.89357"
       height="82.078697"
       preserveAspectRatio="none"
       style="display:none;stroke-width:0.496424;image-rendering:optimizeQuality"
       xlink:href="..%5C..%5C..%5C..%5CPinball%20Tables%5CAlphaSeg%5Cimages%5CGottlieb-Sys1-10seg-6digit.png"
       id="Gottlieb-Sys1-10seg-6digit"
       x="27.449394"
       y="102.16639"
       inkscape:label="Gottlieb-Sys1-10seg-6digit"
       inkscape:svg-dpi="96" /><image
       width="133.72829"
       height="78.751106"
       preserveAspectRatio="none"
       xlink:href="..%5C..%5C..%5C..%5CPinball%20Tables%5CAlphaSeg%5Cimages%5CSystem80A-7seg-Schematics.jpg"
       id="image1-88"
       x="133.73112"
       y="81.40667"
       style="display:none"
       inkscape:label="System80A-7seg-Schematics" /></g><g
     inkscape:groupmode="layer"
     id="Segments"
     inkscape:label="Segments"
     style="display:inline"><g
       id="16seg"
       inkscape:label="16seg"
       style="display:none"><path
         style="fill:none;stroke:#000000;stroke-width:0.264583;stroke-linecap:butt;stroke-linejoin:miter;stroke-opacity:1"
         d="m 1.8128,21.2597 h 0.3107 l 3.8323,-7.5139 0.113,-1.2993 H 5.4567 l -3.5026,6.7982 z"
         id="path17"
         inkscape:label="seg15" /><path
         style="fill:none;stroke:#000000;stroke-width:0.264583;stroke-linecap:butt;stroke-linejoin:miter;stroke-opacity:1"
         d="M 6.4941,12.4363 H 7.6126 L 7.0267,21.2847 H 5.8216 Z"
         id="path18"
         inkscape:label="seg14" /><path
         style="fill:none;stroke:#000000;stroke-width:0.264583;stroke-linecap:butt;stroke-linejoin:miter;stroke-opacity:1"
         d="m 7.886,14.066 0.1224,-1.629 h 0.4614 l 2.74,6.8077 -0.1506,2.0056 h -0.226 z"
         id="path19"
         inkscape:label="seg13" /><path
         style="fill:none;stroke:#000000;stroke-width:0.264583;stroke-linecap:butt;stroke-linejoin:miter;stroke-opacity:1"
         d="m 7.3663,10.9182 h 4.5008 l 0.5526,0.5793 -0.6991,0.5459 H 7.3463 Z"
         id="path20"
         inkscape:label="seg12" /><path
         style="fill:none;stroke:#000000;stroke-width:0.264583;stroke-linecap:butt;stroke-linejoin:miter;stroke-opacity:1"
         d="m 8.2062,9.20741 3.7663,-7.60798 h 0.4708 l -0.226,2.12798 -3.4085,6.72289 h -0.565 z"
         id="path21"
         inkscape:label="seg11" /><path
         style="fill:none;stroke:#000000;stroke-width:0.264583;stroke-linecap:butt;stroke-linejoin:miter;stroke-opacity:1"
         d="M 7.1516,1.67476 H 8.3192 L 7.6977,10.488 H 6.6431 Z"
         id="path22"
         inkscape:label="seg10" /><path
         style="fill:none;stroke:#000000;stroke-width:0.264583;stroke-linecap:butt;stroke-linejoin:miter;stroke-opacity:1"
         d="M 6.2211,10.5054 6.3393,8.93421 3.3758,1.72184 3.207,1.71395 3.0463,3.8969 5.6789,10.5073 Z"
         id="path23"
         inkscape:label="seg09" /><path
         style="fill:none;stroke:#000000;stroke-width:0.264583;stroke-linecap:butt;stroke-linejoin:miter;stroke-opacity:1"
         d="m 6.9002,10.8916 v 1.1252 H 2.3461 L 1.8002,11.4484 2.486,10.8916 Z"
         id="path25"
         inkscape:label="seg08" /><path
         style="fill:none;stroke:#000000;stroke-width:0.264583;stroke-linecap:butt;stroke-linejoin:miter;stroke-opacity:1"
         d="M 1.5209,11.1659 2.3024,10.4974 2.7826,1.54247 2.2615,0.84616 1.6716,1.2228 1.0878,10.5162 Z"
         id="path26"
         inkscape:label="seg07" /><path
         style="fill:none;stroke:#000000;stroke-width:0.264583;stroke-linecap:butt;stroke-linejoin:miter;stroke-opacity:1"
         d="M 1.5303,11.712 2.0859,12.3142 1.3608,21.392 0.655,22.1037 0.2822,21.6243 0.9842,12.3142 Z"
         id="path27"
         inkscape:label="seg06" /><path
         style="fill:none;stroke:#000000;stroke-width:0.264583;stroke-linecap:butt;stroke-linejoin:miter;stroke-opacity:1"
         d="M 1.7003,21.6709 H 6.1570173 L 6.0386947,22.8028 H 1.2742 L 0.948,22.3767 Z"
         id="path72"
         inkscape:label="seg05"
         sodipodi:nodetypes="cccccc" /><path
         style="fill:none;stroke:#000000;stroke-width:0.264583;stroke-linecap:butt;stroke-linejoin:miter;stroke-opacity:1"
         d="M 6.6943226,21.6709 H 11.1014 l 0.6858,0.739 -0.5726,0.3929 H 6.5228976 Z"
         id="path28"
         inkscape:label="seg04"
         sodipodi:nodetypes="cccccc" /><path
         style="fill:none;stroke:#000000;stroke-width:0.264583;stroke-linecap:butt;stroke-linejoin:miter;stroke-opacity:1"
         d="m 12.0249,12.3048 0.7103,-0.5645 0.4237,0.5645 -0.5932,9.4257 -0.499,0.4331 -0.5838,-0.781 z"
         id="path29"
         inkscape:label="seg03" /><path
         style="fill:none;stroke:#000000;stroke-width:0.264583;stroke-linecap:butt;stroke-linejoin:miter;stroke-opacity:1"
         d="m 12.8388,1.44878 0.7156,-0.65911 0.4708,0.50845 -0.7721,9.30288 -0.5462,0.6214 -0.5461,-0.6591 z"
         id="path30"
         inkscape:label="seg02" /><path
         style="fill:none;stroke:#000000;stroke-width:0.264583;stroke-linecap:butt;stroke-linejoin:miter;stroke-opacity:1"
         d="M 8.1213053,0.13229 H 12.7326 l 0.5726,0.4128 -0.7723,0.70575 H 7.9934259 Z"
         id="path31"
         inkscape:label="seg01"
         sodipodi:nodetypes="cccccc" /><path
         style="fill:none;stroke:#000000;stroke-width:0.264583;stroke-linecap:butt;stroke-linejoin:miter;stroke-opacity:1"
         d="M 2.4527,0.58504 2.9454,0.13229 h 4.7733605 l -0.1997,1.11855 H 3.1185 Z"
         id="path71"
         inkscape:label="seg00"
         sodipodi:nodetypes="cccccc" /></g><g
       id="14seg-dc"
       inkscape:label="14seg-dc"
       style="display:none"><circle
         style="fill:none;stroke:#000000;stroke-width:0.264999"
         id="path9"
         cx="14.01094"
         cy="22.163603"
         r="0.67245811"
         inkscape:label="seg15D" /><path
         style="fill:none;stroke:#000000;stroke-width:0.264583;stroke-linecap:butt;stroke-linejoin:miter;stroke-opacity:1"
         d="m 1.8128,21.2597 h 0.3107 l 3.8323,-7.5139 0.113,-1.2993 H 5.4567 l -3.5026,6.7982 z"
         id="path12" /><path
         style="fill:none;stroke:#000000;stroke-width:0.264583;stroke-linecap:butt;stroke-linejoin:miter;stroke-opacity:1"
         d="M 6.4941,12.4363 H 7.6126 L 7.0267,21.2847 H 5.8216 Z"
         id="path7" /><path
         style="fill:none;stroke:#000000;stroke-width:0.264583;stroke-linecap:butt;stroke-linejoin:miter;stroke-opacity:1"
         d="m 7.886,14.066 0.1224,-1.629 h 0.4614 l 2.74,6.8077 -0.1506,2.0056 h -0.226 z"
         id="path10" /><path
         style="fill:none;stroke:#000000;stroke-width:0.264583;stroke-linecap:butt;stroke-linejoin:miter;stroke-opacity:1"
         d="m 7.3663,10.9182 h 4.5008 l 0.5526,0.5793 -0.6991,0.5459 H 7.3463 Z"
         id="path5" /><path
         style="fill:none;stroke:#000000;stroke-width:0.264583;stroke-linecap:butt;stroke-linejoin:miter;stroke-opacity:1"
         d="m 8.2062,9.20741 3.7663,-7.60798 h 0.4708 l -0.226,2.12798 -3.4085,6.72289 h -0.565 z"
         id="path4" /><path
         style="fill:none;stroke:#000000;stroke-width:0.264583;stroke-linecap:butt;stroke-linejoin:miter;stroke-opacity:1"
         d="M 7.1516,1.67476 H 8.3192 L 7.6977,10.488 H 6.6431 Z"
         id="path2" /><path
         style="fill:none;stroke:#000000;stroke-width:0.264583;stroke-linecap:butt;stroke-linejoin:miter;stroke-opacity:1"
         d="M 6.2211,10.5054 6.3393,8.93421 3.3758,1.72184 3.207,1.71395 3.0463,3.8969 5.6789,10.5073 Z"
         id="path15" /><path
         style="fill:none;stroke:#000000;stroke-width:0.264583;stroke-linecap:butt;stroke-linejoin:miter;stroke-opacity:1"
         d="m 13.3048,23.0299 c 0.0338,0.9504 -0.2608,1.6247 -0.5696,2.3304 1.2757,-0.5032 1.6692,-1.2498 1.7984,-2.208 -0.3744,0.1565 -0.9155,0.1467 -1.2288,-0.1224 z"
         id="path16" /><path
         style="fill:none;stroke:#000000;stroke-width:0.264583;stroke-linecap:butt;stroke-linejoin:miter;stroke-opacity:1"
         d="m 6.9002,10.8916 v 1.1252 H 2.3461 L 1.8002,11.4484 2.486,10.8916 Z"
         id="path6" /><path
         style="fill:none;stroke:#000000;stroke-width:0.264583;stroke-linecap:butt;stroke-linejoin:miter;stroke-opacity:1"
         d="M 1.5209,11.1659 2.3024,10.4974 2.7826,1.54247 2.2615,0.84616 1.6716,1.2228 1.0878,10.5162 Z"
         id="path14" /><path
         style="fill:none;stroke:#000000;stroke-width:0.264583;stroke-linecap:butt;stroke-linejoin:miter;stroke-opacity:1"
         d="M 1.5303,11.712 2.0859,12.3142 1.3608,21.392 0.655,22.1037 0.2822,21.6243 0.9842,12.3142 Z"
         id="path13" /><path
         style="fill:none;stroke:#000000;stroke-width:0.264583;stroke-linecap:butt;stroke-linejoin:miter;stroke-opacity:1"
         d="m 1.7003,21.6709 h 9.4011 l 0.6858,0.739 -0.5726,0.3929 H 1.2742 L 0.948,22.3767 Z"
         id="path8" /><path
         style="fill:none;stroke:#000000;stroke-width:0.264583;stroke-linecap:butt;stroke-linejoin:miter;stroke-opacity:1"
         d="m 12.0249,12.3048 0.7103,-0.5645 0.4237,0.5645 -0.5932,9.4257 -0.499,0.4331 -0.5838,-0.781 z"
         id="path11" /><path
         style="fill:none;stroke:#000000;stroke-width:0.264583;stroke-linecap:butt;stroke-linejoin:miter;stroke-opacity:1"
         d="m 12.8388,1.44878 0.7156,-0.65911 0.4708,0.50845 -0.7721,9.30288 -0.5462,0.6214 -0.5461,-0.6591 z"
         id="path3" /><path
         style="fill:none;stroke:#000000;stroke-width:0.264583;stroke-linecap:butt;stroke-linejoin:miter;stroke-opacity:1"
         d="M 2.4527,0.58504 2.9454,0.13229 h 9.7872 l 0.5726,0.4128 -0.7723,0.70575 H 3.1185 Z"
         id="path1" /></g><g
       id="10seg-dc"
       inkscape:label="10seg-dc"
       style="display:inline"><circle
         style="display:inline;fill:none;stroke:#000000;stroke-width:0.322639"
         id="path9-5"
         cx="14.860226"
         cy="18.847286"
         r="0.81872356"
         inkscape:label="segD" /><path
         style="fill:none;stroke:#000000;stroke-width:0.264583;stroke-linecap:butt;stroke-linejoin:miter;stroke-opacity:1"
         d="M 8.0634,12.6153 8.9673,11.636 9.8336,12.6529 8.5531,20.1103 7.4985,21.6168 6.5569,20.4869 Z"
         id="path40"
         inkscape:label="seg09" /><path
         style="fill:none;stroke:#000000;stroke-width:0.264583;stroke-linecap:butt;stroke-linejoin:miter;stroke-opacity:1"
         d="M 9.9466,2.59682 11.0765,1.54225 11.7544,2.67215 10.2856,9.97881 9.3063,10.6568 8.5531,9.97881 Z"
         id="path39"
         inkscape:label="seg08" /><path
         style="display:inline;fill:none;stroke:#000000;stroke-width:0.322132;stroke-linecap:butt;stroke-linejoin:miter;stroke-opacity:1"
         d="m 14.0005,19.902 c 0.0412,1.1572 -0.3175,1.978 -0.6935,2.8373 1.5532,-0.6127 2.0323,-1.5216 2.1896,-2.6883 -0.4558,0.1906 -1.1146,0.1787 -1.4961,-0.149 z"
         id="path16-1"
         inkscape:label="segC" /><path
         id="path43"
         style="fill:none;stroke:#000000;stroke-width:0.264583;stroke-linecap:butt;stroke-linejoin:miter;stroke-opacity:1"
         d="m 4.7867,10.3177 -1.1301,0.8661 0.6403,0.7534 3.3522,0.1509 1.017,-0.8288 -0.5648,-0.7158 z m 5.6121,0.0755 -0.8666,0.7157 0.678,1.017 2.034,-0.0755 0.8283,-0.9038 -0.6025,-0.7534 z"
         inkscape:label="seg06" /><path
         style="fill:none;stroke:#000000;stroke-width:0.264583;stroke-linecap:butt;stroke-linejoin:miter;stroke-opacity:1"
         d="M 3.2049,10.8451 4.4101,9.86581 5.54,2.55916 4.2971,1.35393 3.9205,1.65524 2.4139,9.79051 Z"
         id="path47"
         inkscape:label="seg05" /><path
         style="fill:none;stroke:#000000;stroke-width:0.264583;stroke-linecap:butt;stroke-linejoin:miter;stroke-opacity:1"
         d="M 0.5684,20.0726 H 2.4516 L 3.9581,12.3893 3.1295,11.523 1.9243,12.4269 Z"
         id="path46"
         inkscape:label="seg04" /><path
         style="fill:none;stroke:#000000;stroke-width:0.264583;stroke-linecap:butt;stroke-linejoin:miter;stroke-opacity:1"
         d="m 0.6814,20.5622 5.1976,-0.0376 1.5442,1.7701 1.3558,-1.6948 1.941,-0.0046 1.3338,1.58 -0.6494,0.6448 L 1.962,22.822 C 1.0133,22.7487 0.7896,22.1735 0.7567,21.4661 Z"
         id="path45"
         inkscape:label="seg03" /><path
         style="fill:none;stroke:#000000;stroke-width:0.264583;stroke-linecap:butt;stroke-linejoin:miter;stroke-opacity:1"
         d="m 12.357,12.3893 0.904,-0.9039 0.6402,-0.0377 0.1884,0.8286 -1.6949,9.4535 -1.3935,-1.4312 z"
         id="path41"
         inkscape:label="seg02" /><path
         style="fill:none;stroke:#000000;stroke-width:0.264583;stroke-linecap:butt;stroke-linejoin:miter;stroke-opacity:1"
         d="m 12.7337,9.86581 1.2052,1.16759 0.8663,-1.12989 1.1299,-6.89239 h -1.8455 z"
         id="path42"
         inkscape:label="seg01" /><path
         style="display:inline;fill:none;stroke:#000000;stroke-width:0.264583;stroke-linecap:butt;stroke-linejoin:miter;stroke-opacity:1"
         d="M 4.7402,0.9431 5.2729,0.2773 h 8.6554 c 1.0959,0.05704 1.923,1.15883 1.9974,2.21045 L 12.2238,2.54102 11.1319,0.70341 9.5073,2.35459 h -3.329 z"
         id="path48"
         inkscape:label="seg00" /></g><g
       id="7seg-dc"
       inkscape:label="7seg-dc"
       style="display:none"><circle
         style="display:inline;fill:none;stroke:#000000;stroke-width:0.322639"
         id="circle76"
         cx="14.860226"
         cy="18.847286"
         r="0.81872356"
         inkscape:label="segD" /><path
         style="display:inline;fill:none;stroke:#000000;stroke-width:0.322132;stroke-linecap:butt;stroke-linejoin:miter;stroke-opacity:1"
         d="m 14.0005,19.902 c 0.0412,1.1572 -0.3175,1.978 -0.6935,2.8373 1.5532,-0.6127 2.0323,-1.5216 2.1896,-2.6883 -0.4558,0.1906 -1.1146,0.1787 -1.4961,-0.149 z"
         id="path77"
         inkscape:label="segC" /><path
         id="path78"
         style="fill:none;stroke:#000000;stroke-width:0.264583;stroke-linecap:butt;stroke-linejoin:miter;stroke-opacity:1"
         d="M 12.2442,12.0504 13.0725,11.1466 12.47,10.3932 4.7867,10.3177 3.6566,11.1838 4.2969,11.9372 Z"
         inkscape:label="seg06"
         sodipodi:nodetypes="ccccccc" /><path
         style="fill:none;stroke:#000000;stroke-width:0.264583;stroke-linecap:butt;stroke-linejoin:miter;stroke-opacity:1"
         d="M 3.2049,10.8451 4.4101,9.86581 5.54,2.55916 4.2971,1.35393 3.9205,1.65524 2.4139,9.79051 Z"
         id="path79"
         inkscape:label="seg05" /><path
         style="fill:none;stroke:#000000;stroke-width:0.264583;stroke-linecap:butt;stroke-linejoin:miter;stroke-opacity:1"
         d="M 0.5684,20.0726 H 2.4516 L 3.9581,12.3893 3.1295,11.523 1.9243,12.4269 Z"
         id="path80"
         inkscape:label="seg04" /><path
         style="fill:none;stroke:#000000;stroke-width:0.264583;stroke-linecap:butt;stroke-linejoin:miter;stroke-opacity:1"
         d="m 0.6814,20.5622 10.0386,0.0331 1.3338,1.58 -0.6494,0.6448 L 1.962,22.822 C 1.0133,22.7487 0.7896,22.1735 0.7567,21.4661 Z"
         id="path81"
         inkscape:label="seg03"
         sodipodi:nodetypes="ccccccc" /><path
         style="fill:none;stroke:#000000;stroke-width:0.264583;stroke-linecap:butt;stroke-linejoin:miter;stroke-opacity:1"
         d="m 12.357,12.3893 0.904,-0.9039 0.6402,-0.0377 0.1884,0.8286 -1.6949,9.4535 -1.3935,-1.4312 z"
         id="path82"
         inkscape:label="seg02" /><path
         style="fill:none;stroke:#000000;stroke-width:0.264583;stroke-linecap:butt;stroke-linejoin:miter;stroke-opacity:1"
         d="m 12.7337,9.86581 1.2052,1.16759 0.8663,-1.12989 1.1299,-6.89239 h -1.8455 z"
         id="path83"
         inkscape:label="seg01" /><path
         style="fill:none;stroke:#000000;stroke-width:0.264583;stroke-linecap:butt;stroke-linejoin:miter;stroke-opacity:1"
         d="M 4.7402,0.9431 5.2729,0.2773 h 8.6554 c 1.0959,0.05704 1.923,1.15883 1.9974,2.21045 L 6.1783,2.35459 Z"
         id="path84"
         inkscape:label="seg00"
         sodipodi:nodetypes="cccccc" /></g><g
       id="7seg-clock"
       inkscape:label="7seg-clock"
       style="display:none;stroke-width:1"><path
         style="fill:none;stroke:#000000;stroke-width:0.264584;stroke-linecap:butt;stroke-linejoin:miter;stroke-opacity:1"
         d="M 3.2688,11.0087 4.6415,9.90831 h 7.2702 l 1.0677,1.10039 -1.3727,1.3399 H 4.489 Z"
         id="path32"
         inkscape:label="seg06" /><path
         style="fill:none;stroke:#000000;stroke-width:0.264584;stroke-linecap:butt;stroke-linejoin:miter;stroke-opacity:1"
         d="M 4.2101,9.40051 5.0729,3.46885 H 3.2035 L 2.2689,9.29271 2.6283,10.5869 Z"
         id="path33"
         inkscape:label="seg05" /><path
         style="fill:none;stroke:#000000;stroke-width:0.264584;stroke-linecap:butt;stroke-linejoin:miter;stroke-opacity:1"
         d="M 2.5564,11.4137 3.7787,12.7079 2.4845,19.5383 0.1838,19.4664 1.3701,12.5641 Z"
         id="path36"
         inkscape:label="seg04" /><path
         style="fill:none;stroke:#000000;stroke-width:0.264584;stroke-linecap:butt;stroke-linejoin:miter;stroke-opacity:1"
         d="m 0.1478,20.1495 c -0.1576,1.1914 0.9197,2.6978 1.8694,2.6962 l 9.1672,0.0719 0.5752,-0.5033 -1.6178,-1.8694 -7.5494,0.1079 C 2.2872158,20.646089 2.2083669,20.356758 2.125,20.1495 Z"
         id="path37"
         sodipodi:nodetypes="cccccccc"
         inkscape:label="seg03" /><path
         style="fill:none;stroke:#000000;stroke-width:0.264584;stroke-linecap:butt;stroke-linejoin:miter;stroke-opacity:1"
         d="M 10.717,20.2214 12.200416,21.971339 12.5505,21.4437 13.8806,12.9236 13.7008,11.953 13.3413,11.5575 12.0472,12.6719 Z"
         id="path38"
         sodipodi:nodetypes="cccccccc"
         inkscape:label="seg02" /><path
         style="fill:none;stroke:#000000;stroke-width:0.264584;stroke-linecap:butt;stroke-linejoin:miter;stroke-opacity:1"
         d="M 14.0244,0.30528 12.2988,9.36461 13.557,10.6947 14.6355,9.43651 15.7859,3.03744 C 15.965872,2.051554 15.7485,0.61769396 14.6355,0.37718 Z"
         id="path35"
         sodipodi:nodetypes="ccccccc"
         inkscape:label="seg01" /><path
         style="fill:none;stroke:#000000;stroke-width:0.264584;stroke-linecap:butt;stroke-linejoin:miter;stroke-opacity:1"
         d="M 3.2754,2.7139 H 5.1089 L 5.2167,2.31846 C 5.245233,2.24546 5.3410845,2.150088 5.4324,2.13871 l 7.4057,0.03595 0.3954,-1.94128 H 5.1089 C 3.9294,0.27424 3.6466,0.75222 3.5271,1.27592 Z"
         id="path34"
         sodipodi:nodetypes="ccccccccc"
         inkscape:label="seg00" /></g></g></svg>
