<svg xmlns:inkscape="http://www.inkscape.org/namespaces/inkscape" xmlns:sodipodi="http://sodipodi.sourceforge.net/DTD/sodipodi-0.dtd" xmlns="http://www.w3.org/2000/svg" xmlns:svg="http://www.w3.org/2000/svg" version="1.1" x="0px" y="0px" enable-background="new 0 0 100 100" xml:space="preserve" id="svg4" sodipodi:docname="noun-pinball-machine-17955.svg" inkscape:export-filename="noun-pinball-machine-17955.png" inkscape:export-xdpi="96" inkscape:export-ydpi="96" viewBox="0 9.97 100 80.06"><defs id="defs4"/><sodipodi:namedview id="namedview4" pagecolor="#ffffff" bordercolor="#666666" borderopacity="1.0" inkscape:showpageshadow="2" inkscape:pageopacity="0.0" inkscape:pagecheckerboard="0" inkscape:deskcolor="#d1d1d1"/><g id="g3"><polygon points="31.32,48.139 31.32,60.856 33.897,60.856 34.527,89.699 38.061,89.699 38.691,60.856 89.677,60.856 92.106,60.856 92.736,89.699 96.271,89.699 96.9,60.856 100.001,60.856 100.001,40.871 100.001,13.574 89.677,13.574 89.677,41.962 " id="polygon1"/><g id="g2"><path d="m 27.022,24.703 c 3.905,-1.618 5.763,-6.09 4.141,-10.007 -1.618,-3.903 -6.09,-5.759 -10.002,-4.144 -3.915,1.62 -5.767,6.1 -4.153,10.003 1.621,3.908 6.098,5.767 10.014,4.148 z" id="path1"/><path d="m 25.495,42.927 -2.466,-12.421 -0.098,0.02 c -0.608,-1.649 -1.863,-3.049 -3.626,-3.756 -3.323,-1.328 -7.093,0.286 -8.423,3.608 L 3.222,49.522 C 2.855,50.44 2.732,51.388 2.788,52.311 L 2.767,52.314 3.634,67.858 0,88.155 5.949,89.52 11.654,69.116 C 11.738,68.749 11.771,68.374 11.75,68 l -0.192,-3.472 0.849,2.882 0.813,22.584 7.005,0.036 0.274,-23.276 c -0.004,-0.371 -0.06,-0.741 -0.166,-1.099 l -4.078,-13.828 2.342,-5.853 c -0.03,-0.108 -0.074,-0.209 -0.096,-0.319 l -0.966,-9.547 1.86,9.371 c 0.165,0.827 0.644,1.559 1.339,2.037 l 11.843,7.165 2.748,-3.989 z" id="path2"/></g></g></svg>