# Blender v2.73 (sub 0) OBJ File: 'gates.blend'
# www.blender.org
mtllib gateWireRectangle.mtl
o gate_wire_t1_short.mo_gate_wire_t1_short.m
v 0.192000 -0.000000 0.327299
v -0.192000 0.000000 0.327299
v 0.192000 0.003563 0.329365
v -0.192000 0.003563 0.329365
v -0.192000 0.005038 0.334353
v 0.192000 0.005038 0.334353
v 0.192000 0.003563 0.339340
v -0.192000 0.003563 0.339340
v -0.192000 0.000000 0.341406
v 0.192000 -0.000000 0.341406
v 0.192000 -0.003563 0.339340
v -0.192000 -0.003563 0.339340
v -0.192000 -0.005038 0.334353
v 0.192000 -0.005038 0.334353
v 0.192000 -0.003563 0.329365
v -0.192000 -0.003563 0.329365
v -0.198300 0.000000 0.325865
v -0.199969 0.003563 0.327326
v -0.204000 0.005038 0.330853
v -0.208031 0.003563 0.334379
v -0.209700 0.000000 0.335840
v -0.208031 -0.003563 0.334379
v -0.204000 -0.005038 0.330853
v -0.199969 -0.003563 0.327326
v -0.199939 0.000000 0.320353
v -0.202300 0.003563 0.320353
v -0.208000 0.005038 0.320353
v -0.213700 0.003563 0.320353
v -0.216061 0.000000 0.320353
v -0.213700 -0.003563 0.320353
v -0.208000 -0.005038 0.320353
v -0.202300 -0.003563 0.320353
v 0.199969 0.003563 0.327326
v 0.198300 -0.000000 0.325865
v 0.204000 0.005038 0.330853
v 0.208031 0.003563 0.334379
v 0.209700 -0.000000 0.335840
v 0.208031 -0.003563 0.334379
v 0.204000 -0.005038 0.330853
v 0.199969 -0.003563 0.327326
v 0.202300 0.003563 0.320353
v 0.199939 -0.000000 0.320353
v 0.208000 0.005038 0.320353
v 0.213700 0.003563 0.320353
v 0.216061 -0.000000 0.320353
v 0.213700 -0.003563 0.320353
v 0.208000 -0.005038 0.320353
v 0.202300 -0.003563 0.320353
v -0.199939 0.000000 0.012353
v -0.202300 0.003563 0.012353
v -0.208000 0.005038 0.012353
v -0.213700 0.003563 0.012353
v -0.216061 0.000000 0.012353
v -0.213700 -0.003563 0.012353
v -0.208000 -0.005038 0.012353
v -0.202300 -0.003563 0.012353
v 0.202300 0.003563 0.012353
v 0.199939 -0.000000 0.012353
v 0.208000 0.005038 0.012353
v 0.213700 0.003563 0.012353
v 0.216061 -0.000000 0.012353
v 0.213700 -0.003563 0.012353
v 0.208000 -0.005038 0.012353
v 0.202300 -0.003563 0.012353
v -0.206300 0.000000 -0.003135
v -0.207969 0.003563 -0.001674
v -0.212000 0.005038 0.001853
v -0.216031 0.003563 0.005379
v -0.217700 0.000000 0.006840
v -0.216031 -0.003563 0.005379
v -0.212000 -0.005038 0.001853
v -0.207969 -0.003563 -0.001674
v -0.224000 0.000000 -0.008701
v -0.224000 0.003563 -0.006635
v -0.224000 0.005038 -0.001647
v -0.224000 0.003563 0.003340
v -0.224000 0.000000 0.005406
v -0.224000 -0.003563 0.003340
v -0.224000 -0.005038 -0.001647
v -0.224000 -0.003563 -0.006635
v 0.207969 0.003563 -0.001674
v 0.206300 -0.000000 -0.003135
v 0.212000 0.005038 0.001853
v 0.216031 0.003563 0.005379
v 0.217700 -0.000000 0.006840
v 0.216031 -0.003563 0.005379
v 0.212000 -0.005038 0.001853
v 0.207969 -0.003563 -0.001674
v 0.224000 0.003563 -0.006635
v 0.224000 -0.000000 -0.008701
v 0.224000 0.005038 -0.001647
v 0.224000 0.003563 0.003340
v 0.224000 -0.000000 0.005406
v 0.224000 -0.003563 0.003340
v 0.224000 -0.005038 -0.001647
v 0.224000 -0.003563 -0.006635
v 0.368000 0.003563 -0.006635
v 0.368000 -0.000000 -0.008701
v 0.368000 0.005038 -0.001647
v 0.368000 0.003563 0.003340
v 0.368000 -0.000000 0.005406
v 0.368000 -0.003563 0.003340
v 0.368000 -0.005038 -0.001647
v 0.368000 -0.003563 -0.006635
v -0.368000 0.000000 -0.008701
v -0.368000 0.003563 -0.006635
v -0.368000 0.005038 -0.001647
v -0.368000 0.003563 0.003340
v -0.368000 0.000000 0.005406
v -0.368000 -0.003563 0.003340
v -0.368000 -0.005038 -0.001647
v -0.368000 -0.003563 -0.006635
v -0.368000 0.000000 -0.001647
v 0.368000 -0.000000 -0.001647
v 0.368000 0.003563 -0.006635
v 0.368000 -0.000000 -0.008701
v 0.368000 0.005038 -0.001647
v 0.368000 0.003563 0.003340
v 0.368000 -0.000000 0.005406
v 0.368000 -0.003563 0.003340
v 0.368000 -0.005038 -0.001647
v 0.368000 -0.003563 -0.006635
v -0.368000 0.000000 -0.008701
v -0.368000 0.003563 -0.006635
v -0.368000 0.005038 -0.001647
v -0.368000 0.003563 0.003340
v -0.368000 0.000000 0.005406
v -0.368000 -0.003563 0.003340
v -0.368000 -0.005038 -0.001647
v -0.368000 -0.003563 -0.006635
vt 0.500000 0.578488
vt 0.500000 0.421512
vt 0.625000 0.578488
vt 0.625000 0.421512
vt 0.750000 0.421512
vt 0.750000 0.578488
vt 0.875000 0.578488
vt 0.875000 0.421512
vt 1.000000 0.421512
vt 1.000000 0.578488
vt 0.000000 0.578488
vt 0.000000 0.421512
vt 0.125000 0.578488
vt 0.125000 0.421512
vt 0.250000 0.421512
vt 0.250000 0.578488
vt 0.375000 0.578488
vt 0.375000 0.421512
vt 0.500000 0.412791
vt 0.625000 0.412791
vt 0.750000 0.412791
vt 0.875000 0.412791
vt 1.000000 0.412791
vt 0.000000 0.412791
vt 0.125000 0.412791
vt 0.250000 0.412791
vt 0.375000 0.412791
vt 0.500000 0.404070
vt 0.625000 0.404070
vt 0.750000 0.404070
vt 0.875000 0.404070
vt 1.000000 0.404070
vt 0.000000 0.404070
vt 0.125000 0.404070
vt 0.250000 0.404070
vt 0.375000 0.404070
vt 0.625000 0.587209
vt 0.500000 0.587209
vt 0.750000 0.587209
vt 0.875000 0.587209
vt 1.000000 0.587209
vt 0.125000 0.587209
vt 0.000000 0.587209
vt 0.250000 0.587209
vt 0.375000 0.587209
vt 0.625000 0.595930
vt 0.500000 0.595930
vt 0.750000 0.595930
vt 0.875000 0.595930
vt 1.000000 0.595930
vt 0.125000 0.595930
vt 0.000000 0.595930
vt 0.250000 0.595930
vt 0.375000 0.595930
vt 0.500000 0.203488
vt 0.625000 0.203488
vt 0.750000 0.203488
vt 0.875000 0.203488
vt 1.000000 0.203488
vt 0.000000 0.203488
vt 0.125000 0.203488
vt 0.250000 0.203488
vt 0.375000 0.203488
vt 0.625000 0.796512
vt 0.500000 0.796512
vt 0.750000 0.796512
vt 0.875000 0.796512
vt 1.000000 0.796512
vt 0.125000 0.796512
vt 0.000000 0.796512
vt 0.250000 0.796512
vt 0.375000 0.796512
vt 0.500000 0.194767
vt 0.625000 0.194767
vt 0.750000 0.194767
vt 0.875000 0.194767
vt 1.000000 0.194767
vt 0.000000 0.194767
vt 0.125000 0.194767
vt 0.250000 0.194767
vt 0.375000 0.194767
vt 0.500000 0.186046
vt 0.625000 0.186046
vt 0.750000 0.186046
vt 0.875000 0.186046
vt 1.000000 0.186046
vt 0.000000 0.186046
vt 0.125000 0.186046
vt 0.250000 0.186046
vt 0.375000 0.186046
vt 0.625000 0.805233
vt 0.500000 0.805233
vt 0.750000 0.805233
vt 0.875000 0.805233
vt 1.000000 0.805233
vt 0.125000 0.805233
vt 0.000000 0.805233
vt 0.250000 0.805233
vt 0.375000 0.805233
vt 0.625000 0.813954
vt 0.500000 0.813954
vt 0.750000 0.813954
vt 0.875000 0.813954
vt 1.000000 0.813954
vt 0.125000 0.813954
vt 0.000000 0.813954
vt 0.250000 0.813954
vt 0.375000 0.813954
vt 0.625000 0.875000
vt 0.500000 0.875000
vt 0.750000 0.875000
vt 0.875000 0.875000
vt 1.000000 0.875000
vt 0.125000 0.875000
vt 0.000000 0.875000
vt 0.250000 0.875000
vt 0.375000 0.875000
vt 0.500000 0.125000
vt 0.625000 0.125000
vt 0.750000 0.125000
vt 0.875000 0.125000
vt 1.000000 0.125000
vt 0.000000 0.125000
vt 0.125000 0.125000
vt 0.250000 0.125000
vt 0.375000 0.125000
vt 0.853553 0.106694
vt 0.500000 0.062500
vt 1.000000 0.062500
vt 0.853553 0.018306
vt 0.500000 0.000000
vt 0.146447 0.018306
vt 0.000000 0.062500
vt 0.146447 0.106694
vt 0.853554 0.893306
vt 0.500000 0.937500
vt 1.000000 0.937500
vt 0.853554 0.981694
vt 0.500000 1.000000
vt 0.146447 0.981694
vt 0.000000 0.937500
vt 0.146446 0.893306
vn -0.121000 -0.004000 -0.992600
vn 0.121000 0.004000 -0.992600
vn -0.077600 0.797600 -0.598100
vn 0.071700 0.797000 -0.599700
vn -0.008500 0.999700 0.024300
vn 0.008900 0.999600 0.026300
vn 0.099200 0.766100 0.635000
vn -0.097400 0.766200 0.635200
vn -0.144100 -0.000500 0.989600
vn 0.144100 0.000500 0.989600
vn 0.097400 -0.766200 0.635200
vn -0.099200 -0.766100 0.635000
vn -0.008900 -0.999600 0.026300
vn 0.008500 -0.999700 0.024300
vn -0.071700 -0.797000 -0.599700
vn 0.077600 -0.797600 -0.598100
vn 0.666600 -0.000100 -0.745400
vn 0.349600 0.859400 -0.373100
vn -0.046900 0.996800 0.064800
vn -0.439700 0.754100 0.487800
vn -0.686000 0.000200 0.727600
vn -0.436900 -0.753900 0.490600
vn -0.044900 -0.996800 0.066400
vn 0.341000 -0.858500 -0.383000
vn 0.987400 -0.005200 -0.158200
vn 0.553300 0.827800 -0.092300
vn -0.029800 0.999500 0.012800
vn -0.601700 0.789100 0.123100
vn -0.983500 0.000500 0.180800
vn -0.601900 -0.789400 0.121000
vn -0.027700 -0.999500 0.011900
vn 0.555200 -0.827200 -0.085900
vn -0.341000 0.858500 -0.383000
vn -0.666600 0.000100 -0.745400
vn 0.044900 0.996800 0.066400
vn 0.436900 0.753900 0.490600
vn 0.686000 -0.000200 0.727600
vn 0.439700 -0.754100 0.487800
vn 0.046900 -0.996800 0.064800
vn -0.349600 -0.859400 -0.373100
vn -0.555200 0.827200 -0.085900
vn -0.987400 0.005200 -0.158200
vn 0.027700 0.999500 0.011900
vn 0.601900 0.789400 0.121000
vn 0.983500 -0.000500 0.180800
vn 0.601700 -0.789100 0.123100
vn 0.029800 -0.999500 0.012800
vn -0.553300 -0.827800 -0.092300
vn 0.983500 0.000500 -0.180800
vn 0.601700 0.789100 -0.123100
vn 0.029800 0.999500 -0.012800
vn -0.553300 0.827800 0.092300
vn -0.987400 -0.005200 0.158200
vn -0.555200 -0.827200 0.085900
vn 0.027700 -0.999500 -0.011900
vn 0.601900 -0.789400 -0.121000
vn -0.601900 0.789400 -0.121000
vn -0.983500 -0.000500 -0.180800
vn -0.027700 0.999500 -0.011900
vn 0.555200 0.827200 0.085900
vn 0.987400 0.005200 0.158200
vn 0.553300 -0.827800 0.092300
vn -0.029800 -0.999500 -0.012800
vn -0.601700 -0.789100 -0.123100
vn 0.686000 0.000200 -0.727600
vn 0.439700 0.754100 -0.487800
vn 0.046900 0.996800 -0.064800
vn -0.349600 0.859400 0.373100
vn -0.666600 -0.000100 0.745400
vn -0.341000 -0.858500 0.383000
vn 0.044900 -0.996800 -0.066400
vn 0.436900 -0.753900 -0.490600
vn 0.144100 -0.000500 -0.989600
vn 0.097400 0.766200 -0.635200
vn 0.008500 0.999700 -0.024300
vn -0.071700 0.797000 0.599700
vn -0.121000 0.004000 0.992600
vn -0.077600 -0.797600 0.598100
vn 0.008900 -0.999600 -0.026300
vn 0.099200 -0.766100 -0.635000
vn -0.436900 0.753900 -0.490600
vn -0.686000 -0.000200 -0.727600
vn -0.044900 0.996800 -0.066400
vn 0.341000 0.858500 0.383000
vn 0.666600 0.000100 0.745400
vn 0.349600 -0.859400 0.373100
vn -0.046900 -0.996800 -0.064800
vn -0.439700 -0.754100 -0.487800
vn -0.099200 0.766100 -0.635000
vn -0.144100 0.000500 -0.989600
vn -0.008900 0.999600 -0.026300
vn 0.077600 0.797600 0.598100
vn 0.121000 -0.004000 0.992600
vn 0.071700 -0.797000 0.599700
vn -0.008500 -0.999700 -0.024300
vn -0.097400 -0.766200 -0.635200
vn 0.000000 0.786000 -0.618200
vn -0.000000 -0.000000 -1.000000
vn 0.000000 1.000000 -0.000000
vn 0.000000 0.786000 0.618200
vn -0.000000 0.000000 1.000000
vn -0.000000 -0.786000 0.618200
vn -0.000000 -1.000000 -0.000000
vn -0.000000 -0.786000 -0.618200
vn -1.000000 -0.000000 0.000000
vn 1.000000 0.000000 0.000000
usemtl None
s 1
f 1/1/1 2/2/2 3/3/3
f 2/2/2 4/4/4 3/3/3
f 3/3/3 4/4/4 5/5/5
f 3/3/3 5/5/5 6/6/6
f 6/6/6 5/5/5 7/7/7
f 5/5/5 8/8/8 7/7/7
f 7/7/7 8/8/8 9/9/9
f 7/7/7 9/9/9 10/10/10
f 10/11/10 9/12/9 11/13/11
f 9/12/9 12/14/12 11/13/11
f 11/13/11 12/14/12 13/15/13
f 11/13/11 13/15/13 14/16/14
f 14/16/14 13/15/13 15/17/15
f 13/15/13 16/18/16 15/17/15
f 15/17/15 16/18/16 2/2/2
f 15/17/15 2/2/2 1/1/1
f 4/4/4 2/2/2 17/19/17
f 17/19/17 18/20/18 4/4/4
f 5/5/5 4/4/4 18/20/18
f 18/20/18 19/21/19 5/5/5
f 8/8/8 5/5/5 19/21/19
f 19/21/19 20/22/20 8/8/8
f 9/9/9 8/8/8 20/22/20
f 20/22/20 21/23/21 9/9/9
f 12/14/12 9/12/9 21/24/21
f 21/24/21 22/25/22 12/14/12
f 13/15/13 12/14/12 22/25/22
f 22/25/22 23/26/23 13/15/13
f 16/18/16 13/15/13 23/26/23
f 23/26/23 24/27/24 16/18/16
f 2/2/2 16/18/16 24/27/24
f 24/27/24 17/19/17 2/2/2
f 18/20/18 17/19/17 25/28/25
f 25/28/25 26/29/26 18/20/18
f 19/21/19 18/20/18 26/29/26
f 26/29/26 27/30/27 19/21/19
f 20/22/20 19/21/19 27/30/27
f 27/30/27 28/31/28 20/22/20
f 21/23/21 20/22/20 28/31/28
f 28/31/28 29/32/29 21/23/21
f 22/25/22 21/24/21 29/33/29
f 29/33/29 30/34/30 22/25/22
f 23/26/23 22/25/22 30/34/30
f 30/34/30 31/35/31 23/26/23
f 24/27/24 23/26/23 31/35/31
f 31/35/31 32/36/32 24/27/24
f 17/19/17 24/27/24 32/36/32
f 32/36/32 25/28/25 17/19/17
f 1/1/1 3/3/3 33/37/33
f 33/37/33 34/38/34 1/1/1
f 3/3/3 6/6/6 35/39/35
f 35/39/35 33/37/33 3/3/3
f 6/6/6 7/7/7 36/40/36
f 36/40/36 35/39/35 6/6/6
f 7/7/7 10/10/10 37/41/37
f 37/41/37 36/40/36 7/7/7
f 10/11/10 11/13/11 38/42/38
f 38/42/38 37/43/37 10/11/10
f 11/13/11 14/16/14 39/44/39
f 39/44/39 38/42/38 11/13/11
f 14/16/14 15/17/15 40/45/40
f 40/45/40 39/44/39 14/16/14
f 15/17/15 1/1/1 34/38/34
f 34/38/34 40/45/40 15/17/15
f 34/38/34 33/37/33 41/46/41
f 41/46/41 42/47/42 34/38/34
f 33/37/33 35/39/35 43/48/43
f 43/48/43 41/46/41 33/37/33
f 35/39/35 36/40/36 44/49/44
f 44/49/44 43/48/43 35/39/35
f 36/40/36 37/41/37 45/50/45
f 45/50/45 44/49/44 36/40/36
f 37/43/37 38/42/38 46/51/46
f 46/51/46 45/52/45 37/43/37
f 38/42/38 39/44/39 47/53/47
f 47/53/47 46/51/46 38/42/38
f 39/44/39 40/45/40 48/54/48
f 48/54/48 47/53/47 39/44/39
f 40/45/40 34/38/34 42/47/42
f 42/47/42 48/54/48 40/45/40
f 26/29/26 25/28/25 49/55/49
f 49/55/49 50/56/50 26/29/26
f 27/30/27 26/29/26 50/56/50
f 50/56/50 51/57/51 27/30/27
f 28/31/28 27/30/27 51/57/51
f 51/57/51 52/58/52 28/31/28
f 29/32/29 28/31/28 52/58/52
f 52/58/52 53/59/53 29/32/29
f 30/34/30 29/33/29 53/60/53
f 53/60/53 54/61/54 30/34/30
f 31/35/31 30/34/30 54/61/54
f 54/61/54 55/62/55 31/35/31
f 32/36/32 31/35/31 55/62/55
f 55/62/55 56/63/56 32/36/32
f 25/28/25 32/36/32 56/63/56
f 56/63/56 49/55/49 25/28/25
f 42/47/42 41/46/41 57/64/57
f 57/64/57 58/65/58 42/47/42
f 41/46/41 43/48/43 59/66/59
f 59/66/59 57/64/57 41/46/41
f 43/48/43 44/49/44 60/67/60
f 60/67/60 59/66/59 43/48/43
f 44/49/44 45/50/45 61/68/61
f 61/68/61 60/67/60 44/49/44
f 45/52/45 46/51/46 62/69/62
f 62/69/62 61/70/61 45/52/45
f 46/51/46 47/53/47 63/71/63
f 63/71/63 62/69/62 46/51/46
f 47/53/47 48/54/48 64/72/64
f 64/72/64 63/71/63 47/53/47
f 48/54/48 42/47/42 58/65/58
f 58/65/58 64/72/64 48/54/48
f 50/56/50 49/55/49 65/73/65
f 65/73/65 66/74/66 50/56/50
f 51/57/51 50/56/50 66/74/66
f 66/74/66 67/75/67 51/57/51
f 52/58/52 51/57/51 67/75/67
f 67/75/67 68/76/68 52/58/52
f 53/59/53 52/58/52 68/76/68
f 68/76/68 69/77/69 53/59/53
f 54/61/54 53/60/53 69/78/69
f 69/78/69 70/79/70 54/61/54
f 55/62/55 54/61/54 70/79/70
f 70/79/70 71/80/71 55/62/55
f 56/63/56 55/62/55 71/80/71
f 71/80/71 72/81/72 56/63/56
f 49/55/49 56/63/56 72/81/72
f 72/81/72 65/73/65 49/55/49
f 66/74/66 65/73/65 73/82/73
f 73/82/73 74/83/74 66/74/66
f 67/75/67 66/74/66 74/83/74
f 74/83/74 75/84/75 67/75/67
f 68/76/68 67/75/67 75/84/75
f 75/84/75 76/85/76 68/76/68
f 69/77/69 68/76/68 76/85/76
f 76/85/76 77/86/77 69/77/69
f 70/79/70 69/78/69 77/87/77
f 77/87/77 78/88/78 70/79/70
f 71/80/71 70/79/70 78/88/78
f 78/88/78 79/89/79 71/80/71
f 72/81/72 71/80/71 79/89/79
f 79/89/79 80/90/80 72/81/72
f 65/73/65 72/81/72 80/90/80
f 80/90/80 73/82/73 65/73/65
f 58/65/58 57/64/57 81/91/81
f 81/91/81 82/92/82 58/65/58
f 57/64/57 59/66/59 83/93/83
f 83/93/83 81/91/81 57/64/57
f 59/66/59 60/67/60 84/94/84
f 84/94/84 83/93/83 59/66/59
f 60/67/60 61/68/61 85/95/85
f 85/95/85 84/94/84 60/67/60
f 61/70/61 62/69/62 86/96/86
f 86/96/86 85/97/85 61/70/61
f 62/69/62 63/71/63 87/98/87
f 87/98/87 86/96/86 62/69/62
f 63/71/63 64/72/64 88/99/88
f 88/99/88 87/98/87 63/71/63
f 64/72/64 58/65/58 82/92/82
f 82/92/82 88/99/88 64/72/64
f 82/92/82 81/91/81 89/100/89
f 89/100/89 90/101/90 82/92/82
f 81/91/81 83/93/83 91/102/91
f 91/102/91 89/100/89 81/91/81
f 83/93/83 84/94/84 92/103/92
f 92/103/92 91/102/91 83/93/83
f 84/94/84 85/95/85 93/104/93
f 93/104/93 92/103/92 84/94/84
f 85/97/85 86/96/86 94/105/94
f 94/105/94 93/106/93 85/97/85
f 86/96/86 87/98/87 95/107/95
f 95/107/95 94/105/94 86/96/86
f 87/98/87 88/99/88 96/108/96
f 96/108/96 95/107/95 87/98/87
f 88/99/88 82/92/82 90/101/90
f 90/101/90 96/108/96 88/99/88
f 90/101/90 89/100/89 97/109/97
f 97/109/97 98/110/98 90/101/90
f 89/100/89 91/102/91 99/111/99
f 99/111/99 97/109/97 89/100/89
f 91/102/91 92/103/92 100/112/100
f 100/112/100 99/111/99 91/102/91
f 92/103/92 93/104/93 101/113/101
f 101/113/101 100/112/100 92/103/92
f 93/106/93 94/105/94 102/114/102
f 102/114/102 101/115/101 93/106/93
f 94/105/94 95/107/95 103/116/103
f 103/116/103 102/114/102 94/105/94
f 95/107/95 96/108/96 104/117/104
f 104/117/104 103/116/103 95/107/95
f 96/108/96 90/101/90 98/110/98
f 98/110/98 104/117/104 96/108/96
f 74/83/74 73/82/73 105/118/98
f 105/118/98 106/119/97 74/83/74
f 75/84/75 74/83/74 106/119/97
f 106/119/97 107/120/99 75/84/75
f 76/85/76 75/84/75 107/120/99
f 107/120/99 108/121/100 76/85/76
f 77/86/77 76/85/76 108/121/100
f 108/121/100 109/122/101 77/86/77
f 78/88/78 77/87/77 109/123/101
f 109/123/101 110/124/102 78/88/78
f 79/89/79 78/88/78 110/124/102
f 110/124/102 111/125/103 79/89/79
f 80/90/80 79/89/79 111/125/103
f 111/125/103 112/126/104 80/90/80
f 73/82/73 80/90/80 112/126/104
f 112/126/104 105/118/98 73/82/73
f 124/127/105 123/118/105 113/128/105
f 125/129/105 124/127/105 113/128/105
f 126/130/105 125/129/105 113/128/105
f 127/131/105 126/130/105 113/128/105
f 128/132/105 127/131/105 113/128/105
f 129/133/105 128/132/105 113/128/105
f 130/134/105 129/133/105 113/128/105
f 123/118/105 130/134/105 113/128/105
f 116/110/106 115/135/106 114/136/106
f 115/135/106 117/137/106 114/136/106
f 117/137/106 118/138/106 114/136/106
f 118/138/106 119/139/106 114/136/106
f 119/139/106 120/140/106 114/136/106
f 120/140/106 121/141/106 114/136/106
f 121/141/106 122/142/106 114/136/106
f 122/142/106 116/110/106 114/136/106
