# Blender v2.73 (sub 0) OBJ File: 'gates.blend'
# www.blender.org
mtllib gateBracket.mtl
o Gate2Bracket
v 0.348931 0.111390 0.001910
v 0.336931 0.111390 0.001910
v 0.348931 0.027390 0.001910
v 0.336931 0.027390 0.001910
v 0.336931 0.027390 0.049910
v 0.336931 -0.068609 0.049910
v 0.342204 -0.068609 0.062638
v 0.342204 0.027390 0.062638
v 0.354932 -0.068609 0.067910
v 0.336931 0.027390 0.001910
v 0.354932 0.027390 0.067910
v 0.336931 -0.068609 0.001910
v 0.468931 -0.068609 0.067911
v 0.468931 0.027390 0.067911
v 0.492931 -0.062178 0.067911
v 0.492931 0.020959 0.067911
v 0.510501 -0.044609 0.067911
v 0.510501 0.003391 0.067911
v 0.516931 -0.020609 0.067911
v 0.336931 -0.068609 -0.070090
v 0.336931 0.111390 0.001910
v 0.336931 0.111390 -0.070090
v 0.335175 0.111390 -0.074332
v 0.335175 -0.068609 -0.074332
v 0.330932 0.111390 -0.076090
v 0.330932 -0.068609 -0.076090
v -0.329068 0.111391 -0.076091
v -0.329068 -0.068608 -0.076091
v -0.333310 0.111391 -0.074334
v -0.333310 -0.068608 -0.074334
v -0.335068 0.111391 -0.070091
v -0.335068 -0.068608 -0.070091
v -0.335068 0.027392 0.001909
v -0.335068 0.111391 0.001909
v -0.335068 -0.068608 0.001909
v -0.335068 0.027392 0.049909
v -0.335068 -0.068608 0.049909
v -0.340340 0.027392 0.062637
v -0.340340 -0.068608 0.062637
v -0.353069 0.027392 0.067909
v -0.353069 -0.068608 0.067909
v -0.467069 0.027392 0.067909
v -0.467069 -0.068608 0.067909
v -0.491069 0.020961 0.067909
v -0.491069 -0.062177 0.067909
v -0.508637 0.003392 0.067909
v -0.508637 -0.044608 0.067909
v -0.515068 -0.020608 0.067909
v 0.350689 0.027390 0.054153
v 0.350689 -0.068609 0.054153
v 0.348931 -0.068609 0.049910
v 0.348931 0.027390 0.049910
v 0.354932 0.027390 0.055910
v 0.348931 -0.068609 0.001910
v 0.354932 -0.068609 0.055910
v 0.348931 0.027390 0.001910
v 0.468931 0.027390 0.055910
v 0.348931 -0.068609 -0.070090
v 0.468931 -0.068609 0.055910
v 0.492931 0.020959 0.055911
v 0.492931 -0.062178 0.055911
v 0.510501 0.003391 0.055911
v 0.510501 -0.044609 0.055911
v 0.516931 -0.020609 0.055911
v 0.348931 0.111390 -0.070090
v 0.348931 0.111390 0.001910
v 0.343660 -0.068609 -0.082818
v 0.343660 0.111390 -0.082818
v 0.330932 -0.068609 -0.088090
v 0.330932 0.111390 -0.088090
v -0.329068 -0.068608 -0.088091
v -0.329068 0.111391 -0.088091
v -0.341797 -0.068608 -0.082819
v -0.341797 0.111391 -0.082819
v -0.347069 -0.068608 -0.070091
v -0.347069 0.111391 -0.070091
v -0.347069 0.027392 0.001909
v -0.347069 0.111391 0.001909
v -0.347069 -0.068608 0.001909
v -0.347069 -0.068608 0.049909
v -0.347069 0.027392 0.049909
v -0.348825 -0.068608 0.054152
v -0.348825 0.027392 0.054152
v -0.353069 -0.068608 0.055909
v -0.353069 0.027392 0.055909
v -0.467069 -0.068608 0.055909
v -0.467069 0.027392 0.055909
v -0.491069 -0.062177 0.055909
v -0.491069 0.020961 0.055909
v -0.508637 -0.044608 0.055909
v -0.508637 0.003392 0.055909
v -0.515068 -0.020608 0.055909
v 0.350689 -0.068609 0.054153
v 0.354932 -0.068609 0.055910
v 0.342204 -0.068609 0.062638
v 0.336931 -0.068609 0.049910
v 0.354932 -0.068609 0.067910
v 0.348931 -0.068609 0.049910
v 0.468931 -0.068609 0.055910
v 0.336931 -0.068609 0.001910
v 0.468931 -0.068609 0.067911
v 0.348931 -0.068609 0.001910
v 0.492931 -0.062178 0.055911
v 0.336931 -0.068609 -0.070090
v 0.492931 -0.062178 0.067911
v 0.348931 -0.068609 -0.070090
v 0.510501 -0.044609 0.055911
v 0.335175 -0.068609 -0.074332
v 0.510501 -0.044609 0.067911
v 0.343660 -0.068609 -0.082818
v 0.516931 -0.020609 0.055911
v 0.330932 -0.068609 -0.076090
v 0.516931 -0.020609 0.067911
v 0.330932 -0.068609 -0.088090
v 0.510501 0.003391 0.055911
v -0.329068 -0.068608 -0.076091
v 0.510501 0.003391 0.067911
v -0.329068 -0.068608 -0.088091
v 0.492931 0.020959 0.055911
v -0.333310 -0.068608 -0.074334
v 0.492931 0.020959 0.067911
v -0.341797 -0.068608 -0.082819
v 0.468931 0.027390 0.055910
v -0.335068 -0.068608 -0.070091
v 0.468931 0.027390 0.067911
v -0.347069 -0.068608 -0.070091
v 0.354932 0.027390 0.055910
v -0.335068 -0.068608 0.001909
v 0.354932 0.027390 0.067910
v -0.347069 -0.068608 0.001909
v 0.350689 0.027390 0.054153
v -0.335068 -0.068608 0.049909
v 0.342204 0.027390 0.062638
v -0.347069 -0.068608 0.049909
v 0.348931 0.027390 0.049910
v -0.340340 -0.068608 0.062637
v 0.336931 0.027390 0.049910
v -0.348825 -0.068608 0.054152
v 0.348931 0.027390 0.001910
v 0.336931 0.027390 0.001910
v -0.353069 -0.068608 0.067909
v -0.353069 -0.068608 0.055909
v -0.467069 -0.068608 0.067909
v -0.467069 -0.068608 0.055909
v -0.491069 -0.062177 0.067909
v -0.491069 -0.062177 0.055909
v -0.508637 -0.044608 0.067909
v -0.508637 -0.044608 0.055909
v -0.515068 -0.020608 0.067909
v -0.515068 -0.020608 0.055909
v -0.508637 0.003392 0.067909
v -0.508637 0.003392 0.055909
v -0.491069 0.020961 0.067909
v -0.491069 0.020961 0.055909
v -0.467069 0.027392 0.067909
v -0.467069 0.027392 0.055909
v -0.353069 0.027392 0.067909
v -0.353069 0.027392 0.055909
v -0.340340 0.027392 0.062637
v -0.348825 0.027392 0.054152
v -0.335068 0.027392 0.049909
v -0.347069 0.027392 0.049909
v -0.335068 0.027392 0.001909
v -0.347069 0.027392 0.001909
v 0.335175 0.111390 -0.074332
v 0.336931 0.111390 -0.070090
v 0.343660 0.111390 -0.082818
v 0.330932 0.111390 -0.088090
v 0.348931 0.111390 -0.070090
v 0.330932 0.111390 -0.076090
v 0.336931 0.111390 0.001910
v 0.348931 0.111390 0.001910
v -0.329068 0.111391 -0.088091
v -0.329068 0.111391 -0.076091
v -0.341797 0.111391 -0.082819
v -0.333310 0.111391 -0.074334
v -0.347069 0.111391 -0.070091
v -0.335068 0.111391 -0.070091
v -0.347069 0.111391 0.001909
v -0.335068 0.111391 0.001909
v -0.335068 0.027392 0.001909
v -0.335068 0.111391 0.001909
v -0.347069 0.111391 0.001909
v -0.347069 0.027392 0.001909
vt 0.500000 0.500000
vn 0.000000 0.000000 1.000000
vn -0.980800 0.000000 0.195100
vn -0.707100 0.000000 0.707100
vn -0.195100 0.000000 0.980800
vn -1.000000 0.000000 0.000000
vn -0.980800 0.000000 0.195000
vn -0.707200 0.000000 0.707000
vn 0.195100 0.000000 0.980800
vn 0.707100 0.000000 0.707100
vn 0.980800 0.000000 0.195100
vn 1.000000 0.000000 0.000000
vn 0.707000 0.000000 -0.707200
vn 0.980800 0.000000 -0.195100
vn 0.195000 0.000000 -0.980800
vn 0.000000 0.000000 -1.000000
vn 0.707100 0.000000 -0.707100
vn 0.195100 0.000000 -0.980800
vn -0.195100 0.000000 -0.980800
vn -0.707100 0.000000 -0.707100
vn -0.980800 0.000000 -0.195100
vn -0.980800 0.000000 -0.195000
vn -0.195000 0.000000 -0.980800
vn 0.000000 -1.000000 0.000000
vn 0.130500 -0.991400 0.000000
vn 0.500000 -0.866000 0.000000
vn 0.866000 -0.500000 0.000000
vn 0.866000 0.500000 0.000000
vn 0.500000 0.866000 0.000000
vn 0.130500 0.991400 0.000000
vn 0.000000 1.000000 0.000000
vn -0.130500 -0.991400 0.000000
vn -0.500000 -0.866000 0.000000
vn -0.866000 -0.500000 0.000000
vn -0.866000 0.500000 0.000000
vn -0.500000 0.866000 0.000000
vn -0.130500 0.991400 0.000000
usemtl None
s 1
f 1/1/1 2/1/1 3/1/1
f 4/1/1 3/1/1 2/1/1
f 5/1/2 6/1/2 7/1/3
f 7/1/3 8/1/3 5/1/2
f 8/1/3 7/1/3 9/1/4
f 6/1/2 5/1/2 10/1/5
f 9/1/4 11/1/4 8/1/3
f 10/1/5 12/1/5 6/1/2
f 11/1/4 9/1/4 13/1/1
f 13/1/1 14/1/1 11/1/4
f 15/1/1 14/1/1 13/1/1
f 14/1/1 15/1/1 16/1/1
f 15/1/1 17/1/1 16/1/1
f 17/1/1 18/1/1 16/1/1
f 17/1/1 19/1/1 18/1/1
f 10/1/5 20/1/6 12/1/5
f 10/1/5 21/1/5 22/1/6
f 20/1/6 10/1/5 22/1/6
f 20/1/6 22/1/6 23/1/7
f 23/1/7 24/1/7 20/1/6
f 24/1/7 23/1/7 25/1/4
f 25/1/4 26/1/4 24/1/7
f 26/1/4 25/1/4 27/1/8
f 27/1/8 28/1/8 26/1/4
f 28/1/8 27/1/8 29/1/9
f 29/1/9 30/1/9 28/1/8
f 30/1/9 29/1/9 31/1/10
f 31/1/10 32/1/10 30/1/9
f 31/1/10 33/1/11 32/1/10
f 33/1/11 31/1/10 34/1/11
f 33/1/11 35/1/11 32/1/10
f 35/1/11 33/1/11 36/1/10
f 36/1/10 37/1/10 35/1/11
f 37/1/10 36/1/10 38/1/9
f 38/1/9 39/1/9 37/1/10
f 39/1/9 38/1/9 40/1/8
f 40/1/8 41/1/8 39/1/9
f 41/1/8 40/1/8 42/1/1
f 42/1/1 43/1/1 41/1/8
f 44/1/1 43/1/1 42/1/1
f 43/1/1 44/1/1 45/1/1
f 44/1/1 46/1/1 45/1/1
f 46/1/1 47/1/1 45/1/1
f 46/1/1 48/1/1 47/1/1
f 49/1/12 50/1/12 51/1/13
f 51/1/13 52/1/13 49/1/12
f 50/1/12 49/1/12 53/1/14
f 52/1/13 51/1/13 54/1/11
f 53/1/14 55/1/14 50/1/12
f 54/1/11 56/1/11 52/1/13
f 55/1/14 53/1/14 57/1/15
f 56/1/11 54/1/11 58/1/13
f 57/1/15 59/1/15 55/1/14
f 59/1/15 57/1/15 60/1/15
f 60/1/15 61/1/15 59/1/15
f 60/1/15 62/1/15 61/1/15
f 62/1/15 63/1/15 61/1/15
f 62/1/15 64/1/15 63/1/15
f 65/1/13 56/1/11 58/1/13
f 56/1/11 65/1/13 66/1/11
f 65/1/13 58/1/13 67/1/16
f 67/1/16 68/1/16 65/1/13
f 68/1/16 67/1/16 69/1/17
f 69/1/17 70/1/17 68/1/16
f 70/1/17 69/1/17 71/1/18
f 71/1/18 72/1/18 70/1/17
f 72/1/18 71/1/18 73/1/19
f 73/1/19 74/1/19 72/1/18
f 74/1/19 73/1/19 75/1/20
f 75/1/20 76/1/20 74/1/19
f 75/1/20 77/1/5 76/1/20
f 77/1/5 78/1/5 76/1/20
f 77/1/5 75/1/20 79/1/5
f 77/1/5 79/1/5 80/1/21
f 80/1/21 81/1/21 77/1/5
f 81/1/21 80/1/21 82/1/19
f 82/1/19 83/1/19 81/1/21
f 83/1/19 82/1/19 84/1/22
f 84/1/22 85/1/22 83/1/19
f 85/1/22 84/1/22 86/1/15
f 86/1/15 87/1/15 85/1/22
f 87/1/15 86/1/15 88/1/15
f 88/1/15 89/1/15 87/1/15
f 88/1/15 90/1/15 89/1/15
f 90/1/15 91/1/15 89/1/15
f 90/1/15 92/1/15 91/1/15
f 93/1/23 94/1/23 95/1/23
f 95/1/23 96/1/23 93/1/23
f 97/1/23 95/1/23 94/1/23
f 93/1/23 96/1/23 98/1/23
f 97/1/23 94/1/23 99/1/24
f 98/1/23 96/1/23 100/1/23
f 99/1/24 101/1/24 97/1/23
f 100/1/23 102/1/23 98/1/23
f 101/1/24 99/1/24 103/1/25
f 102/1/23 100/1/23 104/1/23
f 103/1/25 105/1/25 101/1/24
f 104/1/23 106/1/23 102/1/23
f 105/1/25 103/1/25 107/1/26
f 104/1/23 108/1/23 106/1/23
f 107/1/26 109/1/26 105/1/25
f 110/1/23 106/1/23 108/1/23
f 109/1/26 107/1/26 111/1/11
f 108/1/23 112/1/23 110/1/23
f 111/1/11 113/1/11 109/1/26
f 114/1/23 110/1/23 112/1/23
f 113/1/11 111/1/11 115/1/27
f 114/1/23 112/1/23 116/1/23
f 115/1/27 117/1/27 113/1/11
f 116/1/23 118/1/23 114/1/23
f 117/1/27 115/1/27 119/1/28
f 116/1/23 120/1/23 118/1/23
f 119/1/28 121/1/28 117/1/27
f 122/1/23 118/1/23 120/1/23
f 121/1/28 119/1/28 123/1/29
f 124/1/23 122/1/23 120/1/23
f 123/1/29 125/1/29 121/1/28
f 122/1/23 124/1/23 126/1/23
f 125/1/29 123/1/29 127/1/30
f 126/1/23 124/1/23 128/1/23
f 127/1/30 129/1/30 125/1/29
f 128/1/23 130/1/23 126/1/23
f 127/1/30 131/1/30 129/1/30
f 130/1/23 128/1/23 132/1/23
f 133/1/30 129/1/30 131/1/30
f 132/1/23 134/1/23 130/1/23
f 135/1/30 133/1/30 131/1/30
f 132/1/23 136/1/23 134/1/23
f 133/1/30 135/1/30 137/1/30
f 138/1/23 134/1/23 136/1/23
f 137/1/30 135/1/30 139/1/30
f 139/1/30 140/1/30 137/1/30
f 136/1/23 141/1/23 138/1/23
f 142/1/23 138/1/23 141/1/23
f 142/1/23 141/1/23 143/1/31
f 143/1/31 144/1/31 142/1/23
f 144/1/31 143/1/31 145/1/32
f 145/1/32 146/1/32 144/1/31
f 146/1/32 145/1/32 147/1/33
f 147/1/33 148/1/33 146/1/32
f 148/1/33 147/1/33 149/1/5
f 149/1/5 150/1/5 148/1/33
f 150/1/5 149/1/5 151/1/34
f 151/1/34 152/1/34 150/1/5
f 152/1/34 151/1/34 153/1/35
f 153/1/35 154/1/35 152/1/34
f 154/1/35 153/1/35 155/1/36
f 155/1/36 156/1/36 154/1/35
f 156/1/36 155/1/36 157/1/30
f 157/1/30 158/1/30 156/1/36
f 157/1/30 159/1/30 158/1/30
f 160/1/30 158/1/30 159/1/30
f 159/1/30 161/1/30 160/1/30
f 162/1/30 160/1/30 161/1/30
f 162/1/30 161/1/30 163/1/30
f 163/1/30 164/1/30 162/1/30
f 165/1/30 166/1/30 167/1/30
f 167/1/30 168/1/30 165/1/30
f 169/1/30 167/1/30 166/1/30
f 170/1/30 165/1/30 168/1/30
f 169/1/30 166/1/30 171/1/30
f 171/1/30 172/1/30 169/1/30
f 170/1/30 168/1/30 173/1/30
f 173/1/30 174/1/30 170/1/30
f 173/1/30 175/1/30 174/1/30
f 176/1/30 174/1/30 175/1/30
f 175/1/30 177/1/30 176/1/30
f 176/1/30 177/1/30 178/1/30
f 178/1/30 177/1/30 179/1/30
f 179/1/30 180/1/30 178/1/30
f 181/1/1 182/1/1 183/1/1
f 184/1/1 181/1/1 183/1/1
