# Blender v2.73 (sub 0) OBJ File: 'hitTarget-Rectangle.blend'
# www.blender.org
mtllib hitTargetRectangle.mtl
o target_t1_rectangle.mo_target_t1_rectangle.m
v 0.656560 0.197081 -1.512698
v 0.656542 0.197081 -0.662663
v 0.656542 0.087036 -0.662663
v 0.656560 0.087036 -1.512698
v -0.693550 0.087036 -1.512698
v -0.693550 0.087036 -0.662656
v -0.693550 0.197081 -0.662656
v -0.693550 0.197081 -1.512698
v 0.519060 0.087036 -1.650198
v -0.556050 0.197081 -1.650198
v 0.519060 0.197081 -1.650198
v -0.556050 0.087036 -1.650198
v -0.556050 0.197081 -0.525156
v -0.556050 0.087036 -0.525156
v 0.519042 0.197081 -0.525163
v 0.519042 0.087036 -0.525163
v 0.571624 0.197081 -0.535643
v 0.571624 0.087036 -0.535643
v 0.616233 0.197081 -0.565449
v 0.616233 0.087036 -0.565449
v 0.646039 0.197081 -0.610058
v 0.646039 0.087036 -0.610058
v -0.608614 0.087036 -0.535643
v -0.608614 0.197081 -0.535643
v -0.653222 0.087036 -0.565449
v -0.653222 0.197081 -0.565449
v -0.683029 0.087036 -0.610058
v -0.683029 0.197081 -0.610058
v 0.571624 0.087036 -1.639711
v 0.571624 0.197081 -1.639711
v 0.616233 0.087036 -1.609905
v 0.616233 0.197081 -1.609905
v 0.646039 0.087036 -1.565296
v 0.646039 0.197081 -1.565296
v -0.608614 0.197081 -1.639711
v -0.608614 0.087036 -1.639711
v -0.653222 0.197081 -1.609905
v -0.653222 0.087036 -1.609905
v -0.683029 0.197081 -1.565296
v -0.683029 0.087036 -1.565296
v -0.018495 0.197081 -1.087677
v 0.231505 0.087036 0.287488
v 0.231505 0.062062 0.287488
v 0.231505 0.087036 -1.312845
v 0.231505 0.062062 -1.312845
v -0.268495 0.087036 -1.312845
v -0.268495 0.062062 -1.312845
v -0.268495 0.062062 0.287488
v -0.268495 0.087036 0.287488
v 0.119006 0.197081 -1.087678
v -0.018495 0.222121 -1.087678
v 0.108539 0.197081 -1.035059
v 0.078733 0.197081 -0.990451
v 0.034124 0.197081 -0.960644
v -0.018495 0.197081 -0.950178
v -0.071114 0.197081 -0.960644
v -0.115722 0.197081 -0.990451
v -0.145529 0.197081 -1.035059
v -0.155995 0.197081 -1.087678
v -0.145529 0.197081 -1.140298
v -0.115722 0.197081 -1.184906
v -0.071114 0.197081 -1.214712
v -0.018495 0.197081 -1.225179
v 0.034124 0.197081 -1.214712
v 0.078733 0.197081 -1.184906
v 0.108539 0.197081 -1.140298
v 0.244005 -0.007938 -0.437678
v 0.244005 -0.157938 -0.437678
v 0.244005 -0.007938 -1.775178
v 0.244005 -0.157938 -1.775178
v -0.280995 -0.007938 -1.775178
v -0.280995 -0.157938 -1.775178
v -0.280995 -0.157938 -0.437678
v -0.280995 -0.007938 -0.437678
v 0.256505 -0.157938 0.287322
v 0.256505 -0.207938 0.287322
v 0.256505 -0.157938 -1.787678
v 0.256505 -0.207938 -1.787678
v -0.293495 -0.157938 -1.787678
v -0.293495 -0.207938 -1.787678
v -0.293495 -0.207938 0.287322
v -0.293495 -0.157938 0.287322
v -0.018495 0.087036 -1.087677
v 0.656560 0.197081 -1.512698
v 0.656542 0.197081 -0.662663
v 0.656542 0.087036 -0.662663
v 0.656560 0.087036 -1.512698
v -0.693550 0.087036 -1.512698
v -0.693550 0.087036 -0.662656
v -0.693550 0.197081 -0.662656
v -0.693550 0.197081 -1.512698
v -0.556050 0.197081 -1.650198
v 0.519060 0.197081 -1.650198
v 0.519060 0.087036 -1.650198
v -0.556050 0.087036 -1.650198
v 0.519042 0.197081 -0.525163
v -0.556050 0.197081 -0.525156
v -0.556050 0.087036 -0.525156
v 0.519042 0.087036 -0.525163
v 0.571624 0.087036 -0.535643
v 0.571624 0.197081 -0.535643
v 0.616233 0.087036 -0.565449
v 0.616233 0.197081 -0.565449
v 0.646039 0.087036 -0.610058
v 0.646039 0.197081 -0.610058
v -0.608614 0.087036 -0.535643
v -0.608614 0.197081 -0.535643
v -0.653222 0.087036 -0.565449
v -0.653222 0.197081 -0.565449
v -0.683029 0.087036 -0.610058
v -0.683029 0.197081 -0.610058
v 0.571624 0.087036 -1.639711
v 0.571624 0.197081 -1.639711
v 0.616233 0.087036 -1.609905
v 0.616233 0.197081 -1.609905
v 0.646039 0.087036 -1.565296
v 0.646039 0.197081 -1.565296
v -0.608614 0.087036 -1.639711
v -0.608614 0.197081 -1.639711
v -0.653222 0.087036 -1.609905
v -0.653222 0.197081 -1.609905
v -0.683029 0.087036 -1.565296
v -0.683029 0.197081 -1.565296
v 0.231505 0.087036 -1.312845
v 0.231505 0.087036 -1.312845
v 0.231505 0.087036 0.287488
v 0.231505 0.062062 0.287488
v 0.231505 0.062062 -1.312845
v 0.231505 0.062062 -1.312845
v -0.268495 0.087036 -1.312845
v -0.268495 0.087036 -1.312845
v -0.268495 0.062062 -1.312845
v -0.268495 0.062062 -1.312845
v -0.268495 0.062062 0.287488
v -0.268495 0.087036 0.287488
v 0.244005 -0.007938 -0.437678
v 0.244005 -0.007938 -0.437678
v 0.244005 -0.157938 -0.437678
v 0.244005 -0.007938 -1.775178
v 0.244005 -0.007938 -1.775178
v 0.244005 -0.157938 -1.775178
v -0.280995 -0.007938 -1.775178
v -0.280995 -0.007938 -1.775178
v -0.280995 -0.157938 -1.775178
v -0.280995 -0.157938 -0.437678
v -0.280995 -0.007938 -0.437678
v -0.280995 -0.007938 -0.437678
v 0.256505 -0.157938 -1.787678
v 0.256505 -0.157938 -1.787678
v 0.256505 -0.157938 0.287322
v 0.256505 -0.207938 0.287322
v 0.256505 -0.207938 -1.787678
v 0.256505 -0.207938 -1.787678
v -0.293495 -0.157938 -1.787678
v -0.293495 -0.157938 -1.787678
v -0.293495 -0.207938 -1.787678
v -0.293495 -0.207938 -1.787678
v -0.293495 -0.207938 0.287322
v -0.293495 -0.157938 0.287322
vt 0.255427 0.369374
vt 0.459613 0.369374
vt 0.459613 0.400624
vt 0.255427 0.400624
vt 0.959624 0.400624
vt 0.755437 0.400624
vt 0.755437 0.369374
vt 0.959624 0.369374
vt 0.215200 0.400624
vt 0.000000 0.369374
vt 0.215200 0.369374
vt 0.000000 0.400624
vt 0.715179 0.369374
vt 0.715179 0.400624
vt 0.499949 0.369374
vt 0.499949 0.400624
vt 0.489929 0.369374
vt 0.489929 0.400624
vt 0.479630 0.369374
vt 0.479630 0.400624
vt 0.469622 0.369374
vt 0.469622 0.400624
vt 0.725195 0.400624
vt 0.725195 0.369374
vt 0.735117 0.400624
vt 0.735117 0.369374
vt 0.745429 0.400624
vt 0.745429 0.369374
vt 0.225216 0.400624
vt 0.225216 0.369374
vt 0.235108 0.400624
vt 0.235108 0.369374
vt 0.245419 0.400624
vt 0.245419 0.369374
vt 0.989984 0.369374
vt 1.000000 0.400624
vt 0.989984 0.400624
vt 1.000000 0.369374
vt 0.979640 0.369374
vt 0.979640 0.400624
vt 0.969632 0.369374
vt 0.969632 0.400624
vt 0.036911 0.003925
vt 0.169393 0.142513
vt 0.023952 0.006507
vt 0.012957 0.013850
vt 0.005611 0.024841
vt 0.003023 0.037801
vt 0.301880 0.003923
vt 0.314835 0.006507
vt 0.325829 0.013850
vt 0.333175 0.024841
vt 0.335768 0.037799
vt 0.335768 0.247227
vt 0.333175 0.260186
vt 0.325829 0.271176
vt 0.314835 0.278520
vt 0.301880 0.281104
vt 0.036907 0.281104
vt 0.023952 0.278520
vt 0.012957 0.271176
vt 0.005611 0.260186
vt 0.003018 0.247227
vt 0.656805 0.421967
vt 0.351378 0.707581
vt 0.629590 0.416544
vt 0.679893 0.437388
vt 0.695320 0.460468
vt 0.700765 0.487685
vt 0.073156 0.416541
vt 0.045950 0.421967
vt 0.022862 0.437388
vt 0.007436 0.460468
vt 0.001990 0.487681
vt 0.001990 0.927481
vt 0.007436 0.954694
vt 0.022862 0.977773
vt 0.045950 0.993196
vt 0.073156 0.998621
vt 0.629599 0.998621
vt 0.656805 0.993196
vt 0.679893 0.977773
vt 0.695320 0.954694
vt 0.700765 0.927481
vt 0.858268 0.419588
vt 0.872391 0.419588
vt 0.858268 0.800765
vt 0.872391 0.800765
vt 0.858172 0.820721
vt 0.739176 0.800765
vt 0.739112 0.820721
vt 0.724978 0.800765
vt 0.724978 0.419588
vt 0.739176 0.419588
vt 0.991483 0.419588
vt 0.991483 0.800765
vt 0.993786 0.911976
vt 0.910599 0.911976
vt 0.987454 0.880142
vt 0.969421 0.853154
vt 0.942433 0.835121
vt 0.910599 0.828789
vt 0.878764 0.835121
vt 0.851776 0.853154
vt 0.833744 0.880142
vt 0.827411 0.911976
vt 0.833744 0.943811
vt 0.851776 0.970798
vt 0.878764 0.988831
vt 0.910599 0.995164
vt 0.942433 0.988831
vt 0.969421 0.970798
vt 0.987454 0.943811
vt 0.498307 0.038596
vt 0.530374 0.038596
vt 0.498307 0.320619
vt 0.530374 0.320619
vt 0.498307 0.353884
vt 0.386403 0.320619
vt 0.386403 0.353884
vt 0.354738 0.320619
vt 0.354738 0.038596
vt 0.386403 0.038596
vt 0.498307 0.006704
vt 0.386403 0.006704
vt 0.995664 0.148299
vt 0.995664 0.170493
vt 0.572135 0.148299
vt 0.572135 0.170493
vt 0.551487 0.148299
vt 0.572135 0.024884
vt 0.551487 0.024884
vt 0.572135 0.003710
vt 0.995664 0.003710
vt 0.995664 0.024884
vt 0.995664 0.293980
vt 0.572135 0.293980
vn 0.995100 0.000000 -0.098500
vn 0.995100 0.000000 0.098400
vn -0.995100 0.000000 -0.098500
vn -0.995100 0.000000 0.098500
vn 0.098300 0.000000 -0.995200
vn -0.098300 0.000000 -0.995200
vn -0.098300 0.000000 0.995200
vn 0.098200 0.000000 0.995200
vn 0.382900 0.000000 0.923800
vn 0.707100 0.000000 0.707100
vn 0.923700 0.000000 0.383000
vn -0.383000 0.000000 0.923800
vn -0.707100 0.000000 0.707100
vn -0.923700 0.000000 0.383200
vn 0.383000 0.000000 -0.923800
vn 0.382900 0.000000 -0.923800
vn 0.707100 0.000000 -0.707100
vn 0.923700 0.000000 -0.383200
vn -0.383000 0.000000 -0.923800
vn -0.707100 0.000000 -0.707100
vn -0.923700 0.000000 -0.383200
vn -0.000000 -1.000000 -0.000000
vn 0.000000 1.000000 -0.000000
vn 1.000000 0.000000 -0.000000
vn 0.000000 0.000000 -1.000000
vn -1.000000 0.000000 0.000000
vn 0.179200 0.983800 -0.000000
vn 0.165500 0.983800 0.068600
vn 0.126700 0.983800 0.126700
vn 0.068600 0.983800 0.165500
vn -0.000000 0.983800 0.179200
vn -0.068600 0.983800 0.165500
vn -0.126700 0.983800 0.126700
vn -0.165500 0.983800 0.068600
vn -0.179200 0.983800 -0.000000
vn -0.165500 0.983800 -0.068600
vn -0.126700 0.983800 -0.126700
vn -0.068600 0.983800 -0.165500
vn -0.000000 0.983800 -0.179200
vn 0.068600 0.983800 -0.165500
vn 0.126700 0.983800 -0.126700
vn 0.165500 0.983800 -0.068600
vn 0.000000 0.000000 1.000000
usemtl None
s 1
f 1/1/1 2/2/2 3/3/2
f 1/1/1 3/3/2 4/4/1
f 5/5/3 6/6/4 7/7/4
f 5/5/3 7/7/4 8/8/3
f 9/9/5 10/10/6 11/11/5
f 12/12/6 10/10/6 9/9/5
f 13/13/7 14/14/7 15/15/8
f 14/14/7 16/16/8 15/15/8
f 17/17/9 16/16/8 18/18/9
f 15/15/8 16/16/8 17/17/9
f 19/19/10 18/18/9 20/20/10
f 17/17/9 18/18/9 19/19/10
f 21/21/11 20/20/10 22/22/11
f 19/19/10 20/20/10 21/21/11
f 2/2/2 22/22/11 3/3/2
f 21/21/11 22/22/11 2/2/2
f 23/23/12 14/14/7 13/13/7
f 24/24/12 23/23/12 13/13/7
f 25/25/13 23/23/12 24/24/12
f 26/26/13 25/25/13 24/24/12
f 27/27/14 25/25/13 26/26/13
f 28/28/14 27/27/14 26/26/13
f 6/6/4 27/27/14 28/28/14
f 7/7/4 6/6/4 28/28/14
f 29/29/15 9/9/5 11/11/5
f 30/30/16 29/29/15 11/11/5
f 31/31/17 29/29/15 30/30/16
f 32/32/17 31/31/17 30/30/16
f 33/33/18 31/31/17 32/32/17
f 34/34/18 33/33/18 32/32/17
f 4/4/1 33/33/18 34/34/18
f 1/1/1 4/4/1 34/34/18
f 35/35/19 12/36/6 36/37/19
f 10/38/6 12/36/6 35/35/19
f 37/39/20 36/37/19 38/40/20
f 35/35/19 36/37/19 37/39/20
f 39/41/21 38/40/20 40/42/21
f 37/39/20 38/40/20 39/41/21
f 8/8/3 40/42/21 5/5/3
f 39/41/21 40/42/21 8/8/3
f 99/43/22 83/44/22 100/45/22
f 102/46/22 100/45/22 83/44/22
f 104/47/22 102/46/22 83/44/22
f 86/48/22 104/47/22 83/44/22
f 99/43/22 98/49/22 83/44/22
f 106/50/22 83/44/22 98/49/22
f 108/51/22 83/44/22 106/50/22
f 110/52/22 83/44/22 108/51/22
f 110/52/22 89/53/22 83/44/22
f 88/54/22 83/44/22 89/53/22
f 122/55/22 83/44/22 88/54/22
f 120/56/22 83/44/22 122/55/22
f 118/57/22 83/44/22 120/56/22
f 95/58/22 83/44/22 118/57/22
f 94/59/22 83/44/22 95/58/22
f 112/60/22 83/44/22 94/59/22
f 114/61/22 83/44/22 112/60/22
f 116/62/22 83/44/22 114/61/22
f 87/63/22 83/44/22 116/62/22
f 87/63/22 86/48/22 83/44/22
f 101/64/23 41/65/23 96/66/23
f 41/65/23 101/64/23 103/67/23
f 41/65/23 103/67/23 105/68/23
f 41/65/23 105/68/23 85/69/23
f 41/65/23 97/70/23 96/66/23
f 97/70/23 41/65/23 107/71/23
f 107/71/23 41/65/23 109/72/23
f 109/72/23 41/65/23 111/73/23
f 41/65/23 90/74/23 111/73/23
f 90/74/23 41/65/23 91/75/23
f 91/75/23 41/65/23 123/76/23
f 123/76/23 41/65/23 121/77/23
f 121/77/23 41/65/23 119/78/23
f 119/78/23 41/65/23 92/79/23
f 92/79/23 41/65/23 93/80/23
f 93/80/23 41/65/23 113/81/23
f 113/81/23 41/65/23 115/82/23
f 115/82/23 41/65/23 117/83/23
f 117/83/23 41/65/23 84/84/23
f 41/65/23 85/69/23 84/84/23
f 42/85/24 43/86/24 44/87/24
f 43/86/24 45/88/24 44/87/24
f 124/87/25 128/89/25 46/90/25
f 128/89/25 47/91/25 46/90/25
f 130/90/26 132/92/26 48/93/26
f 130/90/26 48/93/26 49/94/26
f 131/90/23 135/94/23 125/87/23
f 135/94/23 126/85/23 125/87/23
f 134/95/22 133/96/22 129/88/22
f 134/95/22 129/88/22 127/86/22
f 50/97/27 51/98/23 52/99/28
f 52/99/28 51/98/23 53/100/29
f 53/100/29 51/98/23 54/101/30
f 54/101/30 51/98/23 55/102/31
f 55/102/31 51/98/23 56/103/32
f 56/103/32 51/98/23 57/104/33
f 57/104/33 51/98/23 58/105/34
f 58/105/34 51/98/23 59/106/35
f 59/106/35 51/98/23 60/107/36
f 60/107/36 51/98/23 61/108/37
f 61/108/37 51/98/23 62/109/38
f 62/109/38 51/98/23 63/110/39
f 63/110/39 51/98/23 64/111/40
f 64/111/40 51/98/23 65/112/41
f 65/112/41 51/98/23 66/113/42
f 66/113/42 51/98/23 50/97/27
f 67/114/24 68/115/24 69/116/24
f 68/115/24 70/117/24 69/116/24
f 139/116/25 141/118/25 71/119/25
f 141/118/25 72/120/25 71/119/25
f 142/119/26 144/121/26 73/122/26
f 142/119/26 73/122/26 74/123/26
f 143/119/23 146/123/23 140/116/23
f 146/123/23 136/114/23 140/116/23
f 138/124/43 147/123/43 145/125/43
f 147/123/43 138/124/43 137/114/43
f 75/126/24 76/127/24 77/128/24
f 76/127/24 78/129/24 77/128/24
f 148/128/25 152/130/25 79/131/25
f 152/130/25 80/132/25 79/131/25
f 154/131/26 156/133/26 81/134/26
f 154/131/26 81/134/26 82/135/26
f 155/131/23 159/135/23 149/128/23
f 159/135/23 150/126/23 149/128/23
f 158/136/22 157/137/22 153/129/22
f 158/136/22 153/129/22 151/127/22
