# Blender v2.73 (sub 0) OBJ File: 'hitTarget-Round.blend'
# www.blender.org
mtllib hitTargetRound.mtl
o target_t1_round.mo_target_t1_round.m
v 0.600370 0.085699 -1.092180
v 0.600370 0.195698 -1.092180
v 0.588605 0.085699 -0.972723
v 0.588605 0.195698 -0.972723
v 0.553760 0.195698 -0.857857
v 0.553760 0.085699 -0.857857
v 0.497176 0.085699 -0.751995
v 0.497176 0.195698 -0.751995
v 0.421027 0.195698 -0.659207
v 0.421027 0.085699 -0.659207
v 0.328238 0.085699 -0.583057
v 0.328238 0.195698 -0.583057
v 0.222377 0.195698 -0.526473
v 0.222377 0.085699 -0.526473
v 0.107510 0.085699 -0.491629
v 0.107510 0.195698 -0.491629
v -0.011947 0.195698 -0.479863
v -0.011947 0.085699 -0.479863
v -0.131404 0.085699 -0.491629
v -0.131404 0.195698 -0.491629
v -0.246271 0.195698 -0.526473
v -0.246271 0.085699 -0.526473
v -0.352132 0.085699 -0.583057
v -0.352132 0.195698 -0.583057
v -0.444921 0.195698 -0.659207
v -0.444921 0.085699 -0.659207
v -0.521070 0.085699 -0.751995
v -0.521070 0.195698 -0.751995
v -0.577654 0.195698 -0.857857
v -0.577654 0.085699 -0.857857
v -0.612499 0.085699 -0.972723
v -0.612499 0.195698 -0.972723
v -0.624264 0.195698 -1.092180
v -0.624264 0.085699 -1.092180
v -0.612499 0.085699 -1.211638
v -0.612499 0.195698 -1.211638
v -0.577654 0.195698 -1.326504
v -0.577654 0.085699 -1.326504
v -0.521070 0.085699 -1.432366
v -0.521070 0.195698 -1.432366
v -0.444921 0.195698 -1.525154
v -0.444921 0.085699 -1.525154
v -0.352132 0.085699 -1.601304
v -0.352132 0.195698 -1.601304
v -0.246271 0.195698 -1.657888
v -0.246271 0.085699 -1.657888
v -0.131404 0.085699 -1.692732
v -0.131404 0.195698 -1.692732
v -0.011947 0.195698 -1.704498
v -0.011947 0.085699 -1.704498
v 0.107510 0.085699 -1.692732
v 0.107510 0.195698 -1.692732
v 0.222377 0.195698 -1.657888
v 0.222377 0.085699 -1.657888
v 0.328238 0.085699 -1.601304
v 0.328238 0.195698 -1.601304
v 0.421027 0.195698 -1.525154
v 0.421027 0.085699 -1.525154
v 0.497176 0.085699 -1.432366
v 0.497176 0.195698 -1.432366
v 0.553760 0.195698 -1.326504
v 0.553760 0.085699 -1.326504
v 0.588605 0.085699 -1.211638
v 0.588605 0.195698 -1.211638
v -0.011947 0.195698 -1.092180
v -0.011947 0.085699 -1.092180
v 0.238053 0.085699 0.282986
v 0.238053 0.060708 0.282986
v 0.238053 0.085699 -1.317347
v 0.238053 0.060708 -1.317347
v -0.261947 0.085699 -1.317347
v -0.261947 0.060708 -1.317347
v -0.261947 0.085699 0.282986
v -0.261947 0.060708 0.282986
v 0.125554 0.195698 -1.092180
v -0.011947 0.220744 -1.092180
v 0.115087 0.195698 -1.039561
v 0.085281 0.195698 -0.994953
v 0.040672 0.195698 -0.965146
v -0.011947 0.195698 -0.954680
v -0.064566 0.195698 -0.965146
v -0.109174 0.195698 -0.994953
v -0.138981 0.195698 -1.039561
v -0.149448 0.195698 -1.092180
v -0.138981 0.195698 -1.144800
v -0.109174 0.195698 -1.189408
v -0.064566 0.195698 -1.219214
v -0.011947 0.195698 -1.229681
v 0.040672 0.195698 -1.219214
v 0.085281 0.195698 -1.189408
v 0.115087 0.195698 -1.144800
v 0.250553 -0.009285 -0.442180
v 0.250553 -0.159264 -0.442180
v 0.250553 -0.009285 -1.779680
v 0.250553 -0.159264 -1.779680
v -0.274447 -0.009285 -1.779680
v -0.274447 -0.159264 -1.779680
v -0.274447 -0.009285 -0.442180
v -0.274447 -0.159264 -0.442180
v 0.263053 -0.159264 0.282820
v 0.263053 -0.209258 0.282820
v 0.263053 -0.159264 -1.792181
v 0.263053 -0.209258 -1.792181
v -0.286947 -0.159264 -1.792181
v -0.286947 -0.209258 -1.792181
v -0.286947 -0.159264 0.282820
v -0.286947 -0.209258 0.282820
v 0.588605 0.085699 -0.972723
v 0.600370 0.085699 -1.092180
v 0.600370 0.195698 -1.092180
v 0.588605 0.195698 -0.972723
v 0.553760 0.195698 -0.857857
v 0.553760 0.085699 -0.857857
v 0.497176 0.085699 -0.751995
v 0.497176 0.195698 -0.751995
v 0.421027 0.195698 -0.659207
v 0.421027 0.085699 -0.659207
v 0.328238 0.085699 -0.583057
v 0.328238 0.195698 -0.583057
v 0.222377 0.195698 -0.526473
v 0.222377 0.085699 -0.526473
v 0.107510 0.085699 -0.491629
v 0.107510 0.195698 -0.491629
v -0.011947 0.195698 -0.479863
v -0.011947 0.085699 -0.479863
v -0.131404 0.085699 -0.491629
v -0.131404 0.195698 -0.491629
v -0.246271 0.195698 -0.526473
v -0.246271 0.085699 -0.526473
v -0.352132 0.085699 -0.583057
v -0.352132 0.195698 -0.583057
v -0.444921 0.195698 -0.659207
v -0.444921 0.085699 -0.659207
v -0.521070 0.085699 -0.751995
v -0.521070 0.195698 -0.751995
v -0.577654 0.195698 -0.857857
v -0.577654 0.085699 -0.857857
v -0.612499 0.085699 -0.972723
v -0.612499 0.195698 -0.972723
v -0.624264 0.195698 -1.092180
v -0.624264 0.085699 -1.092180
v -0.612499 0.085699 -1.211638
v -0.612499 0.195698 -1.211638
v -0.577654 0.195698 -1.326504
v -0.577654 0.085699 -1.326504
v -0.521070 0.085699 -1.432366
v -0.521070 0.195698 -1.432366
v -0.444921 0.195698 -1.525154
v -0.444921 0.085699 -1.525154
v -0.352132 0.085699 -1.601304
v -0.352132 0.195698 -1.601304
v -0.246271 0.195698 -1.657888
v -0.246271 0.085699 -1.657888
v -0.131404 0.085699 -1.692732
v -0.131404 0.195698 -1.692732
v -0.011947 0.195698 -1.704498
v -0.011947 0.085699 -1.704498
v 0.107510 0.085699 -1.692732
v 0.107510 0.195698 -1.692732
v 0.222377 0.195698 -1.657888
v 0.222377 0.085699 -1.657888
v 0.328238 0.085699 -1.601304
v 0.328238 0.195698 -1.601304
v 0.421027 0.195698 -1.525154
v 0.421027 0.085699 -1.525154
v 0.497176 0.085699 -1.432366
v 0.497176 0.195698 -1.432366
v 0.553760 0.195698 -1.326504
v 0.553760 0.085699 -1.326504
v 0.588605 0.085699 -1.211638
v 0.588605 0.195698 -1.211638
v 0.238053 0.085699 -1.317347
v 0.238053 0.085699 -1.317347
v 0.238053 0.085699 0.282986
v 0.238053 0.060708 0.282986
v 0.238053 0.060708 -1.317347
v 0.238053 0.060708 -1.317347
v -0.261947 0.085699 -1.317347
v -0.261947 0.085699 -1.317347
v -0.261947 0.060708 -1.317347
v -0.261947 0.060708 -1.317347
v -0.261947 0.060708 0.282986
v -0.261947 0.085699 0.282986
v 0.250553 -0.009285 -0.442180
v 0.250553 -0.009285 -0.442180
v 0.250553 -0.159264 -0.442180
v 0.250553 -0.009285 -1.779680
v 0.250553 -0.009285 -1.779680
v 0.250553 -0.159264 -1.779680
v -0.274447 -0.009285 -1.779680
v -0.274447 -0.009285 -1.779680
v -0.274447 -0.159264 -1.779680
v -0.274447 -0.159264 -0.442180
v -0.274447 -0.009285 -0.442180
v -0.274447 -0.009285 -0.442180
v 0.263053 -0.159264 -1.792181
v 0.263053 -0.159264 -1.792181
v 0.263053 -0.159264 0.282820
v 0.263053 -0.209258 0.282820
v 0.263053 -0.209258 -1.792181
v 0.263053 -0.209258 -1.792181
v -0.286947 -0.159264 -1.792181
v -0.286947 -0.159264 -1.792181
v -0.286947 -0.209258 -1.792181
v -0.286947 -0.209258 -1.792181
v -0.286947 -0.209258 0.282820
v -0.286947 -0.159264 0.282820
vt 0.250000 0.370375
vt 0.250000 0.401625
vt 0.218750 0.370375
vt 0.218750 0.401625
vt 0.187500 0.370375
vt 0.187500 0.401625
vt 0.156250 0.370375
vt 0.156250 0.401625
vt 0.125000 0.370375
vt 0.125000 0.401625
vt 0.093750 0.370375
vt 0.093750 0.401625
vt 0.062500 0.370375
vt 0.062500 0.401625
vt 0.031250 0.370375
vt 0.031250 0.401625
vt 0.000000 0.370375
vt 0.000000 0.401625
vt 1.000000 0.370375
vt 1.000000 0.401625
vt 0.968750 0.370375
vt 0.968750 0.401625
vt 0.937500 0.370375
vt 0.937500 0.401625
vt 0.906250 0.370375
vt 0.906250 0.401625
vt 0.875000 0.370375
vt 0.875000 0.401625
vt 0.843750 0.370375
vt 0.843750 0.401625
vt 0.812500 0.370375
vt 0.812500 0.401625
vt 0.781250 0.370375
vt 0.781250 0.401625
vt 0.750000 0.370375
vt 0.750000 0.401625
vt 0.718750 0.370375
vt 0.718750 0.401625
vt 0.687500 0.370375
vt 0.687500 0.401625
vt 0.656250 0.370375
vt 0.656250 0.401625
vt 0.625000 0.370375
vt 0.625000 0.401625
vt 0.593750 0.370375
vt 0.593750 0.401625
vt 0.562500 0.370375
vt 0.562500 0.401625
vt 0.531250 0.370375
vt 0.531250 0.401625
vt 0.500000 0.370375
vt 0.500000 0.401625
vt 0.468750 0.370375
vt 0.468750 0.401625
vt 0.437500 0.370375
vt 0.437500 0.401625
vt 0.406250 0.370375
vt 0.406250 0.401625
vt 0.375000 0.370375
vt 0.375000 0.401625
vt 0.343750 0.370375
vt 0.343750 0.401625
vt 0.312500 0.370375
vt 0.312500 0.401625
vt 0.281250 0.370375
vt 0.281250 0.401625
vt 0.635215 0.651643
vt 0.640792 0.708268
vt 0.350544 0.708268
vt 0.618699 0.597194
vt 0.591877 0.547014
vt 0.555781 0.503031
vt 0.511797 0.466935
vt 0.461617 0.440113
vt 0.407169 0.423596
vt 0.350544 0.418019
vt 0.293919 0.423596
vt 0.239470 0.440113
vt 0.189290 0.466935
vt 0.145307 0.503031
vt 0.109211 0.547014
vt 0.082389 0.597194
vt 0.065872 0.651643
vt 0.060295 0.708268
vt 0.065872 0.764893
vt 0.082389 0.819341
vt 0.109211 0.869521
vt 0.145307 0.913505
vt 0.189290 0.949601
vt 0.239470 0.976423
vt 0.293919 0.992940
vt 0.350544 0.998517
vt 0.407169 0.992940
vt 0.461617 0.976423
vt 0.511797 0.949601
vt 0.555781 0.913505
vt 0.591877 0.869521
vt 0.618699 0.819341
vt 0.635215 0.764893
vt 0.032268 0.141747
vt 0.034892 0.115101
vt 0.168852 0.141747
vt 0.042665 0.089479
vt 0.055287 0.065865
vt 0.072273 0.045168
vt 0.092970 0.028182
vt 0.116584 0.015560
vt 0.142206 0.007787
vt 0.168852 0.005163
vt 0.195499 0.007787
vt 0.221121 0.015560
vt 0.244735 0.028182
vt 0.265432 0.045168
vt 0.282418 0.065865
vt 0.295040 0.089479
vt 0.302813 0.115101
vt 0.305437 0.141747
vt 0.302813 0.168394
vt 0.295040 0.194016
vt 0.282418 0.217630
vt 0.265432 0.238327
vt 0.244735 0.255313
vt 0.221121 0.267935
vt 0.195499 0.275708
vt 0.168852 0.278332
vt 0.142206 0.275708
vt 0.116584 0.267935
vt 0.092970 0.255313
vt 0.072273 0.238327
vt 0.055287 0.217630
vt 0.042665 0.194016
vt 0.034892 0.168394
vt 0.858268 0.419588
vt 0.872391 0.419588
vt 0.858268 0.800765
vt 0.872391 0.800765
vt 0.858172 0.820721
vt 0.739176 0.800765
vt 0.739112 0.820721
vt 0.724978 0.800765
vt 0.724978 0.419588
vt 0.739176 0.419588
vt 0.991483 0.419588
vt 0.991483 0.800765
vt 0.993786 0.911976
vt 0.910599 0.911976
vt 0.987454 0.880142
vt 0.969421 0.853154
vt 0.942433 0.835121
vt 0.910599 0.828789
vt 0.878764 0.835121
vt 0.851776 0.853154
vt 0.833744 0.880142
vt 0.827411 0.911976
vt 0.833744 0.943811
vt 0.851776 0.970798
vt 0.878764 0.988831
vt 0.910599 0.995164
vt 0.942433 0.988831
vt 0.969421 0.970798
vt 0.987454 0.943811
vt 0.498307 0.038596
vt 0.530374 0.038596
vt 0.498307 0.320619
vt 0.530374 0.320619
vt 0.498307 0.353884
vt 0.386403 0.320619
vt 0.386403 0.353884
vt 0.354738 0.320619
vt 0.354738 0.038596
vt 0.386403 0.038596
vt 0.498307 0.006704
vt 0.386403 0.006704
vt 0.995664 0.148299
vt 0.995664 0.170493
vt 0.572135 0.148299
vt 0.572135 0.170493
vt 0.551487 0.148299
vt 0.572135 0.024884
vt 0.551487 0.024884
vt 0.572135 0.003710
vt 0.995664 0.003710
vt 0.995664 0.024884
vt 0.995664 0.293980
vt 0.572135 0.293980
vn 1.000000 0.000000 -0.000000
vn 0.980800 0.000000 0.195100
vn 0.923900 0.000000 0.382700
vn 0.831500 0.000000 0.555600
vn 0.707100 0.000000 0.707100
vn 0.555600 0.000000 0.831500
vn 0.382700 0.000000 0.923900
vn 0.195100 0.000000 0.980800
vn -0.000000 0.000000 1.000000
vn -0.195100 0.000000 0.980800
vn -0.382700 0.000000 0.923900
vn -0.555600 0.000000 0.831500
vn -0.707100 0.000000 0.707100
vn -0.831500 0.000000 0.555600
vn -0.923900 0.000000 0.382700
vn -0.980800 0.000000 0.195100
vn -1.000000 0.000000 0.000000
vn -0.980800 0.000000 -0.195100
vn -0.923900 0.000000 -0.382700
vn -0.831500 0.000000 -0.555600
vn -0.707100 0.000000 -0.707100
vn -0.555600 0.000000 -0.831500
vn -0.382700 0.000000 -0.923900
vn -0.195100 0.000000 -0.980800
vn 0.000000 0.000000 -1.000000
vn 0.195100 0.000000 -0.980800
vn 0.382700 0.000000 -0.923900
vn 0.555600 0.000000 -0.831500
vn 0.707100 0.000000 -0.707100
vn 0.831500 0.000000 -0.555600
vn 0.923900 0.000000 -0.382700
vn 0.980800 0.000000 -0.195100
vn 0.000000 1.000000 0.000000
vn -0.000000 -1.000000 -0.000000
vn 0.179200 0.983800 0.000000
vn 0.165600 0.983800 0.068600
vn 0.126700 0.983800 0.126700
vn 0.068600 0.983800 0.165600
vn 0.000000 0.983800 0.179200
vn -0.068600 0.983800 0.165600
vn -0.126700 0.983800 0.126700
vn -0.165600 0.983800 0.068600
vn -0.179200 0.983800 0.000000
vn -0.165600 0.983800 -0.068600
vn -0.126700 0.983800 -0.126700
vn -0.068600 0.983800 -0.165600
vn 0.000000 0.983800 -0.179200
vn 0.068600 0.983800 -0.165600
vn 0.126700 0.983800 -0.126700
vn 0.165600 0.983800 -0.068600
usemtl None
s 1
f 1/1/1 2/2/1 3/3/2
f 2/2/1 4/4/2 3/3/2
f 6/5/3 4/4/2 5/6/3
f 3/3/2 4/4/2 6/5/3
f 6/5/3 5/6/3 7/7/4
f 5/6/3 8/8/4 7/7/4
f 10/9/5 8/8/4 9/10/5
f 7/7/4 8/8/4 10/9/5
f 10/9/5 9/10/5 11/11/6
f 9/10/5 12/12/6 11/11/6
f 14/13/7 12/12/6 13/14/7
f 11/11/6 12/12/6 14/13/7
f 14/13/7 13/14/7 15/15/8
f 13/14/7 16/16/8 15/15/8
f 18/17/9 16/16/8 17/18/9
f 15/15/8 16/16/8 18/17/9
f 18/19/9 17/20/9 19/21/10
f 17/20/9 20/22/10 19/21/10
f 22/23/11 20/22/10 21/24/11
f 19/21/10 20/22/10 22/23/11
f 22/23/11 21/24/11 23/25/12
f 21/24/11 24/26/12 23/25/12
f 26/27/13 24/26/12 25/28/13
f 23/25/12 24/26/12 26/27/13
f 26/27/13 25/28/13 27/29/14
f 25/28/13 28/30/14 27/29/14
f 30/31/15 28/30/14 29/32/15
f 27/29/14 28/30/14 30/31/15
f 30/31/15 29/32/15 31/33/16
f 29/32/15 32/34/16 31/33/16
f 34/35/17 32/34/16 33/36/17
f 31/33/16 32/34/16 34/35/17
f 34/35/17 33/36/17 35/37/18
f 33/36/17 36/38/18 35/37/18
f 38/39/19 36/38/18 37/40/19
f 35/37/18 36/38/18 38/39/19
f 38/39/19 37/40/19 39/41/20
f 37/40/19 40/42/20 39/41/20
f 42/43/21 40/42/20 41/44/21
f 39/41/20 40/42/20 42/43/21
f 42/43/21 41/44/21 43/45/22
f 41/44/21 44/46/22 43/45/22
f 46/47/23 44/46/22 45/48/23
f 43/45/22 44/46/22 46/47/23
f 46/47/23 45/48/23 47/49/24
f 45/48/23 48/50/24 47/49/24
f 50/51/25 48/50/24 49/52/25
f 47/49/24 48/50/24 50/51/25
f 50/51/25 49/52/25 51/53/26
f 49/52/25 52/54/26 51/53/26
f 54/55/27 52/54/26 53/56/27
f 51/53/26 52/54/26 54/55/27
f 54/55/27 53/56/27 55/57/28
f 53/56/27 56/58/28 55/57/28
f 58/59/29 56/58/28 57/60/29
f 55/57/28 56/58/28 58/59/29
f 58/59/29 57/60/29 59/61/30
f 57/60/29 60/62/30 59/61/30
f 62/63/31 60/62/30 61/64/31
f 59/61/30 60/62/30 62/63/31
f 62/63/31 61/64/31 63/65/32
f 61/64/31 64/66/32 63/65/32
f 1/1/1 64/66/32 2/2/1
f 63/65/32 64/66/32 1/1/1
f 111/67/33 110/68/33 65/69/33
f 112/70/33 111/67/33 65/69/33
f 115/71/33 112/70/33 65/69/33
f 116/72/33 115/71/33 65/69/33
f 119/73/33 116/72/33 65/69/33
f 120/74/33 119/73/33 65/69/33
f 123/75/33 120/74/33 65/69/33
f 124/76/33 123/75/33 65/69/33
f 127/77/33 124/76/33 65/69/33
f 128/78/33 127/77/33 65/69/33
f 131/79/33 128/78/33 65/69/33
f 132/80/33 131/79/33 65/69/33
f 135/81/33 132/80/33 65/69/33
f 136/82/33 135/81/33 65/69/33
f 139/83/33 136/82/33 65/69/33
f 140/84/33 139/83/33 65/69/33
f 143/85/33 140/84/33 65/69/33
f 144/86/33 143/85/33 65/69/33
f 147/87/33 144/86/33 65/69/33
f 148/88/33 147/87/33 65/69/33
f 151/89/33 148/88/33 65/69/33
f 152/90/33 151/89/33 65/69/33
f 155/91/33 152/90/33 65/69/33
f 156/92/33 155/91/33 65/69/33
f 159/93/33 156/92/33 65/69/33
f 160/94/33 159/93/33 65/69/33
f 163/95/33 160/94/33 65/69/33
f 164/96/33 163/95/33 65/69/33
f 167/97/33 164/96/33 65/69/33
f 168/98/33 167/97/33 65/69/33
f 171/99/33 168/98/33 65/69/33
f 110/68/33 171/99/33 65/69/33
f 109/100/34 108/101/34 66/102/34
f 108/101/34 113/103/34 66/102/34
f 113/103/34 114/104/34 66/102/34
f 114/104/34 117/105/34 66/102/34
f 117/105/34 118/106/34 66/102/34
f 118/106/34 121/107/34 66/102/34
f 121/107/34 122/108/34 66/102/34
f 122/108/34 125/109/34 66/102/34
f 125/109/34 126/110/34 66/102/34
f 126/110/34 129/111/34 66/102/34
f 129/111/34 130/112/34 66/102/34
f 130/112/34 133/113/34 66/102/34
f 133/113/34 134/114/34 66/102/34
f 134/114/34 137/115/34 66/102/34
f 137/115/34 138/116/34 66/102/34
f 138/116/34 141/117/34 66/102/34
f 141/117/34 142/118/34 66/102/34
f 142/118/34 145/119/34 66/102/34
f 145/119/34 146/120/34 66/102/34
f 146/120/34 149/121/34 66/102/34
f 149/121/34 150/122/34 66/102/34
f 150/122/34 153/123/34 66/102/34
f 153/123/34 154/124/34 66/102/34
f 154/124/34 157/125/34 66/102/34
f 157/125/34 158/126/34 66/102/34
f 158/126/34 161/127/34 66/102/34
f 161/127/34 162/128/34 66/102/34
f 162/128/34 165/129/34 66/102/34
f 165/129/34 166/130/34 66/102/34
f 166/130/34 169/131/34 66/102/34
f 169/131/34 170/132/34 66/102/34
f 170/132/34 109/100/34 66/102/34
f 67/133/1 68/134/1 69/135/1
f 68/134/1 70/136/1 69/135/1
f 172/135/25 176/137/25 71/138/25
f 176/137/25 72/139/25 71/138/25
f 178/138/17 180/140/17 74/141/17
f 178/138/17 74/141/17 73/142/17
f 179/138/33 183/142/33 173/135/33
f 183/142/33 174/133/33 173/135/33
f 182/143/34 181/144/34 177/136/34
f 182/143/34 177/136/34 175/134/34
f 75/145/35 76/146/33 77/147/36
f 77/147/36 76/146/33 78/148/37
f 78/148/37 76/146/33 79/149/38
f 79/149/38 76/146/33 80/150/39
f 80/150/39 76/146/33 81/151/40
f 81/151/40 76/146/33 82/152/41
f 82/152/41 76/146/33 83/153/42
f 83/153/42 76/146/33 84/154/43
f 84/154/43 76/146/33 85/155/44
f 85/155/44 76/146/33 86/156/45
f 86/156/45 76/146/33 87/157/46
f 87/157/46 76/146/33 88/158/47
f 88/158/47 76/146/33 89/159/48
f 89/159/48 76/146/33 90/160/49
f 90/160/49 76/146/33 91/161/50
f 91/161/50 76/146/33 75/145/35
f 92/162/1 93/163/1 94/164/1
f 93/163/1 95/165/1 94/164/1
f 187/164/25 189/166/25 96/167/25
f 189/166/25 97/168/25 96/167/25
f 190/167/17 192/169/17 99/170/17
f 190/167/17 99/170/17 98/171/17
f 191/167/33 194/171/33 188/164/33
f 194/171/33 184/162/33 188/164/33
f 186/172/9 195/171/9 193/173/9
f 195/171/9 186/172/9 185/162/9
f 100/174/1 101/175/1 102/176/1
f 101/175/1 103/177/1 102/176/1
f 196/176/25 200/178/25 104/179/25
f 200/178/25 105/180/25 104/179/25
f 202/179/17 204/181/17 107/182/17
f 202/179/17 107/182/17 106/183/17
f 203/179/33 207/183/33 197/176/33
f 207/183/33 198/174/33 197/176/33
f 206/184/34 205/185/34 201/177/34
f 206/184/34 201/177/34 199/175/34
