# Blender v2.73 (sub 0) OBJ File: 'kickercup1.blend'
# www.blender.org
mtllib kickerCup.mtl
o Converted_object_0
v -0.000000 -1.215000 -0.176408
v 0.256553 -0.957565 -0.001058
v -0.000000 -0.991344 -0.001058
v 0.314436 -1.173600 -0.176408
v 0.607480 -1.052221 -0.176408
v 0.495653 -0.858530 -0.001058
v 0.700974 -0.700987 -0.001058
v 0.859123 -0.859135 -0.176408
v 1.052216 -0.607500 -0.176408
v 0.858522 -0.495673 -0.001058
v 0.957560 -0.256580 -0.001058
v 1.173599 -0.314465 -0.176408
v 1.215000 -0.000000 -0.176408
v 0.991341 -0.000002 -0.001058
v 0.957560 0.256577 -0.001058
v 1.173599 0.314465 -0.176408
v 1.052216 0.607500 -0.176408
v 0.858522 0.495670 -0.001058
v 0.700974 0.700984 -0.001058
v 0.859123 0.859135 -0.176408
v 0.607480 1.052221 -0.176408
v 0.494818 0.858526 -0.001058
v 0.256553 0.957562 -0.001058
v 0.314436 1.173600 -0.176408
v -0.000000 0.991341 -0.001058
v 0.000000 1.215000 -0.176408
v 0.160498 -0.969978 0.437316
v -0.000000 -0.991344 0.437316
v 0.256553 -0.957565 0.437316
v 0.495653 -0.858530 0.437316
v 0.700974 -0.700987 0.437316
v 0.858522 -0.495673 0.437316
v 0.957560 -0.256580 0.437316
v 0.991341 -0.000002 0.437316
v 0.957560 0.256577 0.437316
v 0.858522 0.495670 0.437316
v 0.700974 0.700984 0.437316
v 0.494818 0.858526 0.437316
v 0.494818 0.858526 0.130454
v 0.417163 0.890804 0.130454
v 0.000000 0.991341 0.437316
v 0.256553 0.957562 0.437316
v 0.000000 -0.991344 1.023521
v 0.160630 -0.969978 1.023521
v 0.160763 -0.416832 1.023521
v 0.000000 0.000032 1.023521
v 0.274260 -0.306396 1.023521
v 0.342751 -0.141048 1.023521
v 0.319390 0.036393 1.023521
v 0.210436 0.178380 1.023521
v 0.000000 0.246870 1.023521
v 0.160763 -0.775554 0.437316
v 0.348693 -0.699936 0.437316
v 0.493146 -0.589097 0.437316
v 0.603989 -0.444648 0.437316
v 0.673668 -0.276434 0.437316
v 0.697434 -0.095919 0.437316
v 0.673668 0.084597 0.437316
v 0.603989 0.252811 0.437316
v 0.494818 0.397260 0.437316
v 0.417163 0.890804 0.437316
v 0.180474 0.577775 0.437316
v 0.000000 0.601541 0.437316
v 0.160763 -0.416832 0.788016
v 0.274260 -0.306396 0.788016
v 0.342751 -0.141048 0.788016
v 0.319390 0.036393 0.788016
v 0.210436 0.178380 0.788016
v 0.417163 0.456195 0.437316
v 0.348693 0.508099 0.437316
v 0.000000 0.246870 0.788016
v 0.494818 0.456195 0.437316
v 0.417163 0.743958 0.130454
v 0.494818 0.743958 0.130454
v -0.314436 -1.173600 -0.176408
v -0.256553 -0.957565 -0.001058
v -0.607480 -1.052221 -0.176408
v -0.495653 -0.858530 -0.001058
v -0.859123 -0.859135 -0.176408
v -0.700974 -0.700987 -0.001058
v -1.052216 -0.607500 -0.176408
v -0.858522 -0.495673 -0.001058
v -1.173599 -0.314465 -0.176408
v -0.957560 -0.256580 -0.001058
v -1.215000 -0.000000 -0.176408
v -0.991341 -0.000002 -0.001058
v -1.173599 0.314465 -0.176408
v -0.957560 0.256577 -0.001058
v -1.052216 0.607500 -0.176408
v -0.858522 0.495670 -0.001058
v -0.859123 0.859135 -0.176408
v -0.700974 0.700984 -0.001058
v -0.607480 1.052221 -0.176408
v -0.494818 0.858526 -0.001058
v -0.314436 1.173600 -0.176408
v -0.256553 0.957562 -0.001058
v -0.160498 -0.969978 0.437316
v -0.256553 -0.957565 0.437316
v -0.495653 -0.858530 0.437316
v -0.700974 -0.700987 0.437316
v -0.858522 -0.495673 0.437316
v -0.957560 -0.256580 0.437316
v -0.991341 -0.000002 0.437316
v -0.957560 0.256577 0.437316
v -0.858522 0.495670 0.437316
v -0.700974 0.700984 0.437316
v -0.494818 0.858526 0.130454
v -0.494818 0.858526 0.437316
v -0.417163 0.890804 0.130454
v -0.256553 0.957562 0.437316
v -0.160630 -0.969978 1.023521
v -0.160763 -0.416832 1.023521
v -0.274260 -0.306396 1.023521
v -0.342751 -0.141048 1.023521
v -0.319390 0.036393 1.023521
v -0.210436 0.178380 1.023521
v -0.160763 -0.775554 0.437316
v -0.348693 -0.699936 0.437316
v -0.493146 -0.589097 0.437316
v -0.603989 -0.444648 0.437316
v -0.673668 -0.276434 0.437316
v -0.697434 -0.095919 0.437316
v -0.673668 0.084597 0.437316
v -0.603989 0.252811 0.437316
v -0.417163 0.890804 0.437316
v -0.348693 0.508099 0.437316
v -0.180474 0.577775 0.437316
v -0.160763 -0.416832 0.788016
v -0.274260 -0.306396 0.788016
v -0.342751 -0.141048 0.788016
v -0.319390 0.036393 0.788016
v -0.210436 0.178380 0.788016
v -0.494818 0.397260 0.437316
v -0.417163 0.456195 0.437316
v -0.494818 0.456195 0.437316
v -0.417163 0.743958 0.130454
v -0.494818 0.743958 0.130454
v -0.063988 -0.511771 1.009291
v -0.063988 -0.927366 0.128367
v 0.064103 -0.927366 0.128367
v 0.064103 -0.511771 1.009291
v 0.064102 -0.959339 1.023592
v -0.063988 -0.959339 1.023592
v -0.063989 -0.511770 1.023592
v 0.064102 -0.511770 1.023592
vt 0.500000 0.879865
vt 0.500000 0.596019
vt 0.473903 0.879865
vt 0.473881 0.596019
vt 0.954802 0.777824
vt 0.924540 0.785874
vt 0.954827 0.569398
vt 0.924540 0.412324
vt 0.976209 0.527786
vt 0.989113 0.465482
vt 0.984712 0.398623
vt 0.964185 0.345123
vt 0.924540 0.319316
vt 0.243468 0.845798
vt 0.243522 0.766366
vt 0.263089 0.840727
vt 0.281910 0.735472
vt 0.311929 0.800266
vt 0.311417 0.690189
vt 0.353870 0.735902
vt 0.334059 0.631175
vt 0.386052 0.652021
vt 0.348292 0.562451
vt 0.406283 0.554340
vt 0.353147 0.488701
vt 0.413183 0.449514
vt 0.348292 0.414951
vt 0.406283 0.344689
vt 0.334059 0.346227
vt 0.386052 0.247007
vt 0.311759 0.287212
vt 0.353870 0.163126
vt 0.295897 0.085575
vt 0.247548 0.213462
vt 0.263089 0.058301
vt 0.210683 0.203753
vt 0.243522 0.619810
vt 0.266706 0.574692
vt 0.280696 0.507139
vt 0.275924 0.434645
vt 0.253669 0.376636
vt 0.295897 0.263134
vt 0.281910 0.241929
vt 0.210683 0.348654
vt 0.311759 0.263134
vt 0.210683 0.044500
vt 0.862135 0.180817
vt 0.815571 0.004401
vt 0.815571 0.180817
vt 0.862135 0.004401
vt 0.782761 0.004401
vt 0.782761 0.180817
vt 0.754384 0.004401
vt 0.754384 0.180817
vt 0.727599 0.004401
vt 0.727599 0.180817
vt 0.695648 0.004401
vt 0.695648 0.180817
vt 0.981562 0.004401
vt 0.938550 0.281650
vt 0.981580 0.281650
vt 0.311759 0.098762
vt 0.685709 0.251406
vt 0.745928 0.251406
vt 0.745928 0.324715
vt 0.685709 0.475965
vt 0.823684 0.491737
vt 0.763465 0.324715
vt 0.823684 0.266631
vt 0.763465 0.266631
vt 0.745928 0.449476
vt 0.763465 0.449476
vt 0.083212 0.940442
vt 0.069703 0.940442
vt 0.083212 0.958423
vt 0.750000 0.958423
vt 0.750000 0.879865
vt 0.708332 0.879865
vt 0.526097 0.879865
vt 0.526119 0.596019
vt 0.894254 0.777824
vt 0.894254 0.569398
vt 0.872871 0.527786
vt 0.859968 0.465482
vt 0.864369 0.398623
vt 0.884896 0.345123
vt 0.177898 0.845798
vt 0.158278 0.840727
vt 0.177844 0.766366
vt 0.109437 0.800266
vt 0.139456 0.735472
vt 0.067496 0.735902
vt 0.035314 0.652021
vt 0.087307 0.631175
vt 0.109949 0.690189
vt 0.015083 0.554340
vt 0.008183 0.449514
vt 0.068219 0.488701
vt 0.073074 0.562451
vt 0.015083 0.344689
vt 0.035314 0.247007
vt 0.087307 0.346227
vt 0.073074 0.414951
vt 0.067496 0.163126
vt 0.125470 0.085575
vt 0.158278 0.058301
vt 0.139456 0.241929
vt 0.173818 0.213462
vt 0.177844 0.619810
vt 0.154660 0.574692
vt 0.140670 0.507139
vt 0.145442 0.434645
vt 0.109607 0.287212
vt 0.167698 0.376636
vt 0.125470 0.263134
vt 0.109607 0.263134
vt 0.528440 0.180817
vt 0.575005 0.180817
vt 0.528441 0.004401
vt 0.575005 0.004401
vt 0.607815 0.180817
vt 0.607815 0.004401
vt 0.636193 0.180817
vt 0.636193 0.004401
vt 0.662978 0.180817
vt 0.662978 0.004401
vt 0.409015 0.004401
vt 0.408997 0.281650
vt 0.452026 0.281650
vt 0.109607 0.098762
vt 0.823684 0.556359
vt 0.823684 0.780918
vt 0.763465 0.629668
vt 0.763465 0.556359
vt 0.685709 0.796690
vt 0.685709 0.571584
vt 0.745928 0.629668
vt 0.745928 0.571584
vt 0.763465 0.754429
vt 0.745928 0.754429
vt 0.589002 0.387813
vt 0.603026 0.528481
vt 0.589002 0.528481
vt 0.603120 0.387645
vt 0.652123 0.198928
vt 0.648623 0.528340
vt 0.603026 0.857893
vt 0.589002 0.857893
vt 0.539709 0.198985
vt 0.543210 0.528397
vt 0.589002 0.199097
vt 0.603120 0.198928
vt 0.500000 0.998500
vt 0.500000 0.958423
vt 0.458339 0.958423
vt 0.458338 0.998500
vt 0.416672 0.958423
vt 0.416671 0.998500
vt 0.375004 0.958423
vt 0.375004 0.998500
vt 0.333336 0.958423
vt 0.333336 0.998500
vt 0.291668 0.958423
vt 0.291668 0.998500
vt 0.250000 0.958423
vt 0.250000 0.998500
vt 0.208332 0.958423
vt 0.208332 0.998500
vt 0.166664 0.958423
vt 0.166664 0.998500
vt 0.124996 0.958423
vt 0.124996 0.998500
vt 0.083329 0.998500
vt 0.041661 0.958423
vt 0.041662 0.998500
vt 0.000000 0.958423
vt 0.000000 0.998500
vt 0.458339 0.879865
vt 0.416672 0.879865
vt 0.375004 0.879865
vt 0.333336 0.879865
vt 0.291668 0.879865
vt 0.250000 0.879865
vt 0.208332 0.879865
vt 0.166664 0.879865
vt 0.124996 0.879865
vt 0.083212 0.879865
vt 0.000000 0.879865
vt 0.041661 0.879865
vt 0.069703 0.879865
vt 0.541662 0.998500
vt 0.541661 0.958423
vt 0.583329 0.998500
vt 0.583328 0.958423
vt 0.624996 0.998500
vt 0.624996 0.958423
vt 0.666664 0.998500
vt 0.666664 0.958423
vt 0.708332 0.998500
vt 0.708332 0.958423
vt 0.750000 0.998500
vt 0.791668 0.998500
vt 0.791668 0.958423
vt 0.833336 0.998500
vt 0.833336 0.958423
vt 0.875004 0.998500
vt 0.875004 0.958423
vt 0.916671 0.998500
vt 0.916788 0.958423
vt 0.958338 0.998500
vt 0.958338 0.958423
vt 1.000000 0.998500
vt 1.000000 0.958423
vt 0.583328 0.879865
vt 0.541661 0.879865
vt 0.624996 0.879865
vt 0.666664 0.879865
vt 0.791668 0.879865
vt 0.833336 0.879865
vt 0.875004 0.879865
vt 0.916788 0.940442
vt 0.916788 0.879865
vt 0.930297 0.940442
vt 1.000000 0.879865
vt 0.958338 0.879865
vt 0.930297 0.879865
vn -0.132000 0.991300 0.000000
vn -0.131900 0.991300 0.000000
vn 0.000000 0.000000 -1.000000
vn -0.270800 0.673000 -0.688300
vn -0.489900 0.503500 -0.711700
vn -0.564900 0.433500 -0.702100
vn -0.646900 0.268000 -0.713900
vn -0.706000 0.093000 -0.702100
vn -0.694300 -0.091400 -0.713900
vn -0.657900 -0.272500 -0.702100
vn -0.554500 -0.425500 -0.715200
vn -0.429900 -0.567100 -0.702600
vn -0.212700 -0.653700 -0.726300
vn -0.092200 -0.700100 -0.708000
vn -0.437700 0.570400 -0.695000
vn -0.558600 -0.422200 -0.713900
vn -0.268000 -0.647000 -0.713900
vn -0.697400 0.716700 0.000000
vn -0.923900 0.382700 0.000000
vn -0.991400 -0.130500 0.000000
vn -0.793300 -0.608800 0.000000
vn -0.309500 -0.950900 0.000000
vn -1.000000 0.001400 0.000200
vn -1.000000 0.000200 -0.000200
vn -1.000000 0.000200 0.000000
vn -0.430200 -0.566800 -0.702600
vn -1.000000 0.000000 0.000000
vn 1.000000 0.000000 0.000000
vn 0.000000 -0.729400 -0.684000
vn -0.383800 -0.923400 0.000000
vn 0.991400 0.130500 0.000000
vn 0.132000 0.991300 0.000000
vn 0.131900 0.991300 0.000000
vn 0.270800 0.673000 -0.688300
vn 0.489900 0.503500 -0.711700
vn 0.564900 0.433500 -0.702100
vn 0.646900 0.268000 -0.713900
vn 0.706000 0.093000 -0.702100
vn 0.694300 -0.091400 -0.713900
vn 0.657900 -0.272500 -0.702100
vn 0.554500 -0.425500 -0.715200
vn 0.429900 -0.567100 -0.702600
vn 0.212700 -0.653700 -0.726300
vn 0.092200 -0.700100 -0.708000
vn 0.437700 0.570400 -0.695000
vn 0.558600 -0.422200 -0.713900
vn 0.268000 -0.647000 -0.713900
vn 0.697400 0.716700 0.000000
vn 0.923900 0.382700 0.000000
vn 0.991400 -0.130500 0.000000
vn 0.793300 -0.608800 0.000000
vn 0.309500 -0.950900 0.000000
vn 1.000000 0.001400 0.000200
vn 1.000000 0.000200 -0.000200
vn 1.000000 0.000200 -0.000000
vn 0.430200 -0.566800 -0.702600
vn 0.000000 0.904400 -0.426700
vn 0.000000 0.999400 0.035700
vn 0.000000 -1.000000 0.000000
vn -0.000000 0.617000 -0.787000
vn 0.000000 0.891700 -0.452600
vn -0.230800 0.861300 -0.452600
vn -0.159700 0.596000 -0.787000
vn -0.445800 0.772200 -0.452600
vn -0.308500 0.534300 -0.787000
vn -0.630500 0.630500 -0.452600
vn -0.436300 0.436300 -0.787000
vn -0.772200 0.445800 -0.452600
vn -0.534300 0.308500 -0.787000
vn -0.861300 0.230800 -0.452600
vn -0.596000 0.159700 -0.787000
vn -0.891700 0.000000 -0.452600
vn -0.617000 -0.000000 -0.787000
vn -0.861300 -0.230800 -0.452600
vn -0.596000 -0.159700 -0.787000
vn -0.772200 -0.445800 -0.452600
vn -0.534300 -0.308500 -0.787000
vn -0.629800 -0.631100 -0.452700
vn -0.435900 -0.436300 -0.787200
vn -0.446200 -0.745500 -0.495000
vn -0.308400 -0.533700 -0.787400
vn -0.231200 -0.861100 -0.452700
vn -0.159700 -0.596000 -0.787000
vn 0.000000 -0.891700 -0.452600
vn 0.000000 -0.617000 -0.787000
vn -0.000200 1.000000 -0.000300
vn -0.129600 0.991600 -0.000900
vn -0.258100 0.966100 -0.000500
vn -0.500000 0.866000 0.000000
vn -0.707100 0.707100 0.000000
vn -0.866000 0.500000 0.000000
vn -0.965900 0.258800 0.000000
vn -0.965900 -0.258800 0.000000
vn -0.866000 -0.500000 0.000000
vn -0.706400 -0.707800 0.000000
vn -0.607200 -0.794600 0.000000
vn -0.259400 -0.965800 0.000000
vn 0.159700 0.596000 -0.787000
vn 0.230800 0.861300 -0.452600
vn 0.308500 0.534300 -0.787000
vn 0.445800 0.772200 -0.452600
vn 0.436300 0.436300 -0.787000
vn 0.630500 0.630500 -0.452600
vn 0.534300 0.308500 -0.787000
vn 0.772200 0.445800 -0.452600
vn 0.596000 0.159700 -0.787000
vn 0.861300 0.230800 -0.452600
vn 0.617000 -0.000000 -0.787000
vn 0.870400 -0.013000 -0.492100
vn 0.596000 -0.159700 -0.787000
vn 0.861300 -0.230800 -0.452600
vn 0.534300 -0.308500 -0.787000
vn 0.772200 -0.445800 -0.452600
vn 0.436300 -0.436300 -0.787000
vn 0.629900 -0.630900 -0.452800
vn 0.308100 -0.534000 -0.787300
vn 0.445300 -0.772500 -0.452700
vn 0.159800 -0.595800 -0.787100
vn 0.231300 -0.861100 -0.452700
vn 0.130300 0.991500 -0.000500
vn 0.500000 0.866000 0.000000
vn 0.257700 0.966200 0.000000
vn 0.707100 0.707100 0.000000
vn 0.866000 0.500000 0.000000
vn 0.947100 0.320900 0.000000
vn 0.965900 -0.258800 0.000000
vn 0.866000 -0.500000 0.000000
vn 0.706400 -0.707800 0.000000
vn 0.536700 -0.843800 0.000000
vn 0.607200 -0.794600 0.000000
vn 0.383800 -0.923400 0.000000
vn 0.259400 -0.965800 0.000000
usemtl default_material
s off
f 28/1/1 43/2/1 27/3/1
f 44/4/2 27/3/2 43/2/2
f 44/5/3 43/6/3 45/7/3
f 45/7/3 43/6/3 46/8/3
f 46/8/3 47/9/3 45/7/3
f 47/9/3 46/8/3 48/10/3
f 48/10/3 46/8/3 49/11/3
f 49/11/3 46/8/3 50/12/3
f 50/12/3 46/8/3 51/13/3
f 27/14/3 52/15/3 29/16/3
f 29/16/3 52/15/3 53/17/3
f 30/18/3 54/19/3 31/20/3
f 31/20/3 54/19/3 55/21/3
f 32/22/3 56/23/3 33/24/3
f 33/24/3 56/23/3 57/25/3
f 34/26/3 58/27/3 35/28/3
f 35/28/3 58/27/3 59/29/3
f 36/30/3 60/31/3 37/32/3
f 61/33/3 62/34/3 42/35/3
f 42/35/3 62/34/3 63/36/3
f 64/37/4 53/17/4 52/15/4
f 64/37/5 65/38/5 54/19/5
f 30/18/3 29/16/3 53/17/3
f 65/38/6 55/21/6 54/19/6
f 30/18/3 53/17/3 54/19/3
f 65/38/7 66/39/7 56/23/7
f 32/22/3 31/20/3 55/21/3
f 66/39/8 57/25/8 56/23/8
f 32/22/3 55/21/3 56/23/3
f 66/39/9 67/40/9 58/27/9
f 34/26/3 33/24/3 57/25/3
f 67/40/10 59/29/10 58/27/10
f 34/26/3 57/25/3 58/27/3
f 67/40/11 68/41/11 60/31/11
f 36/30/3 35/28/3 59/29/3
f 69/42/12 68/41/12 70/43/12
f 36/30/3 59/29/3 60/31/3
f 68/41/13 71/44/13 62/34/13
f 72/45/3 37/32/3 60/31/3
f 71/44/14 63/36/14 62/34/14
f 61/33/3 70/43/3 62/34/3
f 41/46/3 42/35/3 63/36/3
f 54/19/15 53/17/15 64/37/15
f 56/23/7 55/21/7 65/38/7
f 58/27/9 57/25/9 66/39/9
f 67/40/16 60/31/16 59/29/16
f 62/34/17 70/43/17 68/41/17
f 64/47/18 47/48/18 65/49/18
f 47/48/18 64/47/18 45/50/18
f 65/49/19 48/51/19 66/52/19
f 48/51/19 65/49/19 47/48/19
f 66/52/20 49/53/20 67/54/20
f 49/53/20 66/52/20 48/51/20
f 67/54/21 50/55/21 68/56/21
f 50/55/21 67/54/21 49/53/21
f 68/56/22 51/57/22 71/58/22
f 51/57/22 68/56/22 50/55/22
f 44/59/23 52/60/23 27/61/23
f 64/47/24 52/60/24 44/59/24
f 45/50/25 64/47/25 44/59/25
f 70/43/3 61/33/3 69/42/3
f 60/31/26 68/41/26 69/42/26
f 38/62/3 37/32/3 72/45/3
f 69/42/3 72/45/3 60/31/3
f 61/63/27 40/64/27 73/65/27
f 73/65/27 69/66/27 61/63/27
f 72/67/28 74/68/28 38/69/28
f 39/70/28 38/69/28 74/68/28
f 69/71/29 74/68/29 72/72/29
f 74/68/29 69/71/29 73/65/29
f 73/65/3 39/70/3 74/68/3
f 40/64/3 39/70/3 73/65/3
f 39/73/30 40/74/30 22/75/30
f 86/76/31 103/77/31 102/78/31
f 28/1/32 97/79/32 43/2/32
f 111/80/33 43/2/33 97/79/33
f 111/81/3 112/82/3 43/6/3
f 112/82/3 46/8/3 43/6/3
f 46/8/3 112/82/3 113/83/3
f 113/83/3 114/84/3 46/8/3
f 114/84/3 115/85/3 46/8/3
f 115/85/3 116/86/3 46/8/3
f 116/86/3 51/13/3 46/8/3
f 97/87/3 98/88/3 117/89/3
f 99/90/3 118/91/3 117/89/3
f 99/90/3 100/92/3 118/91/3
f 101/93/3 120/94/3 119/95/3
f 101/93/3 102/96/3 120/94/3
f 103/97/3 122/98/3 121/99/3
f 103/97/3 104/100/3 122/98/3
f 105/101/3 124/102/3 123/103/3
f 105/101/3 106/104/3 124/102/3
f 125/105/3 110/106/3 126/107/3
f 41/46/3 63/36/3 127/108/3
f 128/109/34 117/89/34 118/91/34
f 128/109/35 119/95/35 129/110/35
f 99/90/3 117/89/3 98/88/3
f 129/110/36 119/95/36 120/94/36
f 100/92/3 119/95/3 118/91/3
f 129/110/37 121/99/37 130/111/37
f 101/93/3 119/95/3 100/92/3
f 130/111/38 121/99/38 122/98/38
f 102/96/3 121/99/3 120/94/3
f 130/111/39 123/103/39 131/112/39
f 103/97/3 121/99/3 102/96/3
f 131/112/40 123/103/40 124/102/40
f 104/100/3 123/103/3 122/98/3
f 131/112/41 133/113/41 132/114/41
f 105/101/3 123/103/3 104/100/3
f 134/115/42 126/107/42 132/114/42
f 106/104/3 133/113/3 124/102/3
f 132/114/43 127/108/43 71/44/43
f 135/116/3 133/113/3 106/104/3
f 71/44/44 127/108/44 63/36/44
f 110/106/3 127/108/3 126/107/3
f 41/46/3 127/108/3 110/106/3
f 119/95/45 128/109/45 118/91/45
f 121/99/37 129/110/37 120/94/37
f 123/103/39 130/111/39 122/98/39
f 131/112/46 124/102/46 133/113/46
f 127/108/47 132/114/47 126/107/47
f 128/117/48 129/118/48 112/119/48
f 113/120/48 112/119/48 129/118/48
f 129/118/49 130/121/49 113/120/49
f 114/122/49 113/120/49 130/121/49
f 130/121/50 131/123/50 114/122/50
f 115/124/50 114/122/50 131/123/50
f 131/123/51 132/125/51 115/124/51
f 116/126/51 115/124/51 132/125/51
f 132/125/52 71/58/52 116/126/52
f 51/57/52 116/126/52 71/58/52
f 111/127/53 97/128/53 117/129/53
f 128/117/54 111/127/54 117/129/54
f 112/119/55 111/127/55 128/117/55
f 126/107/3 134/115/3 125/105/3
f 133/113/56 134/115/56 132/114/56
f 108/130/3 135/116/3 106/104/3
f 134/115/3 133/113/3 135/116/3
f 125/131/28 134/132/28 136/133/28
f 136/133/28 109/134/28 125/131/28
f 135/135/27 108/136/27 137/137/27
f 107/138/27 137/137/27 108/136/27
f 134/139/29 135/140/29 136/133/29
f 137/137/29 136/133/29 135/140/29
f 136/133/3 137/137/3 109/134/3
f 109/134/3 137/137/3 107/138/3
f 138/141/57 140/142/57 139/143/57
f 141/144/57 140/142/57 138/141/57
f 142/145/27 141/144/27 140/146/27
f 142/147/58 140/142/58 139/143/58
f 143/148/58 142/147/58 139/143/58
f 138/141/28 143/149/28 139/150/28
f 138/141/28 144/151/28 143/149/28
f 141/144/59 145/152/59 138/141/59
f 138/141/59 145/152/59 144/151/59
f 142/145/27 145/152/27 141/144/27
s 1
f 1/153/60 3/154/61 2/155/62
f 2/155/62 4/156/63 1/153/60
f 4/156/63 6/157/64 5/158/65
f 4/156/63 2/155/62 6/157/64
f 5/158/65 6/157/64 7/159/66
f 8/160/67 5/158/65 7/159/66
f 8/160/67 10/161/68 9/162/69
f 8/160/67 7/159/66 10/161/68
f 9/162/69 10/161/68 11/163/70
f 12/164/71 9/162/69 11/163/70
f 12/164/71 14/165/72 13/166/73
f 12/164/71 11/163/70 14/165/72
f 13/166/73 14/165/72 15/167/74
f 16/168/75 13/166/73 15/167/74
f 16/168/75 18/169/76 17/170/77
f 16/168/75 15/167/74 18/169/76
f 17/170/77 18/169/76 19/171/78
f 20/172/79 17/170/77 19/171/78
f 20/172/79 22/75/80 21/173/81
f 20/172/79 19/171/78 22/75/80
f 21/173/81 22/75/80 23/174/82
f 24/175/83 21/173/81 23/174/82
f 23/174/82 25/176/84 24/175/83
f 24/175/83 25/176/84 26/177/85
f 3/154/61 28/1/86 27/3/87
f 29/178/88 2/155/62 3/154/61
f 2/155/62 29/178/88 30/179/89
f 30/179/89 6/157/64 2/155/62
f 6/157/64 31/180/90 7/159/66
f 31/180/90 6/157/64 30/179/89
f 7/159/66 31/180/90 32/181/91
f 32/181/91 10/161/68 7/159/66
f 10/161/68 33/182/92 11/163/70
f 33/182/92 10/161/68 32/181/91
f 11/163/70 33/182/92 34/183/27
f 34/183/27 14/165/72 11/163/70
f 14/165/72 35/184/93 15/167/74
f 35/184/93 14/165/72 34/183/27
f 15/167/74 35/184/93 36/185/94
f 36/185/94 18/169/76 15/167/74
f 18/169/76 37/186/95 19/171/78
f 37/186/95 18/169/76 36/185/94
f 19/171/78 37/186/95 38/187/96
f 38/187/96 39/73/96 19/171/78
f 22/75/80 40/74/30 23/174/82
f 23/174/82 41/188/59 25/176/84
f 41/188/59 23/174/82 42/189/97
f 29/178/88 3/154/61 27/3/87
f 23/174/82 40/74/30 42/189/97
f 22/75/80 19/171/78 39/73/96
f 42/189/97 40/74/30 61/190/30
f 75/191/98 76/192/99 3/154/61
f 75/191/98 3/154/61 1/153/60
f 75/191/98 77/193/100 76/192/99
f 77/193/100 78/194/101 76/192/99
f 79/195/102 80/196/103 78/194/101
f 79/195/102 78/194/101 77/193/100
f 79/195/102 81/197/104 80/196/103
f 81/197/104 82/198/105 80/196/103
f 83/199/106 84/200/107 82/198/105
f 83/199/106 82/198/105 81/197/104
f 83/199/106 85/201/108 84/200/107
f 85/201/108 86/76/109 84/200/107
f 87/202/110 88/203/111 86/76/109
f 87/202/110 86/76/109 85/201/108
f 87/202/110 89/204/112 88/203/111
f 89/204/112 90/205/113 88/203/111
f 91/206/114 92/207/115 90/205/113
f 91/206/114 90/205/113 89/204/112
f 91/206/114 93/208/116 92/207/115
f 93/208/116 94/209/117 92/207/115
f 95/210/118 96/211/119 94/209/117
f 95/210/118 94/209/117 93/208/116
f 96/211/119 95/210/118 26/212/85
f 96/211/119 26/212/85 25/213/84
f 76/192/99 28/1/86 3/154/61
f 28/1/86 76/192/99 97/79/120
f 78/194/101 99/214/121 98/215/122
f 98/215/122 76/192/99 78/194/101
f 80/196/103 100/216/123 99/214/121
f 99/214/121 78/194/101 80/196/103
f 82/198/105 101/217/124 100/216/123
f 100/216/123 80/196/103 82/198/105
f 82/198/105 84/200/107 101/217/124
f 102/78/125 101/217/124 84/200/107
f 102/78/125 84/200/107 86/76/109
f 86/76/109 88/203/111 103/77/50
f 104/218/126 103/77/50 88/203/111
f 90/205/113 105/219/127 104/218/126
f 104/218/126 88/203/111 90/205/113
f 90/205/113 92/207/115 105/219/127
f 106/220/128 105/219/127 92/207/115
f 107/221/129 108/222/130 106/220/128
f 106/220/128 94/209/117 107/221/129
f 94/209/117 109/223/131 107/221/129
f 25/213/84 41/224/59 110/225/132
f 110/225/132 96/211/119 25/213/84
f 98/215/122 97/79/120 76/192/99
f 110/225/132 125/226/131 96/211/119
f 94/209/117 106/220/128 92/207/115
f 94/209/117 96/211/119 109/223/131
f 125/226/131 109/223/131 96/211/119
