# Blender v2.73 (sub 0) OBJ File: 'kickerhole1.blend'
# www.blender.org
mtllib kickerHole.mtl
o Converted_object_0
v 0.768411 0.205898 0.021814
v 0.941778 0.252349 -0.021664
v 0.795518 0.000001 0.021814
v 0.975000 0.000000 -0.021664
v 0.844375 0.487500 -0.021664
v 0.688938 0.397762 0.021814
v 0.562515 0.562520 0.021814
v 0.689429 0.689429 -0.021664
v 0.487500 0.844375 -0.021664
v 0.397757 0.688944 0.021814
v 0.205892 0.768417 0.021814
v 0.252349 0.941778 -0.021664
v 0.000000 0.975000 -0.021664
v -0.000004 0.795523 0.021814
v -0.205900 0.768417 0.021814
v -0.252349 0.941778 -0.021664
v -0.487500 0.844375 -0.021664
v -0.397765 0.688944 0.021814
v -0.562523 0.562520 0.021814
v -0.689429 0.689429 -0.021664
v -0.844375 0.487500 -0.021664
v -0.688946 0.397762 0.021814
v -0.768419 0.205898 0.021814
v -0.941778 0.252349 -0.021664
v -0.975000 0.000000 -0.021664
v -0.795526 0.000001 0.021814
v -0.768419 -0.205895 0.021814
v -0.941778 -0.252349 -0.021664
v -0.844375 -0.487500 -0.021664
v -0.688946 -0.397760 0.021814
v -0.562523 -0.562518 0.021814
v -0.689429 -0.689429 -0.021664
v -0.487500 -0.844375 -0.021664
v -0.397765 -0.688941 0.021814
v -0.205900 -0.768414 0.021814
v -0.252349 -0.941778 -0.021664
v 0.000000 -0.975000 -0.021664
v -0.000004 -0.795521 0.021814
v 0.205892 -0.768414 0.021814
v 0.252349 -0.941778 -0.021664
v 0.487500 -0.844375 -0.021664
v 0.397757 -0.688941 0.021814
v 0.562515 -0.562518 0.021814
v 0.689429 -0.689429 -0.021664
v 0.844375 -0.487500 -0.021664
v 0.688938 -0.397760 0.021814
v 0.768411 -0.205895 0.021814
v 0.941778 -0.252349 -0.021664
v 0.795518 0.000001 0.478336
v 0.768411 0.205898 0.478336
v 0.688938 0.397762 0.478336
v 0.562515 0.562520 0.478336
v 0.397757 0.688944 0.478336
v 0.205892 0.768417 0.478336
v -0.000004 0.795523 0.478336
v -0.205900 0.768417 0.478336
v -0.397765 0.688944 0.478336
v -0.562523 0.562520 0.478336
v -0.688946 0.397762 0.478336
v -0.768419 0.205898 0.478336
v -0.795526 0.000001 0.478336
v -0.768419 -0.205895 0.478336
v -0.688946 -0.397760 0.478336
v -0.562523 -0.562518 0.478336
v -0.397765 -0.688941 0.478336
v -0.205900 -0.768414 0.478336
v -0.000004 -0.795521 0.478336
v 0.205892 -0.768414 0.478336
v 0.397757 -0.688941 0.478336
v 0.562515 -0.562518 0.478336
v 0.688938 -0.397760 0.478336
v 0.768411 -0.205895 0.478336
vt 0.166667 0.830154
vt 0.166667 1.000000
vt 0.208334 0.830154
vt 0.208334 1.000000
vt 0.125001 1.000000
vt 0.125000 0.830154
vt 0.083333 0.830154
vt 0.083334 1.000000
vt 0.041668 1.000000
vt 0.041667 0.830154
vt 0.000000 0.830154
vt 0.000000 1.000000
vt 0.958333 1.000000
vt 0.999999 1.000000
vt 0.999999 0.830154
vt 0.958333 0.830154
vt 0.916666 0.830154
vt 0.916667 1.000000
vt 0.875000 1.000000
vt 0.875000 0.830154
vt 0.833333 0.830154
vt 0.833333 1.000000
vt 0.791667 1.000000
vt 0.791667 0.830154
vt 0.750000 0.830154
vt 0.750000 1.000000
vt 0.708334 1.000000
vt 0.708334 0.830154
vt 0.666667 0.830154
vt 0.666667 1.000000
vt 0.625000 1.000000
vt 0.625001 0.830154
vt 0.583334 0.830154
vt 0.583334 1.000000
vt 0.541667 1.000000
vt 0.541668 0.830154
vt 0.500001 0.830154
vt 0.500000 1.000000
vt 0.458334 1.000000
vt 0.458335 0.830154
vt 0.416668 0.830154
vt 0.416667 1.000000
vt 0.375001 1.000000
vt 0.375001 0.830154
vt 0.333334 0.830154
vt 0.333334 1.000000
vt 0.291667 1.000000
vt 0.291667 0.830154
vt 0.250001 0.830154
vt 0.250001 1.000000
vt 0.208334 0.007062
vt 0.166667 0.007062
vt 0.125000 0.007062
vt 0.083333 0.007062
vt 0.041667 0.007062
vt 0.000000 0.007062
vt 0.958333 0.007062
vt 1.000062 0.007062
vt 0.916666 0.007062
vt 0.875000 0.007062
vt 0.833333 0.007062
vt 0.791667 0.007062
vt 0.750000 0.007062
vt 0.708334 0.007062
vt 0.666667 0.007062
vt 0.625001 0.007062
vt 0.583334 0.007062
vt 0.541668 0.007062
vt 0.500001 0.007062
vt 0.458335 0.007062
vt 0.416668 0.007062
vt 0.375001 0.007062
vt 0.333334 0.007062
vt 0.291667 0.007062
vt 0.250001 0.007062
vn -0.235300 -0.031000 -0.971400
vn -0.219300 -0.090800 -0.971400
vn -0.188300 -0.144500 -0.971400
vn -0.144500 -0.188300 -0.971400
vn -0.090800 -0.219300 -0.971400
vn -0.031000 -0.235300 -0.971400
vn 0.031000 -0.235300 -0.971400
vn 0.090800 -0.219300 -0.971400
vn 0.144500 -0.188300 -0.971400
vn 0.188300 -0.144500 -0.971400
vn 0.219300 -0.090800 -0.971400
vn 0.235300 -0.031000 -0.971400
vn 0.235300 0.031000 -0.971400
vn 0.219300 0.090800 -0.971400
vn 0.188300 0.144500 -0.971400
vn 0.144500 0.188300 -0.971400
vn 0.090800 0.219300 -0.971400
vn 0.031000 0.235300 -0.971400
vn -0.031000 0.235300 -0.971400
vn -0.090800 0.219300 -0.971400
vn -0.144500 0.188300 -0.971400
vn -0.188300 0.144500 -0.971400
vn -0.219300 0.090800 -0.971400
vn -0.235300 0.031000 -0.971400
vn -0.991400 -0.130500 0.000000
vn -0.923900 -0.382700 0.000000
vn -0.793400 -0.608800 0.000000
vn -0.608800 -0.793400 0.000000
vn -0.382700 -0.923900 0.000000
vn -0.130500 -0.991400 0.000000
vn 0.130500 -0.991400 0.000000
vn 0.382700 -0.923900 0.000000
vn 0.608800 -0.793400 0.000000
vn 0.793400 -0.608800 0.000000
vn 0.923900 -0.382700 0.000000
vn 0.991400 -0.130500 0.000000
vn 0.991400 0.130500 0.000000
vn 0.923900 0.382700 0.000000
vn 0.793400 0.608800 0.000000
vn 0.608800 0.793400 0.000000
vn 0.382700 0.923900 0.000000
vn 0.130500 0.991400 0.000000
vn -0.130500 0.991400 0.000000
vn -0.382700 0.923900 0.000000
vn -0.608800 0.793400 0.000000
vn -0.793400 0.608800 0.000000
vn -0.923900 0.382700 0.000000
vn -0.991400 0.130500 0.000000
usemtl default_material
s off
f 1/1/1 2/2/1 3/3/1
f 3/3/1 2/2/1 4/4/1
f 2/2/2 1/1/2 5/5/2
f 5/5/2 1/1/2 6/6/2
f 7/7/3 8/8/3 6/6/3
f 6/6/3 8/8/3 5/5/3
f 9/9/4 8/8/4 7/7/4
f 10/10/4 9/9/4 7/7/4
f 11/11/5 12/12/5 10/10/5
f 10/10/5 12/12/5 9/9/5
f 13/13/6 12/14/6 11/15/6
f 14/16/6 13/13/6 11/15/6
f 15/17/7 16/18/7 14/16/7
f 14/16/7 16/18/7 13/13/7
f 17/19/8 16/18/8 15/17/8
f 18/20/8 17/19/8 15/17/8
f 19/21/9 20/22/9 18/20/9
f 18/20/9 20/22/9 17/19/9
f 21/23/10 20/22/10 19/21/10
f 22/24/10 21/23/10 19/21/10
f 23/25/11 24/26/11 22/24/11
f 22/24/11 24/26/11 21/23/11
f 25/27/12 24/26/12 23/25/12
f 26/28/12 25/27/12 23/25/12
f 27/29/13 28/30/13 26/28/13
f 26/28/13 28/30/13 25/27/13
f 29/31/14 28/30/14 27/29/14
f 30/32/14 29/31/14 27/29/14
f 31/33/15 32/34/15 30/32/15
f 30/32/15 32/34/15 29/31/15
f 33/35/16 32/34/16 31/33/16
f 34/36/16 33/35/16 31/33/16
f 35/37/17 36/38/17 34/36/17
f 34/36/17 36/38/17 33/35/17
f 37/39/18 36/38/18 35/37/18
f 38/40/18 37/39/18 35/37/18
f 39/41/19 40/42/19 38/40/19
f 38/40/19 40/42/19 37/39/19
f 41/43/20 40/42/20 39/41/20
f 42/44/20 41/43/20 39/41/20
f 43/45/21 44/46/21 42/44/21
f 42/44/21 44/46/21 41/43/21
f 45/47/22 44/46/22 43/45/22
f 46/48/22 45/47/22 43/45/22
f 47/49/23 48/50/23 46/48/23
f 46/48/23 48/50/23 45/47/23
f 4/4/24 48/50/24 47/49/24
f 3/3/24 4/4/24 47/49/24
f 1/1/25 3/3/25 49/51/25
f 50/52/25 1/1/25 49/51/25
f 51/53/26 6/6/26 50/52/26
f 1/1/26 50/52/26 6/6/26
f 7/7/27 6/6/27 51/53/27
f 51/53/27 52/54/27 7/7/27
f 53/55/28 10/10/28 52/54/28
f 7/7/28 52/54/28 10/10/28
f 54/56/29 11/11/29 53/55/29
f 10/10/29 53/55/29 11/11/29
f 55/57/30 14/16/30 54/58/30
f 11/15/30 54/58/30 14/16/30
f 15/17/31 14/16/31 55/57/31
f 55/57/31 56/59/31 15/17/31
f 57/60/32 18/20/32 56/59/32
f 15/17/32 56/59/32 18/20/32
f 19/21/33 18/20/33 57/60/33
f 57/60/33 58/61/33 19/21/33
f 59/62/34 22/24/34 58/61/34
f 19/21/34 58/61/34 22/24/34
f 23/25/35 22/24/35 59/62/35
f 59/62/35 60/63/35 23/25/35
f 61/64/36 26/28/36 60/63/36
f 23/25/36 60/63/36 26/28/36
f 27/29/37 26/28/37 61/64/37
f 61/64/37 62/65/37 27/29/37
f 63/66/38 30/32/38 62/65/38
f 27/29/38 62/65/38 30/32/38
f 31/33/39 30/32/39 63/66/39
f 63/66/39 64/67/39 31/33/39
f 65/68/40 34/36/40 64/67/40
f 31/33/40 64/67/40 34/36/40
f 35/37/41 34/36/41 65/68/41
f 65/68/41 66/69/41 35/37/41
f 67/70/42 38/40/42 66/69/42
f 35/37/42 66/69/42 38/40/42
f 39/41/43 38/40/43 67/70/43
f 67/70/43 68/71/43 39/41/43
f 69/72/44 42/44/44 68/71/44
f 39/41/44 68/71/44 42/44/44
f 43/45/45 42/44/45 69/72/45
f 69/72/45 70/73/45 43/45/45
f 71/74/46 46/48/46 70/73/46
f 43/45/46 70/73/46 46/48/46
f 47/49/47 46/48/47 71/74/47
f 71/74/47 72/75/47 47/49/47
f 49/51/48 3/3/48 72/75/48
f 47/49/48 72/75/48 3/3/48
