# Blender v2.77 (sub 0) OBJ File: ''
# www.blender.org
mtllib lowBallMesh.mtl
o lowBall
v -0.111471 0.343074 0.932671
v -0.360729 -0.000000 0.932671
v 0.000000 -0.000000 1.000000
v -0.479506 0.348381 0.805422
v -0.672883 -0.000000 0.739749
v -0.784354 0.343074 0.516806
v -0.111471 -0.343074 0.932671
v 0.000000 -0.000000 1.000000
v -0.894427 -0.000000 0.447214
v -0.964719 0.212031 0.156077
v -0.479506 -0.348381 0.805422
v -0.784354 -0.343074 0.516806
v -0.964719 -0.212031 0.156077
v -0.985456 0.000000 -0.169933
v -0.905103 0.395511 -0.156077
v -0.836210 0.183479 -0.516806
v -0.797250 -0.579236 0.169933
v -0.905103 -0.395511 -0.156077
v -0.836210 -0.183480 -0.516806
v -0.592702 0.000000 -0.805422
v -0.544374 0.395511 -0.739749
v -0.291836 0.212031 -0.932671
v -0.723607 -0.525731 -0.447214
v -0.291836 -0.212031 -0.932671
v 0.000000 0.000000 -1.000000
v -0.544374 -0.395511 -0.739749
v 0.111471 -0.343074 -0.932671
v 0.000000 0.000000 -1.000000
v -0.183155 -0.563693 -0.805422
v -0.432902 -0.738585 -0.516806
v -0.655845 -0.738585 -0.156077
v -0.083904 -0.851981 -0.516806
v -0.304522 -0.937224 -0.169933
v -0.499768 -0.851981 0.156077
v 0.207932 -0.639950 -0.739749
v 0.096461 -0.983024 -0.156077
v 0.360729 0.000000 -0.932671
v 0.000000 0.000000 -1.000000
v 0.276393 -0.850651 -0.447214
v 0.479506 -0.348381 -0.805422
v 0.568661 -0.639950 -0.516806
v 0.499768 -0.851981 -0.156077
v -0.096461 -0.983023 0.156077
v 0.304523 -0.937224 0.169933
v 0.797250 -0.579236 -0.169933
v -0.276393 -0.850651 0.447214
v 0.784354 -0.343074 -0.516806
v 0.083904 -0.851981 0.516806
v -0.568661 -0.639950 0.516806
v -0.207932 -0.639950 0.739749
v 0.183155 -0.563693 0.805422
v 0.432902 -0.738584 0.516806
v 0.291836 -0.212031 0.932671
v 0.000000 -0.000000 1.000000
v 0.655845 -0.738584 0.156077
v 0.544374 -0.395511 0.739749
v 0.723607 -0.525731 0.447214
v 0.905103 -0.395511 0.156077
v 0.836210 -0.183479 0.516806
v 0.592702 -0.000000 0.805422
v 0.291836 0.212031 0.932671
v 0.000000 -0.000000 1.000000
v 0.964719 -0.212031 -0.156077
v 0.985456 -0.000000 0.169933
v 0.836210 0.183479 0.516806
v 0.894427 0.000000 -0.447214
v 0.964719 0.212031 -0.156077
v 0.672883 0.000000 -0.739749
v 0.784354 0.343074 -0.516806
v 0.479506 0.348381 -0.805422
v 0.111471 0.343074 -0.932671
v 0.000000 0.000000 -1.000000
v -0.291836 0.212031 -0.932671
v 0.000000 0.000000 -1.000000
v -0.183155 0.563693 -0.805422
v -0.544374 0.395511 -0.739749
v 0.207932 0.639950 -0.739749
v 0.568661 0.639950 -0.516806
v 0.797250 0.579236 -0.169933
v 0.276393 0.850651 -0.447214
v 0.905103 0.395511 0.156077
v 0.499768 0.851981 -0.156077
v 0.655845 0.738584 0.156077
v 0.723607 0.525731 0.447214
v 0.544374 0.395511 0.739749
v 0.432902 0.738584 0.516806
v 0.304523 0.937224 0.169933
v 0.183155 0.563693 0.805422
v -0.111471 0.343074 0.932671
v 0.000000 -0.000000 1.000000
v 0.083904 0.851981 0.516806
v -0.207932 0.639950 0.739749
v -0.479506 0.348381 0.805422
v -0.096461 0.983024 0.156077
v -0.568662 0.639950 0.516806
v -0.784354 0.343074 0.516806
v -0.276393 0.850651 0.447214
v -0.797250 0.579236 0.169933
v -0.964719 0.212031 0.156077
v -0.905103 0.395511 -0.156077
v -0.499768 0.851981 0.156077
v -0.655845 0.738584 -0.156077
v -0.723607 0.525731 -0.447214
v -0.836210 0.183479 -0.516806
v -0.304523 0.937224 -0.169933
v -0.432902 0.738584 -0.516806
v -0.083904 0.851981 -0.516806
v 0.096461 0.983023 -0.156077
vt 0.0089 0.8213
vt 0.1769 0.8213
vt 0.0929 0.9200
vt 0.0929 0.7504
vt 0.1769 0.7227
vt 0.1218 0.6452
vt 0.3449 0.8213
vt 0.2609 0.9200
vt 0.1769 0.6240
vt 0.1480 0.5419
vt 0.2609 0.7504
vt 0.2320 0.6452
vt 0.2058 0.5419
vt 0.1769 0.4543
vt 0.1218 0.4581
vt 0.1480 0.3548
vt 0.2609 0.5457
vt 0.2320 0.4581
vt 0.2058 0.3548
vt 0.1769 0.2496
vt 0.0929 0.2773
vt 0.0929 0.1787
vt 0.2609 0.3760
vt 0.2609 0.1787
vt 0.1769 0.0800
vt 0.2609 0.2773
vt 0.4289 0.1787
vt 0.3449 0.0800
vt 0.3449 0.2496
vt 0.3160 0.3548
vt 0.2898 0.4581
vt 0.3738 0.3548
vt 0.3449 0.4543
vt 0.3160 0.5419
vt 0.4289 0.2773
vt 0.4000 0.4581
vt 0.5969 0.1787
vt 0.5129 0.0800
vt 0.4289 0.3760
vt 0.5129 0.2496
vt 0.4840 0.3548
vt 0.4578 0.4581
vt 0.3738 0.5419
vt 0.4289 0.5457
vt 0.5129 0.4543
vt 0.3449 0.6240
vt 0.5418 0.3548
vt 0.4000 0.6452
vt 0.2898 0.6452
vt 0.3449 0.7227
vt 0.4289 0.7504
vt 0.4578 0.6452
vt 0.5129 0.8213
vt 0.4289 0.9200
vt 0.4840 0.5419
vt 0.5129 0.7227
vt 0.5129 0.6240
vt 0.5418 0.5419
vt 0.5680 0.6452
vt 0.5969 0.7504
vt 0.6809 0.8213
vt 0.5969 0.9200
vt 0.5680 0.4581
vt 0.5969 0.5457
vt 0.6258 0.6452
vt 0.5969 0.3760
vt 0.6258 0.4581
vt 0.5969 0.2773
vt 0.6520 0.3548
vt 0.6809 0.2496
vt 0.7649 0.1787
vt 0.6809 0.0800
vt 0.9329 0.1787
vt 0.8489 0.0800
vt 0.8489 0.2496
vt 0.9329 0.2773
vt 0.7649 0.2773
vt 0.7098 0.3548
vt 0.6809 0.4543
vt 0.7649 0.3760
vt 0.6520 0.5419
vt 0.7360 0.4581
vt 0.7098 0.5419
vt 0.6809 0.6240
vt 0.6809 0.7227
vt 0.7360 0.6452
vt 0.7649 0.5457
vt 0.7649 0.7504
vt 0.8489 0.8213
vt 0.7649 0.9200
vt 0.7938 0.6452
vt 0.8489 0.7227
vt 0.9329 0.7504
vt 0.8200 0.5419
vt 0.9040 0.6452
vt 0.9618 0.6452
vt 0.8489 0.6240
vt 0.9329 0.5457
vt 0.9880 0.5419
vt 0.9618 0.4581
vt 0.8778 0.5419
vt 0.9040 0.4581
vt 0.9329 0.3760
vt 0.9880 0.3548
vt 0.8489 0.4543
vt 0.8778 0.3548
vt 0.8200 0.3548
vt 0.7938 0.4581
vn -0.1108 0.3410 0.9335
vn -0.3585 -0.0000 0.9335
vn 0.0000 0.0000 1.0000
vn -0.4841 0.3517 0.8013
vn -0.6742 -0.0000 0.7385
vn -0.7833 0.3451 0.5170
vn -0.1108 -0.3410 0.9335
vn -0.8944 -0.0000 0.4472
vn -0.9639 0.2132 0.1594
vn -0.4841 -0.3517 0.8012
vn -0.7833 -0.3452 0.5170
vn -0.9639 -0.2132 0.1594
vn -0.9842 0.0000 -0.1768
vn -0.9051 0.3941 -0.1594
vn -0.8366 0.1812 -0.5170
vn -0.7963 -0.5785 0.1768
vn -0.9052 -0.3941 -0.1594
vn -0.8366 -0.1812 -0.5170
vn -0.5983 0.0000 -0.8012
vn -0.5455 0.3963 -0.7385
vn -0.2900 0.2107 -0.9335
vn -0.7236 -0.5257 -0.4472
vn -0.2900 -0.2107 -0.9335
vn 0.0000 0.0000 -1.0000
vn -0.5455 -0.3963 -0.7385
vn 0.1108 -0.3410 -0.9335
vn -0.1849 -0.5691 -0.8012
vn -0.4308 -0.7396 -0.5170
vn -0.6545 -0.7391 -0.1594
vn -0.0862 -0.8516 -0.5170
vn -0.3041 -0.9361 -0.1768
vn -0.5007 -0.8509 0.1594
vn 0.2083 -0.6412 -0.7385
vn 0.0951 -0.9826 -0.1594
vn 0.3585 0.0000 -0.9335
vn 0.2764 -0.8507 -0.4472
vn 0.4841 -0.3517 -0.8012
vn 0.5703 -0.6383 -0.5170
vn 0.5007 -0.8509 -0.1594
vn -0.0951 -0.9826 0.1594
vn 0.3041 -0.9361 0.1768
vn 0.7963 -0.5785 -0.1768
vn -0.2764 -0.8507 0.4472
vn 0.7833 -0.3452 -0.5170
vn 0.0862 -0.8516 0.5170
vn -0.5703 -0.6383 0.5170
vn -0.2083 -0.6412 0.7385
vn 0.1849 -0.5691 0.8012
vn 0.4308 -0.7396 0.5170
vn 0.2900 -0.2107 0.9335
vn 0.6545 -0.7391 0.1594
vn 0.5455 -0.3963 0.7385
vn 0.7236 -0.5257 0.4472
vn 0.9052 -0.3941 0.1594
vn 0.8366 -0.1812 0.5170
vn 0.5983 -0.0000 0.8012
vn 0.2900 0.2107 0.9335
vn 0.9639 -0.2132 -0.1594
vn 0.9842 -0.0000 0.1768
vn 0.8366 0.1812 0.5170
vn 0.8944 0.0000 -0.4472
vn 0.9639 0.2132 -0.1594
vn 0.6742 0.0000 -0.7385
vn 0.7833 0.3452 -0.5170
vn 0.4841 0.3517 -0.8012
vn 0.1108 0.3410 -0.9335
vn -0.1849 0.5691 -0.8012
vn 0.2083 0.6412 -0.7385
vn 0.5703 0.6383 -0.5170
vn 0.7963 0.5785 -0.1768
vn 0.2764 0.8507 -0.4472
vn 0.9052 0.3941 0.1594
vn 0.5007 0.8509 -0.1594
vn 0.6545 0.7391 0.1594
vn 0.7236 0.5257 0.4472
vn 0.5455 0.3963 0.7385
vn 0.4308 0.7396 0.5170
vn 0.3041 0.9361 0.1768
vn 0.1849 0.5691 0.8012
vn 0.0862 0.8516 0.5170
vn -0.2083 0.6412 0.7385
vn -0.4841 0.3517 0.8012
vn -0.0951 0.9826 0.1594
vn -0.5703 0.6383 0.5170
vn -0.7833 0.3452 0.5170
vn -0.2764 0.8507 0.4472
vn -0.7963 0.5785 0.1768
vn -0.9052 0.3941 -0.1594
vn -0.5007 0.8509 0.1594
vn -0.6545 0.7391 -0.1594
vn -0.7236 0.5257 -0.4472
vn -0.3041 0.9361 -0.1768
vn -0.4308 0.7396 -0.5170
vn -0.0862 0.8516 -0.5170
vn 0.0951 0.9826 -0.1594
usemtl Playfield
s 1
f 1/1/1 2/2/2 3/3/3
f 1/1/1 4/4/4 2/2/2
f 4/4/4 5/5/5 2/2/2
f 4/4/4 6/6/6 5/5/5
f 2/2/2 7/7/7 8/8/3
f 6/6/6 9/9/8 5/5/5
f 9/9/8 6/6/6 10/10/9
f 5/5/5 11/11/10 2/2/2
f 2/2/2 11/11/10 7/7/7
f 9/9/8 12/12/11 5/5/5
f 5/5/5 12/12/11 11/11/10
f 10/10/9 13/13/12 9/9/8
f 12/12/11 9/9/8 13/13/12
f 10/10/9 14/14/13 13/13/12
f 15/15/14 14/14/13 10/10/9
f 15/15/14 16/16/15 14/14/13
f 17/17/16 12/12/11 13/13/12
f 14/14/13 18/18/17 13/13/12
f 17/17/16 13/13/12 18/18/17
f 16/16/15 19/19/18 14/14/13
f 14/14/13 19/19/18 18/18/17
f 19/19/18 16/16/15 20/20/19
f 20/20/19 16/16/15 21/21/20
f 20/20/19 21/21/20 22/22/21
f 19/19/18 23/23/22 18/18/17
f 24/24/23 20/20/19 22/22/21
f 24/24/23 22/22/21 25/25/24
f 26/26/25 19/19/18 20/20/19
f 26/26/25 20/20/19 24/24/23
f 23/23/22 19/19/18 26/26/25
f 27/27/26 24/24/23 28/28/24
f 29/29/27 26/26/25 24/24/23
f 27/27/26 29/29/27 24/24/23
f 30/30/28 23/23/22 26/26/25
f 29/29/27 30/30/28 26/26/25
f 31/31/29 18/18/17 23/23/22
f 23/23/22 30/30/28 31/31/29
f 31/31/29 17/17/16 18/18/17
f 32/32/30 30/30/28 29/29/27
f 31/31/29 30/30/28 33/33/31
f 30/30/28 32/32/30 33/33/31
f 34/34/32 17/17/16 31/31/29
f 31/31/29 33/33/31 34/34/32
f 35/35/33 32/32/30 29/29/27
f 35/35/33 29/29/27 27/27/26
f 33/33/31 32/32/30 36/36/34
f 37/37/35 27/27/26 38/38/24
f 32/32/30 39/39/36 36/36/34
f 39/39/36 32/32/30 35/35/33
f 40/40/37 35/35/33 27/27/26
f 37/37/35 40/40/37 27/27/26
f 41/41/38 39/39/36 35/35/33
f 40/40/37 41/41/38 35/35/33
f 42/42/39 36/36/34 39/39/36
f 39/39/36 41/41/38 42/42/39
f 33/33/31 36/36/34 43/43/40
f 34/34/32 33/33/31 43/43/40
f 42/42/39 44/44/41 36/36/34
f 44/44/41 43/43/40 36/36/34
f 42/42/39 41/41/38 45/45/42
f 34/34/32 43/43/40 46/46/43
f 41/41/38 47/47/44 45/45/42
f 47/47/44 41/41/38 40/40/37
f 48/48/45 46/46/43 43/43/40
f 44/44/41 48/48/45 43/43/40
f 46/46/43 49/49/46 34/34/32
f 34/34/32 49/49/46 17/17/16
f 49/49/46 12/12/11 17/17/16
f 12/12/11 49/49/46 11/11/10
f 49/49/46 46/46/43 50/50/47
f 11/11/10 49/49/46 50/50/47
f 46/46/43 48/48/45 50/50/47
f 11/11/10 50/50/47 7/7/7
f 50/50/47 48/48/45 51/51/48
f 50/50/47 51/51/48 7/7/7
f 52/52/49 48/48/45 44/44/41
f 48/48/45 52/52/49 51/51/48
f 7/7/7 53/53/50 54/54/3
f 7/7/7 51/51/48 53/53/50
f 55/55/51 52/52/49 44/44/41
f 55/55/51 44/44/41 42/42/39
f 42/42/39 45/45/42 55/55/51
f 51/51/48 52/52/49 56/56/52
f 51/51/48 56/56/52 53/53/50
f 57/57/53 52/52/49 55/55/51
f 52/52/49 57/57/53 56/56/52
f 55/55/51 45/45/42 58/58/54
f 55/55/51 58/58/54 57/57/53
f 57/57/53 59/59/55 56/56/52
f 59/59/55 57/57/53 58/58/54
f 56/56/52 60/60/56 53/53/50
f 56/56/52 59/59/55 60/60/56
f 53/53/50 61/61/57 62/62/3
f 53/53/50 60/60/56 61/61/57
f 45/45/42 63/63/58 58/58/54
f 45/45/42 47/47/44 63/63/58
f 64/64/59 59/59/55 58/58/54
f 64/64/59 58/58/54 63/63/58
f 59/59/55 65/65/60 60/60/56
f 65/65/60 59/59/55 64/64/59
f 47/47/44 66/66/61 63/63/58
f 67/67/62 64/64/59 63/63/58
f 67/67/62 63/63/58 66/66/61
f 66/66/61 47/47/44 68/68/63
f 68/68/63 47/47/44 40/40/37
f 68/68/63 40/40/37 37/37/35
f 69/69/64 66/66/61 68/68/63
f 66/66/61 69/69/64 67/67/62
f 70/70/65 68/68/63 37/37/35
f 70/70/65 69/69/64 68/68/63
f 71/71/66 37/37/35 72/72/24
f 71/71/66 70/70/65 37/37/35
f 73/73/21 71/71/66 74/74/24
f 73/73/21 75/75/67 71/71/66
f 76/76/20 75/75/67 73/73/21
f 77/77/68 70/70/65 71/71/66
f 75/75/67 77/77/68 71/71/66
f 78/78/69 69/69/64 70/70/65
f 77/77/68 78/78/69 70/70/65
f 69/69/64 78/78/69 79/79/70
f 67/67/62 69/69/64 79/79/70
f 80/80/71 78/78/69 77/77/68
f 67/67/62 79/79/70 81/81/72
f 81/81/72 64/64/59 67/67/62
f 81/81/72 65/65/60 64/64/59
f 79/79/70 78/78/69 82/82/73
f 78/78/69 80/80/71 82/82/73
f 81/81/72 79/79/70 83/83/74
f 79/79/70 82/82/73 83/83/74
f 84/84/75 65/65/60 81/81/72
f 81/81/72 83/83/74 84/84/75
f 65/65/60 84/84/75 85/85/76
f 60/60/56 65/65/60 85/85/76
f 60/60/56 85/85/76 61/61/57
f 86/86/77 84/84/75 83/83/74
f 84/84/75 86/86/77 85/85/76
f 87/87/78 83/83/74 82/82/73
f 87/87/78 86/86/77 83/83/74
f 85/85/76 88/88/79 61/61/57
f 85/85/76 86/86/77 88/88/79
f 61/61/57 89/89/1 90/90/3
f 61/61/57 88/88/79 89/89/1
f 86/86/77 91/91/80 88/88/79
f 91/91/80 86/86/77 87/87/78
f 88/88/79 92/92/81 89/89/1
f 88/88/79 91/91/80 92/92/81
f 92/92/81 93/93/82 89/89/1
f 94/94/83 91/91/80 87/87/78
f 92/92/81 95/95/84 93/93/82
f 95/95/84 96/96/85 93/93/82
f 91/91/80 97/97/86 92/92/81
f 97/97/86 95/95/84 92/92/81
f 97/97/86 91/91/80 94/94/83
f 96/96/85 95/95/84 98/98/87
f 99/99/9 96/96/85 98/98/87
f 99/99/9 98/98/87 100/100/88
f 95/95/84 97/97/86 101/101/89
f 98/98/87 95/95/84 101/101/89
f 94/94/83 101/101/89 97/97/86
f 100/100/88 98/98/87 102/102/90
f 98/98/87 101/101/89 102/102/90
f 100/100/88 102/102/90 103/103/91
f 103/103/91 104/104/15 100/100/88
f 104/104/15 103/103/91 76/76/20
f 105/105/92 102/102/90 101/101/89
f 94/94/83 105/105/92 101/101/89
f 106/106/93 103/103/91 102/102/90
f 103/103/91 106/106/93 76/76/20
f 105/105/92 106/106/93 102/102/90
f 76/76/20 106/106/93 75/75/67
f 106/106/93 107/107/94 75/75/67
f 107/107/94 106/106/93 105/105/92
f 75/75/67 107/107/94 77/77/68
f 107/107/94 80/80/71 77/77/68
f 108/108/95 107/107/94 105/105/92
f 80/80/71 107/107/94 108/108/95
f 108/108/95 105/105/92 94/94/83
f 108/108/95 82/82/73 80/80/71
f 94/94/83 87/87/78 108/108/95
f 108/108/95 87/87/78 82/82/73
