# Blender v2.73 (sub 0) OBJ File: 'target-t1-slim.blend'
# www.blender.org
mtllib target-t1-slim.mtl
o target_t1_slim.mo_target_t1_slim.m
v 0.310148 -0.024548 -0.762633
v 0.310148 0.085466 -0.762633
v 0.219287 0.085466 -0.706049
v 0.219287 -0.024548 -0.706049
v 0.104420 -0.024548 -0.671205
v 0.104420 0.085466 -0.671205
v -0.015037 0.085466 -0.659439
v -0.015037 -0.024548 -0.659439
v -0.134494 -0.024548 -0.671205
v -0.134494 0.085466 -0.671205
v -0.249361 0.085466 -0.706049
v -0.249361 -0.024548 -0.706049
v -0.340222 -0.024548 -0.762633
v -0.340222 0.085466 -0.762633
v -0.340222 -0.024548 -1.780880
v -0.340222 0.085466 -1.780880
v -0.249361 0.085466 -1.837464
v -0.249361 -0.024548 -1.837464
v -0.134494 -0.024548 -1.872308
v -0.134494 0.085466 -1.872308
v -0.015037 0.085466 -1.884074
v -0.015037 -0.024548 -1.884074
v 0.104420 -0.024548 -1.872308
v 0.104420 0.085466 -1.872308
v 0.219287 0.085466 -1.837464
v 0.219287 -0.024548 -1.837464
v 0.310148 -0.024548 -1.780880
v 0.310148 0.085466 -1.780880
v -0.015037 0.085466 -1.271757
v -0.015037 -0.024548 -1.271757
v 0.234963 -0.024548 0.103410
v 0.234963 -0.049543 0.103410
v 0.234963 -0.024548 -1.496923
v 0.234963 -0.049543 -1.496923
v -0.265037 -0.024548 -1.496923
v -0.265037 -0.049543 -1.496923
v -0.265037 -0.024548 0.103410
v -0.265037 -0.049543 0.103410
v 0.122464 0.085466 -1.271757
v -0.015037 0.110515 -1.271757
v 0.111997 0.085466 -1.219137
v 0.082191 0.085466 -1.174529
v 0.037582 0.085466 -1.144722
v -0.015037 0.085466 -1.134256
v -0.067656 0.085466 -1.144722
v -0.112265 0.085466 -1.174529
v -0.142071 0.085466 -1.219137
v -0.152538 0.085466 -1.271757
v -0.142071 0.085466 -1.324376
v -0.112265 0.085466 -1.368984
v -0.067656 0.085466 -1.398790
v -0.015037 0.085466 -1.409257
v 0.037582 0.085466 -1.398790
v 0.082191 0.085466 -1.368984
v 0.111997 0.085466 -1.324376
v 0.247463 -0.119543 -0.621756
v 0.247463 -0.269543 -0.621756
v 0.247463 -0.119543 -1.959256
v 0.247463 -0.269543 -1.959256
v -0.277537 -0.119543 -1.959256
v -0.277537 -0.269543 -1.959256
v -0.277537 -0.119543 -0.621756
v -0.277537 -0.269543 -0.621756
v 0.259963 -0.269543 0.103244
v 0.259963 -0.319543 0.103244
v 0.259963 -0.269543 -1.971756
v 0.259963 -0.319543 -1.971756
v -0.290037 -0.269543 -1.971756
v -0.290037 -0.319543 -1.971756
v -0.290037 -0.269543 0.103244
v -0.290037 -0.319543 0.103244
v 0.310148 0.085466 -0.762633
v 0.310148 0.085466 -0.762633
v 0.219287 0.085466 -0.706049
v 0.310148 -0.024548 -0.762633
v 0.310148 -0.024548 -0.762633
v 0.219287 -0.024548 -0.706049
v 0.104420 -0.024548 -0.671205
v 0.104420 0.085466 -0.671205
v -0.015037 0.085466 -0.659439
v -0.015037 -0.024548 -0.659439
v -0.134494 -0.024548 -0.671205
v -0.134494 0.085466 -0.671205
v -0.249361 0.085466 -0.706049
v -0.249361 -0.024548 -0.706049
v -0.340222 -0.024548 -0.762633
v -0.340222 -0.024548 -0.762633
v -0.340222 0.085466 -0.762633
v -0.340222 0.085466 -0.762633
v -0.340222 0.085466 -1.780880
v -0.340222 0.085466 -1.780880
v -0.249361 0.085466 -1.837464
v -0.340222 -0.024548 -1.780880
v -0.340222 -0.024548 -1.780880
v -0.249361 -0.024548 -1.837464
v -0.134494 -0.024548 -1.872308
v -0.134494 0.085466 -1.872308
v -0.015037 0.085466 -1.884074
v -0.015037 -0.024548 -1.884074
v 0.104420 -0.024548 -1.872308
v 0.104420 0.085466 -1.872308
v 0.219287 0.085466 -1.837464
v 0.219287 -0.024548 -1.837464
v 0.310148 -0.024548 -1.780880
v 0.310148 -0.024548 -1.780880
v 0.310148 0.085466 -1.780880
v 0.310148 0.085466 -1.780880
v 0.234963 -0.024548 -1.496923
v 0.234963 -0.024548 -1.496923
v 0.234963 -0.024548 0.103410
v 0.234963 -0.049543 0.103410
v 0.234963 -0.049543 -1.496923
v 0.234963 -0.049543 -1.496923
v -0.265037 -0.024548 -1.496923
v -0.265037 -0.024548 -1.496923
v -0.265037 -0.049543 -1.496923
v -0.265037 -0.049543 -1.496923
v -0.265037 -0.049543 0.103410
v -0.265037 -0.024548 0.103410
v 0.247463 -0.119543 -0.621756
v 0.247463 -0.119543 -0.621756
v 0.247463 -0.269543 -0.621756
v 0.247463 -0.119543 -1.959256
v 0.247463 -0.119543 -1.959256
v 0.247463 -0.269543 -1.959256
v -0.277537 -0.119543 -1.959256
v -0.277537 -0.119543 -1.959256
v -0.277537 -0.269543 -1.959256
v -0.277537 -0.269543 -0.621756
v -0.277537 -0.119543 -0.621756
v -0.277537 -0.119543 -0.621756
v 0.259963 -0.269543 -1.971756
v 0.259963 -0.269543 -1.971756
v 0.259963 -0.269543 0.103244
v 0.259963 -0.319543 0.103244
v 0.259963 -0.319543 -1.971756
v 0.259963 -0.319543 -1.971756
v -0.290037 -0.269543 -1.971756
v -0.290037 -0.269543 -1.971756
v -0.290037 -0.319543 -1.971756
v -0.290037 -0.319543 -1.971756
v -0.290037 -0.319543 0.103244
v -0.290037 -0.269543 0.103244
vt 0.075225 0.370375
vt 0.112623 0.401625
vt 0.075225 0.401625
vt 0.112623 0.370375
vt 0.037586 0.370375
vt 0.037586 0.401625
vt 0.000000 0.370375
vt 0.000000 0.401625
vt 1.000000 0.370375
vt 1.000000 0.401625
vt 0.962414 0.370375
vt 0.962414 0.401625
vt 0.925299 0.370375
vt 0.925299 0.401625
vt 0.887772 0.370375
vt 0.887772 0.401625
vt 0.575217 0.370375
vt 0.612729 0.401625
vt 0.575217 0.401625
vt 0.612729 0.370375
vt 0.537578 0.370375
vt 0.537578 0.401625
vt 0.499976 0.370375
vt 0.499976 0.401625
vt 0.462391 0.370375
vt 0.462391 0.401625
vt 0.425275 0.370375
vt 0.425275 0.401625
vt 0.387666 0.370375
vt 0.387666 0.401625
vt 0.461587 0.439921
vt 0.504679 0.466757
vt 0.350456 0.708215
vt 0.407110 0.423396
vt 0.350456 0.417816
vt 0.293802 0.423396
vt 0.239325 0.439921
vt 0.196232 0.466757
vt 0.239325 0.976510
vt 0.196232 0.949674
vt 0.293802 0.993035
vt 0.350456 0.998615
vt 0.407110 0.993035
vt 0.461587 0.976510
vt 0.504679 0.949674
vt 0.095874 0.028438
vt 0.116257 0.015744
vt 0.168822 0.142648
vt 0.142025 0.007928
vt 0.168822 0.005288
vt 0.195620 0.007928
vt 0.221387 0.015744
vt 0.241770 0.028438
vt 0.241770 0.256858
vt 0.221387 0.269551
vt 0.195620 0.277368
vt 0.168822 0.280007
vt 0.142025 0.277368
vt 0.116257 0.269551
vt 0.095874 0.256858
vt 0.858268 0.419588
vt 0.872391 0.419588
vt 0.858268 0.800765
vt 0.872391 0.800765
vt 0.858172 0.820721
vt 0.739176 0.800765
vt 0.739112 0.820721
vt 0.724978 0.800765
vt 0.724978 0.419588
vt 0.739176 0.419588
vt 0.991483 0.419588
vt 0.991483 0.800765
vt 0.993786 0.911976
vt 0.910599 0.911976
vt 0.987454 0.880142
vt 0.969421 0.853154
vt 0.942433 0.835121
vt 0.910599 0.828789
vt 0.878764 0.835121
vt 0.851776 0.853154
vt 0.833744 0.880142
vt 0.827411 0.911976
vt 0.833744 0.943811
vt 0.851776 0.970798
vt 0.878764 0.988831
vt 0.910599 0.995164
vt 0.942433 0.988831
vt 0.969421 0.970798
vt 0.987454 0.943811
vt 0.498307 0.038596
vt 0.530374 0.038596
vt 0.498307 0.320619
vt 0.530374 0.320619
vt 0.498307 0.353884
vt 0.386403 0.320619
vt 0.386403 0.353884
vt 0.354738 0.320619
vt 0.354738 0.038596
vt 0.386403 0.038596
vt 0.498307 0.006704
vt 0.386403 0.006704
vt 0.995664 0.148299
vt 0.995664 0.170493
vt 0.572135 0.148299
vt 0.572135 0.170493
vt 0.551487 0.148299
vt 0.572135 0.024884
vt 0.551487 0.024884
vt 0.572135 0.003710
vt 0.995664 0.003710
vt 0.995664 0.024884
vt 0.995664 0.293980
vt 0.572135 0.293980
vn 0.413000 0.000000 0.910700
vn 0.528600 0.000000 0.848900
vn 0.195100 0.000000 0.980800
vn -0.000000 0.000000 1.000000
vn -0.195100 0.000000 0.980800
vn -0.413000 0.000000 0.910700
vn -0.528600 0.000000 0.848900
vn -0.413000 0.000000 -0.910700
vn -0.528600 0.000000 -0.848900
vn -0.195100 0.000000 -0.980800
vn 0.000000 0.000000 -1.000000
vn 0.195100 0.000000 -0.980800
vn 0.413000 0.000000 -0.910700
vn 0.528600 0.000000 -0.848900
vn 0.000000 1.000000 0.000000
vn -0.000000 -1.000000 0.000000
vn -1.000000 0.000000 0.000000
vn 1.000000 0.000000 0.000000
vn 0.179200 0.983800 -0.000000
vn 0.165600 0.983800 0.068600
vn 0.126700 0.983800 0.126700
vn 0.068600 0.983800 0.165600
vn -0.000000 0.983800 0.179200
vn -0.068600 0.983800 0.165600
vn -0.126700 0.983800 0.126700
vn -0.165600 0.983800 0.068600
vn -0.179200 0.983800 -0.000000
vn -0.165600 0.983800 -0.068600
vn -0.126700 0.983800 -0.126700
vn -0.068600 0.983800 -0.165600
vn -0.000000 0.983800 -0.179200
vn 0.068600 0.983800 -0.165600
vn 0.126700 0.983800 -0.126700
vn 0.165600 0.983800 -0.068600
usemtl None
s 1
f 4/1/1 2/2/2 3/3/1
f 1/4/2 2/2/2 4/1/1
f 4/1/1 3/3/1 5/5/3
f 3/3/1 6/6/3 5/5/3
f 8/7/4 6/6/3 7/8/4
f 5/5/3 6/6/3 8/7/4
f 8/9/4 7/10/4 9/11/5
f 7/10/4 10/12/5 9/11/5
f 12/13/6 10/12/5 11/14/6
f 9/11/5 10/12/5 12/13/6
f 12/13/6 11/14/6 13/15/7
f 11/14/6 14/16/7 13/15/7
f 18/17/8 16/18/9 17/19/8
f 15/20/9 16/18/9 18/17/8
f 18/17/8 17/19/8 19/21/10
f 17/19/8 20/22/10 19/21/10
f 22/23/11 20/22/10 21/24/11
f 19/21/10 20/22/10 22/23/11
f 22/23/11 21/24/11 23/25/12
f 21/24/11 24/26/12 23/25/12
f 26/27/13 24/26/12 25/28/13
f 23/25/12 24/26/12 26/27/13
f 26/27/13 25/28/13 27/29/14
f 25/28/13 28/30/14 27/29/14
f 74/31/15 72/32/15 29/33/15
f 79/34/15 74/31/15 29/33/15
f 80/35/15 79/34/15 29/33/15
f 83/36/15 80/35/15 29/33/15
f 84/37/15 83/36/15 29/33/15
f 88/38/15 84/37/15 29/33/15
f 92/39/15 90/40/15 29/33/15
f 97/41/15 92/39/15 29/33/15
f 98/42/15 97/41/15 29/33/15
f 101/43/15 98/42/15 29/33/15
f 102/44/15 101/43/15 29/33/15
f 106/45/15 102/44/15 29/33/15
f 75/46/16 77/47/16 30/48/16
f 77/47/16 78/49/16 30/48/16
f 78/49/16 81/50/16 30/48/16
f 81/50/16 82/51/16 30/48/16
f 82/51/16 85/52/16 30/48/16
f 85/52/16 86/53/16 30/48/16
f 93/54/16 95/55/16 30/48/16
f 95/55/16 96/56/16 30/48/16
f 96/56/16 99/57/16 30/48/16
f 99/57/16 100/58/16 30/48/16
f 100/58/16 103/59/16 30/48/16
f 103/59/16 104/60/16 30/48/16
f 29/33/15 90/40/15 88/38/15
f 72/32/15 106/45/15 29/33/15
f 86/53/16 93/54/16 30/48/16
f 30/48/16 104/60/16 75/46/16
f 89/16/17 94/20/17 87/15/17
f 94/20/17 89/16/17 91/18/17
f 107/30/18 73/2/18 76/4/18
f 76/4/18 105/29/18 107/30/18
f 31/61/18 32/62/18 33/63/18
f 32/62/18 34/64/18 33/63/18
f 108/63/11 112/65/11 35/66/11
f 112/65/11 36/67/11 35/66/11
f 114/66/17 116/68/17 38/69/17
f 114/66/17 38/69/17 37/70/17
f 115/66/15 119/70/15 109/63/15
f 119/70/15 110/61/15 109/63/15
f 118/71/16 117/72/16 113/64/16
f 118/71/16 113/64/16 111/62/16
f 39/73/19 40/74/15 41/75/20
f 41/75/20 40/74/15 42/76/21
f 42/76/21 40/74/15 43/77/22
f 43/77/22 40/74/15 44/78/23
f 44/78/23 40/74/15 45/79/24
f 45/79/24 40/74/15 46/80/25
f 46/80/25 40/74/15 47/81/26
f 47/81/26 40/74/15 48/82/27
f 48/82/27 40/74/15 49/83/28
f 49/83/28 40/74/15 50/84/29
f 50/84/29 40/74/15 51/85/30
f 51/85/30 40/74/15 52/86/31
f 52/86/31 40/74/15 53/87/32
f 53/87/32 40/74/15 54/88/33
f 54/88/33 40/74/15 55/89/34
f 55/89/34 40/74/15 39/73/19
f 56/90/18 57/91/18 58/92/18
f 57/91/18 59/93/18 58/92/18
f 123/92/11 125/94/11 60/95/11
f 125/94/11 61/96/11 60/95/11
f 126/95/17 128/97/17 63/98/17
f 126/95/17 63/98/17 62/99/17
f 127/95/15 130/99/15 124/92/15
f 130/99/15 120/90/15 124/92/15
f 122/100/4 131/99/4 129/101/4
f 131/99/4 122/100/4 121/90/4
f 64/102/18 65/103/18 66/104/18
f 65/103/18 67/105/18 66/104/18
f 132/104/11 136/106/11 68/107/11
f 136/106/11 69/108/11 68/107/11
f 138/107/17 140/109/17 71/110/17
f 138/107/17 71/110/17 70/111/17
f 139/107/15 143/111/15 133/104/15
f 143/111/15 134/102/15 133/104/15
f 142/112/16 141/113/16 137/105/16
f 142/112/16 137/105/16 135/103/16
