# Blender v2.77 (sub 0) OBJ File: ''
# www.blender.org
mtllib Rolloverswitchwire2.mtl
o sw24p
v 1.332092 -25.442701 -8.003286
v 1.269300 -29.773529 -1.522005
v 1.259000 -30.309628 -1.965605
v -0.717500 5.305475 -22.762600
v -0.717000 -2.941926 -21.758400
v -1.248920 -3.286366 -20.785486
v -1.248898 4.846074 -21.890282
v -1.090600 28.659773 -13.027796
v -1.090900 21.074074 -17.133097
v -0.677300 20.844072 -16.663897
v -0.677000 28.349874 -12.612796
v 0.996500 5.057974 -20.586599
v 0.996100 -2.694326 -19.581301
v 1.332623 -3.453879 -20.424641
v 1.332432 4.651765 -21.578358
v 0.028751 -34.875393 5.117660
v -1.080671 -34.532372 5.788297
v -0.715600 -30.934229 -2.482505
v -0.148700 -31.132929 -2.646805
v -0.678600 -2.663326 -19.307301
v -0.678000 5.026574 -20.311600
v -1.091200 5.086274 -20.836201
v -1.091500 -2.722926 -19.832199
v 0.681601 45.530048 5.968322
v -0.444456 45.610027 5.941420
v -0.962315 43.421570 6.677061
v -0.100600 42.978371 6.826007
v 0.499600 -18.142029 -12.358503
v -0.104900 -18.098827 -12.270403
v -0.105300 -24.184927 -7.200004
v 0.499200 -24.242928 -7.277804
v -0.151200 5.335675 -23.027901
v -0.150500 -2.972226 -22.023300
v 1.315498 -33.974953 6.185764
v 0.844500 -34.580929 5.401894
v 0.966200 -30.780231 -2.355005
v -1.251763 -30.526407 -1.519590
v -1.172724 -33.739468 6.930429
v 0.963300 36.156471 -9.001694
v 1.332097 35.048908 -8.777613
v 1.332401 28.542036 -13.994975
v 0.963800 29.681471 -14.395696
v -0.716100 -25.776928 -9.331604
v -0.149300 -25.933128 -9.540904
v -1.249335 35.387985 -8.853525
v -1.249319 28.893847 -14.125152
v 0.853437 -33.264236 7.272000
v 0.994900 -29.294630 -1.125705
v -1.090300 34.855869 -7.925395
v 1.330032 44.420162 6.341380
v 0.827291 43.232422 6.740617
v 0.998100 39.539070 -1.283294
v 1.331929 40.024178 -2.330201
v 1.332385 12.500950 -20.722124
v 0.964600 5.282475 -22.561499
v 0.964300 13.433675 -21.516298
v -1.248360 -19.283491 -13.639119
v -0.716400 -19.279728 -14.679803
v -1.248441 -25.513559 -8.374647
v 0.499800 -10.650626 -16.448803
v 0.995600 -18.324127 -12.730204
v 0.995800 -10.771526 -16.847303
v 0.453600 41.552170 -2.376493
v -0.153600 41.612671 -2.409393
v -0.151900 22.035776 -19.095495
v -0.718200 21.919174 -18.857595
v -0.718600 29.799173 -14.553394
v -0.152400 29.956373 -14.763996
v 0.454800 29.914072 -14.707095
v 0.455200 22.004175 -19.030897
v 0.456600 -2.963826 -21.950399
v 0.965000 -2.919126 -21.556200
v 0.965400 -11.346426 -18.742102
v 0.457000 -11.461326 -19.120401
v 0.962900 41.218269 -2.195193
v -1.248482 -11.636643 -17.889835
v 0.503200 39.184471 -1.090794
v -0.153100 36.505772 -9.290794
v 0.454100 36.451969 -9.246294
v 0.997800 34.670971 -7.772494
v 0.502700 34.357471 -7.512994
v 0.502000 28.267372 -12.502295
v 0.997300 28.513674 -12.832096
v 1.332405 20.701214 -18.104788
v 0.964100 21.831675 -18.678696
v 0.996700 12.858873 -19.621498
v -1.090000 39.747272 -1.396394
v -0.676000 39.302071 -1.154594
v -0.103000 12.708874 -19.126799
v -0.103400 4.999374 -20.071402
v 0.500900 5.010674 -20.170700
v 0.501300 12.737773 -19.222298
v -0.678900 -10.692126 -16.585102
v -0.679200 -18.204428 -12.486003
v -0.104500 -10.622127 -16.354103
v -0.677700 12.778574 -19.356998
v -0.102600 20.738873 -16.449295
v -1.233042 44.698685 6.247767
v -1.249227 40.387909 -2.299684
v 0.995300 -24.488527 -7.606404
v -0.105900 -28.909130 -0.806505
v -0.239262 -33.165848 7.591618
v 0.498600 -28.982731 -0.867405
v 0.455900 5.327274 -22.955400
v -0.150100 -11.482426 -19.190603
v -0.149700 -19.395727 -14.916603
v -0.716700 -11.405526 -18.936701
v -0.719600 41.385971 -2.286294
v -0.719100 36.305470 -9.124994
v 0.457200 -19.363527 -14.851003
v 0.457700 -25.889626 -9.482604
v 1.332443 -11.760144 -17.494204
v 1.332242 -19.317156 -13.241246
v 0.965500 -19.190626 -14.497903
v -1.091700 -10.844926 -17.088802
v -1.091900 -18.435028 -12.956002
v -1.092100 -24.638027 -7.806804
v -0.679500 -24.327526 -7.390904
v -0.104100 -2.635926 -19.066801
v 0.500300 -2.647026 -19.165701
v 0.455600 13.548275 -21.893898
v -0.915243 -29.253872 -1.021390
v 0.458300 -31.077229 -2.600805
v 0.965800 -25.656225 -9.170104
v -1.248923 21.047493 -18.290659
v -1.248775 12.785383 -20.976017
v -0.676400 34.461971 -7.599394
v -0.101000 39.098873 -1.044294
v -0.102200 28.208172 -12.423196
v 0.501600 20.782572 -16.538496
v 0.997000 20.965273 -16.911097
v -0.151600 13.569375 -21.963299
v -1.091000 12.931374 -19.860098
v -0.718000 13.492075 -21.708498
v -0.101500 34.282070 -7.450494
vt 0.2002 0.8811
vt 0.2975 0.9401
vt 0.2911 0.9468
vt 0.9648 0.0804
vt 0.9586 0.0849
vt 0.9638 0.0083
vt 0.4968 0.5985
vt 0.5065 0.5950
vt 0.5602 0.6906
vt 0.0282 0.5055
vt 0.0419 0.6025
vt 0.0273 0.6037
vt 0.9853 0.5854
vt 0.9704 0.5876
vt 0.9659 0.4850
vt 0.4572 0.4046
vt 0.4467 0.4061
vt 0.4588 0.3185
vt 0.8357 0.6515
vt 0.8261 0.6399
vt 0.8445 0.6187
vt 0.8454 0.3010
vt 0.8520 0.2059
vt 0.8616 0.2071
vt 0.9745 0.0781
vt 0.9702 0.0028
vt 0.4081 0.9921
vt 0.3988 1.0000
vt 0.7896 0.0113
vt 0.8032 0.0229
vt 0.6884 0.0439
vt 0.2057 0.1245
vt 0.1299 0.2039
vt 0.1200 0.1966
vt 0.9617 0.3811
vt 0.9713 0.3803
vt 0.9755 0.4849
vt 0.3046 0.9342
vt 0.5399 0.7008
vt 0.5511 0.6952
vt 0.6183 0.7782
vt 0.4260 0.0247
vt 0.3094 0.0721
vt 0.3018 0.0618
vt 0.0285 0.4042
vt 0.0134 0.5041
vt 0.0000 0.5029
vt 0.9542 0.2819
vt 0.9604 0.2794
vt 0.0887 0.7022
vt 0.1467 0.7957
vt 0.1388 0.7977
vt 0.9270 0.1000
vt 0.9295 0.0009
vt 0.9483 0.0016
vt 0.9236 0.4156
vt 0.9141 0.4150
vt 0.9123 0.3052
vt 0.9327 0.3052
vt 0.9344 0.4155
vt 0.9947 0.0814
vt 0.9914 0.1766
vt 0.9819 0.1743
vt 0.1982 0.1151
vt 0.2966 0.0512
vt 0.3147 0.0768
vt 0.9219 0.3051
vt 0.9229 0.2003
vt 0.9337 0.2006
vt 0.9378 0.1004
vt 0.9473 0.1026
vt 0.2218 0.1378
vt 0.1494 0.2145
vt 0.1422 0.2111
vt 0.0691 0.3006
vt 0.0575 0.2953
vt 0.6847 0.0319
vt 0.6018 0.0860
vt 0.0429 0.4077
vt 0.7039 0.8495
vt 0.7107 0.8429
vt 0.8109 0.9098
vt 0.8965 0.6161
vt 0.8718 0.5608
vt 0.8814 0.5628
vt 0.8346 0.3011
vt 0.8469 0.3989
vt 0.4654 0.4020
vt 0.4786 0.4929
vt 0.4705 0.4960
vt 0.5144 0.5914
vt 0.2119 0.8745
vt 0.8683 0.1103
vt 0.8925 0.0009
vt 0.9062 0.0036
vt 0.0136 0.6055
vt 1.0000 0.0042
vt 0.9853 0.0784
vt 0.9700 0.2780
vt 0.9615 0.1760
vt 0.9181 0.0056
vt 0.9174 0.1014
vt 0.6971 0.8588
vt 0.9808 0.2781
vt 0.9821 0.3802
vt 0.9906 0.0005
vt 0.9422 0.3053
vt 0.9440 0.4147
vt 0.0665 0.7067
vt 0.1259 0.8026
vt 0.1135 0.8087
vt 0.8250 0.3027
vt 0.8361 0.3994
vt 0.8317 0.2059
vt 0.8453 0.4898
vt 0.8560 0.4888
vt 0.8564 0.4005
vt 0.0512 0.4095
vt 0.0367 0.5064
vt 0.0532 0.7108
vt 0.9481 0.5194
vt 0.9542 0.6089
vt 0.9447 0.6112
vt 0.4158 0.0000
vt 0.4182 0.0102
vt 0.6093 0.7860
vt 0.8413 0.2055
vt 0.8536 0.1088
vt 0.9062 0.3053
vt 0.9072 0.2028
vt 0.9133 0.2011
vt 0.9863 0.4847
vt 0.9916 0.3809
vt 0.9958 0.4842
vt 0.2869 0.9529
vt 0.4450 0.3154
vt 0.2156 0.1336
vt 0.8549 0.3025
vt 0.4842 0.6021
vt 0.6128 0.0939
vt 0.6262 0.7724
vt 0.7171 0.8380
vt 0.8201 0.9007
vt 0.5677 0.6866
vt 0.5186 0.5888
vt 0.0827 0.3060
vt 0.1894 0.8893
vt 0.9903 0.2796
vt 0.9385 0.5209
vt 0.9340 0.6116
vt 0.2192 0.8717
vt 0.3109 0.9306
vt 0.5465 0.1535
vt 0.5342 0.1471
vt 0.7219 0.8359
vt 0.9277 0.5211
vt 0.9182 0.5201
vt 0.4603 0.4986
vt 0.9079 0.4139
vt 0.0159 0.4007
vt 0.0504 0.6022
vt 0.6332 0.7679
vt 0.5720 0.6842
vt 0.9553 0.1794
vt 0.4804 0.2264
vt 0.4936 0.2314
vt 0.9120 0.5179
vt 0.9244 0.6099
vt 0.8778 0.1113
vt 0.0906 0.3085
vt 0.0804 0.7035
vt 0.4827 0.4901
vt 0.9112 0.1042
vt 0.4469 0.5002
vt 0.4328 0.4056
vt 0.4693 0.3184
vt 0.9712 0.1741
vt 0.6377 0.7657
vt 0.8655 0.4906
vt 1.0000 0.5849
vt 0.6972 0.0531
vt 0.9432 0.2018
vt 0.7909 0.0012
vt 0.8008 0.0004
vt 0.8148 0.0072
vt 0.8192 0.0263
vt 0.4255 0.9838
vt 0.8603 0.6369
vt 0.8521 0.6509
vt 0.8563 0.6244
vt 0.8293 0.6248
vt 0.9798 0.0000
vt 0.9555 0.3824
vt 0.5962 0.0755
vt 0.9062 0.6182
vt 0.8034 0.9242
vt 0.8266 0.4019
vt 0.8612 0.5622
vt 0.8250 0.8987
vt 0.9182 0.6067
vt 0.5038 0.2323
vt 0.8768 0.0000
vt 0.8245 0.0196
vn 0.9987 -0.0393 -0.0311
vn 0.9813 0.1621 0.1040
vn 0.9685 -0.2148 -0.1257
vn -0.6596 -0.1611 -0.7342
vn -0.9745 -0.0586 -0.2164
vn -0.9736 -0.0101 -0.2278
vn -0.9220 -0.1563 0.3543
vn -0.6097 -0.3147 0.7275
vn -0.6072 -0.4424 0.6600
vn 0.8343 -0.0054 0.5512
vn 0.8314 0.1190 0.5428
vn 0.9990 -0.0136 -0.0436
vn 0.0095 -0.9992 -0.0389
vn -0.6242 -0.7563 0.1959
vn -0.6472 -0.6491 -0.3997
vn -0.6147 0.0038 0.7887
vn -0.9252 -0.0024 0.3795
vn -0.9237 0.0835 0.3738
vn 0.4266 0.8443 0.3243
vn -0.3112 0.9004 0.3041
vn -0.6227 -0.1996 0.7566
vn -0.1182 0.5603 0.8198
vn -0.1193 0.7229 0.6806
vn 0.4154 0.6632 0.6226
vn -0.1557 -0.2149 -0.9641
vn -0.6578 0.0068 -0.7532
vn 0.8139 -0.4403 0.3791
vn 0.5389 -0.8370 0.0953
vn -0.7145 -0.2398 0.6573
vn -0.9823 -0.1628 -0.0925
vn 0.9987 0.0344 -0.0379
vn 0.9989 0.0241 -0.0401
vn 0.7945 0.3443 -0.5002
vn -0.6499 -0.5461 -0.5286
vn -0.1510 -0.7115 -0.6863
vn -0.1513 -0.8436 -0.5152
vn 0.8008 0.5097 0.3144
vn -0.9746 0.1187 -0.1896
vn -0.9213 -0.2190 0.3212
vn -0.9210 -0.2837 0.2670
vn 0.5196 -0.3056 0.7979
vn 0.8272 -0.4813 0.2899
vn 0.9989 0.0403 -0.0258
vn 0.9989 0.0077 -0.0461
vn 0.9987 -0.0049 -0.0500
vn 0.7960 0.0042 -0.6053
vn -0.9739 -0.1347 -0.1825
vn -0.6560 -0.4177 -0.6287
vn 0.4205 0.3656 0.8303
vn 0.4184 0.5120 0.7502
vn 0.8283 0.3089 0.4674
vn -0.1522 0.8450 -0.5126
vn -0.1567 0.3973 -0.9042
vn -0.6603 0.3058 -0.6860
vn -0.6568 0.4281 -0.6208
vn 0.3689 0.5236 -0.7680
vn 0.3723 0.3731 -0.8498
vn 0.7985 -0.1301 -0.5877
vn 0.7990 -0.2367 -0.5528
vn 0.3738 -0.3675 -0.8516
vn 0.7891 0.4485 -0.4197
vn 0.7901 0.5248 -0.3168
vn 0.4138 -0.7764 0.4754
vn -0.1557 0.5567 -0.8160
vn -0.1541 0.7192 -0.6775
vn 0.3638 0.6778 -0.6390
vn 0.3606 0.7972 -0.4842
vn 0.4187 -0.6549 0.6292
vn 0.4206 -0.5047 0.7539
vn 0.8287 -0.3174 0.4610
vn 0.9990 0.0162 -0.0424
vn 0.7978 0.2451 -0.5509
vn -0.9725 -0.1761 -0.1524
vn 0.8318 -0.1290 0.5398
vn -0.9199 -0.3347 0.2042
vn -0.5981 -0.6838 0.4180
vn -0.1180 -0.2175 0.9689
vn -0.1189 0.0068 0.9929
vn 0.4255 0.0054 0.9050
vn -0.6090 0.4465 0.6556
vn -0.1186 0.4007 0.9085
vn -0.6125 -0.1739 0.7711
vn -0.1170 -0.3936 0.9118
vn 0.8273 0.4036 0.3907
vn -0.1544 0.8409 0.5187
vn -0.1591 0.1476 0.9762
vn 0.5761 0.0475 0.8160
vn 0.3740 -0.2024 -0.9051
vn -0.1535 -0.5495 -0.8213
vn -0.6595 -0.2947 -0.6915
vn -0.7612 0.3995 0.5108
vn -0.6527 0.6491 -0.3906
vn -0.9744 0.1886 -0.1226
vn 0.3713 -0.5169 -0.7713
vn 0.3671 -0.6702 -0.6451
vn 0.3721 0.0050 -0.9282
vn 0.9990 -0.0203 -0.0393
vn 0.9989 -0.0287 -0.0358
vn 0.7962 -0.3358 -0.5034
vn -0.9224 0.2141 0.3214
vn -0.6109 0.3185 0.7248
vn -0.9228 0.2784 0.2663
vn -0.6130 0.1797 0.7694
vn -0.1189 0.2273 0.9665
vn 0.4242 -0.1987 0.8835
vn 0.7980 0.1387 -0.5865
vn 0.7806 0.2688 0.5644
vn -0.9734 0.1596 -0.1642
vn -0.6036 0.5812 0.5458
vn -0.7892 0.5230 0.3221
vn -0.6515 0.5545 -0.5177
vn 0.3694 -0.7953 -0.4807
vn 0.7914 -0.4404 -0.4240
vn 0.7637 -0.5554 -0.3290
vn 0.8285 -0.4094 0.3820
vn -0.9751 0.0816 -0.2060
vn -0.6041 -0.5751 0.5517
vn -0.1127 -0.8460 0.5211
vn -0.0815 -0.4704 0.8787
vn -0.1159 -0.5522 0.8256
vn 0.4223 -0.3595 0.8321
vn 0.8296 -0.2277 0.5099
vn 0.3731 0.2098 -0.9037
vn -0.1557 0.0061 -0.9878
vn 0.4071 0.7787 0.4774
vn -0.1566 0.2238 -0.9620
vn -0.6603 0.1736 -0.7307
vn -0.9235 -0.0875 0.3735
vn 0.4230 0.2068 0.8822
vn -0.1145 -0.7160 0.6887
vn -0.9747 -0.0969 -0.2012
vn -0.9226 0.1519 0.3544
vn -0.9748 0.0416 -0.2194
vn 0.8291 0.2183 0.5148
vn -0.1551 -0.3909 -0.9073
usemtl (null)
s 1
f 1/1/1 2/2/2 3/3/3
f 5/4/4 6/5/5 7/6/6
f 9/7/7 10/8/8 11/9/9
f 12/10/10 13/11/11 14/12/12
f 16/13/13 17/14/14 18/15/15
f 21/16/16 22/17/17 23/18/18
f 24/19/19 25/20/20 26/21/21
f 29/22/22 30/23/23 31/24/24
f 33/25/25 5/4/4 4/26/26
f 34/27/27 3/3/3 2/2/2
f 3/3/3 34/27/27 35/28/28
f 17/29/14 38/30/29 37/31/30
f 40/32/31 41/33/32 42/34/33
f 43/35/34 44/36/35 19/37/36
f 34/27/27 2/2/2 48/38/37
f 46/39/38 8/40/39 49/41/40
f 51/42/41 52/43/42 53/44/43
f 54/45/44 15/46/45 55/47/46
f 57/48/47 58/49/48 43/35/34
f 60/50/49 28/51/50 61/52/51
f 64/53/52 25/54/20 24/55/19
f 65/56/53 66/57/54 67/58/55
f 69/59/56 70/60/57 65/56/53
f 72/61/58 73/62/59 74/63/60
f 39/64/61 75/65/62 53/44/43
f 51/42/41 77/66/63 52/43/42
f 68/67/64 78/68/65 79/69/66
f 79/69/66 63/70/67 75/71/62
f 81/72/68 82/73/69 83/74/70
f 41/33/32 84/75/71 85/76/72
f 18/77/15 37/31/30 59/78/73
f 86/79/74 12/10/10 15/46/45
f 87/80/75 88/81/76 26/82/21
f 89/83/77 90/84/78 91/85/79
f 94/86/80 29/22/22 95/87/81
f 21/16/16 90/88/78 89/89/77
f 96/90/82 89/89/77 97/91/83
f 2/2/2 1/1/1 100/92/84
f 101/93/85 102/94/86 47/95/87
f 15/46/45 14/12/12 72/96/58
f 55/97/46 72/61/58 71/98/88
f 106/99/89 58/49/48 107/100/90
f 98/101/91 25/54/20 108/102/92
f 99/103/93 87/80/75 26/82/21
f 6/5/5 5/4/4 107/100/90
f 108/102/92 64/53/52 78/68/65
f 110/104/94 111/105/95 44/36/35
f 104/106/96 71/98/88 33/25/25
f 42/107/33 85/108/72 70/60/57
f 112/109/97 113/110/98 114/111/99
f 116/112/100 94/86/80 93/113/101
f 94/86/80 116/112/100 117/114/102
f 20/115/103 119/116/104 90/84/78
f 119/116/104 95/87/81 60/117/49
f 92/118/105 91/119/79 12/10/10
f 61/52/51 100/92/84 1/1/1
f 14/12/12 112/109/97 73/120/59
f 56/121/106 55/122/46 104/123/96
f 75/65/62 24/124/19 50/125/107
f 45/126/108 49/41/40 87/80/75
f 118/127/109 117/114/102 122/128/110
f 67/58/55 46/129/38 45/130/108
f 68/67/64 67/58/55 109/131/111
f 111/105/95 123/132/112 19/37/36
f 124/133/113 36/134/114 123/132/112
f 1/1/1 3/3/3 36/135/114
f 6/136/5 23/18/18 22/17/17
f 80/137/115 83/74/70 41/33/32
f 77/66/63 81/72/68 80/137/115
f 28/138/50 60/117/49 95/87/81
f 119/116/104 20/115/103 93/113/101
f 19/37/36 123/132/112 16/13/13
f 125/139/116 9/7/7 8/40/39
f 117/140/102 59/78/73 37/31/30
f 49/41/40 127/141/117 88/81/76
f 88/81/76 128/142/118 27/143/119
f 129/144/120 97/91/83 130/145/121
f 131/146/122 86/79/74 54/45/44
f 83/74/70 131/146/122 84/75/71
f 113/110/98 1/1/1 124/147/113
f 114/148/99 124/133/113 111/105/95
f 121/149/123 104/123/96 32/150/124
f 58/49/48 106/99/89 44/36/35
f 31/151/24 103/152/125 48/38/37
f 116/153/100 57/154/47 59/78/73
f 22/17/17 21/16/16 96/90/82
f 29/22/22 94/86/80 118/127/109
f 27/143/119 128/142/118 77/155/63
f 132/156/126 134/157/127 66/57/54
f 133/158/128 96/90/82 10/8/8
f 125/159/116 66/57/54 134/157/127
f 64/53/52 108/102/92 25/54/20
f 78/68/65 64/53/52 63/70/67
f 85/108/72 56/121/106 121/149/123
f 84/75/71 54/45/44 56/160/106
f 91/119/79 120/161/129 13/11/11
f 100/92/84 61/52/51 28/51/50
f 135/162/130 129/144/120 82/163/69
f 10/8/8 97/91/83 129/144/120
f 58/49/48 57/48/47 76/164/131
f 23/18/18 6/136/5 76/165/131
f 8/40/39 11/9/9 127/141/117
f 57/154/47 116/153/100 115/166/132
f 126/167/133 134/157/127 4/168/26
f 122/128/110 101/93/85 30/23/23
f 103/169/125 31/24/24 30/23/23
f 130/170/121 92/118/105 86/79/74
f 52/43/42 80/137/115 40/32/31
f 13/11/11 62/171/134 112/109/97
f 120/161/129 60/50/49 62/171/134
f 97/91/83 89/89/77 92/172/105
f 134/157/127 132/156/126 32/150/124
f 99/173/93 108/102/92 109/131/111
f 133/158/128 126/174/133 7/175/6
f 20/176/103 23/18/18 115/166/132
f 5/4/4 33/25/25 105/177/135
f 128/142/118 135/162/130 81/178/68
f 82/73/69 130/170/121 131/146/122
f 62/171/134 61/52/51 113/110/98
f 90/84/78 119/116/104 120/179/129
f 36/134/114 35/180/28 16/13/13
f 122/181/110 37/31/30 38/30/29
f 71/98/88 74/63/60 105/177/135
f 73/62/59 114/148/99 110/104/94
f 126/174/133 133/158/128 9/7/7
f 74/63/60 110/104/94 106/99/89
f 11/9/9 129/144/120 135/162/130
f 46/129/38 67/58/55 66/57/54
f 69/59/56 79/69/66 39/182/61
f 127/141/117 135/162/130 128/142/118
f 16/183/13 35/184/28 34/185/27
f 17/29/14 16/183/13 102/186/86
f 47/187/87 48/38/37 103/152/125
f 38/30/29 17/29/14 102/186/86
f 51/188/41 50/189/107 27/190/119
f 25/20/20 98/191/91 26/21/21
f 50/189/107 24/19/19 27/190/119
f 102/186/86 16/183/13 34/185/27
f 132/156/126 65/56/53 70/60/57
f 4/26/26 5/4/4 7/6/6
f 8/40/39 9/7/7 11/9/9
f 15/46/45 12/10/10 14/12/12
f 19/37/36 16/13/13 18/15/15
f 20/176/103 21/16/16 23/18/18
f 27/190/119 24/19/19 26/21/21
f 28/138/50 29/22/22 31/24/24
f 32/192/124 33/25/25 4/26/26
f 36/135/114 3/3/3 35/28/28
f 39/64/61 40/32/31 42/34/33
f 18/15/15 43/35/34 19/37/36
f 47/187/87 34/27/27 48/38/37
f 45/126/108 46/39/38 49/41/40
f 50/125/107 51/42/41 53/44/43
f 56/160/106 54/45/44 55/47/46
f 59/193/73 57/48/47 43/35/34
f 62/171/134 60/50/49 61/52/51
f 63/70/67 64/53/52 24/55/19
f 68/67/64 65/56/53 67/58/55
f 68/67/64 69/59/56 65/56/53
f 71/98/88 72/61/58 74/63/60
f 40/32/31 39/64/61 53/44/43
f 69/59/56 68/67/64 79/69/66
f 39/182/61 79/69/66 75/71/62
f 80/137/115 81/72/68 83/74/70
f 42/34/33 41/33/32 85/76/72
f 43/194/34 18/77/15 59/78/73
f 54/45/44 86/79/74 15/46/45
f 92/195/105 89/83/77 91/85/79
f 93/113/101 94/86/80 95/87/81
f 96/90/82 21/16/16 89/89/77
f 10/8/8 96/90/82 97/91/83
f 48/38/37 2/2/2 100/92/84
f 103/169/125 101/93/85 47/95/87
f 55/47/46 15/46/45 72/96/58
f 104/106/96 55/97/46 71/98/88
f 105/177/135 106/99/89 107/100/90
f 99/173/93 98/101/91 108/102/92
f 98/196/91 99/103/93 26/82/21
f 76/164/131 6/5/5 107/100/90
f 109/131/111 108/102/92 78/68/65
f 106/99/89 110/104/94 44/36/35
f 32/192/124 104/106/96 33/25/25
f 69/59/56 42/107/33 70/60/57
f 73/120/59 112/109/97 114/111/99
f 115/197/132 116/112/100 93/113/101
f 118/127/109 94/86/80 117/114/102
f 21/198/16 20/115/103 90/84/78
f 120/179/129 119/116/104 60/117/49
f 86/79/74 92/118/105 12/10/10
f 113/110/98 61/52/51 1/1/1
f 72/96/58 14/12/12 73/120/59
f 121/149/123 56/121/106 104/123/96
f 53/44/43 75/65/62 50/125/107
f 99/103/93 45/126/108 87/80/75
f 109/131/111 67/58/55 45/130/108
f 78/68/65 68/67/64 109/131/111
f 44/36/35 111/105/95 19/37/36
f 111/105/95 124/133/113 123/132/112
f 124/147/113 1/1/1 36/135/114
f 7/175/6 6/136/5 22/17/17
f 40/32/31 80/137/115 41/33/32
f 52/43/42 77/66/63 80/137/115
f 29/22/22 28/138/50 95/87/81
f 95/87/81 119/116/104 93/113/101
f 46/39/38 125/139/116 8/40/39
f 122/181/110 117/140/102 37/31/30
f 87/80/75 49/41/40 88/81/76
f 26/82/21 88/81/76 27/143/119
f 82/163/69 129/144/120 130/145/121
f 84/75/71 131/146/122 54/45/44
f 41/33/32 83/74/70 84/75/71
f 114/111/99 113/110/98 124/147/113
f 110/104/94 114/148/99 111/105/95
f 132/156/126 121/149/123 32/150/124
f 43/35/34 58/49/48 44/36/35
f 100/92/84 31/151/24 48/38/37
f 117/140/102 116/153/100 59/78/73
f 133/158/128 22/17/17 96/90/82
f 30/23/23 29/22/22 118/127/109
f 51/199/41 27/143/119 77/155/63
f 65/56/53 132/156/126 66/57/54
f 9/7/7 133/158/128 10/8/8
f 126/167/133 125/159/116 134/157/127
f 79/69/66 78/68/65 63/70/67
f 70/60/57 85/108/72 121/149/123
f 85/76/72 84/75/71 56/160/106
f 12/10/10 91/119/79 13/11/11
f 31/151/24 100/92/84 28/51/50
f 81/178/68 135/162/130 82/163/69
f 11/9/9 10/8/8 129/144/120
f 107/100/90 58/49/48 76/164/131
f 115/166/132 23/18/18 76/165/131
f 49/41/40 8/40/39 127/141/117
f 76/165/131 57/154/47 115/166/132
f 7/200/6 126/167/133 4/168/26
f 118/127/109 122/128/110 30/23/23
f 101/93/85 103/169/125 30/23/23
f 131/146/122 130/170/121 86/79/74
f 53/44/43 52/43/42 40/32/31
f 14/12/12 13/11/11 112/109/97
f 13/11/11 120/161/129 62/171/134
f 130/145/121 97/91/83 92/172/105
f 4/168/26 134/157/127 32/150/124
f 45/130/108 99/173/93 109/131/111
f 22/17/17 133/158/128 7/175/6
f 93/201/101 20/176/103 115/166/132
f 107/100/90 5/4/4 105/177/135
f 77/155/63 128/142/118 81/178/68
f 83/74/70 82/73/69 131/146/122
f 18/77/15 17/29/14 37/31/30
f 122/128/110 102/94/86 101/93/85
f 112/109/97 62/171/134 113/110/98
f 102/94/86 122/128/110 38/202/29
f 91/85/79 90/84/78 120/179/129
f 123/132/112 36/134/114 16/13/13
f 75/71/62 63/70/67 24/55/19
f 33/25/25 71/98/88 105/177/135
f 74/63/60 73/62/59 110/104/94
f 125/139/116 126/174/133 9/7/7
f 105/177/135 74/63/60 106/99/89
f 127/141/117 11/9/9 135/162/130
f 125/159/116 46/129/38 66/57/54
f 42/107/33 69/59/56 39/182/61
f 88/81/76 127/141/117 128/142/118
f 47/203/87 102/186/86 34/185/27
f 121/149/123 132/156/126 70/60/57
