<?xml version="1.0" encoding="UTF-8" standalone="no"?>
<!-- Created with Inkscape (http://www.inkscape.org/) -->

<svg
   width="300.00003mm"
   height="125.49887mm"
   viewBox="0 0 300.00004 125.49887"
   version="1.1"
   id="svg1"
   xml:space="preserve"
   xmlns:xlink="http://www.w3.org/1999/xlink"
   xmlns="http://www.w3.org/2000/svg"
   xmlns:svg="http://www.w3.org/2000/svg"><defs
     id="defs1"><linearGradient
       id="linearGradient25"><stop
         style="stop-color:#fbec0d;stop-opacity:1;"
         offset="0"
         id="stop25" /><stop
         style="stop-color:#fbec0d;stop-opacity:1;"
         offset="0.5"
         id="stop51" /><stop
         style="stop-color:#fdf586;stop-opacity:1;"
         offset="0.53602982"
         id="stop52" /><stop
         style="stop-color:#ffffff;stop-opacity:1;"
         offset="0.63981032"
         id="stop48" /></linearGradient><filter
       style="color-interpolation-filters:sRGB"
       id="filter2"
       x="0"
       y="0"
       width="1"
       height="1"><feColorMatrix
         values="1 0 0 0 0 0 1 0 0 0 0 0 1 0 0 -0.21 -0.72 -0.07 2 0 "
         result="color2"
         id="feColorMatrix2" /></filter><linearGradient
       xlink:href="#linearGradient25"
       id="linearGradient26"
       x1="106.09483"
       y1="186.39867"
       x2="106.09483"
       y2="32.279892"
       gradientUnits="userSpaceOnUse" /></defs><g
     id="g2"
     transform="translate(7.7143,-65.42858)"><g
       id="g1"><path
         id="path11-2"
         style="baseline-shift:baseline;display:inline;overflow:visible;mix-blend-mode:normal;fill:#000000;fill-opacity:1;stroke:#000000;stroke-width:14.8022;stroke-dasharray:none;stroke-opacity:1;enable-background:accumulate;stop-color:#000000"
         d="m 83.478172,72.845974 c -6.35204,0.261729 -12.589551,3.604108 -17.64111,9.695438 -1.059963,1.278134 -1.059763,1.277921 -2.038527,0.74198 -3.109013,-1.702354 -5.928669,-0.501257 -7.786949,3.316911 -1.038008,2.132684 -1.03736,2.13248 -2.266093,2.145617 -2.203185,0.02343 -4.800106,0.395407 -6.600357,0.94564 -1.764926,0.539451 -1.76434,0.539275 -3.090303,-0.110905 -1.872154,-0.918018 -2.815934,-1.071961 -4.278805,-0.697039 -1.084648,0.277986 -1.454455,0.263459 -2.598836,-0.106132 -1.747826,-0.56449 -2.488598,-0.5442 -3.698419,0.104226 -0.989564,0.530416 -1.006453,0.531036 -1.670407,0.04015 -1.414302,-1.045621 -2.313878,-1.348183 -4.006301,-1.348183 -1.389341,0 -1.686662,-0.0741 -1.686662,-0.420708 0,-3.384163 -3.711057,-5.572405 -7.280184,-4.293149 -1.166415,0.41808 -1.295877,0.415872 -2.609355,-0.0306 -1.320086,-0.4487 -1.441351,-0.449004 -2.726962,-0.022 -0.806649,0.267946 -1.670079,0.384314 -2.156136,0.290671 -0.445956,-0.08593 -1.323574,-0.261814 -1.9505614,-0.390113 -4.8810725,-0.998806 -9.62070049,6.740073 -9.60460307,15.683857 0.0127669,7.070155 6.15964607,10.226035 12.44725947,6.390955 1.390201,-0.84795 1.878423,-0.89977 2.338762,-0.24765 0.825509,1.16942 1.898291,1.41502 6.712228,1.53464 5.200361,0.12922 5.15558,0.10284 2.877077,1.72873 -7.263982,5.18347 -12.666763,13.62668 -13.758151,21.50208 -0.147245,1.0625 -0.434775,2.85958 -0.6396711,3.99291 -0.7123682,3.94028 -1.1736869,6.96844 -1.4131998,9.27282 -0.132517,1.27499 -0.4236083,3.47697 -0.6463632,4.89361 -2.7171371,17.28019 -3.4192751,23.22137 -3.0061598,25.43284 1.9985409,10.69857 17.3555139,12.61461 23.2049909,2.89525 1.300533,-2.16094 1.687054,-3.57409 2.466887,-9.00988 0.824661,-5.74827 0.647112,-5.42179 2.581626,-4.73106 6.873108,2.45402 18.813682,-1.19038 26.623256,-8.12639 1.473837,-1.30889 1.703359,-1.31924 1.960123,-0.0832 1.680049,8.08788 14.391408,11.86498 19.803938,5.8842 0.659315,-0.72853 0.806677,-0.70075 2.483141,0.47521 7.399379,5.19038 18.168055,1.18046 20.436915,-7.61006 0.47864,-1.85446 1.15449,-6.16015 2.48123,-15.81581 1.39588,-10.15891 1.23899,-9.6931 3.35229,-9.97654 0.97029,-0.13015 1.06509,-0.0959 0.9399,0.34326 -0.71738,2.51617 -4.55886,30.4986 -4.55035,33.14616 0.0369,11.58328 8.46218,21.19298 20.12234,22.95065 11.24406,1.69497 18.33828,-3.96644 17.95472,-14.32802 -0.23038,-6.22387 -4.80049,-10.74095 -10.87724,-10.75391 -1.51433,-0.003 -1.51424,-0.003 -1.31759,-1.61304 0.10813,-0.88541 0.26817,-2.36357 0.35569,-3.2844 0.17979,-1.89009 -0.11592,-2.01759 2.99182,1.28412 12.02612,12.77671 34.09229,10.08443 46.94064,-5.72738 1.7017,-2.0942 1.35853,-2.12517 2.63326,0.23808 3.8755,7.18495 11.31667,12.28887 19.4559,13.34414 5.71242,0.74061 9.53335,0.0918 12.41572,-2.10833 1.32583,-1.01205 1.38058,-1.01778 2.31103,-0.23904 4.26745,3.57163 12.04944,3.49932 16.20592,-0.15011 0.88244,-0.77484 0.88251,-0.77465 1.71724,-0.14247 4.77041,3.61291 11.6836,3.71324 16.00226,0.23234 1.20559,-0.97174 1.21029,-0.97242 2.17049,-0.16445 5.61034,4.72078 14.9776,3.11959 19.23214,-3.28822 1.84845,-2.78399 1.65998,-1.73258 6.69024,-37.27868 4.12246,-29.131024 4.00474,-27.677828 2.51949,-30.939351 -2.94787,-6.473351 -12.06841,-8.474166 -18.39552,-4.035941 -1.51026,1.059379 -1.51028,1.059258 -2.59885,0.232347 -5.60932,-4.260965 -13.80731,-3.203129 -18.41463,2.376051 -2.15042,2.604022 -2.8305,4.651333 -3.64966,10.988165 -0.28385,2.195819 -0.74244,5.557009 -1.0183,7.469499 -0.27588,1.91249 -0.58056,4.2023 -0.67696,5.08772 -0.21709,1.99287 0.10121,2.10934 -3.16871,-1.15887 -11.45724,-11.451095 -30.74643,-10.600309 -43.48796,1.91806 -2.30308,2.26274 -3.64346,3.74588 -4.3228,4.7827 -0.63213,0.96473 -0.85494,0.89182 -1.43806,-0.46852 -3.75188,-8.75275 -16.65875,-15.562083 -26.61464,-14.04118 -2.48755,0.38002 -2.40579,0.47446 -1.82532,-2.103541 2.89058,-12.838221 -6.30219,-21.616721 -17.06644,-16.296752 -6.09386,3.011761 -7.24081,5.933398 -9.67633,24.653573 -0.29197,2.24415 -0.29211,2.24439 -1.85112,0.67982 -7.3258,-7.35192 -18.82433,-9.198311 -29.0605,-4.66605 -1.823083,0.80721 -2.044439,0.64521 -1.052729,-0.7697 6.827679,-9.741344 3.012789,-24.104757 -7.578506,-28.533659 -2.833762,-1.184981 -5.7449,-1.702365 -8.632193,-1.583397 z" /><path
         id="path11"
         style="baseline-shift:baseline;display:inline;overflow:visible;mix-blend-mode:normal;fill:#fd3423;fill-opacity:1;stroke:#fd3423;stroke-width:11.1017;stroke-dasharray:none;stroke-opacity:1;enable-background:accumulate;stop-color:#000000"
         d="m 81.527165,71.752024 c -6.35204,0.261729 -12.589551,3.604108 -17.64111,9.695438 -1.059963,1.278134 -1.059763,1.277921 -2.038527,0.74198 -3.109013,-1.702354 -5.928669,-0.501257 -7.786949,3.316911 -1.038008,2.132684 -1.03736,2.13248 -2.266093,2.145617 -2.203185,0.02342 -4.800106,0.395407 -6.600357,0.94564 -1.764926,0.539451 -1.76434,0.539275 -3.090303,-0.110905 -1.872154,-0.918018 -2.815934,-1.071961 -4.278805,-0.697039 -1.084648,0.277986 -1.454455,0.263459 -2.598836,-0.106132 -1.747826,-0.56449 -2.488598,-0.5442 -3.698419,0.104226 -0.989564,0.530416 -1.006453,0.531036 -1.670407,0.04015 -1.414302,-1.045621 -2.313878,-1.348183 -4.006301,-1.348183 -1.389341,0 -1.686662,-0.0741 -1.686662,-0.420708 0,-3.384163 -3.711057,-5.572405 -7.280184,-4.293149 -1.166415,0.41808 -1.295877,0.415872 -2.609355,-0.0306 -1.320086,-0.4487 -1.441351,-0.449004 -2.726962,-0.022 -0.806649,0.267946 -1.6700792,0.384314 -2.1561361,0.290671 -0.4459559,-0.08593 -1.3235742,-0.261814 -1.9505613,-0.390113 -4.8810725,-0.998806 -9.6207005,6.740073 -9.6046031,15.683857 0.012767,7.070155 6.1596461,10.226035 12.4472595,6.390955 1.390201,-0.84795 1.878423,-0.89977 2.338762,-0.24765 0.825509,1.16942 1.898291,1.41502 6.712228,1.53464 5.200361,0.12922 5.15558,0.10284 2.877077,1.72873 -7.263982,5.18347 -12.666763,13.62668 -13.7581513,21.50208 -0.1472452,1.0625 -0.4347747,2.85958 -0.6396708,3.99291 -0.7123682,3.94028 -1.1736869,6.96844 -1.4131998,9.27282 -0.132517,1.27499 -0.4236083,3.47697 -0.6463632,4.89361 -2.7171371,17.28019 -3.4192751,23.22137 -3.0061598,25.43284 1.9985409,10.69857 17.3555139,12.61461 23.2049909,2.89525 1.300533,-2.16094 1.687054,-3.57409 2.466887,-9.00988 0.824661,-5.74827 0.647112,-5.42179 2.581626,-4.73106 6.873108,2.45402 18.813682,-1.19038 26.623256,-8.12639 1.473837,-1.30889 1.703359,-1.31924 1.960123,-0.0832 1.680049,8.08788 14.391408,11.86498 19.803938,5.8842 0.659315,-0.72853 0.806677,-0.70075 2.483141,0.47521 7.399379,5.19038 18.168062,1.18046 20.436912,-7.61006 0.47864,-1.85446 1.15449,-6.16015 2.48123,-15.81581 1.39588,-10.15891 1.23899,-9.6931 3.35229,-9.97654 0.97029,-0.13015 1.06509,-0.0959 0.9399,0.34326 -0.71737,2.51617 -4.55886,30.4986 -4.55035,33.14616 0.0369,11.58328 8.46218,21.19298 20.12234,22.95065 11.24406,1.69497 18.33829,-3.96644 17.95472,-14.32802 -0.23037,-6.22387 -4.80048,-10.74095 -10.87724,-10.75391 -1.51432,-0.003 -1.51423,-0.003 -1.31759,-1.61304 0.10813,-0.88541 0.26818,-2.36357 0.35569,-3.2844 0.1798,-1.89009 -0.11592,-2.01759 2.99182,1.28412 12.02612,12.77671 34.0923,10.08443 46.94065,-5.72738 1.7017,-2.0942 1.35853,-2.12517 2.63326,0.23808 3.8755,7.18495 11.31667,12.28887 19.45589,13.34414 5.71242,0.74061 9.53336,0.0918 12.41572,-2.10833 1.32584,-1.01205 1.38059,-1.01778 2.31103,-0.23904 4.26745,3.57163 12.04944,3.49932 16.20592,-0.15011 0.88244,-0.77484 0.88251,-0.77465 1.71725,-0.14247 4.7704,3.61291 11.6836,3.71324 16.00226,0.23234 1.20558,-0.97174 1.21028,-0.97242 2.17048,-0.16445 5.61034,4.72078 14.9776,3.11959 19.23215,-3.28822 1.84844,-2.78399 1.65997,-1.73258 6.69023,-37.27868 4.12246,-29.131024 4.00474,-27.677828 2.51949,-30.939351 -2.94786,-6.473351 -12.0684,-8.474166 -18.39552,-4.035941 -1.51025,1.059379 -1.51027,1.059258 -2.59885,0.232347 -5.60932,-4.260965 -13.80731,-3.203129 -18.41463,2.376051 -2.15041,2.604022 -2.8305,4.651333 -3.64966,10.988165 -0.28385,2.195822 -0.74244,5.557009 -1.0183,7.469499 -0.27587,1.91249 -0.58056,4.2023 -0.67696,5.08772 -0.21709,1.99287 0.10121,2.10934 -3.16871,-1.15887 -11.45724,-11.451095 -30.74642,-10.600309 -43.48796,1.91806 -2.30307,2.26274 -3.64345,3.74588 -4.3228,4.7827 -0.63213,0.96473 -0.85494,0.89182 -1.43805,-0.46852 -3.75189,-8.75275 -16.65876,-15.562083 -26.61465,-14.04118 -2.48755,0.38002 -2.40578,0.47446 -1.82531,-2.103541 2.89058,-12.838221 -6.3022,-21.616721 -17.06645,-16.296752 -6.09386,3.011761 -7.2408,5.933398 -9.67632,24.653573 -0.29198,2.24415 -0.29212,2.24439 -1.85113,0.67982 -7.3258,-7.35192 -18.82433,-9.198311 -29.060497,-4.66605 -1.823083,0.80721 -2.044439,0.64521 -1.052729,-0.7697 6.827676,-9.741344 3.012786,-24.104757 -7.578506,-28.533659 -2.833762,-1.184981 -5.7449,-1.702365 -8.632193,-1.583397 z" /><path
         d="m 125.67674,181.79325 c -11.66016,-1.75767 -20.0852,-11.36676 -20.12214,-22.95003 -0.009,-2.64757 3.8333,-30.62984 4.55067,-33.14601 0.12519,-0.43913 0.0299,-0.47395 -0.94035,-0.3438 -2.1133,0.28344 -1.95667,-0.18263 -3.35255,9.97629 -1.32674,9.65566 -2.00214,13.96166 -2.48078,15.81612 -2.26886,8.79052 -13.037951,12.80059 -20.437329,7.61021 -1.676465,-1.17596 -1.823113,-1.20405 -2.482428,-0.47552 -5.41253,5.98078 -18.124168,2.20433 -19.804217,-5.88355 -0.256764,-1.23606 -0.486662,-1.22636 -1.960499,0.0825 -7.809574,6.93601 -19.750162,10.58095 -26.62327,8.12692 -1.934514,-0.69072 -1.756166,-1.01763 -2.580827,4.73065 -0.779833,5.43578 -1.166869,6.8491 -2.467402,9.01004 -5.849476,9.71936 -21.2065439,7.80327 -23.2050848,-2.8953 -0.4131153,-2.21147 0.2891615,-8.15264 3.0062986,-25.43283 0.222755,-1.41665 0.5134355,-3.61892 0.6459617,-4.89391 0.2395129,-2.30438 0.7010814,-5.33239 1.4134496,-9.27267 0.2048961,-1.13333 0.493014,-2.92992 0.6402517,-3.99242 1.0913882,-7.8754 6.4939932,-16.31932 13.7579762,-21.50279 2.278503,-1.6259 2.322646,-1.59938 -2.877714,-1.72861 -4.813937,-0.11962 -5.886034,-0.36468 -6.711543,-1.5341 -0.46034,-0.65212 -0.949267,-0.60038 -2.339468,0.24756 -6.2876128,3.83508 -12.4337704,0.67917 -12.4464614,-6.39099 -0.016098,-8.943783 4.7226923,-16.682535 9.6037648,-15.683729 0.6269871,0.128299 1.5048405,0.303568 1.9507966,0.38949 0.486057,0.09364 1.349789,-0.02278 2.156438,-0.290724 1.28561,-0.42701 1.407229,-0.425996 2.727315,0.0227 1.313478,0.446469 1.442274,0.447943 2.608689,0.02986 3.569127,-1.279257 7.279988,0.909227 7.279988,4.293389 0,0.346601 0.297681,0.420872 1.687022,0.420872 1.692423,0 2.592114,0.302798 4.006416,1.348419 0.663954,0.490877 0.680857,0.490468 1.67042,-0.03995 1.209821,-0.648423 1.95095,-0.669457 3.698777,-0.104966 1.14438,0.369593 1.513666,0.384765 2.598314,0.106779 1.46287,-0.374922 2.406414,-0.221273 4.278568,0.696744 1.325963,0.65019 1.325963,0.65019 3.09089,0.11074 1.80025,-0.550234 4.396514,-0.922251 6.599699,-0.945674 1.228733,-0.01314 1.228733,-0.01314 2.266741,-2.145821 1.85828,-3.818167 4.677262,-5.018907 7.786275,-3.316553 0.978764,0.53594 0.978764,0.53594 2.038727,-0.742193 7.347721,-8.860118 17.20539,-11.903568 26.273428,-8.11163 10.591287,4.428901 14.406217,18.79236 7.578539,28.533707 -0.99171,1.41491 -0.770064,1.57692 1.053019,0.76972 10.236169,-4.53227 21.734629,-2.68613 29.060429,4.6658 1.55901,1.56456 1.55901,1.56456 1.85098,-0.67959 2.43552,-18.720172 3.58214,-21.641604 9.67599,-24.653364 10.76425,-5.31997 19.95743,3.458264 17.06686,16.296485 -0.58047,2.577999 -0.66246,2.483509 1.82509,2.103499 9.95589,-1.520913 22.86257,5.28833 26.61446,14.04109 0.58311,1.36034 0.80626,1.43298 1.43839,0.46825 0.67934,-1.03683 2.02009,-2.52016 4.32317,-4.7829 12.74153,-12.518366 32.0302,-13.369087 43.48744,-1.91799 3.26998,3.26821 2.9521,3.15196 3.16919,1.15909 0.0964,-0.88542 0.40107,-3.17461 0.67694,-5.0871 0.27586,-1.91249 0.73382,-5.273836 1.01768,-7.469657 0.81915,-6.336832 1.49937,-8.384838 3.64978,-10.988861 4.60732,-5.57918 12.80542,-6.636953 18.41474,-2.375988 1.08858,0.826911 1.08858,0.826911 2.59883,-0.232467 6.32712,-4.438225 15.44727,-2.437072 18.39513,4.03628 1.48526,3.261522 1.60353,1.808682 -2.51893,30.939703 -5.03026,35.5461 -4.84147,34.49407 -6.68992,37.27806 -4.25455,6.4078 -13.62202,8.00976 -19.23236,3.28898 -0.96021,-0.80796 -0.96468,-0.80763 -2.17027,0.16412 -4.31866,3.48089 -11.23226,3.38049 -16.00267,-0.23242 -0.83473,-0.63218 -0.83473,-0.63218 -1.71716,0.14266 -4.15649,3.64943 -11.93894,3.72132 -16.20639,0.14969 -0.93045,-0.77875 -0.98472,-0.77314 -2.31055,0.2389 -2.88236,2.20015 -6.70339,2.84901 -12.41581,2.1084 -8.13923,-1.05527 -15.58019,-6.1586 -19.45569,-13.34354 -1.27473,-2.36325 -0.9321,-2.33228 -2.6338,-0.23808 -12.84835,15.81181 -34.91434,18.50426 -46.94046,5.72756 -3.10775,-3.30171 -2.81148,-3.17449 -2.99127,-1.28439 -0.0875,0.92082 -0.24776,2.39864 -0.35589,3.28406 -0.19664,1.60983 -0.19664,1.60983 1.31768,1.6129 6.07676,0.0129 10.64624,4.53028 10.87662,10.75415 0.38356,10.36158 -6.71054,16.02263 -17.9546,14.32767 z"
         id="path242"
         style="stroke-width:1.85028" /><path
         style="fill:url(#linearGradient26);fill-opacity:1;fill-rule:nonzero;stroke-width:0.394607;filter:url(#filter2)"
         d="m 97.575143,139.0936 c -6.301842,-0.94995 -10.855237,-6.14327 -10.8752,-12.40356 -0.0046,-1.4309 2.071741,-16.55418 2.459454,-17.91407 0.06766,-0.23733 0.01618,-0.25615 -0.508222,-0.18581 -1.142154,0.15319 -1.057503,-0.0987 -1.81192,5.39178 -0.717048,5.21849 -1.082075,7.54571 -1.340759,8.54797 -1.226225,4.75092 -7.046481,6.9182 -11.045544,4.11301 -0.906061,-0.63556 -0.985318,-0.65074 -1.341651,-0.257 -2.925252,3.23237 -9.795375,1.19135 -10.703373,-3.17982 -0.138771,-0.66804 -0.263021,-0.6628 -1.05957,0.0446 -4.220757,3.74863 -10.674159,5.71857 -14.388794,4.39227 -1.045526,-0.37331 -0.949136,-0.54999 -1.394832,2.55672 -0.421468,2.93782 -0.630645,3.70166 -1.33353,4.86956 -3.161404,5.25292 -11.461274,4.21735 -12.541404,-1.56479 -0.223272,-1.19521 0.15628,-4.40617 1.624782,-13.74541 0.12039,-0.76564 0.277491,-1.95588 0.349116,-2.64496 0.129447,-1.24542 0.378906,-2.88194 0.763912,-5.0115 0.110738,-0.61252 0.266454,-1.5835 0.34603,-2.15774 0.589851,-4.25633 3.509739,-8.81993 7.435626,-11.621382 1.231438,-0.878734 1.255296,-0.864402 -1.555287,-0.934244 -2.601737,-0.06465 -3.181162,-0.197094 -3.627316,-0.829116 -0.248795,-0.352447 -0.51304,-0.324485 -1.264387,0.133795 -3.398199,2.072704 -6.719947,0.36706 -6.726806,-3.454071 -0.0087,-4.833751 2.552423,-9.016231 5.190444,-8.476417 0.338861,0.06934 0.813305,0.164066 1.054326,0.210503 0.262694,0.05061 0.729506,-0.01231 1.165467,-0.157124 0.69482,-0.230782 0.76055,-0.230234 1.474003,0.01227 0.709881,0.241298 0.77949,0.242095 1.40989,0.01614 1.928968,-0.691386 3.934537,0.4914 3.934537,2.320402 0,0.187324 0.160885,0.227464 0.911767,0.227464 0.914686,0 1.400932,0.16365 2.165305,0.728766 0.35884,0.265299 0.367975,0.265078 0.902794,-0.02159 0.653859,-0.350446 1.054409,-0.361814 1.999038,-0.05673 0.618491,0.19975 0.818075,0.20795 1.404283,0.05771 0.790622,-0.20263 1.300569,-0.119589 2.312392,0.376562 0.716629,0.351401 0.716629,0.351401 1.6705,0.05985 0.972962,-0.297379 2.376137,-0.498439 3.566869,-0.511098 0.66408,-0.0071 0.66408,-0.0071 1.225081,-1.159729 1.004325,-2.063564 2.52787,-2.712515 4.208165,-1.792462 0.528982,0.289654 0.528982,0.289654 1.101849,-0.401125 3.971144,-4.788533 9.298813,-6.433394 14.199718,-4.384006 5.724162,2.393641 7.785974,10.156506 4.095892,15.421306 -0.535979,0.764704 -0.416188,0.852263 0.569114,0.416002 5.532232,-2.449506 11.746681,-1.451742 15.705979,2.521675 0.842579,0.845583 0.842579,0.845583 1.000379,-0.367288 1.3163,-10.117492 1.936,-11.696407 5.22948,-13.324141 5.81764,-2.875227 10.78618,1.869051 9.22394,8.807587 -0.31372,1.393305 -0.35803,1.342235 0.98639,1.136854 5.38075,-0.82199 12.35629,2.858129 14.38403,7.588637 0.31515,0.73521 0.43575,0.77447 0.77739,0.25307 0.36716,-0.56036 1.09178,-1.36204 2.3365,-2.58496 6.88628,-6.765668 17.31102,-7.225448 23.50319,-1.036594 1.76729,1.766334 1.59549,1.703504 1.71282,0.626438 0.0521,-0.478531 0.21676,-1.715746 0.36586,-2.749367 0.14909,-1.033625 0.3966,-2.850296 0.55001,-4.037048 0.44272,-3.4248 0.81035,-4.531664 1.97256,-5.939032 2.49007,-3.01532 6.92081,-3.587003 9.95242,-1.284125 0.58833,0.446912 0.58833,0.446912 1.40456,-0.125639 3.41955,-2.39868 8.34862,-1.317138 9.94182,2.181445 0.80272,1.76272 0.86664,0.977519 -1.36138,16.721652 -2.71865,19.21122 -2.61662,18.64264 -3.61563,20.14727 -2.29941,3.46316 -7.36215,4.32895 -10.39431,1.77756 -0.51895,-0.43667 -0.52137,-0.43649 -1.17294,0.0887 -2.33406,1.88128 -6.07058,1.82702 -8.64879,-0.12561 -0.45114,-0.34167 -0.45114,-0.34167 -0.92806,0.0771 -2.24641,1.97237 -6.45251,2.01122 -8.75889,0.0809 -0.50287,-0.42088 -0.5322,-0.41785 -1.24876,0.12912 -1.5578,1.18909 -3.62291,1.53977 -6.71024,1.1395 -4.39892,-0.57033 -8.42046,-3.32847 -10.51501,-7.21164 -0.68894,-1.27724 -0.50376,-1.2605 -1.42346,-0.12867 -6.94401,8.54564 -18.86978,10.0008 -25.36941,3.09551 -1.67961,-1.78444 -1.51949,-1.71568 -1.61666,-0.69416 -0.0473,0.49767 -0.1339,1.29637 -0.19234,1.7749 -0.10628,0.87005 -0.10628,0.87005 0.71215,0.87171 3.28424,0.007 5.75386,2.44843 5.87837,5.81218 0.2073,5.60001 -3.62677,8.65958 -9.703727,7.74352 z m 4.309567,-3.14287 c 4.05385,-1.85591 3.39553,-7.15801 -0.92937,-7.48511 -1.475122,-0.11157 -1.986134,-0.34882 -2.663145,-1.23644 -0.921833,-1.20861 -0.925195,-0.98288 0.114361,-7.6789 0.148585,-0.95706 0.39173,-2.71109 0.540327,-3.89784 0.257966,-2.06022 0.635992,-4.64895 0.985925,-6.75161 1.457032,-8.75503 -9.241193,-14.42112 -17.133462,-9.074376 -4.687372,3.175526 -5.623189,5.255186 -7.027563,15.617176 -0.197158,1.45473 -0.48,3.50155 -0.628534,4.5485 -0.50121,3.53277 0.784119,5.22382 3.747229,4.93005 2.630382,-0.26078 3.654106,-1.59149 4.18617,-5.4415 0.169298,-1.22504 0.493381,-3.44889 0.720189,-4.94191 0.226808,-1.49301 0.527033,-3.47223 0.667166,-4.39827 0.289388,-1.91241 0.435385,-2.26239 1.326083,-3.17885 2.538845,-2.61228 6.772861,-1.02613 6.193105,2.32006 -0.06983,0.40303 -0.380752,2.58078 -0.690945,4.83944 -0.310188,2.25865 -0.68864,4.8897 -0.840998,5.84675 -0.958989,6.02397 -0.961719,8.48901 -0.01164,10.51925 1.511009,3.22896 4.092309,5.15337 7.811896,5.82392 0.958748,0.17284 2.886146,-0.0183 3.633216,-0.36034 z m -62.377065,-0.67998 c 1.863368,-0.46552 2.778394,-2.03651 3.196875,-5.48864 0.2315,-1.90972 0.659664,-4.9569 1.183398,-8.42212 0.260369,-1.72271 0.603732,-4.19714 0.763035,-5.49873 0.70899,-5.79297 1.025259,-6.70719 2.930582,-8.47118 2.430182,-2.24991 6.060919,-2.35952 7.966124,-0.24047 3.285049,3.65377 0.157278,9.60732 -5.275782,10.04217 -5.77939,0.46258 -6.450447,7.79079 -0.71303,7.78658 15.876504,-0.0117 21.418369,-23.59371 6.329942,-26.935509 -9.687659,-2.145634 -17.55313,4.726059 -18.961233,16.565529 -0.127486,1.07191 -0.351741,2.76329 -0.498349,3.75863 -0.146608,0.99534 -0.453249,3.12523 -0.681423,4.73309 -0.228173,1.60786 -0.580794,4.08229 -0.783594,5.49873 -0.522996,3.65275 -0.545871,4.06214 -0.266237,4.76447 0.750266,1.8844 2.354815,2.52074 4.809692,1.90745 z m 30.058173,-10.42889 c 2.339272,-0.44364 3.213895,-1.69595 3.695686,-5.29158 0.285446,-2.1303 0.900737,-6.15292 0.972694,-6.35923 0.03153,-0.0904 0.126637,-0.81085 0.211319,-1.6009 0.08468,-0.79004 0.432841,-3.39681 0.773686,-5.79282 0.735204,-5.1682 0.767917,-5.956378 0.271699,-6.546102 -0.493732,-0.586764 -0.459094,-0.654368 0.610235,-1.191026 8.541058,-4.286459 7.456967,-15.678589 -1.492,-15.678589 -8.519627,0 -12.836838,12.268054 -5.487026,15.592281 0.706425,0.319509 0.717817,0.38385 0.161591,0.912682 -1.001208,0.951906 -1.540943,3.143294 -2.277911,9.248604 -0.115525,0.95706 -0.33626,2.55448 -0.49052,3.54982 -0.154259,0.99534 -0.405115,2.71805 -0.557461,3.82823 -0.152345,1.11019 -0.371514,2.64496 -0.487039,3.41061 -0.709756,4.70379 0.590359,6.58267 4.095047,5.91802 z m 46.818262,-0.1994 c 9.18718,-1.75928 15.19145,-12.84998 11.21997,-20.72482 -3.67208,-7.281187 -14.94335,-8.546241 -14.94427,-1.6773 -3.2e-4,2.40055 0.74537,3.10118 3.68741,3.46454 6.52544,0.80592 5.77904,9.78781 -0.93754,11.28211 -4.46728,0.99387 -6.82047,-2.14591 -5.8286,-7.77691 0.19931,-1.13151 0.48937,-3.09544 0.64457,-4.36428 0.15521,-1.26885 0.31166,-2.50427 0.34768,-2.7454 0.036,-0.24113 0.25932,-1.72261 0.4962,-3.292185 1.35103,-8.951658 1.36017,-9.659247 0.13903,-10.762477 -1.58562,-1.43252 -4.17919,-1.13988 -5.82128,0.656839 -0.84238,0.921695 -0.91229,1.159157 -1.42101,4.826399 -0.22754,1.640262 -0.57505,4.047241 -0.77224,5.348844 -0.1972,1.3016 -0.44834,3.14959 -0.55811,4.10665 -0.10977,0.95706 -0.38536,2.86769 -0.61242,4.24586 -1.02084,6.19599 -0.94488,8.35545 0.39171,11.13668 2.47756,5.15541 7.65994,7.48357 13.9689,6.27545 z m 27.48511,0.17644 c 4.34231,-1.0934 3.73249,-7.34715 -0.74505,-7.6404 -6.68611,-0.43789 -5.9083,-10.39292 0.89214,-11.41833 2.52709,-0.38105 4.39765,0.47519 5.53877,2.53533 0.63161,1.14029 0.51385,3.94055 -0.35913,8.54021 -1.18908,6.26515 -0.52412,8.13828 2.89049,8.14234 2.71969,0.003 3.8379,-1.15776 4.42328,-4.59252 1.94548,-11.41528 1.88364,-14.07951 -0.40676,-17.52476 -7.4667,-11.231529 -26.56366,-2.70064 -25.64085,11.45414 0.44499,6.82577 7.15063,12.07939 13.40711,10.50399 z m 19.86722,-0.23716 c 1.63272,-0.72224 2.26969,-1.90706 2.66752,-4.96185 0.21179,-1.62625 0.48006,-3.38621 0.75329,-4.94191 0.074,-0.4211 0.23274,-1.62783 0.35286,-2.68161 0.12011,-1.05378 0.37345,-2.96442 0.56298,-4.24586 0.18952,-1.28144 0.53056,-3.67673 0.75785,-5.32288 0.67179,-4.865437 0.97791,-6.966442 1.17641,-8.074087 0.97951,-5.465746 0.33823,-7.009896 -2.91723,-7.024434 -2.70704,-0.01207 -4.08201,1.325129 -4.57467,4.449076 -0.54247,3.439779 -0.79919,5.19735 -1.13346,7.759816 -0.19718,1.511569 -0.51605,3.798069 -0.70859,5.081109 -0.19255,1.28304 -0.50576,3.52303 -0.69604,4.97776 -0.19028,1.45473 -0.43795,3.24008 -0.55038,3.96744 -1.27984,8.28018 -1.30811,9.03156 -0.38629,10.26678 0.82186,1.10126 3.0852,1.46307 4.69575,0.75065 z m 9.90847,-0.0893 c 1.56137,-0.76391 2.06903,-1.75888 2.51114,-4.92169 0.18886,-1.35112 0.49864,-3.45889 0.68839,-4.68393 0.18976,-1.22503 0.50184,-3.41756 0.69353,-4.87229 0.38257,-2.90331 1.62887,-11.727762 2.29049,-16.217791 0.78919,-5.355729 -0.0674,-6.893057 -3.61398,-6.485771 -3.08801,0.354624 -3.64349,1.521512 -4.74417,9.965982 -0.16467,1.263317 -0.45092,3.29924 -0.63611,4.52428 -0.40813,2.69968 -0.5922,3.99353 -1.87153,13.1552 -1.08423,7.76455 -1.08417,7.90778 0.004,9.02858 1.03212,1.06353 3.08665,1.28636 4.67872,0.50743 z m -26.85612,-11.35703 c 0.48001,-2.75213 0.42775,-3.4196 -0.32286,-4.12364 -1.70097,-1.59546 -5.19898,0.64008 -5.19898,3.3226 0,1.16408 0.73257,1.76093 2.45777,2.00243 0.75375,0.10551 1.62104,0.28343 1.92729,0.39538 0.80621,0.29469 0.8071,0.29344 1.13678,-1.59677 z m -96.855297,1.19235 c 3.516806,-0.49984 5.378194,-3.83828 3.075269,-5.51556 -1.91756,-1.39661 -4.520311,0.74749 -5.008247,4.1257 -0.07741,0.53596 -0.179763,1.11542 -0.227447,1.28769 -0.107179,0.38719 0.08957,0.3965 2.160425,0.10217 z m 65.797307,-0.50421 c 3.11462,-1.55552 2.97607,-5.07854 -0.21038,-5.34964 -0.56405,-0.048 -1.37584,-0.20002 -1.80398,-0.33784 -0.97213,-0.31295 -0.88616,-0.44642 -1.26398,1.96217 -0.57159,3.64392 0.65361,5.03616 3.27834,3.72531 z M 65.531659,99.380616 c 0.0032,-0.106284 -0.229081,-0.465072 -0.516197,-0.797303 -0.28712,-0.332232 -0.680306,-0.799312 -0.87375,-1.037954 -0.351717,-0.433898 -0.351717,-0.433898 -1.218076,-0.263451 -1.070055,0.210518 -1.073181,0.176448 0.108106,1.178283 0.624006,0.496986 2.148399,2.867539 2.499917,0.920436 z M 34.452223,94.971031 c 1.258563,-0.737567 2.321957,-2.232862 2.815121,-3.958493 0.321352,-1.124444 0.410521,-1.274103 0.743139,-1.247238 0.548176,0.04427 0.659771,8e-6 0.659771,-0.261711 0,-0.140839 -0.156608,-0.327429 -0.34802,-0.414641 -0.364924,-0.166271 -0.391118,-0.237332 -0.352261,-0.955702 0.02446,-0.45233 -0.193985,-1.006771 -0.46903,-1.190425 -0.705719,-0.47122 -1.417056,0.896861 -0.853637,1.641764 1.032082,1.364535 -1.967813,6.125209 -3.601386,5.715208 -1.01569,-0.254924 -0.595509,-3.413095 0.761468,-5.723404 0.745559,-1.269338 0.780339,-1.654829 0.15473,-1.714857 -0.892368,-0.08563 -1.432127,0.66069 -2.170286,3.000818 -1.359377,4.309532 -0.100601,6.726731 2.660391,5.108681 z m 6.695364,0.13992 c 0.444883,-0.185884 0.518316,-0.178619 0.961167,0.09508 0.424056,0.262078 0.572137,0.281418 1.28087,0.167282 0.445629,-0.07177 0.981884,-0.07739 1.207998,-0.01267 0.519018,0.148562 1.383428,0.02285 1.886638,-0.274425 0.376475,-0.222389 0.405222,-0.218806 0.735776,0.09173 0.525052,0.493259 1.233276,0.307608 1.998297,-0.523828 0.603128,-0.65549 0.858656,-0.65813 0.864887,-0.009 0.0067,0.697696 1.639563,0.975807 2.719736,0.463229 0.480043,-0.227795 0.5063,-0.225798 0.812326,0.0617 0.579069,0.544008 1.421144,0.32821 2.304081,-0.590462 0.488969,-0.508759 0.708789,-0.537944 0.708789,-0.09411 0,0.899052 1.608684,1.234973 2.734138,0.570937 0.505527,-0.298268 0.505527,-0.298268 0.846751,0.02143 0.747997,0.700802 3.240325,0.133203 3.240325,-0.737946 0,-0.158423 -0.04776,-0.267161 -0.106129,-0.241638 -0.05837,0.02553 -0.455317,0.221015 -0.882104,0.434431 -0.921754,0.460928 -1.51752,0.367986 -1.51752,-0.236737 0,-0.963854 0.909861,-3.966563 1.607459,-5.304923 0.579507,-1.111797 0.591377,-1.645265 0.04562,-2.050846 -0.832139,-0.618416 -1.543555,0.864042 -2.421883,5.046744 -0.506198,2.410581 -0.658942,2.656082 -1.764342,2.835778 -0.954696,0.155199 -1.021144,-0.459149 -0.260721,-2.4104 0.830383,-2.130754 0.666464,-2.788655 -0.503762,-2.021894 -0.283486,0.185749 -0.42515,0.202031 -0.693592,0.07972 -1.428453,-0.650844 -3.797691,1.2193 -3.806357,3.004528 -0.0039,0.772672 -0.143732,0.994042 -0.761713,1.204608 -1.514679,0.516102 -1.620094,-0.34019 -0.488504,-3.968181 0.139233,-0.446399 0.06968,-0.533867 -0.424541,-0.533867 -0.499079,0 -0.636904,0.19009 -1.259376,1.736905 -1.453593,3.612115 -2.60139,3.672222 -1.458123,0.07636 0.520885,-1.638328 0.515246,-1.746833 -0.09717,-1.869319 -0.664005,-0.132801 -1.169488,0.891929 -1.572713,3.188245 -0.167377,0.953188 -0.505199,1.289085 -1.617217,1.60801 -0.527581,0.151308 -0.596053,-0.03192 -0.25889,-0.692834 0.402472,-0.78891 0.354716,-1.344528 -0.21495,-2.500868 -0.458628,-0.930956 -0.480962,-1.031672 -0.278415,-1.255485 0.426231,-0.470983 0.286197,-0.847848 -0.315046,-0.847848 -0.694346,0 -1.002218,0.332654 -0.976367,1.054954 0.05243,1.464898 -2.165752,4.093468 -3.455698,4.095047 -0.878335,0.0012 -0.885107,-0.118998 -0.149138,-2.644248 0.615366,-2.111442 0.624055,-1.948919 -0.104192,-1.948919 -0.754902,0 -0.752155,-0.0046 -1.250852,2.107709 -0.674623,2.857501 0.258346,3.83965 2.684455,2.825956 z m 13.470102,-0.586938 c -0.159847,-0.159847 -0.07001,-1.451968 0.127498,-1.833915 0.527206,-1.01951 2.300588,-1.907458 2.300588,-1.151928 0,0.845314 -2.048971,3.364957 -2.428086,2.985843 z M 42.806703,94.406542 c -0.37142,-0.371423 0.717494,-2.340977 1.147378,-2.075292 0.201782,0.124708 0.178493,1.321751 -0.03394,1.743874 -0.173228,0.344231 -0.887908,0.556956 -1.113446,0.331418 z m -1.880242,-6.466807 c 0.551645,-0.739611 -0.202954,-1.632195 -0.869729,-1.028771 -0.330538,0.299132 -0.349401,0.728479 -0.05074,1.154875 0.271564,0.387713 0.56748,0.347175 0.920471,-0.126104 z"
         id="path2"
         transform="matrix(1.8502781,0,0,1.8502781,-54.864406,-75.568589)" /><path
         style="fill:#fd3423;fill-opacity:1;fill-rule:nonzero;stroke:#fd3423;stroke-width:0;stroke-opacity:1"
         d="m 40.652828,124.8236 c -3.026151,0.25984 -5.111454,3.04391 -6.131775,5.67814 -0.560827,1.85161 -1.000269,3.76716 -1.214081,5.68718 0.670295,0.59187 1.807179,0.12004 2.632202,0.1679 3.479726,-0.25483 7.324635,-1.75892 8.873153,-5.10781 0.57126,-1.67686 0.610223,-3.81847 -0.855317,-5.06639 -0.853971,-0.88209 -2.067038,-1.42055 -3.304182,-1.35902 z"
         id="path52" /><path
         style="fill:#fd3423;fill-opacity:1;fill-rule:nonzero;stroke:#fd3423;stroke-width:0;stroke-opacity:1"
         d="m 62.429128,104.0852 c -0.739489,0.20084 -1.955984,0.031 -2.310709,0.84666 0.473936,1.16061 1.699688,1.91933 2.518651,2.85562 0.951647,0.70061 1.765425,2.09333 3.066877,2.06508 0.910489,-0.5031 1.113517,-1.90249 0.300042,-2.61414 -0.996084,-1.03495 -1.694171,-2.551 -3.074925,-3.1167 -0.163506,-0.0385 -0.332725,-0.0448 -0.499936,-0.0365 z"
         id="path53" /><path
         style="fill:#fd3423;fill-opacity:1;fill-rule:nonzero;stroke:#fd3423;stroke-width:0;stroke-opacity:1"
         d="m 154.2909,124.07746 c -0.95591,0.33375 -0.77888,1.7446 -1.04546,2.54639 -0.37746,2.71222 -0.95817,5.77023 0.45404,8.28473 1.15782,1.75225 3.65251,1.18653 5.25801,0.45664 2.72466,-1.159 5.31413,-4.0663 4.45314,-7.20732 -0.60355,-2.27417 -3.08017,-3.13376 -5.18535,-3.32601 -1.34373,-0.0908 -2.60335,-0.63691 -3.93438,-0.75443 z"
         id="path54" /><path
         style="fill:#fd3423;fill-opacity:1;fill-rule:nonzero;stroke:#fd3423;stroke-width:0;stroke-opacity:1"
         d="m 213.19778,125.01748 c -3.12017,0.33228 -5.98242,2.85408 -6.66823,5.91681 -0.10472,1.44023 -0.31828,3.39508 1.25738,4.14407 2.45552,1.29478 5.33889,1.28228 7.93915,2.14093 0.87473,-0.61602 0.78954,-1.98502 1.11169,-2.92585 0.31835,-2.21096 0.94602,-4.5304 0.41335,-6.7469 -0.52133,-1.75614 -2.29483,-2.67674 -4.05334,-2.52906 z"
         id="path55" /></g></g></svg>
