<?xml version="1.0" encoding="UTF-8" standalone="no"?>
<svg
   version="1.1"
   id="svg48"
   viewBox="-619.9 -169.81 1179 2556"
   sodipodi:docname="g1-cropped.svg"
   inkscape:version="1.3.2 (091e20e, 2023-11-25)"
   xmlns:inkscape="http://www.inkscape.org/namespaces/inkscape"
   xmlns:sodipodi="http://sodipodi.sourceforge.net/DTD/sodipodi-0.dtd"
   xmlns="http://www.w3.org/2000/svg"
   xmlns:svg="http://www.w3.org/2000/svg">
  <sodipodi:namedview
     id="namedview1"
     pagecolor="#ffffff"
     bordercolor="#666666"
     borderopacity="1.0"
     inkscape:showpageshadow="2"
     inkscape:pageopacity="0.0"
     inkscape:pagecheckerboard="0"
     inkscape:deskcolor="#d1d1d1"
     inkscape:zoom="1.9011103"
     inkscape:cx="1015.1962"
     inkscape:cy="897.37033"
     inkscape:window-width="1816"
     inkscape:window-height="1001"
     inkscape:window-x="0"
     inkscape:window-y="25"
     inkscape:window-maximized="0"
     inkscape:current-layer="svg48" />
  <defs
     id="defs1">
    <style
       id="style1">
      .cls-1, .cls-2, .cls-3, .cls-4 {
        stroke: #000;
        stroke-miterlimit: 10;
        stroke-width: 23px;
      }

      .cls-1, .cls-3 {
        stroke-linecap: round;
      }

      .cls-2, .cls-3 {
        fill: none;
      }
    </style>
  </defs>
  <path
     class="cls-2"
     d="m 231.95043,1834.7347 c -20.58996,-0.7601 -40.19089,6.3813 -54.69677,18.7037 -1.25877,1.0703 -213.532181,164.4426 -216.269517,166.443 -33.926981,22.7845 -22.518085,76.2351 19.690836,83.0965 14.9254738,2.9005 29.741055,-0.2601 41.499611,-7.5215 0,0 227.68841,-128.2654 247.09951,-142.6383 13.31704,-9.8619 24.07657,-21.9943 29.01177,-38.7376 10.1701,-39.6179 -21.6789,-77.7054 -66.33544,-79.3458 z"
     id="path18" />
  <path
     class="cls-4"
     d="m 237.86467,1908.3993 c -0.55945,32.6065 -49.0123,32.6065 -49.56176,0 0.55945,-32.6064 49.0123,-32.6064 49.56176,0 z"
     id="path19" />
  <path
     class="cls-2"
     d="m -526.63129,1914.4305 c 4.93519,16.7433 15.69472,28.8757 29.01176,38.7377 19.4211,14.3828 247.09952,142.6382 247.09952,142.6382 11.75855,7.2615 26.57413,10.4121 41.49961,7.5215 42.20892,-6.8513 53.61781,-60.3119 19.69083,-83.0964 -2.74732,-2.0104 -215.01074,-165.3728 -216.26952,-166.443 -14.50588,-12.3224 -34.1068,-19.4538 -54.69676,-18.7037 -44.65654,1.6403 -76.50554,39.7179 -66.33544,79.3457 z"
     id="path21" />
  <path
     class="cls-4"
     d="m -466.2101,1908.7394 c 0.55946,32.6065 49.0123,32.6065 49.56177,0 -0.55946,-32.6065 -49.0123,-32.6065 -49.56177,0 z"
     id="path22" />
  <ellipse
     class="cls-4"
     cx="-103.54305"
     cy="419.69446"
     id="circle29"
     rx="107.51537"
     ry="107.64132" />
  <path
     class="cls-2"
     d="m 39.937303,420.65467 c 0,79.2657 -63.688017,143.02832 -142.860963,143.02832 -79.17295,0 -143.85999,-63.76262 -143.85999,-143.02832 0,-79.2657 64.68704,-144.02853 143.85999,-144.02853 79.172946,0 142.860963,64.76283 142.860963,144.02853 z"
     id="path30" />
  <ellipse
     class="cls-4"
     cx="-457.82825"
     cy="702.96057"
     id="circle30"
     rx="67.684128"
     ry="67.76342" />
  <ellipse
     class="cls-2"
     cx="-457.57849"
     cy="702.71051"
     id="circle31"
     rx="98.90374"
     ry="99.019615" />
  <ellipse
     class="cls-4"
     cx="212.41946"
     cy="681.95642"
     id="circle32"
     rx="67.684128"
     ry="67.76342" />
  <ellipse
     class="cls-2"
     cx="212.76909"
     cy="681.70636"
     id="circle33"
     rx="98.90374"
     ry="99.019615" />
  <path
     class="cls-4"
     d="m -325.51986,2386.5414 v -97.7036 c 0,-21.2854 37.07604,-38.5386 82.80738,-38.5386 H 14.851681 c 45.731341,0 82.807375,17.2532 82.807375,38.5386 v 97.2965"
     id="path13" />
  <path
     class="cls-2"
     d="m -384.85844,2386.1246 v -121.4219 c 0,-35.214 32.11352,-62.9742 71.73958,-62.9742 H 91.51146 c 39.61549,0 71.73959,27.7602 71.73959,62.0049 v 122.3912"
     id="path14" />
  <g
     id="g3"
     transform="matrix(1.058106,0,0,0.96928132,-705.46456,-207.74006)">
    <g
       id="g12">
      <polygon
         points="1115.67,1838 1113.94,1806 1121.06,1806 1119.33,1838 1118.45,1854 1117.5,1870 1116.55,1854 "
         id="polygon1" />
      <polygon
         points="1110.77,1742 1107.88,1678 1127.12,1678 1124.23,1742 "
         id="polygon2" />
      <path
         d="m 1105.71,1614 0.24,-16 c 0.07,-5.33 0.06,-10.67 0.06,-16 v -32 h 23 v 32 c 0,5.33 0,10.67 0.06,16 l 0.24,16 h -23.58 z"
         id="path2" />
      <rect
         x="1106"
         y="1422"
         width="23"
         height="64"
         id="rect2" />
      <polygon
         points="1129,1326 1129,1358 1106,1358 1106,1326 1106.21,1293.87 1129.21,1294.14 "
         id="polygon3" />
      <polygon
         points="1107.36,1229.75 1108.96,1165.7 1131.95,1166.32 1130.35,1230.27 "
         id="polygon4" />
      <polygon
         points="1110.74,1101.77 1112.55,1037.87 1135.54,1038.51 1133.73,1102.42 "
         id="polygon5" />
      <polygon
         points="1114.29,973.96 1115.87,910.02 1138.86,910.55 1137.28,974.56 "
         id="polygon6" />
      <polygon
         points="1117.2,846.09 1118.18,782.17 1141.18,782.45 1140.2,846.51 "
         id="polygon7" />
      <polygon
         points="1118.67,718.28 1118.45,654.43 1141.45,654.19 1141.67,718.34 "
         id="polygon8" />
      <path
         d="m 1117.16,590.69 c -0.68,-21.21 -1.62,-42.4 -3.13,-63.46 l 22.94,-1.65 c 1.54,21.5 2.49,42.95 3.18,64.38 z"
         id="path8" />
      <path
         d="m 1106.68,465.11 c -0.49,-2.44 -1.05,-5.07 -1.6,-7.61 l -1.72,-7.66 c -1.18,-5.1 -2.42,-10.18 -3.74,-15.24 -2.63,-10.12 -5.53,-20.16 -8.73,-30.1 l 21.89,-7.05 c 3.34,10.37 6.36,20.83 9.1,31.36 1.37,5.26 2.66,10.55 3.89,15.84 l 1.78,7.95 c 0.58,2.67 1.13,5.26 1.69,8.05 l -22.57,4.45 z"
         id="path9" />
      <path
         d="m 1068.05,346.35 c -8.87,-18.82 -19.02,-37 -30.49,-54.29 l 19.16,-12.72 c 12.12,18.27 22.82,37.44 32.14,57.21 z"
         id="path10" />
      <path
         d="m 999.12,243.29 -10.78,-11.17 c -3.59,-3.73 -7.15,-7.49 -10.82,-11.16 -7.33,-7.34 -14.97,-14.39 -22.9,-21.13 l 12.08,-15.51 c 8.9,6.38 17.55,13.13 25.92,20.23 4.18,3.55 8.32,7.18 12.28,10.99 3.97,3.8 7.74,7.8 11.39,11.91 l -17.17,15.83 z"
         id="path11" />
      <path
         d="m 903.8,163.25 c -8.97,-5.43 -18.17,-10.54 -27.57,-15.28 -9.41,-4.73 -19.01,-9.13 -28.78,-13.15 l 2.74,-7.72 c 20.66,6.23 40.86,14.2 60.39,23.73 z"
         id="path12" />
      <polygon
         points="771.5,112.5 825.91,73.87 865.4,80.57 810.97,119.2 849.62,173.61 810.13,166.91 "
         id="polygon12" />
    </g>
    <line
       class="cls-2"
       x1="1024.77"
       y1="2676"
       x2="1028.16"
       y2="503.62"
       id="line19" />
    <path
       class="cls-3"
       d="m 779.87,214.87 c 137.36,0 248.71,135.92 248.71,303.58"
       id="path20" />
    <g
       id="g17"
       transform="translate(-4.6342266,0.03754371)">
      <path
         class="cls-4"
         d="m 151.32,119.87 v 426.82 c 0,11.83 13.45,17.75 21.31,9.39 l 394.6,-419.63 c 7.79,-8.28 2.4,-30.25866 -8.61,-30.45866 L 164.02,106.6 c -6.98,-0.13 -12.7,5.85 -12.7,13.27 z"
         id="path15" />
      <line
         class="cls-1"
         x1="690"
         y1="193.37"
         x2="647.25"
         y2="149.05"
         id="line15" />
      <line
         class="cls-1"
         x1="170.16"
         y1="646.42999"
         x2="214.52"
         y2="694.09003"
         id="line16" />
      <line
         class="cls-4"
         x1="205.67"
         y1="679.91998"
         x2="683.42999"
         y2="171.85001"
         id="line17" />
      <path
         class="cls-2"
         d="m 97,86.64 v 547.25 c 0,31.75 36.01,47.66 57.06,25.2 L 658.67,121.06 C 679.53,98.81 665.11,51.367456 635.61,50.827456 L 186.71211,50.928046 168.52478,50.595736 131,51 C 112.32,50.66 97,66.71 97,86.64 Z"
         id="path17"
         sodipodi:nodetypes="ssccccccs" />
    </g>
    <path
       class="cls-4"
       d="m 1183.6209,337.49469 v 0 c -50.17,-131.4 -130.76,-235.32 -261.99003,-285.920002 l -1.51,-0.58 h 263.50003 z"
       id="path23" />
    <path
       d="m 436.99,1606.5 c -8.54,-71.26 -18.21,-161.59 -25.9,-233.31 -2.01,-22.95 -6.27,-55.17 -7.87,-77.82 0,0 -4.97,-68.96 -4.97,-68.96 l 27.6,63.47 c 7.41,17.42 14.56,34.95 22.15,52.3 0,0 22.43,52.17 22.43,52.17 l -22.06,4.11 16.73,-446.89 3.33,-89.05 c 12.02,54.04 84.84,380.67 98.58,442.38 0,0 -22.3,-0.59 -22.3,-0.59 18.77,-67.37 73.77,-264.77 91.75,-329.33 0,0 -4.85,102.04 -4.85,102.04 l -19.51,410.38 -21.15,-6.78 c 26.01,-41.03 73.79,-113.45 99.15,-153.89 9.59,-15.89 40.16,-59.23 50.97,-75.1 0,0 -15.68,61.91 -15.68,61.91 -23.66,93.41 -50.8,200.08 -75.52,292.96 4.19,-24.87 8.57,-49.7 12.85,-74.55 6.46,-37.19 19.86,-111.79 26.52,-148.92 0,0 13.55,-74.4 13.55,-74.4 l 21.01,8.73 c -4.5,7.47 -9.25,14.78 -14.09,22.03 -36.06,55.16 -86.68,134.09 -122.62,189.61 0,0 2.03,-42.68 2.03,-42.68 l 19.51,-410.38 22.57,3.63 -64.34,230.92 -12.32,44.22 -9.98,-44.8 -79.19,-355.4 22.72,-2.07 c -1.13,29.25 -18.05,482.72 -18.64,497.86 -15.68,-36.56 -38.13,-88.73 -53.84,-125.1 -3.81,-8.67 -7.75,-17.27 -11.46,-25.98 l 22.63,-5.5 c 4.44,100.43 7.67,212.28 10.21,312.79 v 0 z"
       id="path24" />
    <g
       id="g26">
      <path
         d="m 297.11,1843.06 c -37.41,-37.19 -74.28,-74.97 -110.49,-113.25 -13.52,-16.43 -46.52,-55.88 -60.71,-72.64 0,0 -32.21,-38.34 -32.21,-38.34 30.01,13.41 147.3,65.87 179.5,80.27 0,0 -14.87,15.86 -14.87,15.86 -27.92,-53.02 -152.09,-288.81 -177.46,-336.99 0,0 56.64,59.16 56.64,59.16 l 199.3,208.14 -19.81,7.95 c -0.01,-21.92 -0.01,-84.62 -0.02,-105.64 0,0 20.47,24.82 20.47,24.82 4.71,5.66 9.67,11.12 13.9,17.17 12.34,17.55 26.06,36.79 38.24,54.3 14.49,20.88 36.22,52.16 50.21,73.04 -8.82,-9.02 -21.79,-22.71 -30.69,-31.99 -23.9,-25.11 -52.28,-55.63 -75.63,-80.86 -5.04,-5.39 -9.35,-11.37 -13.92,-17.15 0,0 20.46,-7.25 20.46,-7.25 0,20.26 -0.02,82.99 -0.03,102.2 -4.21,-4.22 -209.16,-218.56 -219.1,-228.82 0,0 18.48,-13.31 18.48,-13.31 8.36,15.9 151.1,286.91 154.8,293.96 -18.87,-8.48 -142.38,-63.64 -164.16,-73.41 0,0 13.5,-17.9 13.5,-17.9 14.29,17.12 47.06,55.97 61.09,72.32 31.47,42.27 62.32,85.1 92.51,128.36 z"
         id="path25" />
      <path
         d="m 383.5,1537.5 c -16.69,-18.26 -32.41,-37.08 -47.97,-56.18 -11.73,-19.22 -59.91,-98.24 -72.61,-118.85 0,0 21.31,-6 21.31,-6 0,29.58 0,126.62 0,154.57 -32.52,-54.32 -96.32,-161.79 -128.87,-215.77 -3.54,-4.69 -6.32,-11.68 -8.71,-16.99 -10.41,-23.38 -20.6,-46.88 -30.15,-70.77 18.53,22.19 36.27,44.91 53.82,67.74 23.14,38.55 88.19,147.99 112.28,188.19 0,0 -21.38,5.89 -21.38,5.89 v -153.68 c 24.08,39.38 69.86,114.22 94.09,153.57 9.91,22.55 19.53,45.11 28.19,68.28 z"
         id="path26" />
    </g>
    <g
       id="g28">
      <path
         d="m 794.79,1834.67 c 30.19,-43.26 61.04,-86.09 92.51,-128.36 13.86,-16.15 47.01,-55.46 61.09,-72.32 0,0 13.5,17.9 13.5,17.9 -22.52,10.1 -144.61,64.65 -164.16,73.41 3.12,-6.02 147.01,-279.08 154.8,-293.96 0,0 18.48,13.31 18.48,13.31 -10.72,11.15 -214.14,223.66 -219.1,228.82 0,-18.89 -0.02,-82.29 -0.03,-102.2 0,0 20.46,7.25 20.46,7.25 -4.57,5.78 -8.88,11.76 -13.92,17.15 -23.29,25.17 -51.86,55.81 -75.63,80.86 -8.8,9.22 -21.86,22.92 -30.69,31.99 13.93,-20.76 35.72,-52.19 50.21,-73.04 12.16,-17.49 25.89,-36.8 38.24,-54.3 4.23,-6.05 9.19,-11.5 13.9,-17.17 0,0 20.47,-24.82 20.47,-24.82 0,20.69 -0.02,83.98 -0.02,105.64 0,0 -19.81,-7.95 -19.81,-7.95 l 199.3,-208.14 56.64,-59.16 -38.16,72.47 -139.3,264.52 -14.87,-15.86 c 32.76,-14.65 148.78,-66.53 179.5,-80.27 0,0 -32.21,38.34 -32.21,38.34 -14.39,17.03 -47.03,56 -60.71,72.64 -36.22,38.28 -73.08,76.05 -110.49,113.25 z"
         id="path27" />
      <path
         d="m 708.4,1529.11 c 8.66,-23.18 18.27,-45.73 28.19,-68.28 24.23,-39.35 70.02,-114.2 94.09,-153.57 0,0 0,40.83 0,40.83 v 112.85 l -21.38,-5.89 c 24.44,-40.79 88.74,-148.97 112.28,-188.19 17.55,-22.82 35.29,-45.55 53.82,-67.74 -9.55,23.89 -19.74,47.39 -30.15,70.77 -2.4,5.37 -5.23,12.37 -8.71,16.99 -32.49,53.87 -96.4,161.55 -128.87,215.77 0,-27.39 0,-125.46 0,-154.57 0,0 21.31,6 21.31,6 -12.97,21.05 -60.56,99.1 -72.61,118.85 -15.57,19.09 -31.28,37.92 -47.97,56.18 z"
         id="path28" />
    </g>
  </g>
  <path
     d="m 479.81502,1615.5169 c -43.58339,-1.2698 -79.20981,31.3562 -77.81311,71.2809 1.25914,36.1639 33.41498,65.6107 72.88234,66.7641 43.58338,1.2698 79.20981,-31.3562 77.81311,-71.2809 -1.25914,-36.1639 -33.41499,-65.6107 -72.88234,-66.7641 z m -2.15854,34.3513 c -6.05236,2.2197 -6.05236,-1.105 -16.95085,2.2197 -7.26919,2.2196 -15.00395,8.3745 -16.95086,15.5278 -1.20624,4.4394 -1.20624,3.4119 -1.20624,14.423 0,5.5442 -3.75628,9.2178 -4.84613,9.9835 -4.68741,3.2859 -12.65495,1.6769 -17.56456,-2.0936 -2.85688,-2.2003 -4.25358,-5.302 -4.84612,-9.4214 -1.58716,-10.9723 2.26434,-27.169 16.95085,-38.7228 3.63989,-2.8594 10.13666,-7.793 18.77081,-10.7881 6.23224,-2.1615 11.02546,-2.9272 18.16768,-3.3246 2.49713,-0.1357 7.8194,0.4361 10.00968,1.5411 2.68759,1.357 5.93597,3.6833 6.94117,7.3375 1.46019,5.3601 -3.84092,11.612 -8.47543,13.3082 z"
     id="path29"
     style="stroke-width:1.01272" />
  <path
     class="cls-2"
     d="m 449.75423,2386.0374 -2.11621,-538.6975 c 0,-4.2649 -3.21665,-7.7252 -7.18454,-7.7252 H 417.0905 c -3.9679,0 -7.18454,-3.4603 -7.18454,-7.7252 v -54.2409 c 0,-4.2649 3.21664,-7.7252 7.18454,-7.7252 l 119.6612,-1.3958 c 3.9679,0 7.18454,3.4604 7.18454,7.7252 v 54.5608 c 0,4.2552 -3.20606,7.7155 -7.16337,7.7252 l -28.45247,1.4539 c -4.02081,0.01 -7.24803,3.567 -7.16338,7.89 l 3.84092,537.6216"
     id="path33" />
  <path
     d="m -231.58844,1583.1349 c 6.04412,0 12.08824,0 18.13235,0 1.01901,0.3501 2.02803,0.8202 3.07701,1.0502 9.94033,2.0904 18.45204,7.0014 25.50518,14.0928 6.87331,6.9114 11.42887,15.333 13.33702,25.025 1.19883,6.0612 2.44761,12.1324 0.77924,18.5836 12.39793,-0.8101 24.17647,1.2803 35.50544,6.5613 0.67934,-3.9107 1.3387,-7.5715 1.93812,-11.2522 1.60843,-9.9119 5.20493,-18.7537 12.9474,-25.6051 9.69056,-8.5817 21.359209,-11.5222 33.627269,-10.0419 13.526835,1.6303 23.706927,9.2518 29.411376,21.9743 2.277783,5.071 3.806295,10.4321 2.837238,16.1732 -0.219786,1.3103 -0.249757,2.5805 1.828221,2.7806 3.366723,0.32 6.753427,0.8101 10.050219,1.5903 8.621609,2.0504 16.763685,5.281 23.766869,10.8721 3.926179,3.1407 7.682523,6.5013 11.3289743,9.6019 28.8818907,-23.9047 60.4411767,-29.9459 95.5170397,-13.5727 0,-1.5303 -0.199806,-2.8005 0.02997,-3.9807 0.979048,-4.981 2.167891,-9.922 3.136948,-14.903 1.288745,-6.6413 4.435683,-12.3224 8.831404,-17.3334 5.414732,-6.1613 12.427902,-9.6419 20.260282,-11.6023 10.18009,-2.5505 20.07047,-1.9504 29.56123,2.9706 0.86915,-0.4701 1.73831,-1.1103 2.71736,-1.4303 7.40279,-2.3905 14.84555,-3.6307 22.72788,-2.4105 10.74953,1.6503 19.26125,6.7313 25.07559,15.7931 2.5675,4.0008 3.99611,8.7218 5.94422,13.1226 v 15.4831 c -0.0799,0.04 -0.21979,0.07 -0.22978,0.12 -1.52851,9.7119 -3.13695,19.4139 -4.54558,29.1458 -1.20882,8.3917 -2.09795,16.8233 -3.2868,25.215 -1.30872,9.2418 -2.83724,18.4436 -4.18592,27.6755 -1.48855,10.192 -2.81726,20.404 -4.30581,30.596 -1.59845,10.9722 -6.41376,20.094 -15.15525,27.1954 -7.75246,6.3013 -16.89356,8.7317 -26.37433,9.3019 -5.63452,0.34 -11.5088,-1.0803 -16.72373,-4.0008 -0.66935,-0.3801 -1.70834,-0.5101 -2.44762,-0.2901 -3.4866,1.0102 -6.90328,2.2605 -10.38988,3.2907 -8.49174,2.4904 -16.47397,0.7301 -24.256397,-2.9306 -0.799222,-0.3701 -2.067988,-0.3701 -2.86721,0 -10.10017,4.5909 -20.440107,6.0612 -30.969859,1.9204 -3.516577,-1.3803 -6.443729,-2.0304 -10.200073,-0.4701 -7.063126,2.9405 -14.515872,3.3706 -22.168425,2.2804 -9.38087,-1.3403 -18.5219734,-3.3006 -26.7739422,-8.1316 -6.2539135,-3.6607 -12.2580698,-7.7415 -16.8935588,-13.4727 -1.258775,-1.5503 -2.107948,-1.5803 -3.846256,-0.24 -5.364779,4.1508 -10.779509,8.3216 -16.58386,11.8023 -8.052164,4.821 -16.92353,7.7616 -26.264439,8.8118 -6.373797,0.7101 -12.817526,1.0602 -19.231283,0.9902 -2.217842,-0.02 -2.387677,0.38 -2.49757,2.2004 -0.169834,2.9606 -0.449562,5.9412 -1.038988,8.8418 -2.50756,12.4724 -9.390861,21.8643 -20.689869,27.6554 -4.39572,2.2505 -9.29095,3.5307 -13.95641,5.2511 h -14.39599 c -4.16595,-1.0302 -8.36186,-1.9604 -12.48785,-3.1006 -10.84944,-3.0006 -19.84069,-8.9718 -27.36337,-17.2935 -7.17302,-7.9315 -12.00831,-17.0333 -14.37601,-27.6354 -0.49951,0.05 -1.14888,-0.04 -1.66837,0.19 -7.10309,3.0806 -14.54585,4.7809 -22.23836,3.9208 -4.29582,-0.4801 -8.44178,-2.2805 -12.67766,-3.4107 -1.01901,-0.2701 -2.20785,-0.5701 -3.16692,-0.3101 -2.75731,0.7402 -5.39475,1.9304 -8.15206,2.6306 -9.50076,2.3904 -18.82169,1.8203 -27.49325,-2.9206 -4.17593,-2.2805 -7.90231,-5.4111 -12.17814,-8.4117 -0.0799,0.05 -0.7193,0.4801 -1.41862,0.8102 -5.5546,2.6605 -10.91938,5.9712 -16.74371,7.8015 -8.37185,2.6405 -17.02343,4.5509 -25.95474,4.5309 -0.59942,0 -1.58845,0.7902 -1.72832,1.3703 -0.67934,2.9106 -0.89912,5.9312 -1.70833,8.7917 -2.95713,10.4421 -9.16109,18.5037 -18.48202,24.0648 -9.10114,5.4311 -18.98152,7.0814 -29.34144,5.171 -9.91036,-1.8303 -17.80267,-7.1314 -23.57705,-15.343 -7.57263,-10.7822 -7.36284,-22.7545 -4.98515,-35.027 0.89912,-4.6709 1.64839,-9.3818 2.29776,-14.1028 0.82919,-5.9811 1.38865,-11.9923 2.24781,-17.9635 0.95907,-6.6913 2.14791,-13.3527 3.16692,-20.034 1.1289,-7.3914 2.01804,-14.8129 3.29679,-22.1744 2.04801,-11.7623 5.88428,-22.8645 13.19716,-32.8065 -0.64937,-0.18 -1.29874,-0.6201 -1.72832,-0.4501 -3.60649,1.3903 -7.23296,0.5802 -10.71957,-0.16 -5.5446,-1.1702 -10.26001,-3.9008 -14.03634,-8.3516 -2.99708,-3.5307 -4.56555,-7.6616 -6.12404,-11.8624 0,-6.5813 0,-13.1726 0,-19.7539 0.39962,-0.9002 0.94908,-1.7604 1.18885,-2.6905 2.08797,-8.1817 4.35576,-16.3233 10.18009,-22.7845 3.05702,-3.3907 6.84334,-5.7712 11.61869,-5.8712 10.97932,-0.2301 21.95863,-0.3501 32.93795,-0.6001 7.01317,-0.1601 12.36796,2.9606 16.69375,8.1916 2.10795,2.5505 4.57555,4.1908 8.07214,4.1808 3.14694,-0.02 6.35382,0.8102 9.42083,0.3901 6.98321,-0.9702 13.75662,2.4705 20.70985,0.6401 0.24976,-0.07 0.53947,-0.04 0.79922,0 3.21687,0.5101 5.28486,-0.8902 6.92326,-3.6307 3.92618,-6.6113 9.83044,-9.7819 17.53294,-9.7819 1.07895,0 2.37768,-0.6002 3.19689,-1.3403 2.40765,-2.1704 4.50561,-4.6809 6.94324,-6.8213 7.11308,-6.2413 15.37504,-10.3221 24.53612,-12.6125 1.95809,-0.4901 3.86624,-1.1503 5.79436,-1.7304 z m 106.27657,172.9543 c 1.31872,1.2702 2.30775,2.0204 3.02705,2.9605 4.56556,5.9912 10.38989,10.5321 17.01344,13.8528 16.094341,8.0616 32.798085,7.6015 49.471857,2.2604 14.246135,-4.5609 25.155518,-13.9427 34.346573,-25.505 0.73928,-0.9202 1.618425,-1.7304 2.53753,-2.7205 1.848201,3.1706 3.24684,6.1712 5.164973,8.8017 12.3679634,16.9634 29.241541,24.4148 50.031308,23.3846 4.755372,-0.24 9.171074,-1.7103 12.767574,-4.7609 2.367696,-2.0004 3.846257,-1.7004 6.094069,0.08 8.711522,6.8814 24.006636,6.5013 32.238624,-0.7902 1.76828,-1.5703 2.797278,-1.3802 4.475645,-0.04 8.971267,7.1414 23.547087,7.2615 32.228637,0.1301 2.10795,-1.7304 3.32676,-1.5503 5.36478,0 15.14526,11.4822 38.39263,3.4907 42.51861,-15.033 2.59748,-11.6723 3.87623,-23.6547 5.60455,-35.5171 2.48758,-16.9533 4.88525,-33.9167 7.25294,-50.88 1.6484,-11.8724 3.33675,-23.7347 4.70542,-35.6471 0.86916,-7.5115 -1.52851,-14.0628 -7.44275,-19.0238 -8.26196,-6.9313 -24.3563,-8.0015 -33.6073,0.07 -1.42861,1.2402 -2.40765,1.2902 -3.86623,0.05 -4.19592,-3.5807 -9.13112,-5.1311 -14.64575,-5.5811 -12.95739,-1.0602 -25.82487,6.9213 -28.79198,19.5438 -2.597471,11.0222 -3.696401,22.3945 -5.404739,33.6167 -0.469543,3.0706 -0.749271,6.1812 -1.208823,9.982 -1.44859,-1.6504 -2.247813,-2.7206 -3.196889,-3.6208 -3.476616,-3.2706 -6.703476,-6.9013 -10.559723,-9.6419 -14.126252,-10.0319 -30.130676,-11.5222 -46.594652,-8.6617 -15.884541,2.7506 -28.7120566,11.3423 -39.5115462,23.0746 -2.2578026,2.4505 -4.3457705,5.051 -6.6035728,7.6915 -13.237117,-24.7449 -33.946962,-34.3768 -61.29035,-31.2162 0.0999,-1.0002 0.159844,-1.9604 0.299708,-2.9205 0.599417,-4.2109 1.388648,-8.4117 1.778269,-12.6425 0.429582,-4.661 -0.139864,-9.2719 -2.52754,-13.4127 -5.075061,-8.8218 -12.957389,-12.1224 -22.897715,-12.3224 -12.547787,-0.2601 -24.416237,11.0621 -26.274427,21.7343 -1.2388,7.0814 -2.23782,14.2028 -3.31677,21.3042 -0.75926,5.021 -1.48855,10.042 -2.24782,15.183 -19.69083,-20.5941 -42.36876,-21.6643 -67.18461,-11.3023 0.29971,-0.7201 0.42958,-1.3402 0.76925,-1.7903 4.15596,-5.3311 6.2739,-11.5523 7.28291,-18.0636 2.29777,-14.6829 -1.64839,-27.3354 -13.38697,-36.9173 -10.65962,-8.7017 -22.99762,-10.072 -35.97499,-7.1314 -11.83847,2.6805 -20.48006,10.212 -27.70303,19.5439 -1.20883,1.5603 -1.94811,1.7603 -3.5965,0.7301 -4.17594,-2.6005 -8.80144,-2.3505 -12.15817,1.1802 -2.18787,2.3005 -3.6964,5.3311 -5.16497,8.2117 -0.70931,1.3902 -1.25878,1.8703 -2.88719,1.9404 -5.46469,0.24 -10.97932,0.21 -16.19424,2.4604 -0.96906,0.4201 -2.55751,0.06 -3.5965,-0.4601 -3.32677,-1.6603 -6.56362,-2.9105 -10.42985,-1.6903 -1.38865,0.4401 -3.14694,0.03 -4.64548,-0.3401 -2.90717,-0.7101 -5.6545,-1.1602 -8.49174,0.4701 -0.74927,0.4301 -2.43762,0.1001 -3.20688,-0.5101 -2.52754,-2.0104 -5.32481,-3.0006 -8.4218,-2.4705 -2.07798,0.3601 -2.71735,-0.17 -3.17691,-2.1904 -1.61842,-7.1314 -8.04217,-10.392 -14.66572,-7.5315 -1.94811,0.8402 -3.65645,0.6902 -5.63452,0.08 -1.58845,-0.4901 -3.54655,-0.7501 -5.06507,-0.26 -2.58748,0.8502 -4.9352,0.8902 -7.51269,0.12 -5.16497,-1.5303 -9.46079,-0.08 -12.61772,4.3609 -6.46371,9.1118 -9.29096,19.3638 -8.6316,30.406 0.53948,8.9918 7.51269,14.923 16.45399,13.9028 3.53656,-0.4001 6.95323,-2.3905 10.27999,-3.9708 1.71833,-0.8202 2.74733,-1.3903 4.2159,0.5301 0.91911,1.1902 2.75732,2.0304 4.30581,2.3004 3.12696,0.5401 6.33383,0.6602 9.52073,0.7902 2.8772,0.12 5.77438,0.03 8.66157,0.03 -0.79922,1.5003 -1.75829,2.3705 -2.77729,3.1506 -12.47786,9.5619 -22.66794,21.0342 -26.72399,36.5172 -2.72735,10.4421 -4.07604,21.2643 -5.73442,31.9664 -2.22784,14.4028 -4.24587,28.8457 -6.174,43.2885 -0.90911,6.7714 -1.78825,13.5827 -1.98806,20.4041 -0.18982,6.4313 2.60746,11.9624 7.62258,16.0732 7.90231,6.4813 16.86359,7.6715 26.3044,4.2408 10.01026,-3.6507 15.8246,-11.1022 17.76271,-21.5042 0.90912,-4.891 1.44859,-9.852 2.19786,-14.773 0.22978,-1.5303 0.60941,-3.0406 0.94908,-4.6809 0.83918,0.17 1.37866,0.19 1.8482,0.3801 6.51366,2.5905 13.28707,2.2204 19.98056,1.3402 14.35602,-1.8803 26.73398,-8.0716 37.2937,-17.9735 0.79922,-0.7502 1.77827,-1.3003 2.8772,-2.0804 0.4096,0.9802 0.76925,1.5903 0.91911,2.2504 4.69543,20.5441 29.45133,21.9044 40.43065,12.6325 1.80824,-1.5303 2.7673,-1.5403 4.6255,-0.14 15.84458,12.0224 38.8322,3.8608 43.19795,-15.5031 1.87818,-8.3016 2.86721,-16.8133 4.14597,-25.245 1.16886,-7.7315 2.10795,-15.5031 3.32676,-23.2246 0.58943,-3.7007 2.83724,-4.991 6.67351,-4.1508 -0.0799,0.7501 -0.13987,1.5203 -0.24976,2.2905 -2.65741,18.6536 -5.18495,37.3273 -8.04217,55.941 -1.69835,11.1022 -1.19884,21.8444 4.0061,31.9564 9.72054,18.8937 25.71497,27.3254 46.50474,27.0153 14.94545,-0.22 25.5851,-10.072 27.13359,-24.4448 1.298736,-12.1124 -3.41667,-21.5843 -13.43692,-25.8852 -3.087,-1.3202 -6.69349,-1.4602 -10.08019,-2.0104 -1.21882,-0.2 -2.32774,-0.1 -2.08797,-1.9003 0.48952,-3.7808 0.86915,-7.5615 1.38865,-12.1324 z"
     id="path34"
     style="stroke-width:0.999613" />
  <path
     d="m -309.37274,1663.3108 c 9.79048,-0.02 19.15136,1.7303 27.22351,7.6315 12.80753,9.3619 19.13138,22.0144 18.74176,37.9875 -0.34966,14.1928 -4.82531,26.9554 -14.0763,37.6475 -11.85846,13.7127 -26.714,21.7543 -45.28593,21.8643 -5.74441,0.03 -10.65962,-1.4903 -13.19715,-7.0814 -2.61746,-5.7711 -1.51853,-11.3122 2.048,-16.3532 3.38671,-4.791 7.96225,-7.3715 14.02635,-7.2415 13.89648,0.3001 26.19451,-13.8527 25.76493,-25.8451 -0.32968,-9.2118 -7.44276,-16.7933 -16.53391,-17.7635 -14.77562,-1.5703 -25.62506,10.152 -27.18355,20.364 -1.33869,8.7818 -2.58748,17.5735 -3.86623,26.3653 -1.41862,9.7619 -2.81726,19.5238 -4.22589,29.2758 -1.17885,8.1816 -2.01804,16.4232 -3.61648,24.5148 -1.93811,9.842 -9.02122,14.7229 -18.98153,13.8227 -7.09309,-0.6301 -12.30802,-6.5413 -11.58872,-13.6527 0.68933,-6.7113 1.88816,-13.3626 2.81726,-20.0539 2.6674,-19.0938 5.26488,-38.1876 7.97224,-57.2814 2.10795,-14.9229 8.26196,-27.7455 19.44108,-38.1275 11.52878,-10.7222 24.74592,-16.1632 40.53055,-16.1032 z"
     id="path35"
     style="stroke-width:0.999613" />
  <path
     d="m -78.976966,1768.0515 c -11.488818,0.4501 -22.058534,-3.3606 -30.859964,-11.5122 -10.06021,-9.3219 -15.35506,-20.9742 -14.1762,-34.7869 0.95906,-11.3123 2.90717,-22.5345 4.45566,-33.7867 2.29776,-16.7233 4.59553,-33.4367 6.96322,-50.15 1.58846,-11.1722 12.19813,-17.9435 22.458145,-14.4228 4.995138,1.7103 8.341881,5.8411 7.872338,11.0922 -0.869154,9.8119 -2.117939,19.5939 -3.466626,29.3458 -2.387676,17.2434 -4.865265,34.4668 -7.502698,51.6702 -1.638406,10.6821 5.544604,19.6739 14.086291,21.5243 7.322873,1.5903 14.116261,-0.4101 19.940593,-5.171 6.024137,-4.921 10.12015,-11.0422 10.359917,-19.0438 0.299708,-9.942 -7.113077,-17.9336 -17.003452,-18.6337 -4.215897,-0.3001 -8.461764,-0.6701 -11.54876,-3.9308 -1.398639,-1.4803 -2.797278,-3.4007 -3.206879,-5.321 -2.587482,-12.3125 5.244896,-21.6243 16.883568,-21.6843 29.601191,-0.1601 50.11123,24.3648 44.886315,53.6106 -2.227831,12.4425 -7.202989,23.4646 -16.114317,32.3964 -11.938381,11.9624 -26.144555,19.1238 -44.027151,18.8037 z"
     id="path36"
     style="stroke-width:0.999613" />
  <path
     d="m -169.24911,1773.8027 c 1.10892,-8.0716 2.13792,-15.5331 3.17691,-23.0046 1.73831,-12.4825 3.47661,-24.9749 5.24489,-37.4574 0.32968,-2.3705 0.94908,-4.7109 1.12891,-7.0914 0.49951,-6.7713 -4.40572,-12.0124 -11.16913,-12.1124 -9.61065,-0.14 -15.80462,5.5511 -17.07339,14.993 -2.048,15.223 -4.13597,30.446 -6.7834,45.569 -1.9481,11.1322 -13.0473,15.9832 -23.23738,12.2024 -5.10503,-1.9004 -8.05216,-8.1316 -7.17302,-14.1328 2.24781,-15.273 4.51561,-30.546 6.77341,-45.8291 2.90717,-19.5939 14.64574,-32.5264 32.00885,-40.2179 11.26903,-4.991 23.51711,-5.1311 35.09584,-0.4201 12.34798,5.031 19.12139,14.9829 22.05853,27.8155 1.66838,7.2914 -0.21978,14.2928 -1.21881,21.3842 -2.42764,17.2334 -4.96517,34.4568 -7.26293,51.7103 -1.05897,7.9515 4.32579,13.8327 12.37795,13.8127 5.04509,-0.01 9.26099,1.4303 12.09822,5.8312 4.09602,6.3512 2.00805,15.6631 -4.45566,21.0541 -5.47467,4.5509 -11.87844,4.5909 -18.23225,3.6207 -14.53586,-2.2204 -25.05562,-10.142 -30.53029,-23.8947 -1.75829,-4.4309 -1.98807,-9.4819 -2.82725,-13.8227 z"
     id="path37"
     style="stroke-width:0.999613" />
  <path
     d="m 93.774906,1707.7396 c -1.318717,10.122 -2.577492,20.264 -3.97613,30.376 -0.829193,5.9712 -1.728318,11.9524 -2.86721,17.8735 -2.297764,11.9124 -16.843607,15.4831 -24.945722,10.1421 -3.916189,-2.5806 -5.644506,-6.6714 -5.075061,-11.3423 0.979047,-8.0216 2.247813,-16.0032 3.366724,-24.0148 0.779241,-5.6311 1.608434,-11.2622 2.217841,-16.9133 1.148882,-10.6921 -6.173991,-19.1738 -16.883568,-19.7439 -16.124307,-0.8502 -28.11264,11.5023 -26.923797,27.5454 0.639378,8.5817 9.620637,16.6033 17.013442,16.1832 1.848201,-0.1 3.766335,-0.08 5.564584,0.3101 6.343826,1.3503 10.659626,8.5417 9.330919,15.253 -1.978075,9.972 -8.102115,14.923 -18.262226,15.033 -17.29317,0.19 -30.2805302,-7.4915 -39.0819644,-22.0144 -6.3737966,-10.512 -7.0930966,-22.1943 -4.6854396,-34.0667 3.4266647,-16.8833 12.5977391,-30.0059 26.783933,-39.5278 15.115289,-10.142 31.7491,-12.1424 48.942367,-7.0114 11.808508,3.5307 19.930603,11.9223 25.275401,22.9845 2.577492,5.3311 3.96614,12.1124 4.225887,18.9238 z"
     id="path38"
     style="stroke-width:0.999613" />
  <path
     d="m -224.06576,1667.2216 c 3.73636,3.3106 3.19689,7.6715 2.58748,12.0123 -3.2868,23.1946 -6.59358,46.3892 -9.93033,69.5838 -0.4196,2.8906 -0.7193,5.8612 -1.65839,8.6017 -3.5965,10.5521 -16.11432,12.9826 -23.56706,8.9618 -5.77438,-3.1206 -6.54363,-8.7817 -5.7544,-14.6229 2.19786,-16.2732 4.52559,-32.5264 6.8833,-48.7697 1.21881,-8.4316 2.67739,-16.8333 3.86624,-25.275 0.6094,-4.3308 2.28777,-7.9715 5.66448,-10.7921 0.31969,-0.2701 0.52949,-0.6701 0.90912,-1.1602 -1.75829,-0.9502 -3.43666,-1.7104 -4.96517,-2.7006 -13.03731,-8.4316 -14.16621,-24.0047 -9.6606,-34.6968 6.00416,-14.2329 16.67377,-22.8946 32.31855,-24.1348 16.83362,-1.3303 29.25153,12.0524 29.40138,25.6451 0.18982,16.7733 -8.09212,27.7255 -22.3982,35.0069 -1.10892,0.5601 -2.21784,1.1202 -3.31677,1.7003 -0.12987,0.07 -0.17982,0.2801 -0.38962,0.6402 z"
     id="path39"
     style="stroke-width:0.999613" />
  <path
     d="m 128.18142,1622.8828 c 1.99806,0.3601 4.08602,0.4501 5.9642,1.1302 4.9252,1.7904 7.6026,5.6711 7.06312,10.9922 -0.83918,8.2916 -2.09796,16.5533 -3.21687,24.8149 -1.54849,11.3522 -3.12695,22.6945 -4.70542,34.0467 -1.96808,14.1628 -3.93617,28.3156 -5.92423,42.4785 -0.8292,5.8911 -1.7483,11.7623 -2.57749,17.6534 -1.5485,11.1323 -13.03732,16.9234 -23.72691,12.8426 -4.195919,-1.6003 -7.13306,-6.3013 -6.733449,-11.1422 0.489524,-6.1012 1.388649,-12.1724 2.237822,-18.2336 3.626467,-25.8451 7.292907,-51.6903 10.969327,-77.5354 1.07895,-7.5515 2.18787,-15.103 3.3867,-22.6345 1.40863,-8.7917 8.05216,-14.2128 17.25321,-14.4228 z"
     id="path40"
     style="stroke-width:0.999613" />
  <path
     d="m 178.89207,1635.7453 c -0.88914,6.3313 -1.78826,12.6625 -2.68739,18.9938 -2.21784,15.6431 -4.45566,31.2962 -6.66351,46.9393 -2.4676,17.5035 -4.75537,35.0269 -7.42278,52.5004 -1.54849,10.132 -11.37892,16.1032 -21.33923,13.4526 -6.164,-1.6403 -9.8604,-7.1414 -8.97127,-13.8427 1.70834,-12.8525 3.5965,-25.6851 5.37477,-38.5276 2.98709,-21.5443 5.89426,-43.0886 8.97127,-64.6228 0.79922,-5.6111 1.61842,-11.2923 3.22686,-16.7033 3.78631,-12.6925 21.12943,-13.4427 26.80391,-6.6113 2.11794,2.5505 2.75732,5.281 2.70737,8.4216 z"
     id="path41"
     style="stroke-width:0.999613" />
  <path
     d="m -325.82672,1651.5385 c 1.3287,-1.8804 2.89718,-3.6508 3.93617,-5.6812 1.36866,-2.6705 2.38767,-5.5411 3.43665,-8.3616 1.19884,-3.2407 2.058,-3.7108 5.88428,-2.6806 -0.94908,3.4807 -1.90815,6.9714 -2.85722,10.4621 -0.2098,0.7702 -0.42959,1.5503 -0.52949,2.3305 -0.36964,2.9606 0.35965,4.2608 2.38768,4.4109 2.43762,0.18 4.46565,-1.5504 4.77535,-3.8908 0.75926,-5.6911 3.04703,-10.5021 8.77146,-12.5825 1.8482,-0.6701 4.116,-0.15 6.18398,-0.2401 0.90912,-0.04 1.81824,-0.16 2.70737,-0.34 1.38865,-0.2901 2.75732,-0.6702 4.92521,-1.2003 -0.60941,2.3705 -0.88914,3.8908 -1.38865,5.3411 -1.08894,3.1906 -2.43763,6.3012 -3.40669,9.5219 -0.78923,2.6405 0.60941,3.9108 3.26682,3.3106 3.20688,-0.7201 4.27584,-2.4104 5.04509,-5.5811 1.8582,-7.6515 4.04607,-15.223 6.19398,-22.7945 0.5095,-1.7803 1.75828,-3.0906 3.7963,-2.2304 1.88816,0.8001 2.91716,2.3204 2.17788,4.4809 -0.54946,1.5903 -1.01901,3.2606 -1.87817,4.6709 -3.30678,5.4311 -4.45566,11.5523 -5.64451,17.6235 -0.7193,3.7107 1.029,4.8909 4.55557,3.3106 1.03899,-0.4601 1.90814,-1.3002 2.92715,-1.8003 0.45955,-0.2301 1.09893,-0.06 1.65839,-0.08 -0.02,0.5601 0.15984,1.2402 -0.0899,1.6603 -2.05799,3.3907 -8.95128,4.8109 -12.20811,2.3705 -1.30873,-0.9802 -2.08797,-0.7002 -3.4966,-0.2401 -2.35771,0.7802 -5.0351,1.4103 -7.42278,1.0502 -1.52851,-0.23 -2.7673,-2.3604 -4.34577,-3.8507 -0.9191,0.7701 -2.3577,2.1304 -3.95615,3.2706 -2.02802,1.4603 -4.07603,2.0104 -6.25391,-0.04 -0.52949,-0.5001 -1.82822,-0.3501 -2.73734,-0.21 -1.37866,0.21 -2.70736,0.8701 -4.09601,0.9902 -4.99514,0.43 -5.46468,0.1 -7.84237,-4.911 -3.08699,3.6707 -6.13403,7.8915 -11.35894,3.1306 -2.74733,2.1904 -5.82434,2.3405 -9.09116,1.6103 -0.89912,-0.2 -1.90814,0.05 -2.85721,0.11 -2.35771,0.1501 -4.71542,0.7402 -6.92327,-0.9301 -0.55945,-0.4301 -1.79825,-0.03 -2.70736,0.09 -2.2578,0.32 -4.51561,0.9902 -6.77341,0.9802 -3.34674,-0.02 -5.66449,-2.7806 -5.08505,-6.0912 0.72929,-4.1909 1.76828,-8.3317 2.86721,-12.4525 0.62939,-2.3405 2.62744,-2.7506 5.94421,-1.2803 -1.15887,4.2009 -2.40765,8.4317 -3.44664,12.7126 -0.3097,1.2602 0.02,2.6805 0.0499,4.0208 1.45858,-0.04 3.12696,0.34 4.33578,-0.2301 1.67837,-0.7901 3.22686,-2.1104 4.43568,-3.5407 1.70834,-2.0204 3.19689,-4.2708 4.5256,-6.5713 0.97905,-1.6903 2.23782,-3.3507 1.42861,-5.7111 -0.25975,-0.7502 0.75926,-2.4905 1.62841,-2.9306 1.1289,-0.5801 2.6774,-0.3201 4.05606,-0.4201 0.01,1.0402 0.02,2.0904 0.04,3.1306 0.02,1.2103 -0.35965,2.6706 0.15984,3.5907 2.2578,3.9608 3.95615,7.8216 0.89913,12.1424 -0.2098,0.2901 -0.0899,0.8102 -0.11989,1.2403 4.40571,-0.11 6.5736,-1.9504 7.42278,-5.7712 0.78923,-3.5507 1.83821,-7.0413 2.76731,-10.552 0.62938,-2.4005 2.31774,-2.2805 4.21589,-1.8504 2.26779,0.5101 1.45858,2.0204 1.09893,3.3307 -0.92909,3.3406 -1.95809,6.6413 -2.83724,9.9919 -0.2997,1.1403 -0.22977,2.3705 -0.32968,3.5607 0.37964,0.1901 0.75927,0.3801 1.1389,0.5701 z m 22.37822,-2.4305 c 0.12987,0.33 0.5095,1.2502 0.88913,2.1704 0.98904,-0.4301 2.34772,-0.5801 2.91716,-1.3303 1.96809,-2.5905 3.73637,-5.331 5.40474,-8.1216 0.47954,-0.8101 0.39961,-1.9604 0.57944,-2.9506 -1.08894,-0.03 -2.3677,-0.44 -3.24684,0 -3.91619,1.9104 -6.28388,5.031 -6.53364,10.2421 z m -39.4616,-6.6914 c -0.51949,-0.17 -1.03899,-0.35 -1.55848,-0.5201 -1.1289,1.7904 -2.47759,3.4807 -3.2868,5.4011 -0.42958,1.0202 -0.37963,3.0806 0.25975,3.5407 1.67836,1.2103 3.45663,0.2201 3.92618,-1.6003 0.55945,-2.1904 0.46954,-4.5409 0.65935,-6.8214 z"
     id="path42"
     style="stroke-width:0.999613" />
  <path
     d="m 29.157794,1719.1919 c 0.0999,-8.5617 9.241006,-16.3433 16.783665,-14.2929 3.95615,1.0702 6.443729,4.5209 5.904254,8.6017 -0.609407,4.661 -1.44859,9.2919 -2.207851,13.9228 -0.169835,1.0602 -0.259748,2.1504 -1.918134,1.8003 -4.135974,-0.8901 -8.30192,-1.6603 -12.447885,-2.4905 -3.706393,-0.7401 -6.154011,-3.7607 -6.114049,-7.5314 z"
     id="path43"
     style="stroke-width:0.999613" />
  <path
     d="m -80.125848,1702.6186 c 5.085051,0.8401 9.71055,1.4803 14.276106,2.4004 4.106004,0.8302 6.49368,4.5509 5.974186,8.7918 -0.769251,6.3312 -7.322873,12.5525 -13.69667,13.0126 -4.895236,0.36 -8.971269,-3.0506 -8.66157,-7.8916 0.35965,-5.5211 1.388648,-11.0022 2.107948,-16.3132 z"
     id="path44"
     style="stroke-width:0.999613" />
  <path
     d="m -329.49315,1728.2737 c 1.93811,-7.1915 0.59941,-14.773 6.7734,-19.6939 2.08797,-1.6604 4.58554,-3.1507 7.13306,-3.8508 6.50367,-1.7804 12.0283,3.8908 10.18009,10.382 -1.71832,6.0512 -5.62452,10.2921 -11.9184,11.6324 -3.75634,0.8001 -7.65255,0.9801 -12.17814,1.5203 z"
     id="path45"
     style="stroke-width:0.999613" />
  <path
     d="m -392.58175,1645.3372 c 0,-7.3714 2.44761,-14.1228 5.48466,-20.6741 1.26876,-2.7205 3.55654,-3.8007 5.73442,-3.3206 1.52851,0.34 1.92812,1.2002 1.37866,2.5005 -0.54947,1.3002 -1.24879,2.5405 -1.96809,3.7507 -3.30678,5.6011 -5.31483,11.6123 -5.4447,18.1436 -0.0799,4.1708 1.95809,5.6211 5.49465,3.4407 2.66741,-1.6503 4.98515,-4.2509 6.72346,-6.9114 1.75829,-2.7005 2.84723,-5.9112 3.76633,-9.0418 0.42958,-1.4503 -0.15984,-3.2406 -0.41959,-4.8509 -0.13986,-0.8602 -0.73928,-1.6604 -0.80921,-2.5105 -0.14986,-2.0304 0.44956,-3.7908 2.72734,-4.2109 2.40766,-0.4401 3.01707,1.3403 3.40669,3.1707 0.13986,0.6801 -0.0799,1.4503 0.10989,2.1104 0.3097,1.0502 0.78923,2.0604 1.27876,3.0506 0.43957,0.8802 0.98903,1.7003 1.48855,2.5505 -0.77924,0.24 -1.57846,0.7301 -2.34772,0.6701 -1.70833,-0.13 -2.05799,0.8402 -2.39766,2.1805 -1.53851,6.1212 -3.84626,11.8823 -9.03121,15.8931 -1.72832,1.3303 -3.7064,2.5505 -5.76439,3.2106 -5.26488,1.7004 -9.18107,-1.2202 -9.43082,-6.7513 -0.04,-0.8002 0,-1.6003 0,-2.4005 z"
     id="path46"
     style="stroke-width:0.999613" />
  <path
     d="m -262.43841,1673.4428 c -3.72638,-3.9008 -7.33287,-7.6715 -10.76952,-11.2822 0.97904,-0.2001 2.90717,-0.7202 4.85527,-0.9302 1.69835,-0.1801 7.86235,7.4715 7.37283,9.1118 -0.34966,1.1602 -1.029,2.2204 -1.45858,3.1106 z"
     id="path47"
     style="stroke-width:0.999613" />
  <path
     d="m -353.72957,1623.2829 c -0.47953,2.4204 -2.30775,4.6909 -3.60649,4.0908 -1.1289,-0.5101 -2.32773,-1.9904 -2.49757,-3.1907 -0.26973,-1.8203 1.06896,-3.3906 3.00708,-3.1506 1.10892,0.13 2.07798,1.4603 3.10697,2.2505 z"
     id="path48"
     style="stroke-width:0.999613" />
</svg>
