# Blender v2.73 (sub 0) OBJ File: 'dropTarget-T4.blend'
# www.blender.org
mtllib dropTarget-T4.mtl
o droptarget_t4.mo_droptarget_t4.m
v -0.300000 -0.100000 0.160074
v -0.300000 0.100000 0.160074
v 0.550000 0.100000 -1.739926
v 0.550000 0.100000 -0.489926
v 0.550000 -0.027760 -1.739926
v 0.550000 -0.097185 -0.489926
v -0.550000 -0.027760 -1.739926
v -0.550000 -0.097185 -0.489926
v -0.550000 0.100000 -1.739926
v -0.550000 0.100000 -0.489926
v -0.535355 0.100000 -1.775281
v -0.535355 -0.025790 -1.775281
v -0.500000 0.100000 -1.789926
v -0.500000 -0.025000 -1.789926
v -0.535355 0.100000 -0.454570
v -0.500000 -0.100000 -0.439926
v -0.500000 0.100000 -0.439926
v -0.535355 -0.099175 -0.454570
v 0.535355 0.100000 -1.775281
v 0.500000 -0.025000 -1.789926
v 0.500000 0.100000 -1.789926
v 0.535355 -0.025790 -1.775281
v 0.535355 0.100000 -0.454570
v 0.535355 -0.099175 -0.454570
v 0.500000 0.100000 -0.439926
v 0.500000 -0.100000 -0.439926
v -0.300000 -0.100000 -0.439926
v -0.300000 0.100000 -0.439926
v 0.300000 0.100000 -0.439926
v 0.300000 -0.100000 -0.439926
v 0.300000 0.100000 0.160074
v 0.300000 -0.100000 0.160074
v 0.550000 0.100000 -1.739926
v 0.550000 0.100000 -0.489926
v 0.550000 -0.097185 -0.489926
v 0.550000 -0.027760 -1.739926
v -0.550000 -0.027760 -1.739926
v -0.550000 -0.097185 -0.489926
v -0.550000 0.100000 -0.489926
v -0.550000 0.100000 -1.739926
v -0.535355 0.100000 -1.775281
v -0.535355 -0.025790 -1.775281
v -0.500000 0.100000 -1.789926
v -0.500000 -0.025000 -1.789926
v -0.500000 0.100000 -0.439926
v -0.535355 0.100000 -0.454570
v -0.535355 -0.099175 -0.454570
v -0.500000 -0.100000 -0.439926
v 0.500000 0.100000 -1.789926
v 0.535355 0.100000 -1.775281
v 0.535355 -0.025790 -1.775281
v 0.500000 -0.025000 -1.789926
v 0.535355 0.100000 -0.454570
v 0.535355 -0.099175 -0.454570
v 0.500000 0.100000 -0.439926
v 0.500000 -0.100000 -0.439926
v -0.300000 -0.100000 -0.439926
v -0.300000 -0.100000 -0.439926
v -0.300000 0.100000 -0.439926
v -0.300000 0.100000 -0.439926
v 0.300000 0.100000 -0.439926
v 0.300000 0.100000 -0.439926
v 0.300000 -0.100000 -0.439926
v 0.300000 -0.100000 -0.439926
v -0.300000 0.100000 0.160074
v 0.300000 0.100000 0.160074
v 0.300000 -0.100000 0.160074
v -0.300000 -0.100000 0.160074
vt 0.407935 0.984000
vt 0.136834 0.984000
vt 0.407935 0.942092
vt 0.136834 0.919318
vt 0.592065 0.942092
vt 0.863166 0.919318
vt 0.592065 0.984000
vt 0.863166 0.984000
vt 0.587311 0.984000
vt 0.587311 0.942738
vt 0.581338 0.984000
vt 0.581338 0.942997
vt 0.873739 0.984000
vt 0.882705 0.918395
vt 0.882705 0.984000
vt 0.873739 0.918666
vt 0.412689 0.984000
vt 0.418662 0.942997
vt 0.418662 0.984000
vt 0.412689 0.942738
vt 0.126261 0.984000
vt 0.126261 0.918666
vt 0.117295 0.984000
vt 0.117295 0.918395
vt 0.926816 0.918395
vt 0.926816 0.984000
vt 0.073184 0.984000
vt 0.073184 0.918395
vt 0.375200 0.313250
vt 0.120200 0.313250
vt 0.120200 0.037000
vt 0.375200 0.037000
vt 0.879800 0.313250
vt 0.624800 0.313250
vt 0.624800 0.037000
vt 0.879800 0.037000
vt 1.000000 0.918395
vt 1.000000 0.984000
vt 0.000000 0.984000
vt 0.000000 0.918395
vt 0.035200 0.887000
vt 0.035200 0.313250
vt 0.460200 0.313250
vt 0.460200 0.887000
vt 0.020174 0.880776
vt 0.020174 0.319474
vt 0.013950 0.865750
vt 0.013950 0.334500
vt 0.475226 0.319474
vt 0.475226 0.880776
vt 0.481450 0.334500
vt 0.481450 0.865750
vt 0.539800 0.887000
vt 0.539800 0.313250
vt 0.964800 0.313250
vt 0.964800 0.887000
vt 0.524774 0.880776
vt 0.524774 0.319474
vt 0.518550 0.865750
vt 0.518550 0.334500
vt 0.979826 0.319474
vt 0.979826 0.880776
vt 0.986050 0.334500
vt 0.986050 0.865750
vn 0.980800 0.000000 -0.195100
vn 0.980800 0.000000 0.195100
vn 0.982100 0.000000 -0.188500
vn 0.979400 0.000000 0.201800
vn -0.982100 0.000000 -0.188500
vn -0.979400 0.000000 0.201800
vn -0.980800 0.000000 -0.195100
vn -0.980800 0.000000 0.195100
vn -0.707100 0.000000 -0.707100
vn -0.713700 0.000000 -0.700400
vn -0.195100 0.000000 -0.980800
vn -0.196400 0.000000 -0.980500
vn -0.707100 0.000000 0.707100
vn -0.193700 0.000000 0.981100
vn -0.195100 0.000000 0.980800
vn -0.700200 0.000000 0.714000
vn 0.707100 0.000000 -0.707100
vn 0.196400 0.000000 -0.980500
vn 0.195100 0.000000 -0.980800
vn 0.713700 0.000000 -0.700400
vn 0.707100 0.000000 0.707100
vn 0.700200 0.000000 0.714000
vn 0.195100 0.000000 0.980800
vn 0.193700 0.000000 0.981100
vn 0.000000 0.000000 1.000000
vn 0.000000 1.000000 0.000000
vn 0.000000 -0.999300 -0.037000
vn 0.000000 -1.000000 0.000000
vn -1.000000 0.000000 0.000000
vn 1.000000 0.000000 -0.000000
vn 0.000300 -0.998500 -0.055500
vn 0.000100 -0.998500 -0.055500
vn -0.000100 -0.998500 -0.055500
vn -0.000300 -0.998500 -0.055500
vn 0.000500 -0.998500 -0.055500
vn 0.000600 -0.998500 -0.055500
vn -0.000400 -0.998500 -0.055500
vn 0.001800 -0.998500 -0.055500
vn -0.000600 -0.998500 -0.055500
vn -0.000500 -0.998500 -0.055500
vn -0.001700 -0.998500 -0.055500
vn 0.000400 -0.998500 -0.055500
usemtl None
s 1
f 3/1/1 4/2/2 5/3/3
f 4/2/2 6/4/4 5/3/3
f 7/5/5 8/6/6 9/7/7
f 8/6/6 10/8/8 9/7/7
f 11/9/9 7/5/5 9/7/7
f 7/5/5 11/9/9 12/10/10
f 13/11/11 12/10/10 11/9/9
f 12/10/10 13/11/11 14/12/12
f 15/13/13 16/14/14 17/15/15
f 16/14/14 15/13/13 18/16/16
f 10/8/8 18/16/16 15/13/13
f 18/16/16 10/8/8 8/6/6
f 19/17/17 20/18/18 21/19/19
f 20/18/18 19/17/17 22/20/20
f 3/1/1 22/20/20 19/17/17
f 22/20/20 3/1/1 5/3/3
f 23/21/21 6/4/4 4/2/2
f 6/4/4 23/21/21 24/22/22
f 25/23/23 24/22/22 23/21/21
f 24/22/22 25/23/23 26/24/24
f 14/12/12 13/11/11 21/19/19
f 21/19/19 20/18/18 14/12/12
f 27/25/25 17/15/15 16/14/14
f 27/25/25 28/26/25 17/15/15
f 26/24/24 29/27/25 30/28/25
f 26/24/24 25/23/23 29/27/25
f 61/29/26 59/30/26 2/31/26
f 2/31/26 31/32/26 61/29/26
f 57/33/27 63/34/27 32/35/28
f 32/35/28 1/36/28 57/33/27
f 60/26/29 58/25/29 68/37/29
f 68/37/29 65/38/29 60/26/29
f 64/28/30 62/27/30 66/39/30
f 66/39/30 67/40/30 64/28/30
f 43/41/26 45/42/26 59/30/26
f 61/29/26 55/43/26 49/44/26
f 59/30/26 49/44/26 43/41/26
f 49/44/26 59/30/26 61/29/26
f 41/45/26 46/46/26 45/42/26
f 45/42/26 43/41/26 41/45/26
f 40/47/26 39/48/26 46/46/26
f 46/46/26 41/45/26 40/47/26
f 55/43/26 53/49/26 49/44/26
f 50/50/26 49/44/26 53/49/26
f 34/51/26 50/50/26 53/49/26
f 34/51/26 33/52/26 50/50/26
f 52/53/31 56/54/32 63/34/27
f 57/33/27 48/55/33 44/56/34
f 63/34/27 44/56/34 52/53/31
f 44/56/34 63/34/27 57/33/27
f 51/57/35 54/58/36 56/54/32
f 56/54/32 52/53/31 51/57/35
f 36/59/37 35/60/38 54/58/36
f 54/58/36 51/57/35 36/59/37
f 48/55/33 47/61/39 44/56/34
f 42/62/40 44/56/34 47/61/39
f 38/63/41 42/62/40 47/61/39
f 38/63/41 37/64/42 42/62/40
