# Blender v2.73 (sub 0) OBJ File: 'dropTarget-T2.blend'
# www.blender.org
mtllib dropTarget-T2.mtl
o droptarget_t2.mo_droptarget_t2.m
v 0.425000 0.150000 -1.487250
v 0.525000 0.150000 -1.487250
v -0.425000 0.150000 -1.487250
v -0.525000 0.150000 -1.487250
v 0.425000 0.150000 -1.637250
v -0.425000 0.150000 -1.637250
v 0.525000 0.250000 -1.637250
v 0.425000 0.250000 -1.637250
v -0.425000 0.250000 -1.637250
v -0.525000 0.250000 -1.637250
v 0.525000 0.250000 -1.737250
v -0.525000 0.250000 -1.737250
v 0.525000 -0.250000 -1.737250
v -0.525000 -0.250000 -1.737250
v 0.525000 -0.250000 -1.637250
v -0.525000 -0.250000 -1.637250
v 0.525000 -0.200000 -1.587250
v -0.525000 -0.200000 -1.587250
v 0.525000 -0.200000 -0.487250
v 0.525000 -0.200000 0.162750
v -0.525000 -0.200000 0.162750
v -0.525000 -0.200000 -0.487250
v -0.525000 -0.050000 0.112750
v -0.525000 0.150000 -0.137250
v 0.525000 0.150000 -0.137250
v 0.525000 -0.050000 0.112750
v -0.525000 -0.050000 0.162750
v 0.525000 -0.050000 0.162750
v -0.525000 0.150000 -0.487250
v 0.525000 0.150000 -0.487250
v 0.173205 0.050000 0.112750
v 0.200000 -0.050000 0.112750
v 0.173205 0.050000 -0.137250
v 0.100000 0.123205 0.112750
v 0.100000 0.123205 -0.137250
v 0.000000 0.150000 0.112750
v 0.000000 0.150000 -0.137250
v -0.100000 0.123205 0.112750
v -0.100000 0.123205 -0.137250
v -0.173205 0.050000 0.112750
v -0.173205 0.050000 -0.137250
v -0.200000 -0.050000 0.112750
v 0.525000 0.150000 -0.487250
v 0.525000 0.150000 -1.487250
v -0.525000 0.150000 -1.487250
v -0.525000 0.150000 -0.487250
v 0.425000 0.150000 -1.487250
v 0.425000 0.150000 -1.637250
v 0.425000 0.150000 -1.637250
v -0.425000 0.150000 -1.637250
v -0.425000 0.150000 -1.637250
v -0.425000 0.150000 -1.487250
v 0.525000 0.250000 -1.637250
v 0.425000 0.250000 -1.637250
v 0.425000 0.250000 -1.637250
v -0.425000 0.250000 -1.637250
v -0.425000 0.250000 -1.637250
v -0.525000 0.250000 -1.637250
v 0.525000 0.250000 -1.737250
v 0.525000 0.250000 -1.737250
v -0.525000 0.250000 -1.737250
v -0.525000 0.250000 -1.737250
v 0.525000 -0.250000 -1.737250
v 0.525000 -0.250000 -1.737250
v -0.525000 -0.250000 -1.737250
v -0.525000 -0.250000 -1.737250
v 0.525000 -0.250000 -1.637250
v 0.525000 -0.250000 -1.637250
v -0.525000 -0.250000 -1.637250
v -0.525000 -0.250000 -1.637250
v 0.525000 -0.200000 -1.587250
v 0.525000 -0.200000 -1.587250
v -0.525000 -0.200000 -1.587250
v -0.525000 -0.200000 -1.587250
v 0.525000 -0.200000 -0.487250
v -0.525000 -0.200000 0.162750
v -0.525000 -0.200000 -0.487250
v -0.525000 -0.050000 0.112750
v -0.525000 -0.050000 0.112750
v -0.525000 0.150000 -0.137250
v -0.525000 0.150000 -0.137250
v 0.525000 0.150000 -0.137250
v 0.525000 0.150000 -0.137250
v 0.525000 -0.050000 0.112750
v 0.525000 -0.050000 0.112750
v 0.525000 -0.200000 0.162750
v -0.525000 -0.050000 0.162750
v 0.525000 -0.050000 0.162750
vt 0.748960 0.667008
vt 0.000105 0.271454
vt 0.827887 0.271454
vt 0.827887 0.667008
vt 0.078932 0.667008
vt 0.000105 0.667008
vt 0.729253 0.725229
vt 0.098638 0.725229
vt 0.827887 0.742751
vt 0.748960 0.742751
vt 0.078932 0.742751
vt 0.000105 0.742751
vt 0.827887 0.773380
vt -0.000032 0.773380
vt 0.827887 0.999860
vt -0.000032 0.999860
vt 0.998321 0.998459
vt 0.838330 0.998459
vt 0.838330 0.987733
vt 0.998321 0.987733
vt 0.838330 0.982370
vt 0.998321 0.982370
vt 0.838330 0.853661
vt 0.838330 0.783944
vt 0.998321 0.783944
vt 0.998321 0.853661
vt 0.999329 0.773380
vt 0.999329 0.742751
vt 0.983095 0.715279
vt 0.862456 0.667008
vt 0.930703 0.019474
vt 0.862456 0.125488
vt 0.983095 0.271454
vt 0.862456 0.271454
vt 0.000105 0.125488
vt 0.000105 0.019474
vt 0.827887 0.019474
vt 0.827887 0.125488
vt 0.982405 0.000215
vt 0.000105 0.000138
vt 0.827887 0.000138
vt 0.930703 0.000215
vt 0.550478 0.125488
vt 0.550478 0.019474
vt 0.571600 0.019474
vt 0.492773 0.019474
vt 0.492773 0.125488
vt 0.413946 0.019474
vt 0.413946 0.125488
vt 0.335119 0.019474
vt 0.335119 0.125488
vt 0.277414 0.019474
vt 0.277414 0.125488
vt 0.256292 0.019474
vn -0.000000 0.989700 0.143300
vn -0.000000 1.000000 0.000000
vn -0.000000 0.957100 0.289800
vn 0.000000 0.981400 0.192200
vn 1.000000 0.000000 0.000000
vn -1.000000 0.000000 0.000000
vn 0.000000 0.000000 1.000000
vn 0.000000 0.000000 -1.000000
vn 0.000000 -1.000000 0.000000
vn 0.000000 -0.707100 0.707100
vn -0.000000 0.780900 0.624700
vn 0.775700 0.631100 0.000000
vn 0.866000 0.500000 0.000000
vn 0.965900 0.258800 0.000000
vn 0.500000 0.866000 0.000000
vn -0.500000 0.866000 0.000000
vn -0.866000 0.500000 0.000000
vn -0.775700 0.631100 0.000000
vn -0.965900 0.258800 0.000000
usemtl None
s 1
f 1/1/1 29/2/2 30/3/2
f 1/1/1 30/3/2 2/4/3
f 3/5/1 4/6/3 29/2/2
f 1/1/1 3/5/1 29/2/2
f 3/5/1 1/1/1 5/7/2
f 5/7/2 6/8/2 3/5/1
f 1/1/1 2/4/3 7/9/3
f 7/9/3 8/10/4 1/1/1
f 4/6/3 3/5/1 9/11/4
f 9/11/4 10/12/3 4/6/3
f 52/5/5 50/8/5 56/11/5
f 54/10/6 48/7/6 47/1/6
f 55/10/7 51/8/7 49/7/7
f 51/8/7 55/10/7 57/11/7
f 8/10/4 7/9/3 11/13/2
f 9/11/4 12/14/2 10/12/3
f 9/11/4 8/10/4 11/13/2
f 11/13/2 12/14/2 9/11/4
f 61/14/8 59/13/8 13/15/8
f 13/15/8 14/16/8 61/14/8
f 65/17/9 63/18/9 15/19/9
f 15/19/9 16/20/9 65/17/9
f 69/20/10 67/19/10 17/21/10
f 17/21/10 18/22/10 69/20/10
f 73/22/9 71/21/9 19/23/9
f 20/24/9 21/25/9 22/26/9
f 62/13/6 66/27/6 70/28/6
f 58/9/6 62/13/6 70/28/6
f 58/9/6 70/28/6 74/29/6
f 45/30/6 58/9/6 74/29/6
f 23/31/6 24/32/6 77/33/6
f 46/34/6 45/30/6 74/29/6
f 68/28/5 64/27/5 60/13/5
f 68/28/5 60/13/5 53/9/5
f 72/29/5 68/28/5 53/9/5
f 72/29/5 53/9/5 44/30/5
f 43/34/5 72/29/5 44/30/5
f 25/32/5 26/31/5 75/33/5
f 30/3/2 29/2/2 80/35/2
f 78/36/11 84/37/11 82/38/11
f 77/33/6 24/32/6 46/34/6
f 75/33/5 26/31/5 86/39/5
f 85/37/2 79/36/2 27/40/2
f 27/40/2 28/41/2 85/37/2
f 86/39/5 26/31/5 88/42/5
f 76/39/6 87/42/6 23/31/6
f 81/35/11 78/36/11 82/38/11
f 77/33/6 46/34/6 74/29/6
f 43/34/5 25/32/5 75/33/5
f 83/38/2 30/3/2 80/35/2
f 22/26/9 73/22/9 19/23/9
f 77/33/6 76/39/6 23/31/6
f 19/23/9 20/24/9 22/26/9
f 75/33/5 72/29/5 43/34/5
f 33/43/12 31/44/13 32/45/14
f 34/46/15 31/44/13 33/43/12
f 33/43/12 35/47/15 34/46/15
f 36/48/2 34/46/15 35/47/15
f 35/47/15 37/49/2 36/48/2
f 38/50/16 36/48/2 37/49/2
f 37/49/2 39/51/16 38/50/16
f 40/52/17 38/50/16 39/51/16
f 39/51/16 41/53/18 40/52/17
f 40/52/17 41/53/18 42/54/19
