# Blender v2.73 (sub 0) OBJ File: 'dropTarget-T3.blend'
# www.blender.org
mtllib dropTarget-T3.mtl
o droptarget_t3.mo_droptarget_t3.m
v 0.525000 0.175000 -1.735199
v 0.525000 0.175000 -0.135199
v 0.525000 -0.175000 -1.735199
v -0.525000 -0.175000 -1.735199
v 0.525000 -0.175000 -0.135199
v 0.525000 -0.175000 0.164801
v -0.525000 -0.175000 0.164801
v -0.525000 -0.175000 -0.135199
v -0.525000 -0.025000 0.114801
v -0.525000 0.175000 -0.135199
v -0.525000 0.175000 -1.735199
v 0.525000 -0.025000 0.114801
v 0.525000 -0.025000 0.164801
v -0.525000 -0.025000 0.164801
v 0.173205 0.075000 -0.135199
v 0.173205 0.075000 0.114801
v 0.200000 -0.025000 0.114801
v 0.100000 0.148205 0.114801
v 0.100000 0.148205 -0.135199
v 0.000000 0.175000 0.114801
v 0.000000 0.175000 -0.135199
v -0.100000 0.148205 0.114801
v -0.100000 0.148205 -0.135199
v -0.173205 0.075000 0.114801
v -0.173205 0.075000 -0.135199
v -0.200000 -0.025000 0.114801
v -0.525000 0.175000 -0.135199
v -0.525000 0.175000 -0.135199
v 0.525000 0.175000 -0.135199
v 0.525000 0.175000 -0.135199
v 0.525000 0.175000 -1.735199
v 0.525000 0.175000 -1.735199
v -0.525000 0.175000 -1.735199
v -0.525000 0.175000 -1.735199
v 0.525000 -0.175000 -1.735199
v 0.525000 -0.175000 -1.735199
v -0.525000 -0.175000 -1.735199
v -0.525000 -0.175000 -1.735199
v 0.525000 -0.175000 -0.135199
v -0.525000 -0.175000 0.164801
v -0.525000 -0.175000 -0.135199
v -0.525000 -0.025000 0.114801
v -0.525000 -0.025000 0.114801
v 0.525000 -0.025000 0.114801
v 0.525000 -0.025000 0.114801
v 0.525000 -0.175000 0.164801
v -0.525000 -0.025000 0.164801
v 0.525000 -0.025000 0.164801
vt 0.827424 0.771919
vt 0.003450 0.145488
vt 0.827424 0.145488
vt 0.003450 0.771919
vt 0.827424 0.999115
vt 0.003450 0.999115
vt 0.998321 0.999115
vt 0.838330 0.999115
vt 0.838330 0.853661
vt 0.838330 0.783944
vt 0.998321 0.783944
vt 0.998321 0.853661
vt 0.930703 0.019474
vt 0.862456 0.145488
vt 0.982750 0.145488
vt 0.862456 0.771919
vt 0.982750 0.771919
vt 0.003450 0.019474
vt 0.827424 0.019474
vt 0.982750 0.000215
vt 0.003450 0.000138
vt 0.827424 0.000138
vt 0.930703 0.000215
vt 0.550478 0.145488
vt 0.550478 0.019474
vt 0.571600 0.019474
vt 0.492773 0.019474
vt 0.492773 0.145488
vt 0.413946 0.019474
vt 0.413946 0.145488
vt 0.335119 0.019474
vt 0.335119 0.145488
vt 0.277414 0.019474
vt 0.277414 0.145488
vt 0.256292 0.019474
vn 0.000000 1.000000 0.000000
vn 0.000000 0.000000 -1.000000
vn 0.000000 -1.000000 0.000000
vn -1.000000 -0.000000 0.000000
vn 1.000000 0.000000 0.000000
vn 0.000000 0.780900 0.624700
vn 0.775700 0.631100 0.000000
vn 0.866000 0.500000 0.000000
vn 0.965900 0.258800 0.000000
vn 0.500000 0.866000 0.000000
vn -0.500000 0.866000 0.000000
vn -0.866000 0.500000 0.000000
vn -0.775700 0.631100 0.000000
vn -0.965900 0.258800 0.000000
usemtl None
s 1
f 1/1/1 10/2/1 2/3/1
f 1/1/1 11/4/1 10/2/1
f 33/4/2 31/1/2 3/5/2
f 3/5/2 4/6/2 33/4/2
f 37/7/3 35/8/3 5/9/3
f 6/10/3 7/11/3 8/12/3
f 9/13/4 27/14/4 41/15/4
f 27/14/4 34/16/4 38/17/4
f 29/14/5 36/17/5 32/16/5
f 29/14/5 12/13/5 39/15/5
f 42/18/6 44/19/6 30/3/6
f 39/15/5 12/13/5 46/20/5
f 45/19/1 43/18/1 14/21/1
f 14/21/1 13/22/1 45/19/1
f 46/20/5 12/13/5 48/23/5
f 40/20/4 47/23/4 9/13/4
f 28/2/6 42/18/6 30/3/6
f 41/15/4 27/14/4 38/17/4
f 8/12/3 37/7/3 5/9/3
f 41/15/4 40/20/4 9/13/4
f 5/9/3 6/10/3 8/12/3
f 39/15/5 36/17/5 29/14/5
f 15/24/7 16/25/8 17/26/9
f 18/27/10 16/25/8 15/24/7
f 15/24/7 19/28/10 18/27/10
f 20/29/1 18/27/10 19/28/10
f 19/28/10 21/30/1 20/29/1
f 22/31/11 20/29/1 21/30/1
f 21/30/1 23/32/11 22/31/11
f 24/33/12 22/31/11 23/32/11
f 23/32/11 25/34/13 24/33/12
f 24/33/12 25/34/13 26/35/14
