# Blender v2.73 (sub 0) OBJ File: 'gates.blend'
# www.blender.org
mtllib gateWireW.mtl
o Gate2Wire
v -0.384004 0.000002 -0.007804
v -0.384004 -0.004240 -0.006047
v -0.384004 0.000002 -0.001804
v -0.384004 -0.005998 -0.001804
v -0.384004 0.004245 -0.006047
v -0.384004 -0.004240 0.002438
v -0.384004 0.006002 -0.001804
v -0.384004 0.000002 0.004196
v -0.384004 0.004245 0.002438
v -0.000004 0.000002 0.166195
v 0.012725 0.000002 0.171467
v 0.011482 -0.004241 0.172709
v 0.114512 -0.004241 0.339680
v -0.000004 0.004245 0.167952
v 0.111512 -0.005998 0.342680
v -0.000004 -0.004241 0.167952
v 0.008483 -0.005998 0.175709
v 0.115754 0.000002 0.338437
v -0.000004 -0.005998 0.172195
v 0.011482 0.004245 0.172709
v 0.119998 -0.004241 0.341952
v -0.000004 0.006002 0.172195
v 0.119998 -0.005998 0.346195
v 0.114512 0.004245 0.339680
v 0.119998 0.000002 0.340195
v 0.008483 0.006002 0.175709
v 0.119998 0.004245 0.341952
v 0.111512 0.006002 0.342680
v -0.000002 0.004245 0.176437
v 0.005482 0.004245 0.178710
v 0.119998 0.006002 0.346195
v 0.108512 0.004245 0.345680
v -0.000002 0.000002 0.178195
v 0.004240 0.000002 0.179952
v 0.119998 0.004245 0.350437
v 0.107269 0.000002 0.346923
v -0.000004 -0.004241 0.176437
v 0.005482 -0.004241 0.178710
v 0.119998 0.000002 0.352195
v 0.108512 -0.004241 0.345680
v 0.119998 -0.004241 0.350437
v 0.221997 -0.004241 0.350437
v 0.221997 -0.005998 0.346194
v 0.221997 -0.004241 0.341952
v 0.221997 0.000002 0.352194
v 0.221997 0.000002 0.340194
v 0.221997 0.004245 0.350437
v 0.221997 0.004245 0.341952
v 0.221997 0.006002 0.346194
v 0.226239 0.000002 0.338437
v 0.227482 0.004245 0.339680
v 0.230482 0.006002 0.342680
v 0.233483 0.004245 0.345680
v 0.234725 0.000002 0.346922
v 0.233997 0.006002 0.334194
v 0.233483 -0.004241 0.345680
v 0.238240 0.004245 0.334194
v 0.239998 0.000002 0.334194
v 0.230482 -0.005998 0.342680
v 0.238240 -0.004241 0.334194
v 0.227482 -0.004241 0.339680
v 0.233997 -0.005998 0.334194
v 0.229755 -0.004241 0.334194
v 0.227997 0.000002 0.334194
v 0.229755 -0.004241 0.010194
v 0.229755 0.004245 0.334194
v 0.227996 0.000002 0.010194
v 0.229755 0.004245 0.010194
v 0.233997 0.006002 0.010194
v 0.238240 0.004245 0.010194
v 0.234512 0.004245 -0.001291
v 0.239996 0.000002 0.010194
v 0.237511 0.006002 0.001709
v 0.240511 0.004245 0.004709
v 0.238240 -0.004241 0.010194
v 0.241754 0.000002 0.005952
v 0.233997 -0.005998 0.010194
v 0.240511 -0.004241 0.004709
v 0.237511 -0.005998 0.001709
v 0.234512 -0.004241 -0.001291
v 0.245996 -0.004241 0.002437
v 0.233268 0.000002 -0.002534
v 0.245996 -0.005998 -0.001806
v 0.245996 -0.004241 -0.006048
v 0.245996 0.000002 -0.007806
v 0.383997 -0.005998 -0.001806
v 0.383997 -0.004241 -0.006049
v 0.383997 -0.004241 0.002437
v 0.383997 0.000002 -0.007806
v 0.383997 0.000002 0.004194
v 0.245996 0.004245 -0.006048
v 0.383997 0.004244 -0.006049
v 0.245996 0.006002 -0.001806
v 0.383997 0.006002 -0.001806
v 0.245996 0.004245 0.002437
v 0.383997 0.004244 0.002437
v 0.245996 0.000002 0.004194
v -0.222003 -0.004240 0.350438
v -0.222003 0.000002 0.352195
v -0.234731 0.000002 0.346923
v -0.233488 -0.004240 0.345681
v -0.120002 0.000002 0.352195
v -0.240002 0.000002 0.334195
v -0.120002 -0.004240 0.350438
v -0.222003 -0.005998 0.346195
v -0.238246 -0.004240 0.334195
v -0.230488 -0.005998 0.342681
v -0.120002 -0.005998 0.346195
v -0.222003 -0.004240 0.341953
v -0.234003 -0.005998 0.334195
v -0.227488 -0.004240 0.339681
v -0.120002 -0.004240 0.341952
v -0.222003 0.000002 0.340195
v -0.229761 -0.004240 0.334195
v -0.226246 0.000002 0.338438
v -0.120002 0.000002 0.340195
v -0.222003 0.004245 0.341953
v -0.228003 0.000002 0.334195
v -0.227488 0.004245 0.339681
v -0.120002 0.004245 0.341952
v -0.222003 0.006002 0.346195
v -0.229761 0.004245 0.334195
v -0.230488 0.006002 0.342681
v -0.120002 0.006002 0.346195
v -0.222003 0.004245 0.350438
v -0.234003 0.006002 0.334195
v -0.233488 0.004245 0.345681
v -0.120002 0.004245 0.350438
v -0.238246 0.004245 0.334195
v -0.238246 0.004245 0.010195
v -0.240004 0.000002 0.010195
v -0.238246 -0.004240 0.010195
v -0.234004 0.006002 0.010195
v -0.234004 -0.005998 0.010195
v -0.229761 0.004245 0.010195
v -0.229761 -0.004240 0.010195
v -0.228004 0.000002 0.010195
v -0.237518 -0.005998 0.001710
v -0.234519 -0.004240 -0.001290
v -0.233276 0.000002 -0.002533
v -0.234519 0.004245 -0.001290
v -0.237518 0.006002 0.001710
v -0.246003 0.000002 -0.007805
v -0.240519 0.004245 0.004710
v -0.246003 0.004245 -0.006047
v -0.246003 0.006002 -0.001805
v -0.241760 0.000002 0.005953
v -0.384004 0.006002 -0.001804
v -0.384004 0.004245 -0.006047
v -0.384004 0.004245 0.002438
v -0.384004 0.000002 -0.007804
v -0.246003 0.004245 0.002438
v -0.384004 0.000002 0.004196
v -0.246003 -0.004240 -0.006047
v -0.384004 -0.004240 -0.006047
v -0.246003 -0.005998 -0.001805
v -0.384004 -0.005998 -0.001804
v -0.246003 -0.004240 0.002438
v -0.384004 -0.004240 0.002438
v -0.240519 -0.004240 0.004710
v -0.246003 0.000002 0.004195
v -0.012731 0.000002 0.171467
v -0.011489 0.004245 0.172710
v -0.008489 0.006002 0.175710
v -0.011489 -0.004241 0.172710
v -0.005488 0.004245 0.178710
v -0.008489 -0.005998 0.175710
v -0.004246 0.000002 0.179952
v -0.005488 -0.004241 0.178710
v -0.107275 0.000002 0.346923
v -0.108518 -0.004240 0.345680
v -0.111517 -0.005998 0.342680
v -0.108518 0.004245 0.345680
v -0.114518 -0.004240 0.339680
v -0.115761 0.000002 0.338438
v -0.114518 0.004245 0.339680
v -0.111517 0.006002 0.342680
v 0.383997 0.000002 -0.007806
v 0.383997 0.004244 -0.006049
v 0.383997 0.000002 -0.001806
v 0.383997 0.006002 -0.001806
v 0.383997 -0.004241 -0.006049
v 0.383997 0.004244 0.002437
v 0.383997 -0.005998 -0.001806
v 0.383997 0.000002 0.004194
v 0.383997 -0.004241 0.002437
vt 0.500000 0.500000
vn -1.000000 0.000000 0.000000
vn 0.000000 0.000000 -1.000000
vn 0.652400 0.000000 -0.757900
vn 0.479600 -0.670500 -0.566000
vn 0.430000 -0.745900 -0.508700
vn 0.000000 0.663000 -0.748600
vn -0.044300 -0.997000 0.062500
vn 0.000000 -0.663000 -0.748600
vn 0.044400 -0.997000 -0.062600
vn 0.643100 0.000000 -0.765700
vn 0.000000 -0.995500 -0.094800
vn 0.479600 0.670500 -0.566000
vn 0.136300 -0.726300 -0.673700
vn 0.000000 0.995500 -0.094800
vn -0.019600 -0.998700 0.047300
vn 0.430000 0.745800 -0.508700
vn 0.204900 0.000000 -0.978800
vn 0.044400 0.997000 -0.062600
vn 0.136300 0.726300 -0.673700
vn -0.044300 0.997000 0.062500
vn -0.000000 0.757400 0.652900
vn -0.430000 0.745900 0.508600
vn -0.019600 0.998700 0.047300
vn -0.479600 0.670600 0.565900
vn -0.000100 0.000000 1.000000
vn -0.643100 -0.000000 0.765700
vn -0.144700 0.679400 0.719300
vn -0.652400 0.000000 0.757900
vn 0.000000 -0.757400 0.652900
vn -0.430000 -0.745800 0.508700
vn -0.186500 0.000000 0.982400
vn -0.479600 -0.670600 0.565900
vn -0.144700 -0.679400 0.719300
vn 0.144700 -0.679400 0.719300
vn 0.019600 -0.998700 0.047200
vn -0.136300 -0.726300 -0.673600
vn 0.186500 0.000000 0.982400
vn -0.204800 0.000000 -0.978800
vn 0.144700 0.679400 0.719400
vn -0.136300 0.726300 -0.673700
vn 0.019600 0.998700 0.047200
vn -0.707100 0.000000 -0.707100
vn -0.461700 0.757400 -0.461700
vn 0.067000 0.995500 0.067000
vn 0.529300 0.663000 0.529300
vn 0.707100 0.000000 0.707100
vn 0.047200 0.998700 0.019600
vn 0.529300 -0.663000 0.529300
vn 0.719300 0.679400 0.144700
vn 0.982400 0.000000 0.186500
vn 0.067000 -0.995500 0.067000
vn 0.719300 -0.679400 0.144700
vn -0.461700 -0.757400 -0.461700
vn 0.047200 -0.998700 0.019500
vn -0.673700 -0.726300 -0.136300
vn -0.978800 0.000000 -0.204900
vn -0.719200 -0.679500 -0.144700
vn -0.673700 0.726300 -0.136300
vn -0.982400 0.000000 -0.186500
vn -0.719200 0.679500 -0.144700
vn -0.047300 0.998700 -0.019600
vn 0.673700 0.726300 0.136300
vn -0.529300 0.663100 -0.529300
vn 0.978800 0.000000 0.204900
vn -0.067100 0.995500 -0.067100
vn 0.461700 0.757400 0.461700
vn 0.673700 -0.726300 0.136300
vn -0.047300 -0.998700 -0.019600
vn 0.461700 -0.757400 0.461700
vn -0.067100 -0.995500 -0.067000
vn -0.529300 -0.663100 -0.529300
vn 0.136300 -0.726300 0.673700
vn -0.019600 -0.998700 -0.047300
vn -0.144700 -0.679400 -0.719300
vn -0.186500 0.000000 -0.982400
vn -0.000000 -1.000000 -0.000000
vn -0.000000 -0.707100 -0.707100
vn -0.000000 -0.707100 0.707100
vn -0.000000 0.000000 1.000000
vn -0.144700 0.679400 -0.719300
vn -0.000000 0.707100 -0.707100
vn -0.019600 0.998700 -0.047300
vn 0.000000 1.000000 -0.000000
vn 0.136300 0.726300 0.673700
vn 0.000000 0.707100 0.707100
vn 0.204900 -0.000000 0.978800
vn -0.144700 -0.679300 0.719400
vn -0.186600 0.000000 0.982400
vn -0.707100 -0.000000 0.707100
vn -0.529300 -0.663000 0.529400
vn 0.186600 0.000000 0.982400
vn -0.982400 -0.000000 0.186500
vn 0.144800 -0.679300 0.719400
vn -0.019600 -0.998700 0.047200
vn -0.719400 -0.679300 0.144800
vn -0.067100 -0.995500 0.067100
vn 0.019600 -0.998700 0.047300
vn -0.047200 -0.998700 0.019600
vn 0.461700 -0.757300 -0.461800
vn -0.136300 -0.726200 -0.673700
vn 0.204800 0.000000 -0.978800
vn 0.673800 -0.726200 -0.136300
vn 0.707100 -0.000000 -0.707000
vn 0.136200 0.726300 -0.673700
vn 0.978800 -0.000100 -0.204800
vn 0.461700 0.757400 -0.461700
vn -0.019600 0.998700 0.047200
vn 0.673700 0.726300 -0.136300
vn -0.067100 0.995500 0.067000
vn 0.019600 0.998700 0.047300
vn -0.144700 0.679400 0.719400
vn -0.047200 0.998700 0.019600
vn -0.529300 0.663000 0.529300
vn 0.144800 0.679400 0.719400
vn -0.719400 0.679400 0.144700
vn -0.673600 0.726300 0.136300
vn -0.978800 -0.000100 0.204800
vn -0.673700 -0.726200 0.136300
vn 0.047200 0.998700 -0.019600
vn 0.047200 -0.998700 -0.019600
vn 0.719400 0.679300 -0.144800
vn 0.719400 -0.679300 -0.144800
vn 0.982400 -0.000000 -0.186600
vn 0.067100 -0.995500 -0.067100
vn 0.529300 -0.663000 -0.529300
vn 0.707100 -0.000000 -0.707100
vn 0.529300 0.663000 -0.529300
vn 0.067100 0.995500 -0.067000
vn 0.186600 0.000000 -0.982400
vn -0.461700 0.757400 0.461700
vn 0.144700 0.679400 -0.719300
vn 0.019600 0.998700 -0.047300
vn -0.707200 -0.000100 0.707000
vn 0.000000 0.707200 0.707100
vn -0.136300 0.726300 0.673700
vn 0.144700 -0.679400 -0.719300
vn 0.019600 -0.998700 -0.047300
vn -0.136300 -0.726200 0.673700
vn -0.461700 -0.757300 0.461800
vn -0.204900 -0.000000 0.978800
vn -0.652300 0.000000 -0.757900
vn -0.479700 0.670500 -0.565900
vn -0.044300 0.997000 -0.062600
vn -0.479700 -0.670500 -0.565900
vn 0.430000 0.745800 0.508700
vn -0.044300 -0.997000 -0.062600
vn 0.643100 0.000000 0.765800
vn 0.430000 -0.745800 0.508700
vn 0.652400 0.000000 0.757900
vn 0.479700 -0.670500 0.565900
vn 0.044400 -0.997000 0.062600
vn 0.479600 0.670600 0.565900
vn -0.430100 -0.745800 -0.508700
vn -0.643100 0.000000 -0.765700
vn -0.430000 0.745800 -0.508700
vn 0.044400 0.997000 0.062600
vn 1.000000 -0.000000 0.000000
usemtl None
s 1
f 1/1/1 2/1/1 3/1/1
f 2/1/1 4/1/1 3/1/1
f 5/1/1 1/1/1 3/1/1
f 4/1/1 6/1/1 3/1/1
f 7/1/1 5/1/1 3/1/1
f 6/1/1 8/1/1 3/1/1
f 9/1/1 7/1/1 3/1/1
f 8/1/1 9/1/1 3/1/1
f 10/1/2 11/1/3 12/1/4
f 13/1/5 12/1/4 11/1/3
f 14/1/6 11/1/3 10/1/2
f 13/1/5 15/1/7 12/1/4
f 12/1/4 16/1/8 10/1/2
f 15/1/7 17/1/9 12/1/4
f 16/1/8 12/1/4 17/1/9
f 18/1/10 13/1/5 11/1/3
f 17/1/9 19/1/11 16/1/8
f 11/1/3 20/1/12 18/1/10
f 11/1/3 14/1/6 20/1/12
f 21/1/13 13/1/5 18/1/10
f 22/1/14 20/1/12 14/1/6
f 13/1/5 21/1/13 23/1/15
f 23/1/15 15/1/7 13/1/5
f 18/1/10 20/1/12 24/1/16
f 18/1/10 25/1/17 21/1/13
f 24/1/16 25/1/17 18/1/10
f 20/1/12 26/1/18 24/1/16
f 20/1/12 22/1/14 26/1/18
f 25/1/17 24/1/16 27/1/19
f 24/1/16 26/1/18 28/1/20
f 28/1/20 27/1/19 24/1/16
f 29/1/21 26/1/18 22/1/14
f 26/1/18 30/1/22 28/1/20
f 26/1/18 29/1/21 30/1/22
f 27/1/19 28/1/20 31/1/23
f 28/1/20 30/1/22 32/1/24
f 32/1/24 31/1/23 28/1/20
f 30/1/22 29/1/21 33/1/25
f 30/1/22 34/1/26 32/1/24
f 33/1/25 34/1/26 30/1/22
f 31/1/23 32/1/24 35/1/27
f 32/1/24 34/1/26 36/1/28
f 36/1/28 35/1/27 32/1/24
f 34/1/26 33/1/25 37/1/29
f 36/1/28 34/1/26 38/1/30
f 37/1/29 38/1/30 34/1/26
f 35/1/27 36/1/28 39/1/31
f 40/1/32 36/1/28 38/1/30
f 39/1/31 36/1/28 40/1/32
f 40/1/32 38/1/30 17/1/9
f 15/1/7 40/1/32 17/1/9
f 19/1/11 17/1/9 38/1/30
f 38/1/30 37/1/29 19/1/11
f 41/1/33 40/1/32 15/1/7
f 40/1/32 41/1/33 39/1/31
f 15/1/7 23/1/15 41/1/33
f 39/1/31 41/1/33 42/1/34
f 41/1/33 23/1/15 43/1/35
f 43/1/35 42/1/34 41/1/33
f 44/1/36 43/1/35 23/1/15
f 23/1/15 21/1/13 44/1/36
f 42/1/34 45/1/37 39/1/31
f 35/1/27 39/1/31 45/1/37
f 46/1/38 44/1/36 21/1/13
f 21/1/13 25/1/17 46/1/38
f 45/1/37 47/1/39 35/1/27
f 31/1/23 35/1/27 47/1/39
f 48/1/40 46/1/38 25/1/17
f 25/1/17 27/1/19 48/1/40
f 27/1/19 31/1/23 49/1/41
f 49/1/41 48/1/40 27/1/19
f 47/1/39 49/1/41 31/1/23
f 48/1/40 50/1/42 46/1/38
f 49/1/41 51/1/43 48/1/40
f 50/1/42 48/1/40 51/1/43
f 47/1/39 52/1/44 49/1/41
f 51/1/43 49/1/41 52/1/44
f 45/1/37 53/1/45 47/1/39
f 52/1/44 47/1/39 53/1/45
f 53/1/45 45/1/37 54/1/46
f 54/1/46 45/1/37 42/1/34
f 53/1/45 55/1/47 52/1/44
f 42/1/34 56/1/48 54/1/46
f 56/1/48 42/1/34 43/1/35
f 54/1/46 57/1/49 53/1/45
f 55/1/47 53/1/45 57/1/49
f 58/1/50 54/1/46 56/1/48
f 57/1/49 54/1/46 58/1/50
f 43/1/35 59/1/51 56/1/48
f 59/1/51 43/1/35 44/1/36
f 56/1/48 60/1/52 58/1/50
f 60/1/52 56/1/48 59/1/51
f 44/1/36 61/1/53 59/1/51
f 61/1/53 44/1/36 46/1/38
f 46/1/38 50/1/42 61/1/53
f 62/1/54 59/1/51 61/1/53
f 59/1/51 62/1/54 60/1/52
f 63/1/55 61/1/53 50/1/42
f 61/1/53 63/1/55 62/1/54
f 50/1/42 64/1/56 63/1/55
f 51/1/43 64/1/56 50/1/42
f 62/1/54 63/1/55 65/1/57
f 64/1/56 51/1/43 66/1/58
f 52/1/44 66/1/58 51/1/43
f 66/1/58 52/1/44 55/1/47
f 63/1/55 64/1/56 67/1/59
f 67/1/59 65/1/57 63/1/55
f 64/1/56 66/1/58 68/1/60
f 68/1/60 67/1/59 64/1/56
f 66/1/58 55/1/47 69/1/61
f 69/1/61 68/1/60 66/1/58
f 70/1/62 69/1/61 55/1/47
f 55/1/47 57/1/49 70/1/62
f 69/1/61 71/1/63 68/1/60
f 72/1/64 70/1/62 57/1/49
f 57/1/49 58/1/50 72/1/64
f 70/1/62 73/1/65 69/1/61
f 71/1/63 69/1/61 73/1/65
f 72/1/64 74/1/66 70/1/62
f 73/1/65 70/1/62 74/1/66
f 75/1/67 72/1/64 58/1/50
f 58/1/50 60/1/52 75/1/67
f 74/1/66 72/1/64 76/1/46
f 76/1/46 72/1/64 75/1/67
f 77/1/68 75/1/67 60/1/52
f 60/1/52 62/1/54 77/1/68
f 65/1/57 77/1/68 62/1/54
f 78/1/69 75/1/67 77/1/68
f 75/1/67 78/1/69 76/1/46
f 79/1/70 77/1/68 65/1/57
f 77/1/68 79/1/70 78/1/69
f 65/1/57 80/1/71 79/1/70
f 80/1/71 65/1/57 67/1/59
f 81/1/72 78/1/69 79/1/70
f 67/1/59 82/1/42 80/1/71
f 68/1/60 82/1/42 67/1/59
f 82/1/42 68/1/60 71/1/63
f 83/1/73 79/1/70 80/1/71
f 79/1/70 83/1/73 81/1/72
f 84/1/74 80/1/71 82/1/42
f 80/1/71 84/1/74 83/1/73
f 71/1/63 85/1/75 82/1/42
f 82/1/42 85/1/75 84/1/74
f 86/1/76 83/1/73 84/1/74
f 84/1/74 87/1/77 86/1/76
f 87/1/77 84/1/74 85/1/75
f 83/1/73 86/1/76 88/1/78
f 88/1/78 81/1/72 83/1/73
f 85/1/75 89/1/2 87/1/77
f 81/1/72 88/1/78 90/1/79
f 89/1/2 85/1/75 91/1/80
f 85/1/75 71/1/63 91/1/80
f 91/1/80 92/1/81 89/1/2
f 73/1/65 91/1/80 71/1/63
f 92/1/81 91/1/80 93/1/82
f 91/1/80 73/1/65 93/1/82
f 93/1/82 94/1/83 92/1/81
f 74/1/66 93/1/82 73/1/65
f 94/1/83 93/1/82 95/1/84
f 93/1/82 74/1/66 95/1/84
f 95/1/84 96/1/85 94/1/83
f 76/1/46 95/1/84 74/1/66
f 96/1/85 95/1/84 97/1/86
f 95/1/84 76/1/46 97/1/86
f 97/1/86 90/1/79 96/1/85
f 90/1/79 97/1/86 81/1/72
f 97/1/86 76/1/46 78/1/69
f 78/1/69 81/1/72 97/1/86
f 98/1/87 99/1/88 100/1/89
f 100/1/89 101/1/90 98/1/87
f 102/1/91 99/1/88 98/1/87
f 101/1/90 100/1/89 103/1/92
f 98/1/87 104/1/93 102/1/91
f 105/1/94 98/1/87 101/1/90
f 104/1/93 98/1/87 105/1/94
f 103/1/92 106/1/95 101/1/90
f 101/1/90 107/1/96 105/1/94
f 107/1/96 101/1/90 106/1/95
f 105/1/94 108/1/97 104/1/93
f 109/1/13 105/1/94 107/1/96
f 108/1/97 105/1/94 109/1/13
f 106/1/95 110/1/98 107/1/96
f 107/1/96 111/1/99 109/1/13
f 111/1/99 107/1/96 110/1/98
f 109/1/13 112/1/100 108/1/97
f 113/1/101 109/1/13 111/1/99
f 112/1/100 109/1/13 113/1/101
f 110/1/98 114/1/102 111/1/99
f 111/1/99 115/1/103 113/1/101
f 115/1/103 111/1/99 114/1/102
f 113/1/101 116/1/38 112/1/100
f 113/1/101 115/1/103 117/1/104
f 116/1/38 113/1/101 117/1/104
f 114/1/102 118/1/105 115/1/103
f 119/1/106 117/1/104 115/1/103
f 115/1/103 118/1/105 119/1/106
f 117/1/104 120/1/40 116/1/38
f 117/1/104 119/1/106 121/1/107
f 120/1/40 117/1/104 121/1/107
f 122/1/108 119/1/106 118/1/105
f 123/1/109 121/1/107 119/1/106
f 119/1/106 122/1/108 123/1/109
f 121/1/107 124/1/110 120/1/40
f 121/1/107 123/1/109 125/1/111
f 124/1/110 121/1/107 125/1/111
f 126/1/112 123/1/109 122/1/108
f 127/1/113 125/1/111 123/1/109
f 123/1/109 126/1/112 127/1/113
f 125/1/111 127/1/113 99/1/88
f 100/1/89 99/1/88 127/1/113
f 128/1/114 125/1/111 99/1/88
f 125/1/111 128/1/114 124/1/110
f 99/1/88 102/1/91 128/1/114
f 127/1/113 129/1/115 100/1/89
f 129/1/115 127/1/113 126/1/112
f 103/1/92 100/1/89 129/1/115
f 130/1/116 129/1/115 126/1/112
f 131/1/117 103/1/92 129/1/115
f 129/1/115 130/1/116 131/1/117
f 103/1/92 131/1/117 132/1/118
f 132/1/118 106/1/95 103/1/92
f 126/1/112 133/1/119 130/1/116
f 133/1/119 126/1/112 122/1/108
f 106/1/95 132/1/118 134/1/120
f 134/1/120 110/1/98 106/1/95
f 122/1/108 135/1/121 133/1/119
f 135/1/121 122/1/108 118/1/105
f 110/1/98 134/1/120 136/1/122
f 136/1/122 114/1/102 110/1/98
f 137/1/123 118/1/105 114/1/102
f 114/1/102 136/1/122 137/1/123
f 118/1/105 137/1/123 135/1/121
f 136/1/122 134/1/120 138/1/124
f 137/1/123 136/1/122 139/1/125
f 138/1/124 139/1/125 136/1/122
f 137/1/123 140/1/126 135/1/121
f 139/1/125 140/1/126 137/1/123
f 135/1/121 141/1/127 133/1/119
f 141/1/127 135/1/121 140/1/126
f 142/1/128 133/1/119 141/1/127
f 133/1/119 142/1/128 130/1/116
f 140/1/126 143/1/129 141/1/127
f 144/1/130 130/1/116 142/1/128
f 130/1/116 144/1/130 131/1/117
f 141/1/127 145/1/131 142/1/128
f 145/1/131 141/1/127 143/1/129
f 142/1/128 146/1/132 144/1/130
f 146/1/132 142/1/128 145/1/131
f 147/1/133 131/1/117 144/1/130
f 132/1/118 131/1/117 147/1/133
f 148/1/83 146/1/132 145/1/131
f 145/1/131 149/1/81 148/1/83
f 149/1/81 145/1/131 143/1/129
f 146/1/132 148/1/83 150/1/134
f 143/1/129 151/1/2 149/1/81
f 150/1/134 152/1/135 146/1/132
f 152/1/135 144/1/130 146/1/132
f 144/1/130 152/1/135 147/1/133
f 152/1/135 150/1/134 153/1/79
f 151/1/2 143/1/129 154/1/136
f 154/1/136 143/1/129 140/1/126
f 154/1/136 155/1/77 151/1/2
f 140/1/126 139/1/125 154/1/136
f 155/1/77 154/1/136 156/1/137
f 156/1/137 154/1/136 139/1/125
f 156/1/137 157/1/76 155/1/77
f 139/1/125 138/1/124 156/1/137
f 157/1/76 156/1/137 158/1/138
f 158/1/138 156/1/137 138/1/124
f 158/1/138 159/1/78 157/1/76
f 138/1/124 160/1/139 158/1/138
f 160/1/139 138/1/124 134/1/120
f 134/1/120 132/1/118 160/1/139
f 147/1/133 160/1/139 132/1/118
f 159/1/78 158/1/138 161/1/140
f 161/1/140 158/1/138 160/1/139
f 160/1/139 147/1/133 161/1/140
f 161/1/140 153/1/79 159/1/78
f 161/1/140 147/1/133 152/1/135
f 153/1/79 161/1/140 152/1/135
f 10/1/2 162/1/141 163/1/142
f 163/1/142 14/1/6 10/1/2
f 16/1/8 162/1/141 10/1/2
f 14/1/6 163/1/142 164/1/143
f 164/1/143 22/1/14 14/1/6
f 162/1/141 16/1/8 165/1/144
f 19/1/11 165/1/144 16/1/8
f 22/1/14 164/1/143 166/1/145
f 166/1/145 29/1/21 22/1/14
f 165/1/144 19/1/11 167/1/146
f 37/1/29 167/1/146 19/1/11
f 29/1/21 166/1/145 168/1/147
f 168/1/147 33/1/25 29/1/21
f 169/1/148 37/1/29 33/1/25
f 33/1/25 168/1/147 169/1/148
f 167/1/146 37/1/29 169/1/148
f 170/1/149 168/1/147 166/1/145
f 169/1/148 168/1/147 171/1/150
f 171/1/150 168/1/147 170/1/149
f 167/1/146 169/1/148 172/1/151
f 172/1/151 169/1/148 171/1/150
f 173/1/152 170/1/149 166/1/145
f 173/1/152 166/1/145 164/1/143
f 170/1/149 104/1/93 171/1/150
f 108/1/97 171/1/150 104/1/93
f 171/1/150 108/1/97 172/1/151
f 104/1/93 170/1/149 102/1/91
f 102/1/91 170/1/149 173/1/152
f 112/1/100 172/1/151 108/1/97
f 173/1/152 128/1/114 102/1/91
f 172/1/151 112/1/100 174/1/153
f 174/1/153 167/1/146 172/1/151
f 165/1/144 167/1/146 174/1/153
f 116/1/38 174/1/153 112/1/100
f 175/1/154 165/1/144 174/1/153
f 174/1/153 116/1/38 175/1/154
f 162/1/141 165/1/144 175/1/154
f 175/1/154 116/1/38 120/1/40
f 175/1/154 176/1/155 162/1/141
f 120/1/40 176/1/155 175/1/154
f 176/1/155 163/1/142 162/1/141
f 176/1/155 120/1/40 124/1/110
f 176/1/155 177/1/156 163/1/142
f 124/1/110 177/1/156 176/1/155
f 177/1/156 164/1/143 163/1/142
f 177/1/156 124/1/110 128/1/114
f 177/1/156 173/1/152 164/1/143
f 128/1/114 173/1/152 177/1/156
f 178/1/157 179/1/157 180/1/157
f 179/1/157 181/1/157 180/1/157
f 182/1/157 178/1/157 180/1/157
f 181/1/157 183/1/157 180/1/157
f 184/1/157 182/1/157 180/1/157
f 183/1/157 185/1/157 180/1/157
f 186/1/157 184/1/157 180/1/157
f 185/1/157 186/1/157 180/1/157
