# Blender v2.73 (sub 0) OBJ File: 'gates.blend'
# www.blender.org
mtllib gateLongPlate.mtl
o gate_heavy_t2.mo_gate_heavy_t2.m
v -0.138000 -0.004875 0.489790
v 0.161000 -0.004875 0.469790
v 0.138000 -0.004875 0.489790
v -0.161000 -0.004875 0.469790
v 0.161000 0.005125 0.469790
v 0.138000 0.005125 0.489790
v -0.161000 0.005125 0.469790
v -0.138000 0.005125 0.489790
v 0.264500 0.005125 0.009790
v 0.264500 -0.004875 0.009790
v -0.264500 0.005125 0.009790
v -0.264500 -0.004875 0.009790
v -0.264500 -0.004875 -0.010210
v -0.264500 0.005125 -0.010210
v 0.264500 0.005125 -0.010210
v 0.264500 -0.004875 -0.010210
v -0.379500 -0.004875 -0.010210
v -0.379500 -0.004875 0.009790
v -0.379500 0.005125 0.009790
v -0.379500 0.005125 -0.010210
v 0.379500 -0.004875 -0.010210
v 0.379500 0.005125 0.009790
v 0.379500 -0.004875 0.009790
v 0.379500 0.005125 -0.010210
v -0.138000 -0.004875 0.489790
v -0.161000 -0.004875 0.469790
v 0.138000 -0.004875 0.489790
v 0.161000 -0.004875 0.469790
v 0.161000 0.005125 0.469790
v 0.138000 0.005125 0.489790
v -0.161000 0.005125 0.469790
v -0.138000 0.005125 0.489790
v 0.264500 -0.004875 0.009790
v 0.264500 -0.004875 0.009790
v -0.264500 -0.004875 0.009790
v -0.264500 -0.004875 0.009790
v -0.264500 0.005125 0.009790
v -0.264500 0.005125 0.009790
v 0.264500 0.005125 0.009790
v 0.264500 0.005125 0.009790
v -0.264500 0.005125 -0.010210
v 0.264500 0.005125 -0.010210
v 0.264500 -0.004875 -0.010210
v -0.264500 -0.004875 -0.010210
v -0.379500 -0.004875 0.009790
v -0.379500 -0.004875 0.009790
v -0.379500 0.005125 0.009790
v -0.379500 0.005125 0.009790
v -0.379500 0.005125 -0.010210
v -0.379500 0.005125 -0.010210
v -0.379500 -0.004875 -0.010210
v -0.379500 -0.004875 -0.010210
v 0.379500 0.005125 0.009790
v 0.379500 0.005125 0.009790
v 0.379500 -0.004875 0.009790
v 0.379500 -0.004875 0.009790
v 0.379500 -0.004875 -0.010210
v 0.379500 -0.004875 -0.010210
v 0.379500 0.005125 -0.010210
v 0.379500 0.005125 -0.010210
vt 0.840909 0.074368
vt 0.856061 0.104671
vt 0.659091 0.074368
vt 0.643939 0.104671
vt 0.014204 0.893680
vt 0.014204 0.925632
vt 0.000000 0.925632
vt 0.000000 0.893680
vt 0.340909 0.074368
vt 0.143939 0.104671
vt 0.159091 0.074368
vt 0.356061 0.104671
vt 0.857728 0.925632
vt 0.857728 0.893680
vt 0.871932 0.893680
vt 0.871932 0.925632
vt 1.000000 0.893680
vt 1.000000 0.925632
vt 0.273084 0.893680
vt 0.598883 0.893680
vt 0.598883 0.925632
vt 0.575758 0.801641
vt 0.924242 0.801641
vt 0.424242 0.801641
vt 0.075758 0.801641
vt 0.542522 0.893680
vt 0.542522 0.925632
vt 0.329680 0.925632
vt 0.329680 0.893680
vt 0.273084 0.925632
vt 0.568093 0.925632
vt 0.573709 0.893680
vt 0.573709 0.925632
vt 0.568093 0.893680
vt 0.075758 0.831944
vt 0.424242 0.831944
vt 0.304109 0.893680
vt 0.298368 0.925632
vt 0.298368 0.893680
vt 0.304109 0.925632
vt 0.924242 0.831944
vt 0.575758 0.831944
vt 1.000000 0.831944
vt 1.000000 0.801641
vt 0.000000 0.831944
vt 0.000000 0.801641
vt 0.500000 0.801641
vt 0.500000 0.831944
vn -0.000000 -1.000000 0.000000
vn 0.858600 0.000000 0.512600
vn 0.350300 0.000000 0.936600
vn 0.000000 1.000000 -0.000000
vn -0.858600 0.000000 0.512600
vn -0.350300 0.000000 0.936600
vn 0.975600 0.000000 0.219500
vn -0.975600 0.000000 0.219500
vn -0.000000 0.000000 -1.000000
vn -1.000000 0.000000 0.000000
vn 1.000000 0.000000 0.000000
vn -0.000000 0.000000 1.000000
usemtl None
s 1
f 1/1/1 4/2/1 3/3/1
f 2/4/1 3/3/1 4/2/1
f 28/5/2 5/6/2 6/7/3
f 6/7/3 27/8/3 28/5/2
f 30/9/4 7/10/4 8/11/4
f 7/10/4 30/9/4 29/12/4
f 31/13/5 26/14/5 25/15/6
f 25/15/6 32/16/6 31/13/5
f 32/16/6 25/15/6 27/17/3
f 27/17/3 6/18/3 32/16/6
f 10/19/7 5/6/2 28/5/2
f 12/20/8 26/14/5 11/21/8
f 33/22/1 2/4/1 35/23/1
f 9/24/4 37/25/4 29/12/4
f 13/26/9 14/27/9 15/28/9
f 15/28/9 16/29/9 13/26/9
f 35/23/1 2/4/1 4/2/1
f 11/21/8 26/14/5 31/13/5
f 39/30/7 5/6/2 10/19/7
f 37/25/4 7/10/4 29/12/4
f 20/31/10 18/32/10 19/33/10
f 17/34/10 18/32/10 20/31/10
f 9/24/4 41/35/4 37/25/4
f 42/36/4 41/35/4 9/24/4
f 21/37/11 22/38/11 23/39/11
f 24/40/11 22/38/11 21/37/11
f 44/41/1 33/22/1 35/23/1
f 43/42/1 33/22/1 44/41/1
f 51/43/1 44/41/1 35/23/1
f 51/43/1 35/23/1 45/44/1
f 47/33/12 36/20/12 38/21/12
f 46/32/12 36/20/12 47/33/12
f 49/45/4 37/25/4 41/35/4
f 48/46/4 37/25/4 49/45/4
f 52/34/9 14/27/9 13/26/9
f 50/31/9 14/27/9 52/34/9
f 55/39/12 40/30/12 34/19/12
f 53/38/12 40/30/12 55/39/12
f 56/47/1 33/22/1 43/42/1
f 56/47/1 43/42/1 57/48/1
f 54/47/4 42/36/4 9/24/4
f 59/48/4 42/36/4 54/47/4
f 60/40/9 16/29/9 15/28/9
f 58/37/9 16/29/9 60/40/9
