# Blender v2.77 (sub 0) OBJ File: ''
# www.blender.org
mtllib kickerSimpleHole.mtl
o Mesh_0039.001
v 0.886581 0.344621 0.572013
v 0.886581 0.344621 -0.063986
v 0.943995 0.018753 0.572013
v 0.943995 0.018750 -0.063986
v 0.721268 0.631187 0.572014
v 0.721268 0.631187 -0.063986
v 0.467997 0.843881 0.572014
v 0.467997 0.843882 -0.063986
v 0.157308 0.957056 0.572014
v 0.157308 0.957056 -0.063986
v -0.173319 0.957056 0.572014
v -0.173319 0.957056 -0.063986
v -0.484004 0.843881 0.572014
v -0.484004 0.843882 -0.063986
v -0.737278 0.631184 0.572014
v -0.737275 0.631181 -0.063986
v -0.902587 0.344624 0.572013
v -0.902587 0.344624 -0.063986
v -0.960005 0.018750 0.572013
v -0.960002 0.018750 -0.063986
v -0.902592 -0.307114 0.572013
v -0.902587 -0.307114 -0.063987
v -0.737282 -0.593678 0.572013
v -0.737278 -0.593678 -0.063987
v -0.484004 -0.806380 0.572013
v -0.484004 -0.806379 -0.063987
v 0.157308 -0.919553 0.572013
v 0.157308 -0.919553 -0.063987
v -0.153030 -0.926944 0.572013
v -0.153027 -0.926944 -0.063987
v 0.467997 -0.806380 0.572013
v 0.467997 -0.806379 -0.063987
v 0.737707 -0.565194 0.572013
v 0.737707 -0.565194 -0.063987
v 0.738408 -0.579289 0.572013
v 0.738408 -0.579289 -0.063987
v 0.886581 -0.307114 0.572013
v 0.886581 -0.307114 -0.063987
v -0.173315 -0.919553 -0.063987
v -0.173319 -0.919553 0.572013
v 0.721275 -0.593682 -0.063987
v 0.721271 -0.593682 0.572013
vt 0.045600 0.102900
vt 0.045600 -0.000000
vt 0.069900 0.102900
vt 0.069900 -0.000000
vt 0.024300 0.102900
vt 0.024300 -0.000000
vt 0.008400 0.102900
vt 0.008400 -0.000000
vt 0.000000 0.102900
vt 0.000000 -0.000000
vt 0.000000 0.102900
vt 0.000000 -0.000000
vt 0.008400 0.102900
vt 0.008400 -0.000000
vt 0.024300 0.102900
vt 0.024300 -0.000000
vt 0.045600 0.102900
vt 0.045600 -0.000000
vt 0.069900 0.102900
vt 0.069900 -0.000000
vt 0.094200 0.102900
vt 0.094200 -0.000000
vt 0.115600 0.102900
vt 0.115600 -0.000000
vt 0.131400 0.102900
vt 0.131400 -0.000000
vt 0.140400 0.102900
vt 0.139800 -0.000000
vt 0.140400 0.102900
vt 0.139800 -0.000000
vt 0.131400 0.102900
vt 0.131400 -0.000000
vt 0.113400 0.102900
vt 0.113400 -0.000000
vt 0.114500 0.102900
vt 0.114500 -0.000000
vt 0.094200 0.102900
vt 0.094200 -0.000000
vt 0.139800 -0.000000
vt 0.140400 0.102900
vt 0.115600 -0.000000
vt 0.115600 0.102900
vn -0.939800 -0.341800 -0.000000
vn -1.000000 -0.000000 -0.000000
vn -0.766300 -0.642500 -0.000000
vn -0.500300 -0.865900 -0.000000
vn -0.173800 -0.984800 0.000000
vn 0.173800 -0.984800 0.000000
vn 0.500300 -0.865900 0.000000
vn 0.766300 -0.642500 0.000000
vn 0.939800 -0.341800 0.000000
vn 1.000000 -0.000000 0.000000
vn 0.939800 0.341800 0.000000
vn 0.766300 0.642500 0.000000
vn 0.500300 0.865900 0.000000
vn -0.185500 0.982600 0.000000
vn 0.162100 0.986800 0.000000
vn -0.500300 0.865900 -0.000000
vn -0.972100 0.234600 0.000000
vn -0.916600 0.399800 0.000000
vn -0.916600 0.399700 -0.000000
vn -0.939800 0.341800 -0.000000
vn 0.342300 0.939600 0.000000
vn -0.643200 0.765700 -0.000000
vn -0.643100 0.765800 -0.000000
usemtl Tex_0024_0_dds
s 1
f 1/1/1 2/2/1 3/3/2
f 3/3/2 2/2/1 4/4/2
f 5/5/3 6/6/3 1/1/1
f 1/1/1 6/6/3 2/2/1
f 7/7/4 8/8/4 5/5/3
f 5/5/3 8/8/4 6/6/3
f 9/9/5 10/10/5 7/7/4
f 7/7/4 10/10/5 8/8/4
f 11/11/6 12/12/6 9/9/5
f 9/9/5 12/12/6 10/10/5
f 13/13/7 14/14/7 11/11/6
f 11/11/6 14/14/7 12/12/6
f 15/15/8 16/16/8 13/13/7
f 13/13/7 16/16/8 14/14/7
f 17/17/9 18/18/9 15/15/8
f 15/15/8 18/18/9 16/16/8
f 19/19/10 20/20/10 17/17/9
f 17/17/9 20/20/10 18/18/9
f 21/21/11 22/22/11 19/19/10
f 19/19/10 22/22/11 20/20/10
f 23/23/12 24/24/12 21/21/11
f 21/21/11 24/24/12 22/22/11
f 25/25/13 26/26/13 23/23/12
f 23/23/12 26/26/13 24/24/12
f 27/27/14 28/28/14 29/29/15
f 29/29/15 28/28/14 30/30/15
f 31/31/16 32/32/16 27/27/14
f 27/27/14 32/32/16 28/28/14
f 33/33/17 34/34/17 35/35/18
f 35/35/18 34/34/17 36/36/19
f 3/3/2 4/4/2 37/37/20
f 37/37/20 4/4/2 38/38/20
f 37/37/20 38/38/20 33/33/17
f 33/33/17 38/38/20 34/34/17
f 26/26/13 25/25/13 39/39/21
f 25/25/13 40/40/21 39/39/21
f 39/39/21 40/40/21 30/30/15
f 40/40/21 29/29/15 30/30/15
f 32/32/16 31/31/16 41/41/22
f 31/31/16 42/42/23 41/41/22
f 41/41/22 42/42/23 36/36/19
f 42/42/23 35/35/18 36/36/19
