# Blender v2.77 (sub 0) OBJ File: ''
# www.blender.org
o midBall
v 0.084444 0.259892 -0.961938
v 0.273267 0.000000 -0.961938
v 0.000000 0.000000 -1.000000
v 0.361803 0.262866 -0.894427
v 0.525731 0.000000 -0.850651
v 0.162460 0.500000 -0.850651
v 0.617865 0.264677 -0.740398
v 0.738175 0.000000 -0.674609
v 0.442653 0.505835 -0.740398
v 0.228109 0.702046 -0.674609
v 0.822619 0.259892 -0.505721
v 0.894427 0.000000 -0.447214
v 0.688191 0.500000 -0.525731
v 0.501375 0.702046 -0.505721
v 0.276393 0.850651 -0.447214
v -0.221077 0.160622 -0.961938
v 0.000000 0.000000 -1.000000
v -0.138197 0.425325 -0.894427
v -0.425325 0.309017 -0.850651
v -0.060792 0.669414 -0.740398
v -0.344290 0.577300 -0.740398
v -0.597196 0.433888 -0.674609
v 0.007031 0.862668 -0.505721
v -0.262866 0.809017 -0.525731
v -0.512752 0.693780 -0.505721
v -0.723607 0.525731 -0.447214
v -0.221077 -0.160622 -0.961938
v -0.221077 0.160622 -0.961938
v 0.000000 0.000000 -1.000000
v -0.447214 0.000000 -0.894427
v -0.425325 0.309017 -0.850651
v -0.425325 -0.309017 -0.850651
v -0.655436 0.149044 -0.740398
v -0.655436 0.149044 -0.740398
v -0.655436 -0.149044 -0.740398
v -0.597196 -0.433889 -0.674609
v -0.818274 0.273266 -0.505721
v -0.850651 0.000000 -0.525731
v -0.818274 0.273266 -0.505721
v -0.818274 -0.273267 -0.505721
v -0.723607 -0.525731 -0.447214
v 0.084444 -0.259892 -0.961938
v 0.000000 0.000000 -1.000000
v -0.138197 -0.425325 -0.894427
v 0.162460 -0.500000 -0.850651
v -0.344290 -0.577300 -0.740398
v -0.060792 -0.669414 -0.740398
v 0.228109 -0.702046 -0.674609
v -0.512752 -0.693780 -0.505721
v -0.262865 -0.809017 -0.525731
v 0.007032 -0.862668 -0.505721
v 0.276393 -0.850651 -0.447214
v 0.000000 0.000000 -1.000000
v 0.361803 -0.262866 -0.894427
v 0.442653 -0.505835 -0.740398
v 0.617865 -0.264677 -0.740398
v 0.501375 -0.702046 -0.505721
v 0.688191 -0.500000 -0.525731
v 0.822619 -0.259892 -0.505721
v 0.959253 0.160622 -0.232454
v 0.959253 -0.160622 -0.232454
v 1.000000 0.000000 0.000000
v 0.951056 -0.309017 -0.000000
v 0.951056 0.309017 0.000000
v 0.955352 -0.149044 0.255124
v 0.870463 -0.433889 0.232454
v 0.955352 0.149044 0.255124
v 0.870463 0.433889 0.232454
v 0.818274 -0.273267 0.505721
v 0.723607 -0.525731 0.447214
v 0.850651 -0.000000 0.525731
v 0.818274 0.273266 0.505721
v 0.723607 0.525731 0.447214
v 0.143665 0.961938 -0.232454
v 0.449186 0.862668 -0.232454
v 0.309017 0.951056 0.000000
v 0.587785 0.809017 0.000000
v 0.000000 1.000000 0.000000
v 0.436969 0.862537 0.255124
v 0.681640 0.693780 0.232454
v 0.153471 0.954651 0.255124
v -0.143665 0.961938 0.232454
v 0.512752 0.693780 0.505721
v 0.262866 0.809017 0.525731
v -0.007031 0.862668 0.505721
v -0.276393 0.850651 0.447214
v -0.870463 0.433888 -0.232454
v -0.681640 0.693780 -0.232454
v -0.809017 0.587785 0.000000
v -0.587785 0.809017 0.000000
v -0.951056 0.309017 0.000000
v -0.685290 0.682121 0.255124
v -0.449186 0.862668 0.232454
v -0.860502 0.440963 0.255124
v -0.959253 0.160622 0.232454
v -0.501375 0.702046 0.505721
v -0.688191 0.500000 0.525731
v -0.822619 0.259892 0.505721
v -0.894427 -0.000000 0.447214
v -0.822619 0.259892 0.505721
v -0.959253 0.160622 0.232454
v -0.681640 -0.693781 -0.232454
v -0.870463 -0.433889 -0.232454
v -0.809017 -0.587785 -0.000000
v -0.951056 -0.309017 -0.000000
v -0.587785 -0.809017 -0.000000
v -0.860502 -0.440963 0.255124
v -0.959253 -0.160622 0.232454
v -0.685290 -0.682121 0.255124
v -0.449186 -0.862669 0.232454
v -0.822619 -0.259892 0.505721
v -0.688191 -0.500000 0.525731
v -0.501375 -0.702047 0.505721
v -0.276393 -0.850651 0.447214
v 0.449186 -0.862668 -0.232454
v 0.143665 -0.961938 -0.232454
v 0.309017 -0.951056 -0.000000
v 0.000000 -1.000000 -0.000000
v 0.587785 -0.809017 -0.000000
v 0.153471 -0.954651 0.255124
v -0.143664 -0.961938 0.232454
v 0.436969 -0.862537 0.255124
v 0.681640 -0.693780 0.232454
v -0.007031 -0.862668 0.505721
v 0.262866 -0.809017 0.525731
v 0.512752 -0.693780 0.505721
v 0.809017 0.587785 0.000000
v 0.685290 0.682121 -0.255124
v 0.860502 0.440963 -0.255124
v -0.309017 0.951057 0.000000
v -0.436969 0.862537 -0.255124
v -0.153471 0.954651 -0.255124
v -1.000000 0.000000 0.000000
v -0.951056 0.309017 0.000000
v -0.955352 -0.149044 -0.255124
v -0.955352 0.149044 -0.255124
v -0.955352 0.149044 -0.255124
v -0.309017 -0.951057 -0.000000
v -0.153471 -0.954651 -0.255124
v -0.436969 -0.862537 -0.255124
v 0.809017 -0.587785 -0.000000
v 0.860502 -0.440963 -0.255124
v 0.685290 -0.682121 -0.255124
v 0.221077 0.160622 0.961938
v -0.084444 0.259892 0.961938
v 0.000000 -0.000000 1.000000
v 0.138197 0.425325 0.894427
v -0.162460 0.500000 0.850651
v 0.425325 0.309017 0.850651
v 0.060792 0.669414 0.740398
v -0.228109 0.702046 0.674609
v 0.344290 0.577300 0.740398
v 0.597196 0.433889 0.674609
v -0.084444 0.259892 0.961938
v -0.273267 -0.000000 0.961938
v 0.000000 -0.000000 1.000000
v -0.361803 0.262866 0.894427
v -0.525731 -0.000000 0.850651
v -0.361803 0.262866 0.894427
v -0.617865 0.264677 0.740398
v -0.738175 -0.000000 0.674609
v -0.442653 0.505835 0.740398
v -0.617865 0.264677 0.740398
v -0.084444 -0.259892 0.961938
v 0.000000 -0.000000 1.000000
v -0.361803 -0.262866 0.894427
v -0.162460 -0.500000 0.850651
v -0.442653 -0.505835 0.740398
v -0.228108 -0.702046 0.674609
v -0.617865 -0.264677 0.740398
v 0.221077 -0.160622 0.961938
v 0.000000 -0.000000 1.000000
v 0.138197 -0.425325 0.894427
v 0.425325 -0.309017 0.850651
v 0.344290 -0.577300 0.740398
v 0.597196 -0.433889 0.674609
v 0.060792 -0.669414 0.740398
v 0.000000 -0.000000 1.000000
v 0.447214 -0.000000 0.894427
v 0.655436 0.149044 0.740398
v 0.655436 -0.149044 0.740398
vt 0.7000 0.0881
vt 0.5000 0.0881
vt 0.6000 0.0000
vt 0.6000 0.1476
vt 0.5000 0.1762
vt 0.7000 0.1762
vt 0.5644 0.2346
vt 0.5000 0.2643
vt 0.6356 0.2346
vt 0.7000 0.2643
vt 0.5487 0.3312
vt 0.5000 0.3524
vt 0.6000 0.3238
vt 0.6513 0.3312
vt 0.7000 0.3524
vt 0.9000 0.0881
vt 0.8000 0.0000
vt 0.8000 0.1476
vt 0.9000 0.1762
vt 0.7644 0.2346
vt 0.8356 0.2346
vt 0.9000 0.2643
vt 0.7487 0.3312
vt 0.8000 0.3238
vt 0.8513 0.3312
vt 0.9000 0.3524
vt 0.1000 0.0881
vt -0.1000 0.0881
vt 0.0000 0.0000
vt 0.0000 0.1476
vt -0.1000 0.1762
vt 0.1000 0.1762
vt 0.9644 0.2346
vt -0.0356 0.2346
vt 0.0356 0.2346
vt 0.1000 0.2643
vt 0.9487 0.3312
vt 0.0000 0.3238
vt -0.0513 0.3312
vt 0.0513 0.3312
vt 0.1000 0.3524
vt 0.3000 0.0881
vt 0.2000 0.0000
vt 0.2000 0.1476
vt 0.3000 0.1762
vt 0.1644 0.2346
vt 0.2356 0.2346
vt 0.3000 0.2643
vt 0.1487 0.3312
vt 0.2000 0.3238
vt 0.2513 0.3312
vt 0.3000 0.3524
vt 0.4000 0.0000
vt 0.4000 0.1476
vt 0.3644 0.2346
vt 0.4356 0.2346
vt 0.3487 0.3312
vt 0.4000 0.3238
vt 0.4513 0.3312
vt 0.5264 0.4253
vt 0.4736 0.4253
vt 0.5000 0.5000
vt 0.4500 0.5000
vt 0.5500 0.5000
vt 0.4754 0.5821
vt 0.4264 0.5747
vt 0.5246 0.5821
vt 0.5736 0.5747
vt 0.4487 0.6688
vt 0.4000 0.6476
vt 0.5000 0.6762
vt 0.5513 0.6688
vt 0.6000 0.6476
vt 0.7264 0.4253
vt 0.6736 0.4253
vt 0.7000 0.5000
vt 0.6500 0.5000
vt 0.7500 0.5000
vt 0.6754 0.5821
vt 0.6264 0.5747
vt 0.7246 0.5821
vt 0.7736 0.5747
vt 0.6487 0.6688
vt 0.7000 0.6762
vt 0.7513 0.6688
vt 0.8000 0.6476
vt 0.9264 0.4253
vt 0.8736 0.4253
vt 0.9000 0.5000
vt 0.8500 0.5000
vt 0.9500 0.5000
vt 0.8754 0.5821
vt 0.8264 0.5747
vt 0.9246 0.5821
vt 0.9736 0.5747
vt 0.8487 0.6688
vt 0.9000 0.6762
vt 0.9513 0.6688
vt 0.0000 0.6476
vt -0.0487 0.6688
vt -0.0264 0.5747
vt 0.1264 0.4253
vt 0.0736 0.4253
vt 0.1000 0.5000
vt 0.0500 0.5000
vt 0.1500 0.5000
vt 0.0754 0.5821
vt 0.0264 0.5747
vt 0.1246 0.5821
vt 0.1736 0.5747
vt 0.0487 0.6688
vt 0.1000 0.6762
vt 0.1513 0.6688
vt 0.2000 0.6476
vt 0.3264 0.4253
vt 0.2736 0.4253
vt 0.3000 0.5000
vt 0.2500 0.5000
vt 0.3500 0.5000
vt 0.2754 0.5821
vt 0.2264 0.5747
vt 0.3246 0.5821
vt 0.3736 0.5747
vt 0.2487 0.6688
vt 0.3000 0.6762
vt 0.3513 0.6688
vt 0.6000 0.5000
vt 0.6246 0.4179
vt 0.5754 0.4179
vt 0.8000 0.5000
vt 0.8246 0.4179
vt 0.7754 0.4179
vt 0.0000 0.5000
vt -0.0500 0.5000
vt 0.0246 0.4179
vt -0.0246 0.4179
vt 0.9754 0.4179
vt 0.2000 0.5000
vt 0.2246 0.4179
vt 0.1754 0.4179
vt 0.4000 0.5000
vt 0.4246 0.4179
vt 0.3754 0.4179
vt 0.6000 0.9119
vt 0.8000 0.9119
vt 0.7000 1.0000
vt 0.7000 0.8524
vt 0.8000 0.8238
vt 0.6000 0.8238
vt 0.7356 0.7654
vt 0.8000 0.7357
vt 0.6644 0.7654
vt 0.6000 0.7357
vt -0.2000 0.9119
vt 0.0000 0.9119
vt -0.1000 1.0000
vt -0.1000 0.8524
vt 0.0000 0.8238
vt 0.9000 0.8524
vt -0.0644 0.7654
vt 0.0000 0.7357
vt 0.8644 0.7654
vt 0.9356 0.7654
vt 0.2000 0.9119
vt 0.1000 1.0000
vt 0.1000 0.8524
vt 0.2000 0.8238
vt 0.1356 0.7654
vt 0.2000 0.7357
vt 0.0644 0.7654
vt 0.4000 0.9119
vt 0.3000 1.0000
vt 0.3000 0.8524
vt 0.4000 0.8238
vt 0.3356 0.7654
vt 0.4000 0.7357
vt 0.2644 0.7654
vt 0.5000 1.0000
vt 0.5000 0.8524
vt 0.5356 0.7654
vt 0.4644 0.7654
vn 0.0838 0.2580 -0.9625
vn 0.2713 0.0000 -0.9625
vn -0.0000 -0.0000 -1.0000
vn 0.3638 0.2643 -0.8932
vn 0.5250 0.0000 -0.8511
vn 0.1622 0.4993 -0.8511
vn 0.6197 0.2680 -0.7376
vn 0.7394 0.0000 -0.6732
vn 0.4464 0.5066 -0.7376
vn 0.2285 0.7032 -0.6732
vn 0.8219 0.2615 -0.5060
vn 0.8944 0.0000 -0.4472
vn 0.6882 0.5000 -0.5257
vn 0.5027 0.7009 -0.5060
vn 0.2764 0.8507 -0.4472
vn -0.2195 0.1595 -0.9625
vn -0.1390 0.4277 -0.8932
vn -0.4248 0.3086 -0.8511
vn -0.0634 0.6722 -0.7376
vn -0.3438 0.5811 -0.7376
vn -0.5982 0.4346 -0.6732
vn 0.0053 0.8625 -0.5060
vn -0.2629 0.8090 -0.5257
vn -0.5112 0.6947 -0.5060
vn -0.7236 0.5257 -0.4472
vn -0.2195 -0.1595 -0.9625
vn -0.4497 0.0000 -0.8932
vn -0.4248 -0.3086 -0.8511
vn -0.6589 0.1474 -0.7376
vn -0.6589 -0.1474 -0.7376
vn -0.5982 -0.4346 -0.6732
vn -0.8187 0.2715 -0.5060
vn -0.8507 0.0000 -0.5257
vn -0.8187 0.2716 -0.5060
vn -0.8187 -0.2715 -0.5060
vn -0.7236 -0.5257 -0.4472
vn 0.0838 -0.2580 -0.9625
vn -0.1390 -0.4277 -0.8932
vn 0.1622 -0.4993 -0.8511
vn -0.3438 -0.5811 -0.7376
vn -0.0634 -0.6722 -0.7376
vn 0.2285 -0.7032 -0.6732
vn -0.5112 -0.6947 -0.5060
vn -0.2629 -0.8090 -0.5257
vn 0.0053 -0.8625 -0.5060
vn 0.2764 -0.8507 -0.4472
vn 0.3638 -0.2643 -0.8932
vn 0.4464 -0.5066 -0.7376
vn 0.6197 -0.2680 -0.7376
vn 0.5027 -0.7009 -0.5060
vn 0.6882 -0.5000 -0.5257
vn 0.8219 -0.2615 -0.5060
vn 0.9584 0.1615 -0.2353
vn 0.9584 -0.1615 -0.2353
vn 1.0000 0.0000 0.0028
vn 0.9511 -0.3090 0.0000
vn 0.9511 0.3090 0.0000
vn 0.9544 -0.1474 0.2595
vn 0.8703 -0.4327 0.2353
vn 0.9544 0.1474 0.2595
vn 0.8703 0.4327 0.2353
vn 0.8187 -0.2715 0.5060
vn 0.7236 -0.5257 0.4472
vn 0.8507 0.0000 0.5257
vn 0.8187 0.2715 0.5060
vn 0.7236 0.5257 0.4472
vn 0.1426 0.9614 -0.2353
vn 0.4497 0.8616 -0.2353
vn 0.3090 0.9511 0.0027
vn 0.5878 0.8090 0.0000
vn 0.0000 1.0000 0.0000
vn 0.4351 0.8622 0.2595
vn 0.6805 0.6940 0.2353
vn 0.1547 0.9533 0.2595
vn -0.1426 0.9614 0.2353
vn 0.5112 0.6947 0.5060
vn 0.2629 0.8090 0.5257
vn -0.0053 0.8625 0.5060
vn -0.2764 0.8507 0.4472
vn -0.8703 0.4327 -0.2353
vn -0.6805 0.6940 -0.2353
vn -0.8090 0.5878 0.0027
vn -0.5878 0.8090 0.0000
vn -0.9511 0.3090 -0.0000
vn -0.6855 0.6803 0.2595
vn -0.4497 0.8616 0.2353
vn -0.8588 0.4417 0.2595
vn -0.9584 0.1615 0.2353
vn -0.5027 0.7009 0.5060
vn -0.6882 0.5000 0.5257
vn -0.8219 0.2615 0.5060
vn -0.8944 -0.0000 0.4472
vn -0.6805 -0.6940 -0.2353
vn -0.8703 -0.4327 -0.2353
vn -0.8090 -0.5878 0.0028
vn -0.9511 -0.3090 -0.0000
vn -0.5878 -0.8090 -0.0000
vn -0.8588 -0.4417 0.2595
vn -0.9584 -0.1615 0.2353
vn -0.6855 -0.6803 0.2595
vn -0.4497 -0.8616 0.2353
vn -0.8219 -0.2615 0.5060
vn -0.6882 -0.5000 0.5257
vn -0.5027 -0.7009 0.5060
vn -0.2764 -0.8507 0.4472
vn 0.4497 -0.8616 -0.2353
vn 0.1426 -0.9614 -0.2353
vn 0.3090 -0.9511 0.0027
vn 0.0000 -1.0000 -0.0000
vn 0.5878 -0.8090 -0.0000
vn 0.1547 -0.9533 0.2595
vn -0.1426 -0.9614 0.2353
vn 0.4351 -0.8622 0.2595
vn 0.6805 -0.6940 0.2353
vn -0.0053 -0.8625 0.5060
vn 0.2629 -0.8090 0.5257
vn 0.5112 -0.6947 0.5060
vn 0.8090 0.5878 -0.0027
vn 0.6855 0.6803 -0.2595
vn 0.8588 0.4417 -0.2595
vn -0.3090 0.9511 -0.0027
vn -0.4351 0.8622 -0.2595
vn -0.1547 0.9533 -0.2595
vn -1.0000 -0.0000 -0.0028
vn -0.9544 -0.1474 -0.2595
vn -0.9544 0.1474 -0.2595
vn -0.3090 -0.9511 -0.0027
vn -0.1547 -0.9533 -0.2595
vn -0.4351 -0.8622 -0.2595
vn 0.8090 -0.5878 -0.0027
vn 0.8588 -0.4417 -0.2595
vn 0.6855 -0.6803 -0.2595
vn 0.2195 0.1595 0.9625
vn -0.0838 0.2580 0.9625
vn -0.0000 -0.0000 1.0000
vn 0.1390 0.4277 0.8932
vn -0.1622 0.4993 0.8511
vn 0.4248 0.3086 0.8511
vn 0.0634 0.6722 0.7376
vn -0.2285 0.7032 0.6732
vn 0.3438 0.5811 0.7376
vn 0.5982 0.4346 0.6732
vn -0.2713 -0.0000 0.9625
vn -0.3638 0.2643 0.8932
vn -0.5250 -0.0000 0.8511
vn -0.6197 0.2680 0.7376
vn -0.7394 -0.0000 0.6732
vn -0.4464 0.5066 0.7376
vn -0.6197 0.2681 0.7376
vn -0.0838 -0.2580 0.9625
vn -0.3638 -0.2643 0.8932
vn -0.1622 -0.4993 0.8511
vn -0.4464 -0.5066 0.7376
vn -0.2285 -0.7032 0.6732
vn -0.6197 -0.2680 0.7376
vn 0.2195 -0.1595 0.9625
vn 0.1390 -0.4277 0.8932
vn 0.4248 -0.3086 0.8511
vn 0.3438 -0.5811 0.7376
vn 0.5982 -0.4346 0.6732
vn 0.0634 -0.6722 0.7376
vn 0.4497 -0.0000 0.8932
vn 0.6589 0.1474 0.7376
vn 0.6589 -0.1474 0.7376
usemtl Playfield
s 1
f 1/1/1 2/2/2 3/3/3
f 4/4/4 5/5/5 2/2/2
f 1/1/1 4/4/4 2/2/2
f 6/6/6 4/4/4 1/1/1
f 7/7/7 8/8/8 5/5/5
f 4/4/4 7/7/7 5/5/5
f 9/9/9 7/7/7 4/4/4
f 6/6/6 9/9/9 4/4/4
f 10/10/10 9/9/9 6/6/6
f 11/11/11 12/12/12 8/8/8
f 7/7/7 11/11/11 8/8/8
f 13/13/13 11/11/11 7/7/7
f 9/9/9 13/13/13 7/7/7
f 14/14/14 13/13/13 9/9/9
f 10/10/10 14/14/14 9/9/9
f 15/15/15 14/14/14 10/10/10
f 16/16/16 1/1/1 17/17/3
f 18/18/17 6/6/6 1/1/1
f 16/16/16 18/18/17 1/1/1
f 19/19/18 18/18/17 16/16/16
f 20/20/19 10/10/10 6/6/6
f 18/18/17 20/20/19 6/6/6
f 21/21/20 20/20/19 18/18/17
f 19/19/18 21/21/20 18/18/17
f 22/22/21 21/21/20 19/19/18
f 23/23/22 15/15/15 10/10/10
f 20/20/19 23/23/22 10/10/10
f 24/24/23 23/23/22 20/20/19
f 21/21/20 24/24/23 20/20/19
f 25/25/24 24/24/23 21/21/20
f 22/22/21 25/25/24 21/21/20
f 26/26/25 25/25/24 22/22/21
f 27/27/26 28/28/16 29/29/3
f 30/30/27 31/31/18 28/28/16
f 27/27/26 30/30/27 28/28/16
f 32/32/28 30/30/27 27/27/26
f 33/33/29 22/22/21 19/19/18
f 30/30/27 34/34/29 31/31/18
f 35/35/30 34/34/29 30/30/27
f 32/32/28 35/35/30 30/30/27
f 36/36/31 35/35/30 32/32/28
f 37/37/32 26/26/25 22/22/21
f 33/33/29 37/37/32 22/22/21
f 38/38/33 39/39/34 34/34/29
f 35/35/30 38/38/33 34/34/29
f 40/40/35 38/38/33 35/35/30
f 36/36/31 40/40/35 35/35/30
f 41/41/36 40/40/35 36/36/31
f 42/42/37 27/27/26 43/43/3
f 44/44/38 32/32/28 27/27/26
f 42/42/37 44/44/38 27/27/26
f 45/45/39 44/44/38 42/42/37
f 46/46/40 36/36/31 32/32/28
f 44/44/38 46/46/40 32/32/28
f 47/47/41 46/46/40 44/44/38
f 45/45/39 47/47/41 44/44/38
f 48/48/42 47/47/41 45/45/39
f 49/49/43 41/41/36 36/36/31
f 46/46/40 49/49/43 36/36/31
f 50/50/44 49/49/43 46/46/40
f 47/47/41 50/50/44 46/46/40
f 51/51/45 50/50/44 47/47/41
f 48/48/42 51/51/45 47/47/41
f 52/52/46 51/51/45 48/48/42
f 2/2/2 42/42/37 53/53/3
f 54/54/47 45/45/39 42/42/37
f 2/2/2 54/54/47 42/42/37
f 5/5/5 54/54/47 2/2/2
f 55/55/48 48/48/42 45/45/39
f 54/54/47 55/55/48 45/45/39
f 56/56/49 55/55/48 54/54/47
f 5/5/5 56/56/49 54/54/47
f 8/8/8 56/56/49 5/5/5
f 57/57/50 52/52/46 48/48/42
f 55/55/48 57/57/50 48/48/42
f 58/58/51 57/57/50 55/55/48
f 56/56/49 58/58/51 55/55/48
f 59/59/52 58/58/51 56/56/49
f 8/8/8 59/59/52 56/56/49
f 12/12/12 59/59/52 8/8/8
f 60/60/53 61/61/54 12/12/12
f 62/62/55 63/63/56 61/61/54
f 60/60/53 62/62/55 61/61/54
f 64/64/57 62/62/55 60/60/53
f 65/65/58 66/66/59 63/63/56
f 62/62/55 65/65/58 63/63/56
f 67/67/60 65/65/58 62/62/55
f 64/64/57 67/67/60 62/62/55
f 68/68/61 67/67/60 64/64/57
f 69/69/62 70/70/63 66/66/59
f 65/65/58 69/69/62 66/66/59
f 71/71/64 69/69/62 65/65/58
f 67/67/60 71/71/64 65/65/58
f 72/72/65 71/71/64 67/67/60
f 68/68/61 72/72/65 67/67/60
f 73/73/66 72/72/65 68/68/61
f 74/74/67 75/75/68 15/15/15
f 76/76/69 77/77/70 75/75/68
f 74/74/67 76/76/69 75/75/68
f 78/78/71 76/76/69 74/74/67
f 79/79/72 80/80/73 77/77/70
f 76/76/69 79/79/72 77/77/70
f 81/81/74 79/79/72 76/76/69
f 78/78/71 81/81/74 76/76/69
f 82/82/75 81/81/74 78/78/71
f 83/83/76 73/73/66 80/80/73
f 79/79/72 83/83/76 80/80/73
f 84/84/77 83/83/76 79/79/72
f 81/81/74 84/84/77 79/79/72
f 85/85/78 84/84/77 81/81/74
f 82/82/75 85/85/78 81/81/74
f 86/86/79 85/85/78 82/82/75
f 87/87/80 88/88/81 26/26/25
f 89/89/82 90/90/83 88/88/81
f 87/87/80 89/89/82 88/88/81
f 91/91/84 89/89/82 87/87/80
f 92/92/85 93/93/86 90/90/83
f 89/89/82 92/92/85 90/90/83
f 94/94/87 92/92/85 89/89/82
f 91/91/84 94/94/87 89/89/82
f 95/95/88 94/94/87 91/91/84
f 96/96/89 86/86/79 93/93/86
f 92/92/85 96/96/89 93/93/86
f 97/97/90 96/96/89 92/92/85
f 94/94/87 97/97/90 92/92/85
f 98/98/91 97/97/90 94/94/87
f 95/95/88 98/98/91 94/94/87
f 99/99/92 100/100/91 101/101/88
f 102/102/93 103/103/94 41/41/36
f 104/104/95 105/105/96 103/103/94
f 102/102/93 104/104/95 103/103/94
f 106/106/97 104/104/95 102/102/93
f 107/107/98 108/108/99 105/105/96
f 104/104/95 107/107/98 105/105/96
f 109/109/100 107/107/98 104/104/95
f 106/106/97 109/109/100 104/104/95
f 110/110/101 109/109/100 106/106/97
f 111/111/102 99/99/92 108/108/99
f 107/107/98 111/111/102 108/108/99
f 112/112/103 111/111/102 107/107/98
f 109/109/100 112/112/103 107/107/98
f 113/113/104 112/112/103 109/109/100
f 110/110/101 113/113/104 109/109/100
f 114/114/105 113/113/104 110/110/101
f 115/115/106 116/116/107 52/52/46
f 117/117/108 118/118/109 116/116/107
f 115/115/106 117/117/108 116/116/107
f 119/119/110 117/117/108 115/115/106
f 120/120/111 121/121/112 118/118/109
f 117/117/108 120/120/111 118/118/109
f 122/122/113 120/120/111 117/117/108
f 119/119/110 122/122/113 117/117/108
f 123/123/114 122/122/113 119/119/110
f 124/124/115 114/114/105 121/121/112
f 120/120/111 124/124/115 121/121/112
f 125/125/116 124/124/115 120/120/111
f 122/122/113 125/125/116 120/120/111
f 126/126/117 125/125/116 122/122/113
f 123/123/114 126/126/117 122/122/113
f 70/70/63 126/126/117 123/123/114
f 68/68/61 80/80/73 73/73/66
f 127/127/118 77/77/70 80/80/73
f 68/68/61 127/127/118 80/80/73
f 64/64/57 127/127/118 68/68/61
f 128/128/119 75/75/68 77/77/70
f 127/127/118 128/128/119 77/77/70
f 129/129/120 128/128/119 127/127/118
f 64/64/57 129/129/120 127/127/118
f 60/60/53 129/129/120 64/64/57
f 14/14/14 15/15/15 75/75/68
f 128/128/119 14/14/14 75/75/68
f 13/13/13 14/14/14 128/128/119
f 129/129/120 13/13/13 128/128/119
f 11/11/11 13/13/13 129/129/120
f 60/60/53 11/11/11 129/129/120
f 12/12/12 11/11/11 60/60/53
f 82/82/75 93/93/86 86/86/79
f 130/130/121 90/90/83 93/93/86
f 82/82/75 130/130/121 93/93/86
f 78/78/71 130/130/121 82/82/75
f 131/131/122 88/88/81 90/90/83
f 130/130/121 131/131/122 90/90/83
f 132/132/123 131/131/122 130/130/121
f 78/78/71 132/132/123 130/130/121
f 74/74/67 132/132/123 78/78/71
f 25/25/24 26/26/25 88/88/81
f 131/131/122 25/25/24 88/88/81
f 24/24/23 25/25/24 131/131/122
f 132/132/123 24/24/23 131/131/122
f 23/23/22 24/24/23 132/132/123
f 74/74/67 23/23/22 132/132/123
f 15/15/15 23/23/22 74/74/67
f 101/101/88 108/108/99 99/99/92
f 133/133/124 105/105/96 108/108/99
f 101/101/88 133/133/124 108/108/99
f 134/134/84 133/133/124 101/101/88
f 135/135/125 103/103/94 105/105/96
f 133/133/124 135/135/125 105/105/96
f 136/136/126 135/135/125 133/133/124
f 134/134/84 136/136/126 133/133/124
f 87/87/80 137/137/126 91/91/84
f 40/40/35 41/41/36 103/103/94
f 135/135/125 40/40/35 103/103/94
f 38/38/33 40/40/35 135/135/125
f 136/136/126 38/38/33 135/135/125
f 39/39/34 38/38/33 136/136/126
f 87/87/80 37/37/32 137/137/126
f 26/26/25 37/37/32 87/87/80
f 110/110/101 121/121/112 114/114/105
f 138/138/127 118/118/109 121/121/112
f 110/110/101 138/138/127 121/121/112
f 106/106/97 138/138/127 110/110/101
f 139/139/128 116/116/107 118/118/109
f 138/138/127 139/139/128 118/118/109
f 140/140/129 139/139/128 138/138/127
f 106/106/97 140/140/129 138/138/127
f 102/102/93 140/140/129 106/106/97
f 51/51/45 52/52/46 116/116/107
f 139/139/128 51/51/45 116/116/107
f 50/50/44 51/51/45 139/139/128
f 140/140/129 50/50/44 139/139/128
f 49/49/43 50/50/44 140/140/129
f 102/102/93 49/49/43 140/140/129
f 41/41/36 49/49/43 102/102/93
f 123/123/114 66/66/59 70/70/63
f 141/141/130 63/63/56 66/66/59
f 123/123/114 141/141/130 66/66/59
f 119/119/110 141/141/130 123/123/114
f 142/142/131 61/61/54 63/63/56
f 141/141/130 142/142/131 63/63/56
f 143/143/132 142/142/131 141/141/130
f 119/119/110 143/143/132 141/141/130
f 115/115/106 143/143/132 119/119/110
f 59/59/52 12/12/12 61/61/54
f 142/142/131 59/59/52 61/61/54
f 58/58/51 59/59/52 142/142/131
f 143/143/132 58/58/51 142/142/131
f 57/57/50 58/58/51 143/143/132
f 115/115/106 57/57/50 143/143/132
f 52/52/46 57/57/50 115/115/106
f 144/144/133 145/145/134 146/146/135
f 147/147/136 148/148/137 145/145/134
f 144/144/133 147/147/136 145/145/134
f 149/149/138 147/147/136 144/144/133
f 150/150/139 151/151/140 148/148/137
f 147/147/136 150/150/139 148/148/137
f 152/152/141 150/150/139 147/147/136
f 149/149/138 152/152/141 147/147/136
f 153/153/142 152/152/141 149/149/138
f 85/85/78 86/86/79 151/151/140
f 150/150/139 85/85/78 151/151/140
f 84/84/77 85/85/78 150/150/139
f 152/152/141 84/84/77 150/150/139
f 83/83/76 84/84/77 152/152/141
f 153/153/142 83/83/76 152/152/141
f 73/73/66 83/83/76 153/153/142
f 154/154/134 155/155/143 156/156/135
f 157/157/144 158/158/145 155/155/143
f 154/154/134 157/157/144 155/155/143
f 148/148/137 159/159/144 145/145/134
f 160/160/146 161/161/147 158/158/145
f 157/157/144 160/160/146 158/158/145
f 162/162/148 163/163/149 159/159/144
f 148/148/137 162/162/148 159/159/144
f 151/151/140 162/162/148 148/148/137
f 100/100/91 99/99/92 161/161/147
f 160/160/146 100/100/91 161/161/147
f 97/97/90 98/98/91 163/163/149
f 162/162/148 97/97/90 163/163/149
f 96/96/89 97/97/90 162/162/148
f 151/151/140 96/96/89 162/162/148
f 86/86/79 96/96/89 151/151/140
f 155/155/143 164/164/150 165/165/135
f 166/166/151 167/167/152 164/164/150
f 155/155/143 166/166/151 164/164/150
f 158/158/145 166/166/151 155/155/143
f 168/168/153 169/169/154 167/167/152
f 166/166/151 168/168/153 167/167/152
f 170/170/155 168/168/153 166/166/151
f 158/158/145 170/170/155 166/166/151
f 161/161/147 170/170/155 158/158/145
f 113/113/104 114/114/105 169/169/154
f 168/168/153 113/113/104 169/169/154
f 112/112/103 113/113/104 168/168/153
f 170/170/155 112/112/103 168/168/153
f 111/111/102 112/112/103 170/170/155
f 161/161/147 111/111/102 170/170/155
f 99/99/92 111/111/102 161/161/147
f 164/164/150 171/171/156 172/172/135
f 173/173/157 174/174/158 171/171/156
f 164/164/150 173/173/157 171/171/156
f 167/167/152 173/173/157 164/164/150
f 175/175/159 176/176/160 174/174/158
f 173/173/157 175/175/159 174/174/158
f 177/177/161 175/175/159 173/173/157
f 167/167/152 177/177/161 173/173/157
f 169/169/154 177/177/161 167/167/152
f 126/126/117 70/70/63 176/176/160
f 175/175/159 126/126/117 176/176/160
f 125/125/116 126/126/117 175/175/159
f 177/177/161 125/125/116 175/175/159
f 124/124/115 125/125/116 177/177/161
f 169/169/154 124/124/115 177/177/161
f 114/114/105 124/124/115 169/169/154
f 171/171/156 144/144/133 178/178/135
f 179/179/162 149/149/138 144/144/133
f 171/171/156 179/179/162 144/144/133
f 174/174/158 179/179/162 171/171/156
f 180/180/163 153/153/142 149/149/138
f 179/179/162 180/180/163 149/149/138
f 181/181/164 180/180/163 179/179/162
f 174/174/158 181/181/164 179/179/162
f 176/176/160 181/181/164 174/174/158
f 72/72/65 73/73/66 153/153/142
f 180/180/163 72/72/65 153/153/142
f 71/71/64 72/72/65 180/180/163
f 181/181/164 71/71/64 180/180/163
f 69/69/62 71/71/64 181/181/164
f 176/176/160 69/69/62 181/181/164
f 70/70/63 69/69/62 176/176/160
